<svg width="330" height="411" viewBox="0 0 330 411" fill="none" xmlns="http://www.w3.org/2000/svg">
<path fill-rule="evenodd" clip-rule="evenodd" d="M289.39 35.5522L408.298 15.7577L484.894 108.837L289.39 35.5522ZM263.823 25.9683L262.772 25.5742L261.905 26.2877L108.806 51.774L0.268477 341.322L196.756 580.093L501.78 529.315L610.318 239.767L512.91 121.397L512.545 119.202L510.461 118.421L413.831 0.996501L263.823 25.9683ZM517.394 148.331L552.027 356.376L594.768 242.356L517.394 148.331ZM536.034 399.042L367.351 537.854L491.763 517.143L536.034 399.042ZM329.792 544.106L120.155 465.523L202.289 565.331L329.792 544.106ZM97.1745 437.597L60.7589 218.846L15.8187 338.733L97.1745 437.597ZM75.4123 179.754L118.823 63.9466L240.821 43.6375L75.4123 179.754ZM176.558 132.243L253.265 119.474L149.263 205.058L176.558 132.243ZM170.157 119.469L274.349 102.124L275.523 101.158L276.946 101.692L380.811 84.4012L265.36 41.1244L170.157 119.469ZM165.255 123.502L71.5622 200.603L91.4871 320.294L165.255 123.502ZM92.9916 329.331L112.776 448.177L225.591 490.466L92.9916 329.331ZM233.942 493.596L347.788 536.272L441.668 459.016L233.942 493.596ZM446.194 455.292L541.586 376.793L521.3 254.932L446.194 455.292ZM520.799 251.925L500.372 129.219L383.892 85.5563L450.799 166.861L451.754 167.219L451.921 168.225L520.799 251.925ZM377.152 98.8504L425.231 157.277L302.513 111.275L377.152 98.8504ZM478.768 329.499L456.405 195.159L506.367 255.873L478.768 329.499ZM352.437 460.03L464.364 367.924L434.99 446.288L352.437 460.03ZM234.396 479.681L179.887 413.441L319.017 465.594L234.396 479.681ZM134.252 245.106L157.808 386.611L105.181 322.658L134.252 245.106ZM278.111 116.708L144.958 226.282L173.275 396.382L334.745 456.91L467.898 347.336L439.581 177.236L278.111 116.708Z" fill="white" fill-opacity="0.3"/>
</svg>
