<svg width="268" height="67" viewBox="0 0 268 67" fill="none" xmlns="http://www.w3.org/2000/svg">
<ellipse cx="1.54023" cy="1.72305" rx="1.54023" ry="1.45059" fill="#BF98F7"/>
<ellipse cx="7.69941" cy="1.72305" rx="1.54023" ry="1.45059" fill="#BF98F7"/>
<ellipse cx="13.8644" cy="1.72305" rx="1.54023" ry="1.45059" fill="#BF98F7"/>
<ellipse cx="20.0236" cy="1.72305" rx="1.54023" ry="1.45059" fill="#BF98F7"/>
<ellipse cx="26.1828" cy="1.72305" rx="1.54023" ry="1.45059" fill="#BF98F7"/>
<ellipse cx="32.3474" cy="1.72305" rx="1.54023" ry="1.45059" fill="#BF98F7"/>
<ellipse cx="38.5065" cy="1.72305" rx="1.54023" ry="1.45059" fill="#BF98F7"/>
<ellipse cx="44.6657" cy="1.72305" rx="1.54023" ry="1.45059" fill="#BF98F7"/>
<ellipse cx="50.8249" cy="1.72305" rx="1.54023" ry="1.45059" fill="#BF98F7"/>
<ellipse cx="56.9899" cy="1.72305" rx="1.54023" ry="1.45059" fill="#BF98F7"/>
<ellipse cx="63.1496" cy="1.72305" rx="1.54023" ry="1.45059" fill="#BF98F7"/>
<ellipse cx="69.3088" cy="1.72305" rx="1.54023" ry="1.45059" fill="#BF98F7"/>
<ellipse cx="75.4738" cy="1.72305" rx="1.54023" ry="1.45059" fill="#BF98F7"/>
<ellipse cx="81.632" cy="1.72305" rx="1.54023" ry="1.45059" fill="#BF98F7"/>
<ellipse cx="87.7912" cy="1.72305" rx="1.54023" ry="1.45059" fill="#BF98F7"/>
<ellipse cx="93.9567" cy="1.72305" rx="1.54023" ry="1.45059" fill="#BF98F7"/>
<ellipse cx="100.116" cy="1.72305" rx="1.54023" ry="1.45059" fill="#BF98F7"/>
<ellipse cx="106.275" cy="1.72305" rx="1.54023" ry="1.45059" fill="#BF98F7"/>
<ellipse cx="112.434" cy="1.72305" rx="1.54023" ry="1.45059" fill="#BF98F7"/>
<ellipse cx="118.599" cy="1.72305" rx="1.54023" ry="1.45059" fill="#BF98F7"/>
<ellipse cx="124.758" cy="1.72305" rx="1.54023" ry="1.45059" fill="#BF98F7"/>
<ellipse cx="130.918" cy="1.72305" rx="1.54023" ry="1.45059" fill="#BF98F7"/>
<ellipse cx="137.082" cy="1.72305" rx="1.54023" ry="1.45059" fill="#BF98F7"/>
<ellipse cx="143.241" cy="1.72305" rx="1.54023" ry="1.45059" fill="#BF98F7"/>
<ellipse cx="149.401" cy="1.72305" rx="1.54023" ry="1.45059" fill="#BF98F7"/>
<ellipse cx="155.566" cy="1.72305" rx="1.54023" ry="1.45059" fill="#BF98F7"/>
<ellipse cx="161.725" cy="1.72305" rx="1.54023" ry="1.45059" fill="#BF98F7"/>
<ellipse cx="167.884" cy="1.72305" rx="1.54023" ry="1.45059" fill="#BF98F7"/>
<ellipse cx="174.05" cy="1.72305" rx="1.54023" ry="1.45059" fill="#BF98F7"/>
<ellipse cx="180.209" cy="1.72305" rx="1.54023" ry="1.45059" fill="#BF98F7"/>
<ellipse cx="186.367" cy="1.72305" rx="1.54023" ry="1.45059" fill="#BF98F7"/>
<ellipse cx="192.526" cy="1.72305" rx="1.54023" ry="1.45059" fill="#BF98F7"/>
<ellipse cx="198.691" cy="1.72305" rx="1.54023" ry="1.45059" fill="#BF98F7"/>
<ellipse cx="204.85" cy="1.72305" rx="1.54023" ry="1.45059" fill="#BF98F7"/>
<ellipse cx="211.01" cy="1.72305" rx="1.54023" ry="1.45059" fill="#BF98F7"/>
<ellipse cx="217.175" cy="1.72305" rx="1.54023" ry="1.45059" fill="#BF98F7"/>
<ellipse cx="223.334" cy="1.72305" rx="1.54023" ry="1.45059" fill="#BF98F7"/>
<ellipse cx="229.493" cy="1.72305" rx="1.54023" ry="1.45059" fill="#BF98F7"/>
<ellipse cx="235.657" cy="1.72305" rx="1.54023" ry="1.45059" fill="#BF98F7"/>
<ellipse cx="241.817" cy="1.72305" rx="1.54023" ry="1.45059" fill="#BF98F7"/>
<ellipse cx="247.976" cy="1.72305" rx="1.54023" ry="1.45059" fill="#BF98F7"/>
<ellipse cx="254.135" cy="1.72305" rx="1.54023" ry="1.45059" fill="#BF98F7"/>
<ellipse cx="260.3" cy="1.72305" rx="1.54023" ry="1.45059" fill="#BF98F7"/>
<ellipse cx="266.46" cy="1.72305" rx="1.54023" ry="1.45059" fill="#BF98F7"/>
<ellipse cx="1.54023" cy="7.52515" rx="1.54023" ry="1.45059" fill="#BF98F7"/>
<ellipse cx="7.69941" cy="7.52515" rx="1.54023" ry="1.45059" fill="#BF98F7"/>
<ellipse cx="13.8644" cy="7.52515" rx="1.54023" ry="1.45059" fill="#BF98F7"/>
<ellipse cx="20.0236" cy="7.52515" rx="1.54023" ry="1.45059" fill="#BF98F7"/>
<ellipse cx="26.1828" cy="7.52515" rx="1.54023" ry="1.45059" fill="#BF98F7"/>
<ellipse cx="32.343" cy="7.52515" rx="1.54023" ry="1.45059" fill="#BF98F7"/>
<ellipse cx="38.5065" cy="7.52515" rx="1.54023" ry="1.45059" fill="#BF98F7"/>
<ellipse cx="44.6657" cy="7.52515" rx="1.54023" ry="1.45059" fill="#BF98F7"/>
<ellipse cx="50.8249" cy="7.52515" rx="1.54023" ry="1.45059" fill="#BF98F7"/>
<ellipse cx="56.9899" cy="7.52515" rx="1.54023" ry="1.45059" fill="#BF98F7"/>
<ellipse cx="63.1496" cy="7.52515" rx="1.54023" ry="1.45059" fill="#BF98F7"/>
<ellipse cx="69.3088" cy="7.52515" rx="1.54023" ry="1.45059" fill="#BF98F7"/>
<ellipse cx="75.4738" cy="7.52515" rx="1.54023" ry="1.45059" fill="#BF98F7"/>
<ellipse cx="81.632" cy="7.52515" rx="1.54023" ry="1.45059" fill="#BF98F7"/>
<ellipse cx="87.7912" cy="7.52515" rx="1.54023" ry="1.45059" fill="#BF98F7"/>
<ellipse cx="93.9567" cy="7.52515" rx="1.54023" ry="1.45059" fill="#BF98F7"/>
<ellipse cx="100.116" cy="7.52515" rx="1.54023" ry="1.45059" fill="#BF98F7"/>
<ellipse cx="106.275" cy="7.52515" rx="1.54023" ry="1.45059" fill="#BF98F7"/>
<ellipse cx="112.434" cy="7.52515" rx="1.54023" ry="1.45059" fill="#BF98F7"/>
<ellipse cx="118.599" cy="7.52515" rx="1.54023" ry="1.45059" fill="#BF98F7"/>
<ellipse cx="124.758" cy="7.52515" rx="1.54023" ry="1.45059" fill="#BF98F7"/>
<ellipse cx="130.918" cy="7.52515" rx="1.54023" ry="1.45059" fill="#BF98F7"/>
<ellipse cx="137.082" cy="7.52515" rx="1.54023" ry="1.45059" fill="#BF98F7"/>
<ellipse cx="143.241" cy="7.52515" rx="1.54023" ry="1.45059" fill="#BF98F7"/>
<ellipse cx="149.401" cy="7.52515" rx="1.54023" ry="1.45059" fill="#BF98F7"/>
<ellipse cx="155.566" cy="7.52515" rx="1.54023" ry="1.45059" fill="#BF98F7"/>
<ellipse cx="161.725" cy="7.52515" rx="1.54023" ry="1.45059" fill="#BF98F7"/>
<ellipse cx="167.884" cy="7.52515" rx="1.54023" ry="1.45059" fill="#BF98F7"/>
<ellipse cx="174.043" cy="7.52515" rx="1.54023" ry="1.45059" fill="#BF98F7"/>
<ellipse cx="180.209" cy="7.52515" rx="1.54023" ry="1.45059" fill="#BF98F7"/>
<ellipse cx="186.367" cy="7.52515" rx="1.54023" ry="1.45059" fill="#BF98F7"/>
<ellipse cx="192.526" cy="7.52515" rx="1.54023" ry="1.45059" fill="#BF98F7"/>
<ellipse cx="198.691" cy="7.52515" rx="1.54023" ry="1.45059" fill="#BF98F7"/>
<ellipse cx="204.85" cy="7.52515" rx="1.54023" ry="1.45059" fill="#BF98F7"/>
<ellipse cx="211.01" cy="7.52515" rx="1.54023" ry="1.45059" fill="#BF98F7"/>
<ellipse cx="217.175" cy="7.52515" rx="1.54023" ry="1.45059" fill="#BF98F7"/>
<ellipse cx="223.334" cy="7.52515" rx="1.54023" ry="1.45059" fill="#BF98F7"/>
<ellipse cx="229.493" cy="7.52515" rx="1.54023" ry="1.45059" fill="#BF98F7"/>
<ellipse cx="235.657" cy="7.52515" rx="1.54023" ry="1.45059" fill="#BF98F7"/>
<ellipse cx="241.817" cy="7.52515" rx="1.54023" ry="1.45059" fill="#BF98F7"/>
<ellipse cx="247.976" cy="7.52515" rx="1.54023" ry="1.45059" fill="#BF98F7"/>
<ellipse cx="254.135" cy="7.52515" rx="1.54023" ry="1.45059" fill="#BF98F7"/>
<ellipse cx="260.3" cy="7.52515" rx="1.54023" ry="1.45059" fill="#BF98F7"/>
<ellipse cx="266.46" cy="7.52515" rx="1.54023" ry="1.45059" fill="#BF98F7"/>
<ellipse cx="1.54023" cy="13.3272" rx="1.54023" ry="1.45059" fill="#BF98F7"/>
<ellipse cx="7.69941" cy="13.3272" rx="1.54023" ry="1.45059" fill="#BF98F7"/>
<ellipse cx="13.8644" cy="13.3272" rx="1.54023" ry="1.45059" fill="#BF98F7"/>
<ellipse cx="20.0236" cy="13.3272" rx="1.54023" ry="1.45059" fill="#BF98F7"/>
<ellipse cx="26.1828" cy="13.3272" rx="1.54023" ry="1.45059" fill="#BF98F7"/>
<ellipse cx="32.343" cy="13.3272" rx="1.54023" ry="1.45059" fill="#BF98F7"/>
<ellipse cx="38.5065" cy="13.3272" rx="1.54023" ry="1.45059" fill="#BF98F7"/>
<ellipse cx="44.6657" cy="13.3272" rx="1.54023" ry="1.45059" fill="#BF98F7"/>
<ellipse cx="50.8249" cy="13.3272" rx="1.54023" ry="1.45059" fill="#BF98F7"/>
<ellipse cx="56.9899" cy="13.3272" rx="1.54023" ry="1.45059" fill="#BF98F7"/>
<ellipse cx="63.1496" cy="13.3272" rx="1.54023" ry="1.45059" fill="#BF98F7"/>
<ellipse cx="69.3088" cy="13.3272" rx="1.54023" ry="1.45059" fill="#BF98F7"/>
<ellipse cx="75.4738" cy="13.3272" rx="1.54023" ry="1.45059" fill="#BF98F7"/>
<ellipse cx="81.632" cy="13.3272" rx="1.54023" ry="1.45059" fill="#BF98F7"/>
<ellipse cx="87.7912" cy="13.3272" rx="1.54023" ry="1.45059" fill="#BF98F7"/>
<ellipse cx="93.9567" cy="13.3272" rx="1.54023" ry="1.45059" fill="#BF98F7"/>
<ellipse cx="100.116" cy="13.3272" rx="1.54023" ry="1.45059" fill="#BF98F7"/>
<ellipse cx="106.275" cy="13.3272" rx="1.54023" ry="1.45059" fill="#BF98F7"/>
<ellipse cx="112.434" cy="13.3272" rx="1.54023" ry="1.45059" fill="#BF98F7"/>
<ellipse cx="118.599" cy="13.3272" rx="1.54023" ry="1.45059" fill="#BF98F7"/>
<ellipse cx="124.758" cy="13.3272" rx="1.54023" ry="1.45059" fill="#BF98F7"/>
<ellipse cx="130.918" cy="13.3272" rx="1.54023" ry="1.45059" fill="#BF98F7"/>
<ellipse cx="137.082" cy="13.3272" rx="1.54023" ry="1.45059" fill="#BF98F7"/>
<ellipse cx="143.241" cy="13.3272" rx="1.54023" ry="1.45059" fill="#BF98F7"/>
<ellipse cx="149.401" cy="13.3272" rx="1.54023" ry="1.45059" fill="#BF98F7"/>
<ellipse cx="155.566" cy="13.3272" rx="1.54023" ry="1.45059" fill="#BF98F7"/>
<ellipse cx="161.725" cy="13.3272" rx="1.54023" ry="1.45059" fill="#BF98F7"/>
<ellipse cx="167.884" cy="13.3272" rx="1.54023" ry="1.45059" fill="#BF98F7"/>
<ellipse cx="174.043" cy="13.3272" rx="1.54023" ry="1.45059" fill="#BF98F7"/>
<ellipse cx="180.209" cy="13.3272" rx="1.54023" ry="1.45059" fill="#BF98F7"/>
<ellipse cx="186.367" cy="13.3272" rx="1.54023" ry="1.45059" fill="#BF98F7"/>
<ellipse cx="192.526" cy="13.3272" rx="1.54023" ry="1.45059" fill="#BF98F7"/>
<ellipse cx="198.691" cy="13.3272" rx="1.54023" ry="1.45059" fill="#BF98F7"/>
<ellipse cx="204.85" cy="13.3272" rx="1.54023" ry="1.45059" fill="#BF98F7"/>
<ellipse cx="211.01" cy="13.3272" rx="1.54023" ry="1.45059" fill="#BF98F7"/>
<ellipse cx="217.175" cy="13.3272" rx="1.54023" ry="1.45059" fill="#BF98F7"/>
<ellipse cx="223.334" cy="13.3272" rx="1.54023" ry="1.45059" fill="#BF98F7"/>
<ellipse cx="229.493" cy="13.3272" rx="1.54023" ry="1.45059" fill="#BF98F7"/>
<ellipse cx="235.657" cy="13.3272" rx="1.54023" ry="1.45059" fill="#BF98F7"/>
<ellipse cx="241.817" cy="13.3272" rx="1.54023" ry="1.45059" fill="#BF98F7"/>
<ellipse cx="247.976" cy="13.3272" rx="1.54023" ry="1.45059" fill="#BF98F7"/>
<ellipse cx="254.135" cy="13.3272" rx="1.54023" ry="1.45059" fill="#BF98F7"/>
<ellipse cx="260.3" cy="13.3272" rx="1.54023" ry="1.45059" fill="#BF98F7"/>
<ellipse cx="266.46" cy="13.3272" rx="1.54023" ry="1.45059" fill="#BF98F7"/>
<ellipse cx="1.54023" cy="19.131" rx="1.54023" ry="1.45059" fill="#BF98F7"/>
<ellipse cx="7.69941" cy="19.131" rx="1.54023" ry="1.45059" fill="#BF98F7"/>
<ellipse cx="13.8644" cy="19.131" rx="1.54023" ry="1.45059" fill="#BF98F7"/>
<ellipse cx="20.0236" cy="19.131" rx="1.54023" ry="1.45059" fill="#BF98F7"/>
<ellipse cx="26.1828" cy="19.131" rx="1.54023" ry="1.45059" fill="#BF98F7"/>
<ellipse cx="32.343" cy="19.131" rx="1.54023" ry="1.45059" fill="#BF98F7"/>
<ellipse cx="38.5065" cy="19.131" rx="1.54023" ry="1.45059" fill="#BF98F7"/>
<ellipse cx="44.6657" cy="19.131" rx="1.54023" ry="1.45059" fill="#BF98F7"/>
<ellipse cx="50.8249" cy="19.131" rx="1.54023" ry="1.45059" fill="#BF98F7"/>
<ellipse cx="56.9899" cy="19.131" rx="1.54023" ry="1.45059" fill="#BF98F7"/>
<ellipse cx="63.1496" cy="19.131" rx="1.54023" ry="1.45059" fill="#BF98F7"/>
<ellipse cx="69.3088" cy="19.131" rx="1.54023" ry="1.45059" fill="#BF98F7"/>
<ellipse cx="75.4738" cy="19.131" rx="1.54023" ry="1.45059" fill="#BF98F7"/>
<ellipse cx="81.632" cy="19.131" rx="1.54023" ry="1.45059" fill="#BF98F7"/>
<ellipse cx="87.7912" cy="19.131" rx="1.54023" ry="1.45059" fill="#BF98F7"/>
<ellipse cx="93.9567" cy="19.131" rx="1.54023" ry="1.45059" fill="#BF98F7"/>
<ellipse cx="100.116" cy="19.131" rx="1.54023" ry="1.45059" fill="#BF98F7"/>
<ellipse cx="106.275" cy="19.131" rx="1.54023" ry="1.45059" fill="#BF98F7"/>
<ellipse cx="112.434" cy="19.131" rx="1.54023" ry="1.45059" fill="#BF98F7"/>
<ellipse cx="118.599" cy="19.131" rx="1.54023" ry="1.45059" fill="#BF98F7"/>
<ellipse cx="124.758" cy="19.131" rx="1.54023" ry="1.45059" fill="#BF98F7"/>
<ellipse cx="130.918" cy="19.131" rx="1.54023" ry="1.45059" fill="#BF98F7"/>
<ellipse cx="137.082" cy="19.131" rx="1.54023" ry="1.45059" fill="#BF98F7"/>
<ellipse cx="143.241" cy="19.131" rx="1.54023" ry="1.45059" fill="#BF98F7"/>
<ellipse cx="149.401" cy="19.131" rx="1.54023" ry="1.45059" fill="#BF98F7"/>
<ellipse cx="155.566" cy="19.131" rx="1.54023" ry="1.45059" fill="#BF98F7"/>
<ellipse cx="161.725" cy="19.131" rx="1.54023" ry="1.45059" fill="#BF98F7"/>
<ellipse cx="167.884" cy="19.131" rx="1.54023" ry="1.45059" fill="#BF98F7"/>
<ellipse cx="174.043" cy="19.131" rx="1.54023" ry="1.45059" fill="#BF98F7"/>
<ellipse cx="180.209" cy="19.131" rx="1.54023" ry="1.45059" fill="#BF98F7"/>
<ellipse cx="186.367" cy="19.131" rx="1.54023" ry="1.45059" fill="#BF98F7"/>
<ellipse cx="192.526" cy="19.131" rx="1.54023" ry="1.45059" fill="#BF98F7"/>
<ellipse cx="198.691" cy="19.131" rx="1.54023" ry="1.45059" fill="#BF98F7"/>
<ellipse cx="204.85" cy="19.131" rx="1.54023" ry="1.45059" fill="#BF98F7"/>
<ellipse cx="211.01" cy="19.131" rx="1.54023" ry="1.45059" fill="#BF98F7"/>
<ellipse cx="217.175" cy="19.131" rx="1.54023" ry="1.45059" fill="#BF98F7"/>
<ellipse cx="223.334" cy="19.131" rx="1.54023" ry="1.45059" fill="#BF98F7"/>
<ellipse cx="229.493" cy="19.131" rx="1.54023" ry="1.45059" fill="#BF98F7"/>
<ellipse cx="235.657" cy="19.131" rx="1.54023" ry="1.45059" fill="#BF98F7"/>
<ellipse cx="241.817" cy="19.131" rx="1.54023" ry="1.45059" fill="#BF98F7"/>
<ellipse cx="247.976" cy="19.131" rx="1.54023" ry="1.45059" fill="#BF98F7"/>
<ellipse cx="254.135" cy="19.131" rx="1.54023" ry="1.45059" fill="#BF98F7"/>
<ellipse cx="260.3" cy="19.131" rx="1.54023" ry="1.45059" fill="#BF98F7"/>
<ellipse cx="266.46" cy="19.131" rx="1.54023" ry="1.45059" fill="#BF98F7"/>
<ellipse cx="1.54023" cy="24.9331" rx="1.54023" ry="1.45059" fill="#BF98F7"/>
<ellipse cx="7.69941" cy="24.9331" rx="1.54023" ry="1.45059" fill="#BF98F7"/>
<ellipse cx="13.8644" cy="24.9331" rx="1.54023" ry="1.45059" fill="#BF98F7"/>
<ellipse cx="20.0236" cy="24.9331" rx="1.54023" ry="1.45059" fill="#BF98F7"/>
<ellipse cx="26.1828" cy="24.9331" rx="1.54023" ry="1.45059" fill="#BF98F7"/>
<ellipse cx="32.343" cy="24.9331" rx="1.54023" ry="1.45059" fill="#BF98F7"/>
<ellipse cx="38.5065" cy="24.9331" rx="1.54023" ry="1.45059" fill="#BF98F7"/>
<ellipse cx="44.6657" cy="24.9331" rx="1.54023" ry="1.45059" fill="#BF98F7"/>
<ellipse cx="50.8249" cy="24.9331" rx="1.54023" ry="1.45059" fill="#BF98F7"/>
<ellipse cx="56.9899" cy="24.9331" rx="1.54023" ry="1.45059" fill="#BF98F7"/>
<ellipse cx="63.1496" cy="24.9331" rx="1.54023" ry="1.45059" fill="#BF98F7"/>
<ellipse cx="69.3088" cy="24.9331" rx="1.54023" ry="1.45059" fill="#BF98F7"/>
<ellipse cx="75.4738" cy="24.9331" rx="1.54023" ry="1.45059" fill="#BF98F7"/>
<ellipse cx="81.632" cy="24.9331" rx="1.54023" ry="1.45059" fill="#BF98F7"/>
<ellipse cx="87.7912" cy="24.9331" rx="1.54023" ry="1.45059" fill="#BF98F7"/>
<ellipse cx="93.9567" cy="24.9331" rx="1.54023" ry="1.45059" fill="#BF98F7"/>
<ellipse cx="100.116" cy="24.9331" rx="1.54023" ry="1.45059" fill="#BF98F7"/>
<ellipse cx="106.275" cy="24.9331" rx="1.54023" ry="1.45059" fill="#BF98F7"/>
<ellipse cx="112.434" cy="24.9331" rx="1.54023" ry="1.45059" fill="#BF98F7"/>
<ellipse cx="118.599" cy="24.9331" rx="1.54023" ry="1.45059" fill="#BF98F7"/>
<ellipse cx="124.758" cy="24.9331" rx="1.54023" ry="1.45059" fill="#BF98F7"/>
<ellipse cx="130.918" cy="24.9331" rx="1.54023" ry="1.45059" fill="#BF98F7"/>
<ellipse cx="137.082" cy="24.9331" rx="1.54023" ry="1.45059" fill="#BF98F7"/>
<ellipse cx="143.241" cy="24.9331" rx="1.54023" ry="1.45059" fill="#BF98F7"/>
<ellipse cx="149.401" cy="24.9331" rx="1.54023" ry="1.45059" fill="#BF98F7"/>
<ellipse cx="155.566" cy="24.9331" rx="1.54023" ry="1.45059" fill="#BF98F7"/>
<ellipse cx="161.725" cy="24.9331" rx="1.54023" ry="1.45059" fill="#BF98F7"/>
<ellipse cx="167.884" cy="24.9331" rx="1.54023" ry="1.45059" fill="#BF98F7"/>
<ellipse cx="174.043" cy="24.9331" rx="1.54023" ry="1.45059" fill="#BF98F7"/>
<ellipse cx="180.209" cy="24.9331" rx="1.54023" ry="1.45059" fill="#BF98F7"/>
<ellipse cx="186.367" cy="24.9331" rx="1.54023" ry="1.45059" fill="#BF98F7"/>
<ellipse cx="192.526" cy="24.9331" rx="1.54023" ry="1.45059" fill="#BF98F7"/>
<ellipse cx="198.691" cy="24.9331" rx="1.54023" ry="1.45059" fill="#BF98F7"/>
<ellipse cx="204.85" cy="24.9331" rx="1.54023" ry="1.45059" fill="#BF98F7"/>
<ellipse cx="211.01" cy="24.9331" rx="1.54023" ry="1.45059" fill="#BF98F7"/>
<ellipse cx="217.175" cy="24.9331" rx="1.54023" ry="1.45059" fill="#BF98F7"/>
<ellipse cx="223.334" cy="24.9331" rx="1.54023" ry="1.45059" fill="#BF98F7"/>
<ellipse cx="229.493" cy="24.9331" rx="1.54023" ry="1.45059" fill="#BF98F7"/>
<ellipse cx="235.657" cy="24.9331" rx="1.54023" ry="1.45059" fill="#BF98F7"/>
<ellipse cx="241.817" cy="24.9331" rx="1.54023" ry="1.45059" fill="#BF98F7"/>
<ellipse cx="247.976" cy="24.9331" rx="1.54023" ry="1.45059" fill="#BF98F7"/>
<ellipse cx="254.135" cy="24.9331" rx="1.54023" ry="1.45059" fill="#BF98F7"/>
<ellipse cx="260.3" cy="24.9331" rx="1.54023" ry="1.45059" fill="#BF98F7"/>
<ellipse cx="266.46" cy="24.9331" rx="1.54023" ry="1.45059" fill="#BF98F7"/>
<ellipse cx="1.54023" cy="30.7352" rx="1.54023" ry="1.45059" fill="#BF98F7"/>
<ellipse cx="7.69941" cy="30.7352" rx="1.54023" ry="1.45059" fill="#BF98F7"/>
<ellipse cx="13.8644" cy="30.7352" rx="1.54023" ry="1.45059" fill="#BF98F7"/>
<ellipse cx="20.0236" cy="30.7352" rx="1.54023" ry="1.45059" fill="#BF98F7"/>
<ellipse cx="26.1828" cy="30.7352" rx="1.54023" ry="1.45059" fill="#BF98F7"/>
<ellipse cx="32.343" cy="30.7352" rx="1.54023" ry="1.45059" fill="#BF98F7"/>
<ellipse cx="38.5065" cy="30.7352" rx="1.54023" ry="1.45059" fill="#BF98F7"/>
<ellipse cx="44.6657" cy="30.7352" rx="1.54023" ry="1.45059" fill="#BF98F7"/>
<ellipse cx="50.8249" cy="30.7352" rx="1.54023" ry="1.45059" fill="#BF98F7"/>
<ellipse cx="56.9899" cy="30.7352" rx="1.54023" ry="1.45059" fill="#BF98F7"/>
<ellipse cx="63.1496" cy="30.7352" rx="1.54023" ry="1.45059" fill="#BF98F7"/>
<ellipse cx="69.3088" cy="30.7352" rx="1.54023" ry="1.45059" fill="#BF98F7"/>
<ellipse cx="75.4738" cy="30.7352" rx="1.54023" ry="1.45059" fill="#BF98F7"/>
<ellipse cx="81.632" cy="30.7352" rx="1.54023" ry="1.45059" fill="#BF98F7"/>
<ellipse cx="87.7912" cy="30.7352" rx="1.54023" ry="1.45059" fill="#BF98F7"/>
<ellipse cx="93.9567" cy="30.7352" rx="1.54023" ry="1.45059" fill="#BF98F7"/>
<ellipse cx="100.116" cy="30.7352" rx="1.54023" ry="1.45059" fill="#BF98F7"/>
<ellipse cx="106.275" cy="30.7352" rx="1.54023" ry="1.45059" fill="#BF98F7"/>
<ellipse cx="112.434" cy="30.7352" rx="1.54023" ry="1.45059" fill="#BF98F7"/>
<ellipse cx="118.599" cy="30.7352" rx="1.54023" ry="1.45059" fill="#BF98F7"/>
<ellipse cx="124.758" cy="30.7352" rx="1.54023" ry="1.45059" fill="#BF98F7"/>
<ellipse cx="130.918" cy="30.7352" rx="1.54023" ry="1.45059" fill="#BF98F7"/>
<ellipse cx="137.082" cy="30.7352" rx="1.54023" ry="1.45059" fill="#BF98F7"/>
<ellipse cx="143.241" cy="30.7352" rx="1.54023" ry="1.45059" fill="#BF98F7"/>
<ellipse cx="149.401" cy="30.7352" rx="1.54023" ry="1.45059" fill="#BF98F7"/>
<ellipse cx="155.566" cy="30.7352" rx="1.54023" ry="1.45059" fill="#BF98F7"/>
<ellipse cx="161.725" cy="30.7352" rx="1.54023" ry="1.45059" fill="#BF98F7"/>
<ellipse cx="167.884" cy="30.7352" rx="1.54023" ry="1.45059" fill="#BF98F7"/>
<ellipse cx="174.043" cy="30.7352" rx="1.54023" ry="1.45059" fill="#BF98F7"/>
<ellipse cx="180.209" cy="30.7352" rx="1.54023" ry="1.45059" fill="#BF98F7"/>
<ellipse cx="186.367" cy="30.7352" rx="1.54023" ry="1.45059" fill="#BF98F7"/>
<ellipse cx="192.526" cy="30.7352" rx="1.54023" ry="1.45059" fill="#BF98F7"/>
<ellipse cx="198.691" cy="30.7352" rx="1.54023" ry="1.45059" fill="#BF98F7"/>
<ellipse cx="204.85" cy="30.7352" rx="1.54023" ry="1.45059" fill="#BF98F7"/>
<ellipse cx="211.01" cy="30.7352" rx="1.54023" ry="1.45059" fill="#BF98F7"/>
<ellipse cx="217.175" cy="30.7352" rx="1.54023" ry="1.45059" fill="#BF98F7"/>
<ellipse cx="223.334" cy="30.7352" rx="1.54023" ry="1.45059" fill="#BF98F7"/>
<ellipse cx="229.493" cy="30.7352" rx="1.54023" ry="1.45059" fill="#BF98F7"/>
<ellipse cx="235.657" cy="30.7352" rx="1.54023" ry="1.45059" fill="#BF98F7"/>
<ellipse cx="241.817" cy="30.7352" rx="1.54023" ry="1.45059" fill="#BF98F7"/>
<ellipse cx="247.976" cy="30.7352" rx="1.54023" ry="1.45059" fill="#BF98F7"/>
<ellipse cx="254.135" cy="30.7352" rx="1.54023" ry="1.45059" fill="#BF98F7"/>
<ellipse cx="260.3" cy="30.7352" rx="1.54023" ry="1.45059" fill="#BF98F7"/>
<ellipse cx="266.46" cy="30.7352" rx="1.54023" ry="1.45059" fill="#BF98F7"/>
<ellipse cx="1.54023" cy="36.5373" rx="1.54023" ry="1.45059" fill="#BF98F7"/>
<ellipse cx="7.69941" cy="36.5373" rx="1.54023" ry="1.45059" fill="#BF98F7"/>
<ellipse cx="13.8644" cy="36.5373" rx="1.54023" ry="1.45059" fill="#BF98F7"/>
<ellipse cx="20.0236" cy="36.5373" rx="1.54023" ry="1.45059" fill="#BF98F7"/>
<ellipse cx="26.1828" cy="36.5373" rx="1.54023" ry="1.45059" fill="#BF98F7"/>
<ellipse cx="32.343" cy="36.5373" rx="1.54023" ry="1.45059" fill="#BF98F7"/>
<ellipse cx="38.5065" cy="36.5373" rx="1.54023" ry="1.45059" fill="#BF98F7"/>
<ellipse cx="44.6657" cy="36.5373" rx="1.54023" ry="1.45059" fill="#BF98F7"/>
<ellipse cx="50.8249" cy="36.5373" rx="1.54023" ry="1.45059" fill="#BF98F7"/>
<ellipse cx="56.9899" cy="36.5373" rx="1.54023" ry="1.45059" fill="#BF98F7"/>
<ellipse cx="63.1496" cy="36.5373" rx="1.54023" ry="1.45059" fill="#BF98F7"/>
<ellipse cx="69.3088" cy="36.5373" rx="1.54023" ry="1.45059" fill="#BF98F7"/>
<ellipse cx="75.4738" cy="36.5373" rx="1.54023" ry="1.45059" fill="#BF98F7"/>
<ellipse cx="81.632" cy="36.5373" rx="1.54023" ry="1.45059" fill="#BF98F7"/>
<ellipse cx="87.7912" cy="36.5373" rx="1.54023" ry="1.45059" fill="#BF98F7"/>
<ellipse cx="93.9567" cy="36.5373" rx="1.54023" ry="1.45059" fill="#BF98F7"/>
<ellipse cx="100.116" cy="36.5373" rx="1.54023" ry="1.45059" fill="#BF98F7"/>
<ellipse cx="106.275" cy="36.5373" rx="1.54023" ry="1.45059" fill="#BF98F7"/>
<ellipse cx="112.434" cy="36.5373" rx="1.54023" ry="1.45059" fill="#BF98F7"/>
<ellipse cx="118.599" cy="36.5373" rx="1.54023" ry="1.45059" fill="#BF98F7"/>
<ellipse cx="124.758" cy="36.5373" rx="1.54023" ry="1.45059" fill="#BF98F7"/>
<ellipse cx="130.918" cy="36.5373" rx="1.54023" ry="1.45059" fill="#BF98F7"/>
<ellipse cx="137.082" cy="36.5373" rx="1.54023" ry="1.45059" fill="#BF98F7"/>
<ellipse cx="143.241" cy="36.5373" rx="1.54023" ry="1.45059" fill="#BF98F7"/>
<ellipse cx="149.401" cy="36.5373" rx="1.54023" ry="1.45059" fill="#BF98F7"/>
<ellipse cx="155.566" cy="36.5373" rx="1.54023" ry="1.45059" fill="#BF98F7"/>
<ellipse cx="161.725" cy="36.5373" rx="1.54023" ry="1.45059" fill="#BF98F7"/>
<ellipse cx="167.884" cy="36.5373" rx="1.54023" ry="1.45059" fill="#BF98F7"/>
<ellipse cx="174.043" cy="36.5373" rx="1.54023" ry="1.45059" fill="#BF98F7"/>
<ellipse cx="180.209" cy="36.5373" rx="1.54023" ry="1.45059" fill="#BF98F7"/>
<ellipse cx="186.367" cy="36.5373" rx="1.54023" ry="1.45059" fill="#BF98F7"/>
<ellipse cx="192.526" cy="36.5373" rx="1.54023" ry="1.45059" fill="#BF98F7"/>
<ellipse cx="198.691" cy="36.5373" rx="1.54023" ry="1.45059" fill="#BF98F7"/>
<ellipse cx="204.85" cy="36.5373" rx="1.54023" ry="1.45059" fill="#BF98F7"/>
<ellipse cx="211.01" cy="36.5373" rx="1.54023" ry="1.45059" fill="#BF98F7"/>
<ellipse cx="217.175" cy="36.5373" rx="1.54023" ry="1.45059" fill="#BF98F7"/>
<ellipse cx="223.334" cy="36.5373" rx="1.54023" ry="1.45059" fill="#BF98F7"/>
<ellipse cx="229.493" cy="36.5373" rx="1.54023" ry="1.45059" fill="#BF98F7"/>
<ellipse cx="235.657" cy="36.5373" rx="1.54023" ry="1.45059" fill="#BF98F7"/>
<ellipse cx="241.817" cy="36.5373" rx="1.54023" ry="1.45059" fill="#BF98F7"/>
<ellipse cx="247.976" cy="36.5373" rx="1.54023" ry="1.45059" fill="#BF98F7"/>
<ellipse cx="254.135" cy="36.5373" rx="1.54023" ry="1.45059" fill="#BF98F7"/>
<ellipse cx="260.3" cy="36.5373" rx="1.54023" ry="1.45059" fill="#BF98F7"/>
<ellipse cx="266.46" cy="36.5373" rx="1.54023" ry="1.45059" fill="#BF98F7"/>
<ellipse cx="1.54023" cy="42.3394" rx="1.54023" ry="1.45059" fill="#BF98F7"/>
<ellipse cx="7.69941" cy="42.3394" rx="1.54023" ry="1.45059" fill="#BF98F7"/>
<ellipse cx="13.8644" cy="42.3394" rx="1.54023" ry="1.45059" fill="#BF98F7"/>
<ellipse cx="20.0236" cy="42.3394" rx="1.54023" ry="1.45059" fill="#BF98F7"/>
<ellipse cx="26.1828" cy="42.3394" rx="1.54023" ry="1.45059" fill="#BF98F7"/>
<ellipse cx="32.343" cy="42.3394" rx="1.54023" ry="1.45059" fill="#BF98F7"/>
<ellipse cx="38.5065" cy="42.3394" rx="1.54023" ry="1.45059" fill="#BF98F7"/>
<ellipse cx="44.6657" cy="42.3394" rx="1.54023" ry="1.45059" fill="#BF98F7"/>
<ellipse cx="50.8249" cy="42.3394" rx="1.54023" ry="1.45059" fill="#BF98F7"/>
<ellipse cx="56.9899" cy="42.3394" rx="1.54023" ry="1.45059" fill="#BF98F7"/>
<ellipse cx="63.1496" cy="42.3394" rx="1.54023" ry="1.45059" fill="#BF98F7"/>
<ellipse cx="69.3088" cy="42.3394" rx="1.54023" ry="1.45059" fill="#BF98F7"/>
<ellipse cx="75.4738" cy="42.3394" rx="1.54023" ry="1.45059" fill="#BF98F7"/>
<ellipse cx="81.632" cy="42.3394" rx="1.54023" ry="1.45059" fill="#BF98F7"/>
<ellipse cx="87.7912" cy="42.3394" rx="1.54023" ry="1.45059" fill="#BF98F7"/>
<ellipse cx="93.9567" cy="42.3394" rx="1.54023" ry="1.45059" fill="#BF98F7"/>
<ellipse cx="100.116" cy="42.3394" rx="1.54023" ry="1.45059" fill="#BF98F7"/>
<ellipse cx="106.275" cy="42.3394" rx="1.54023" ry="1.45059" fill="#BF98F7"/>
<ellipse cx="112.434" cy="42.3394" rx="1.54023" ry="1.45059" fill="#BF98F7"/>
<ellipse cx="118.599" cy="42.3394" rx="1.54023" ry="1.45059" fill="#BF98F7"/>
<ellipse cx="124.758" cy="42.3394" rx="1.54023" ry="1.45059" fill="#BF98F7"/>
<ellipse cx="130.918" cy="42.3394" rx="1.54023" ry="1.45059" fill="#BF98F7"/>
<ellipse cx="137.082" cy="42.3394" rx="1.54023" ry="1.45059" fill="#BF98F7"/>
<ellipse cx="143.241" cy="42.3394" rx="1.54023" ry="1.45059" fill="#BF98F7"/>
<ellipse cx="149.401" cy="42.3394" rx="1.54023" ry="1.45059" fill="#BF98F7"/>
<ellipse cx="155.566" cy="42.3394" rx="1.54023" ry="1.45059" fill="#BF98F7"/>
<ellipse cx="161.725" cy="42.3394" rx="1.54023" ry="1.45059" fill="#BF98F7"/>
<ellipse cx="167.884" cy="42.3394" rx="1.54023" ry="1.45059" fill="#BF98F7"/>
<ellipse cx="174.043" cy="42.3394" rx="1.54023" ry="1.45059" fill="#BF98F7"/>
<ellipse cx="180.209" cy="42.3394" rx="1.54023" ry="1.45059" fill="#BF98F7"/>
<ellipse cx="186.367" cy="42.3394" rx="1.54023" ry="1.45059" fill="#BF98F7"/>
<ellipse cx="192.526" cy="42.3394" rx="1.54023" ry="1.45059" fill="#BF98F7"/>
<ellipse cx="198.691" cy="42.3394" rx="1.54023" ry="1.45059" fill="#BF98F7"/>
<ellipse cx="204.85" cy="42.3394" rx="1.54023" ry="1.45059" fill="#BF98F7"/>
<ellipse cx="211.01" cy="42.3394" rx="1.54023" ry="1.45059" fill="#BF98F7"/>
<ellipse cx="217.175" cy="42.3394" rx="1.54023" ry="1.45059" fill="#BF98F7"/>
<ellipse cx="223.334" cy="42.3394" rx="1.54023" ry="1.45059" fill="#BF98F7"/>
<ellipse cx="229.493" cy="42.3394" rx="1.54023" ry="1.45059" fill="#BF98F7"/>
<ellipse cx="235.657" cy="42.3394" rx="1.54023" ry="1.45059" fill="#BF98F7"/>
<ellipse cx="241.817" cy="42.3394" rx="1.54023" ry="1.45059" fill="#BF98F7"/>
<ellipse cx="247.976" cy="42.3394" rx="1.54023" ry="1.45059" fill="#BF98F7"/>
<ellipse cx="254.135" cy="42.3394" rx="1.54023" ry="1.45059" fill="#BF98F7"/>
<ellipse cx="260.3" cy="42.3394" rx="1.54023" ry="1.45059" fill="#BF98F7"/>
<ellipse cx="266.46" cy="42.3394" rx="1.54023" ry="1.45059" fill="#BF98F7"/>
<ellipse cx="1.54023" cy="48.1415" rx="1.54023" ry="1.45059" fill="#BF98F7"/>
<ellipse cx="7.69941" cy="48.1415" rx="1.54023" ry="1.45059" fill="#BF98F7"/>
<ellipse cx="13.8644" cy="48.1415" rx="1.54023" ry="1.45059" fill="#BF98F7"/>
<ellipse cx="20.0236" cy="48.1415" rx="1.54023" ry="1.45059" fill="#BF98F7"/>
<ellipse cx="26.1828" cy="48.1415" rx="1.54023" ry="1.45059" fill="#BF98F7"/>
<ellipse cx="32.343" cy="48.1415" rx="1.54023" ry="1.45059" fill="#BF98F7"/>
<ellipse cx="38.5065" cy="48.1415" rx="1.54023" ry="1.45059" fill="#BF98F7"/>
<ellipse cx="44.6657" cy="48.1415" rx="1.54023" ry="1.45059" fill="#BF98F7"/>
<ellipse cx="50.8249" cy="48.1415" rx="1.54023" ry="1.45059" fill="#BF98F7"/>
<ellipse cx="56.9899" cy="48.1415" rx="1.54023" ry="1.45059" fill="#BF98F7"/>
<ellipse cx="63.1496" cy="48.1415" rx="1.54023" ry="1.45059" fill="#BF98F7"/>
<ellipse cx="69.3088" cy="48.1415" rx="1.54023" ry="1.45059" fill="#BF98F7"/>
<ellipse cx="75.4738" cy="48.1415" rx="1.54023" ry="1.45059" fill="#BF98F7"/>
<ellipse cx="81.632" cy="48.1415" rx="1.54023" ry="1.45059" fill="#BF98F7"/>
<ellipse cx="87.7912" cy="48.1415" rx="1.54023" ry="1.45059" fill="#BF98F7"/>
<ellipse cx="93.9567" cy="48.1415" rx="1.54023" ry="1.45059" fill="#BF98F7"/>
<ellipse cx="100.116" cy="48.1415" rx="1.54023" ry="1.45059" fill="#BF98F7"/>
<ellipse cx="106.275" cy="48.1415" rx="1.54023" ry="1.45059" fill="#BF98F7"/>
<ellipse cx="112.434" cy="48.1415" rx="1.54023" ry="1.45059" fill="#BF98F7"/>
<ellipse cx="118.599" cy="48.1415" rx="1.54023" ry="1.45059" fill="#BF98F7"/>
<ellipse cx="124.758" cy="48.1415" rx="1.54023" ry="1.45059" fill="#BF98F7"/>
<ellipse cx="130.918" cy="48.1415" rx="1.54023" ry="1.45059" fill="#BF98F7"/>
<ellipse cx="137.082" cy="48.1415" rx="1.54023" ry="1.45059" fill="#BF98F7"/>
<ellipse cx="143.241" cy="48.1415" rx="1.54023" ry="1.45059" fill="#BF98F7"/>
<ellipse cx="149.401" cy="48.1415" rx="1.54023" ry="1.45059" fill="#BF98F7"/>
<ellipse cx="155.566" cy="48.1415" rx="1.54023" ry="1.45059" fill="#BF98F7"/>
<ellipse cx="161.725" cy="48.1415" rx="1.54023" ry="1.45059" fill="#BF98F7"/>
<ellipse cx="167.884" cy="48.1415" rx="1.54023" ry="1.45059" fill="#BF98F7"/>
<ellipse cx="174.043" cy="48.1415" rx="1.54023" ry="1.45059" fill="#BF98F7"/>
<ellipse cx="180.209" cy="48.1415" rx="1.54023" ry="1.45059" fill="#BF98F7"/>
<ellipse cx="186.367" cy="48.1415" rx="1.54023" ry="1.45059" fill="#BF98F7"/>
<ellipse cx="192.526" cy="48.1415" rx="1.54023" ry="1.45059" fill="#BF98F7"/>
<ellipse cx="198.691" cy="48.1415" rx="1.54023" ry="1.45059" fill="#BF98F7"/>
<ellipse cx="204.85" cy="48.1415" rx="1.54023" ry="1.45059" fill="#BF98F7"/>
<ellipse cx="211.01" cy="48.1415" rx="1.54023" ry="1.45059" fill="#BF98F7"/>
<ellipse cx="217.175" cy="48.1415" rx="1.54023" ry="1.45059" fill="#BF98F7"/>
<ellipse cx="223.334" cy="48.1415" rx="1.54023" ry="1.45059" fill="#BF98F7"/>
<ellipse cx="229.493" cy="48.1415" rx="1.54023" ry="1.45059" fill="#BF98F7"/>
<ellipse cx="235.657" cy="48.1415" rx="1.54023" ry="1.45059" fill="#BF98F7"/>
<ellipse cx="241.817" cy="48.1415" rx="1.54023" ry="1.45059" fill="#BF98F7"/>
<ellipse cx="247.976" cy="48.1415" rx="1.54023" ry="1.45059" fill="#BF98F7"/>
<ellipse cx="254.135" cy="48.1415" rx="1.54023" ry="1.45059" fill="#BF98F7"/>
<ellipse cx="260.3" cy="48.1415" rx="1.54023" ry="1.45059" fill="#BF98F7"/>
<ellipse cx="266.46" cy="48.1415" rx="1.54023" ry="1.45059" fill="#BF98F7"/>
<ellipse cx="1.54023" cy="53.9453" rx="1.54023" ry="1.45059" fill="#BF98F7"/>
<ellipse cx="7.69941" cy="53.9453" rx="1.54023" ry="1.45059" fill="#BF98F7"/>
<ellipse cx="13.8644" cy="53.9453" rx="1.54023" ry="1.45059" fill="#BF98F7"/>
<ellipse cx="20.0236" cy="53.9453" rx="1.54023" ry="1.45059" fill="#BF98F7"/>
<ellipse cx="26.1828" cy="53.9453" rx="1.54023" ry="1.45059" fill="#BF98F7"/>
<ellipse cx="32.343" cy="53.9453" rx="1.54023" ry="1.45059" fill="#BF98F7"/>
<ellipse cx="38.5065" cy="53.9453" rx="1.54023" ry="1.45059" fill="#BF98F7"/>
<ellipse cx="44.6657" cy="53.9453" rx="1.54023" ry="1.45059" fill="#BF98F7"/>
<ellipse cx="50.8249" cy="53.9453" rx="1.54023" ry="1.45059" fill="#BF98F7"/>
<ellipse cx="56.9899" cy="53.9453" rx="1.54023" ry="1.45059" fill="#BF98F7"/>
<ellipse cx="63.1496" cy="53.9453" rx="1.54023" ry="1.45059" fill="#BF98F7"/>
<ellipse cx="69.3088" cy="53.9453" rx="1.54023" ry="1.45059" fill="#BF98F7"/>
<ellipse cx="75.4738" cy="53.9453" rx="1.54023" ry="1.45059" fill="#BF98F7"/>
<ellipse cx="81.632" cy="53.9453" rx="1.54023" ry="1.45059" fill="#BF98F7"/>
<ellipse cx="87.7912" cy="53.9453" rx="1.54023" ry="1.45059" fill="#BF98F7"/>
<ellipse cx="93.9567" cy="53.9453" rx="1.54023" ry="1.45059" fill="#BF98F7"/>
<ellipse cx="100.116" cy="53.9453" rx="1.54023" ry="1.45059" fill="#BF98F7"/>
<ellipse cx="106.275" cy="53.9453" rx="1.54023" ry="1.45059" fill="#BF98F7"/>
<ellipse cx="112.434" cy="53.9453" rx="1.54023" ry="1.45059" fill="#BF98F7"/>
<ellipse cx="118.599" cy="53.9453" rx="1.54023" ry="1.45059" fill="#BF98F7"/>
<ellipse cx="124.758" cy="53.9453" rx="1.54023" ry="1.45059" fill="#BF98F7"/>
<ellipse cx="130.918" cy="53.9453" rx="1.54023" ry="1.45059" fill="#BF98F7"/>
<ellipse cx="137.082" cy="53.9453" rx="1.54023" ry="1.45059" fill="#BF98F7"/>
<ellipse cx="143.241" cy="53.9453" rx="1.54023" ry="1.45059" fill="#BF98F7"/>
<ellipse cx="149.401" cy="53.9453" rx="1.54023" ry="1.45059" fill="#BF98F7"/>
<ellipse cx="155.566" cy="53.9453" rx="1.54023" ry="1.45059" fill="#BF98F7"/>
<ellipse cx="161.725" cy="53.9453" rx="1.54023" ry="1.45059" fill="#BF98F7"/>
<ellipse cx="167.884" cy="53.9453" rx="1.54023" ry="1.45059" fill="#BF98F7"/>
<ellipse cx="174.043" cy="53.9453" rx="1.54023" ry="1.45059" fill="#BF98F7"/>
<ellipse cx="180.209" cy="53.9453" rx="1.54023" ry="1.45059" fill="#BF98F7"/>
<ellipse cx="186.367" cy="53.9453" rx="1.54023" ry="1.45059" fill="#BF98F7"/>
<ellipse cx="192.526" cy="53.9453" rx="1.54023" ry="1.45059" fill="#BF98F7"/>
<ellipse cx="198.691" cy="53.9453" rx="1.54023" ry="1.45059" fill="#BF98F7"/>
<ellipse cx="204.85" cy="53.9453" rx="1.54023" ry="1.45059" fill="#BF98F7"/>
<ellipse cx="211.01" cy="53.9453" rx="1.54023" ry="1.45059" fill="#BF98F7"/>
<ellipse cx="217.175" cy="53.9453" rx="1.54023" ry="1.45059" fill="#BF98F7"/>
<ellipse cx="223.334" cy="53.9453" rx="1.54023" ry="1.45059" fill="#BF98F7"/>
<ellipse cx="229.493" cy="53.9453" rx="1.54023" ry="1.45059" fill="#BF98F7"/>
<ellipse cx="235.657" cy="53.9453" rx="1.54023" ry="1.45059" fill="#BF98F7"/>
<ellipse cx="241.817" cy="53.9453" rx="1.54023" ry="1.45059" fill="#BF98F7"/>
<ellipse cx="247.976" cy="53.9453" rx="1.54023" ry="1.45059" fill="#BF98F7"/>
<ellipse cx="254.135" cy="53.9453" rx="1.54023" ry="1.45059" fill="#BF98F7"/>
<ellipse cx="260.3" cy="53.9453" rx="1.54023" ry="1.45059" fill="#BF98F7"/>
<ellipse cx="266.46" cy="53.9453" rx="1.54023" ry="1.45059" fill="#BF98F7"/>
<ellipse cx="1.54023" cy="59.7474" rx="1.54023" ry="1.45059" fill="#BF98F7"/>
<ellipse cx="7.69941" cy="59.7474" rx="1.54023" ry="1.45059" fill="#BF98F7"/>
<ellipse cx="13.8644" cy="59.7474" rx="1.54023" ry="1.45059" fill="#BF98F7"/>
<ellipse cx="20.0236" cy="59.7474" rx="1.54023" ry="1.45059" fill="#BF98F7"/>
<ellipse cx="26.1828" cy="59.7474" rx="1.54023" ry="1.45059" fill="#BF98F7"/>
<ellipse cx="32.343" cy="59.7474" rx="1.54023" ry="1.45059" fill="#BF98F7"/>
<ellipse cx="38.5065" cy="59.7474" rx="1.54023" ry="1.45059" fill="#BF98F7"/>
<ellipse cx="44.6657" cy="59.7474" rx="1.54023" ry="1.45059" fill="#BF98F7"/>
<ellipse cx="50.8249" cy="59.7474" rx="1.54023" ry="1.45059" fill="#BF98F7"/>
<ellipse cx="56.9899" cy="59.7474" rx="1.54023" ry="1.45059" fill="#BF98F7"/>
<ellipse cx="63.1496" cy="59.7474" rx="1.54023" ry="1.45059" fill="#BF98F7"/>
<ellipse cx="69.3088" cy="59.7474" rx="1.54023" ry="1.45059" fill="#BF98F7"/>
<ellipse cx="75.4738" cy="59.7474" rx="1.54023" ry="1.45059" fill="#BF98F7"/>
<ellipse cx="81.632" cy="59.7474" rx="1.54023" ry="1.45059" fill="#BF98F7"/>
<ellipse cx="87.7912" cy="59.7474" rx="1.54023" ry="1.45059" fill="#BF98F7"/>
<ellipse cx="93.9567" cy="59.7474" rx="1.54023" ry="1.45059" fill="#BF98F7"/>
<ellipse cx="100.116" cy="59.7474" rx="1.54023" ry="1.45059" fill="#BF98F7"/>
<ellipse cx="106.275" cy="59.7474" rx="1.54023" ry="1.45059" fill="#BF98F7"/>
<ellipse cx="112.434" cy="59.7474" rx="1.54023" ry="1.45059" fill="#BF98F7"/>
<ellipse cx="118.599" cy="59.7474" rx="1.54023" ry="1.45059" fill="#BF98F7"/>
<ellipse cx="124.758" cy="59.7474" rx="1.54023" ry="1.45059" fill="#BF98F7"/>
<ellipse cx="130.918" cy="59.7474" rx="1.54023" ry="1.45059" fill="#BF98F7"/>
<ellipse cx="137.082" cy="59.7474" rx="1.54023" ry="1.45059" fill="#BF98F7"/>
<ellipse cx="143.241" cy="59.7474" rx="1.54023" ry="1.45059" fill="#BF98F7"/>
<ellipse cx="149.401" cy="59.7474" rx="1.54023" ry="1.45059" fill="#BF98F7"/>
<ellipse cx="155.566" cy="59.7474" rx="1.54023" ry="1.45059" fill="#BF98F7"/>
<ellipse cx="161.725" cy="59.7474" rx="1.54023" ry="1.45059" fill="#BF98F7"/>
<ellipse cx="167.884" cy="59.7474" rx="1.54023" ry="1.45059" fill="#BF98F7"/>
<ellipse cx="174.043" cy="59.7474" rx="1.54023" ry="1.45059" fill="#BF98F7"/>
<ellipse cx="180.209" cy="59.7474" rx="1.54023" ry="1.45059" fill="#BF98F7"/>
<ellipse cx="186.367" cy="59.7474" rx="1.54023" ry="1.45059" fill="#BF98F7"/>
<ellipse cx="192.526" cy="59.7474" rx="1.54023" ry="1.45059" fill="#BF98F7"/>
<ellipse cx="198.691" cy="59.7474" rx="1.54023" ry="1.45059" fill="#BF98F7"/>
<ellipse cx="204.85" cy="59.7474" rx="1.54023" ry="1.45059" fill="#BF98F7"/>
<ellipse cx="211.01" cy="59.7474" rx="1.54023" ry="1.45059" fill="#BF98F7"/>
<ellipse cx="217.175" cy="59.7474" rx="1.54023" ry="1.45059" fill="#BF98F7"/>
<ellipse cx="223.334" cy="59.7474" rx="1.54023" ry="1.45059" fill="#BF98F7"/>
<ellipse cx="229.493" cy="59.7474" rx="1.54023" ry="1.45059" fill="#BF98F7"/>
<ellipse cx="235.657" cy="59.7474" rx="1.54023" ry="1.45059" fill="#BF98F7"/>
<ellipse cx="241.817" cy="59.7474" rx="1.54023" ry="1.45059" fill="#BF98F7"/>
<ellipse cx="247.976" cy="59.7474" rx="1.54023" ry="1.45059" fill="#BF98F7"/>
<ellipse cx="254.135" cy="59.7474" rx="1.54023" ry="1.45059" fill="#BF98F7"/>
<ellipse cx="260.3" cy="59.7474" rx="1.54023" ry="1.45059" fill="#BF98F7"/>
<ellipse cx="266.46" cy="59.7474" rx="1.54023" ry="1.45059" fill="#BF98F7"/>
<ellipse cx="1.54023" cy="65.5495" rx="1.54023" ry="1.45059" fill="#BF98F7"/>
<ellipse cx="7.69941" cy="65.5495" rx="1.54023" ry="1.45059" fill="#BF98F7"/>
<ellipse cx="13.8644" cy="65.5495" rx="1.54023" ry="1.45059" fill="#BF98F7"/>
<ellipse cx="20.0236" cy="65.5495" rx="1.54023" ry="1.45059" fill="#BF98F7"/>
<ellipse cx="26.1828" cy="65.5495" rx="1.54023" ry="1.45059" fill="#BF98F7"/>
<ellipse cx="32.343" cy="65.5495" rx="1.54023" ry="1.45059" fill="#BF98F7"/>
<ellipse cx="38.5065" cy="65.5495" rx="1.54023" ry="1.45059" fill="#BF98F7"/>
<ellipse cx="44.6657" cy="65.5495" rx="1.54023" ry="1.45059" fill="#BF98F7"/>
<ellipse cx="50.8249" cy="65.5495" rx="1.54023" ry="1.45059" fill="#BF98F7"/>
<ellipse cx="56.9899" cy="65.5495" rx="1.54023" ry="1.45059" fill="#BF98F7"/>
<ellipse cx="63.1496" cy="65.5495" rx="1.54023" ry="1.45059" fill="#BF98F7"/>
<ellipse cx="69.3088" cy="65.5495" rx="1.54023" ry="1.45059" fill="#BF98F7"/>
<ellipse cx="75.4738" cy="65.5495" rx="1.54023" ry="1.45059" fill="#BF98F7"/>
<ellipse cx="81.632" cy="65.5495" rx="1.54023" ry="1.45059" fill="#BF98F7"/>
<ellipse cx="87.7912" cy="65.5495" rx="1.54023" ry="1.45059" fill="#BF98F7"/>
<ellipse cx="93.9567" cy="65.5495" rx="1.54023" ry="1.45059" fill="#BF98F7"/>
<ellipse cx="100.116" cy="65.5495" rx="1.54023" ry="1.45059" fill="#BF98F7"/>
<ellipse cx="106.275" cy="65.5495" rx="1.54023" ry="1.45059" fill="#BF98F7"/>
<ellipse cx="112.434" cy="65.5495" rx="1.54023" ry="1.45059" fill="#BF98F7"/>
<ellipse cx="118.599" cy="65.5495" rx="1.54023" ry="1.45059" fill="#BF98F7"/>
<ellipse cx="124.758" cy="65.5495" rx="1.54023" ry="1.45059" fill="#BF98F7"/>
<ellipse cx="130.918" cy="65.5495" rx="1.54023" ry="1.45059" fill="#BF98F7"/>
<ellipse cx="137.082" cy="65.5495" rx="1.54023" ry="1.45059" fill="#BF98F7"/>
<ellipse cx="143.241" cy="65.5495" rx="1.54023" ry="1.45059" fill="#BF98F7"/>
<ellipse cx="149.401" cy="65.5495" rx="1.54023" ry="1.45059" fill="#BF98F7"/>
<ellipse cx="155.566" cy="65.5495" rx="1.54023" ry="1.45059" fill="#BF98F7"/>
<ellipse cx="161.725" cy="65.5495" rx="1.54023" ry="1.45059" fill="#BF98F7"/>
<ellipse cx="167.884" cy="65.5495" rx="1.54023" ry="1.45059" fill="#BF98F7"/>
<ellipse cx="174.043" cy="65.5495" rx="1.54023" ry="1.45059" fill="#BF98F7"/>
<ellipse cx="180.209" cy="65.5495" rx="1.54023" ry="1.45059" fill="#BF98F7"/>
<ellipse cx="186.367" cy="65.5495" rx="1.54023" ry="1.45059" fill="#BF98F7"/>
<ellipse cx="192.526" cy="65.5495" rx="1.54023" ry="1.45059" fill="#BF98F7"/>
<ellipse cx="198.691" cy="65.5495" rx="1.54023" ry="1.45059" fill="#BF98F7"/>
<ellipse cx="204.85" cy="65.5495" rx="1.54023" ry="1.45059" fill="#BF98F7"/>
<ellipse cx="211.01" cy="65.5495" rx="1.54023" ry="1.45059" fill="#BF98F7"/>
<ellipse cx="217.175" cy="65.5495" rx="1.54023" ry="1.45059" fill="#BF98F7"/>
<ellipse cx="223.334" cy="65.5495" rx="1.54023" ry="1.45059" fill="#BF98F7"/>
<ellipse cx="229.493" cy="65.5495" rx="1.54023" ry="1.45059" fill="#BF98F7"/>
<ellipse cx="235.657" cy="65.5495" rx="1.54023" ry="1.45059" fill="#BF98F7"/>
<ellipse cx="241.817" cy="65.5495" rx="1.54023" ry="1.45059" fill="#BF98F7"/>
<ellipse cx="247.976" cy="65.5495" rx="1.54023" ry="1.45059" fill="#BF98F7"/>
<ellipse cx="254.135" cy="65.5495" rx="1.54023" ry="1.45059" fill="#BF98F7"/>
<ellipse cx="260.3" cy="65.5495" rx="1.54023" ry="1.45059" fill="#BF98F7"/>
<ellipse cx="266.46" cy="65.5495" rx="1.54023" ry="1.45059" fill="#BF98F7"/>
</svg>
