<svg width="206" height="206" viewBox="0 0 206 206" fill="none" xmlns="http://www.w3.org/2000/svg">
<g filter="url(#filter0_ddd_400_8195)">
<circle cx="102.859" cy="102.799" r="92.5344" transform="rotate(6.36954 102.859 102.799)" fill="url(#paint0_linear_400_8195)"/>
<path d="M37.3871 108.879L30.8392 108.945L29.5087 112.894L26.4554 112.925L32.6711 95.9572L35.3065 95.9308L41.8731 112.77L38.8081 112.801L37.3871 108.879ZM31.6397 106.568L36.539 106.519L34.019 99.5314L31.6397 106.568ZM56.4793 110.429C55.8759 111.233 55.0344 111.845 53.955 112.266C52.8755 112.687 51.6469 112.904 50.2692 112.918C48.8528 112.933 47.5958 112.624 46.498 111.992C45.4003 111.361 44.5474 110.452 43.9395 109.266C43.3392 108.073 43.0195 106.679 42.9803 105.084L42.967 103.761C42.9414 101.207 43.5328 99.2076 44.7413 97.7635C45.9498 96.3116 47.6492 95.5747 49.8396 95.5527C51.7203 95.5339 53.2188 95.9833 54.3349 96.9009C55.451 97.8186 56.1301 99.1509 56.3721 100.898L53.4929 100.927C53.1474 98.8944 51.9568 97.8885 49.9213 97.9089C48.6055 97.9221 47.608 98.4082 46.9287 99.3671C46.257 100.318 45.9188 101.711 45.914 103.546L45.927 104.846C45.9454 106.672 46.3427 108.089 47.1192 109.095C47.9032 110.094 48.9802 110.586 50.3502 110.572C51.8517 110.557 52.9164 110.206 53.5442 109.518L53.511 106.21L50.0281 106.244L50.0057 104.015L56.4143 103.951L56.4793 110.429ZM65.8747 106.016L62.6008 106.049L62.6661 112.562L59.7288 112.591L59.5592 95.6874L65.5034 95.6278C67.4539 95.6082 68.9636 96.0304 70.0328 96.8944C71.1019 97.7583 71.6448 99.0185 71.6614 100.675C71.6727 101.805 71.4075 102.756 70.8656 103.527C70.3315 104.291 69.5788 104.883 68.6077 105.303L72.4748 112.312L72.4763 112.463L69.3301 112.495L65.8747 106.016ZM62.5771 103.692L65.5956 103.662C66.5863 103.652 67.3578 103.396 67.9101 102.895C68.4623 102.387 68.7341 101.699 68.7254 100.832C68.7163 99.9264 68.45 99.2286 67.9265 98.7384C67.4107 98.2482 66.6419 98.0005 65.6201 97.9952L62.5203 98.0263L62.5771 103.692ZM77.6659 112.411L74.7402 112.441L74.5706 95.5368L77.4963 95.5075L77.6659 112.411ZM94.1197 106.743C93.9675 108.548 93.316 109.963 92.1652 110.989C91.0143 112.006 89.4753 112.525 87.5481 112.544C86.2014 112.558 85.0101 112.252 83.9743 111.628C82.9462 110.996 82.1477 110.094 81.5786 108.924C81.0095 107.753 80.7056 106.389 80.6667 104.834L80.6509 103.255C80.6349 101.661 80.9033 100.253 81.4561 99.0323C82.0089 97.8114 82.8083 96.8668 83.8544 96.1984C84.9081 95.5298 86.1277 95.1886 87.5131 95.1747C89.3784 95.156 90.885 95.6479 92.033 96.6504C93.1809 97.6529 93.857 99.0781 94.0613 100.926L91.1357 100.955C90.9842 99.7417 90.6194 98.8707 90.0413 98.3424C89.4708 97.8062 88.6361 97.5437 87.537 97.5547C86.2599 97.5675 85.2817 98.0457 84.6022 98.9891C83.9305 99.9247 83.5959 101.294 83.5985 103.098L83.6135 104.595C83.6318 106.422 83.9709 107.812 84.6307 108.765C85.2982 109.718 86.2627 110.189 87.5243 110.176C88.6775 110.164 89.5418 109.896 90.1171 109.372C90.6924 108.848 91.0514 107.981 91.194 106.772L94.1197 106.743ZM109.005 95.1913L109.118 106.488C109.136 108.283 108.574 109.713 107.431 110.777C106.296 111.834 104.773 112.371 102.861 112.391C100.926 112.41 99.3848 111.911 98.2368 110.893C97.0886 109.867 96.5053 108.437 96.4869 106.603L96.3737 95.318L99.2993 95.2887L99.4128 106.597C99.4241 107.727 99.7192 108.587 100.298 109.177C100.877 109.767 101.723 110.057 102.838 110.045C105.098 110.023 106.216 108.82 106.192 106.436L106.079 95.2207L109.005 95.1913ZM115.235 109.689L122.909 109.612L122.932 111.957L112.321 112.064L112.151 95.1597L115.089 95.1303L115.235 109.689ZM134.86 97.3005L129.59 97.3534L129.736 111.889L126.821 111.918L126.676 97.3826L121.451 97.4351L121.427 95.0667L134.837 94.9321L134.86 97.3005ZM149.43 94.7857L149.543 106.082C149.562 107.878 148.999 109.308 147.857 110.372C146.721 111.428 145.198 111.966 143.286 111.985C141.351 112.004 139.81 111.505 138.662 110.487C137.514 109.461 136.93 108.031 136.912 106.197L136.799 94.9125L139.724 94.8831L139.838 106.191C139.849 107.321 140.144 108.181 140.723 108.771C141.302 109.362 142.148 109.651 143.263 109.64C145.523 109.617 146.641 108.414 146.617 106.03L146.504 94.8151L149.43 94.7857ZM158.892 105.083L155.618 105.115L155.683 111.628L152.746 111.658L152.576 94.7541L158.521 94.6945C160.471 94.6749 161.981 95.0971 163.05 95.9611C164.119 96.8251 164.662 98.0852 164.679 99.7415C164.69 100.872 164.425 101.822 163.883 102.594C163.349 103.358 162.596 103.95 161.625 104.37L165.492 111.379L165.493 111.53L162.347 111.562L158.892 105.083ZM155.594 102.759L158.613 102.728C159.603 102.718 160.375 102.463 160.927 101.962C161.479 101.453 161.751 100.766 161.743 99.8987C161.733 98.9931 161.467 98.2953 160.944 97.8051C160.428 97.3149 159.659 97.0672 158.637 97.062L155.537 97.0931L155.594 102.759ZM177.387 103.864L170.445 103.933L170.497 109.134L178.612 109.053L178.636 111.398L167.583 111.509L167.414 94.6053L178.385 94.4952L178.409 96.8636L170.375 96.9442L170.421 101.611L177.364 101.542L177.387 103.864Z" fill="white"/>
</g>
<defs>
<filter id="filter0_ddd_400_8195" x="7.14553" y="10.2568" width="191.426" height="191.426" filterUnits="userSpaceOnUse" color-interpolation-filters="sRGB">
<feFlood flood-opacity="0" result="BackgroundImageFix"/>
<feColorMatrix in="SourceAlpha" type="matrix" values="0 0 0 0 0 0 0 0 0 0 0 0 0 0 0 0 0 0 127 0" result="hardAlpha"/>
<feOffset dy="3.17039"/>
<feGaussianBlur stdDeviation="1.5852"/>
<feComposite in2="hardAlpha" operator="out"/>
<feColorMatrix type="matrix" values="0 0 0 0 0 0 0 0 0 0 0 0 0 0 0 0 0 0 0.25 0"/>
<feBlend mode="normal" in2="BackgroundImageFix" result="effect1_dropShadow_400_8195"/>
<feColorMatrix in="SourceAlpha" type="matrix" values="0 0 0 0 0 0 0 0 0 0 0 0 0 0 0 0 0 0 127 0" result="hardAlpha"/>
<feOffset dy="3.17039"/>
<feGaussianBlur stdDeviation="1.5852"/>
<feComposite in2="hardAlpha" operator="out"/>
<feColorMatrix type="matrix" values="0 0 0 0 0 0 0 0 0 0 0 0 0 0 0 0 0 0 0.25 0"/>
<feBlend mode="normal" in2="effect1_dropShadow_400_8195" result="effect2_dropShadow_400_8195"/>
<feColorMatrix in="SourceAlpha" type="matrix" values="0 0 0 0 0 0 0 0 0 0 0 0 0 0 0 0 0 0 127 0" result="hardAlpha"/>
<feOffset dy="3.17039"/>
<feGaussianBlur stdDeviation="1.5852"/>
<feComposite in2="hardAlpha" operator="out"/>
<feColorMatrix type="matrix" values="0 0 0 0 0 0 0 0 0 0 0 0 0 0 0 0 0 0 0.25 0"/>
<feBlend mode="normal" in2="effect2_dropShadow_400_8195" result="effect3_dropShadow_400_8195"/>
<feBlend mode="normal" in="SourceGraphic" in2="effect3_dropShadow_400_8195" result="shape"/>
</filter>
<linearGradient id="paint0_linear_400_8195" x1="101.345" y1="15.5264" x2="93.991" y2="193.011" gradientUnits="userSpaceOnUse">
<stop stop-color="#A327FC"/>
<stop offset="0.270567" stop-color="#822CC7"/>
<stop offset="0.579785" stop-color="#5D1C9B"/>
<stop offset="1" stop-color="#371667"/>
</linearGradient>
</defs>
</svg>
