<svg width="302" height="302" viewBox="0 0 302 302" fill="none" xmlns="http://www.w3.org/2000/svg">
<circle cx="150.952" cy="150.858" r="135.401" transform="rotate(6.94439 150.952 150.858)" fill="url(#paint0_linear_400_8180)"/>
<path d="M78.3447 141.345C78.1289 143.63 77.2855 145.415 75.8144 146.699C74.3434 147.974 72.3869 148.612 69.9449 148.612C68.2385 148.612 66.7331 148.21 65.4288 147.405C64.1343 146.591 63.134 145.439 62.4279 143.948C61.7217 142.458 61.354 140.727 61.3246 138.756V136.755C61.3246 134.735 61.6825 132.955 62.3984 131.415C63.1143 129.875 64.1392 128.689 65.4729 127.855C66.8165 127.021 68.366 126.605 70.1215 126.605C72.485 126.605 74.3875 127.247 75.8292 128.532C77.2708 129.816 78.1093 131.631 78.3447 133.975H74.6376C74.4611 132.435 74.01 131.327 73.2842 130.65C72.5683 129.964 71.5141 129.62 70.1215 129.62C68.5033 129.62 67.2578 130.214 66.385 131.4C65.522 132.577 65.0807 134.308 65.061 136.593V138.491C65.061 140.805 65.4729 142.57 66.2967 143.787C67.1303 145.003 68.3464 145.611 69.9449 145.611C71.4062 145.611 72.5046 145.282 73.2401 144.625C73.9756 143.968 74.4415 142.874 74.6376 141.345H78.3447ZM98.7776 138.167C98.7776 140.266 98.4147 142.11 97.689 143.698C96.9633 145.277 95.9238 146.493 94.5704 147.346C93.2268 148.19 91.6773 148.612 89.9219 148.612C88.186 148.612 86.6365 148.19 85.2733 147.346C83.92 146.493 82.8706 145.282 82.1253 143.713C81.3897 142.144 81.0171 140.334 81.0073 138.285V137.079C81.0073 134.99 81.375 133.146 82.1106 131.547C82.8559 129.949 83.9003 128.728 85.2439 127.884C86.5973 127.031 88.1468 126.605 89.8924 126.605C91.6381 126.605 93.1827 127.026 94.5263 127.87C95.8796 128.703 96.9241 129.91 97.6596 131.489C98.3951 133.058 98.7678 134.887 98.7776 136.976V138.167ZM95.0558 137.049C95.0558 134.676 94.6047 132.857 93.7025 131.591C92.81 130.326 91.54 129.694 89.8924 129.694C88.2841 129.694 87.0239 130.326 86.1118 131.591C85.2096 132.847 84.7487 134.627 84.729 136.931V138.167C84.729 140.521 85.1851 142.34 86.0971 143.625C87.019 144.909 88.2939 145.552 89.9219 145.552C91.5694 145.552 92.8345 144.924 93.7172 143.669C94.6096 142.414 95.0558 140.58 95.0558 138.167V137.049ZM107.31 126.899L113.488 143.316L119.652 126.899H124.462V148.317H120.755V141.256L121.123 131.812L114.797 148.317H112.135L105.824 131.827L106.192 141.256V148.317H102.485V126.899H107.31ZM133.7 126.899L139.879 143.316L146.043 126.899H150.853V148.317H147.146V141.256L147.514 131.812L141.188 148.317H138.525L132.215 131.827L132.582 141.256V148.317H128.875V126.899H133.7ZM170.933 126.899V141.212C170.933 143.487 170.202 145.292 168.741 146.626C167.29 147.95 165.353 148.612 162.93 148.612C160.479 148.612 158.532 147.959 157.09 146.655C155.649 145.341 154.928 143.522 154.928 141.197V126.899H158.635V141.227C158.635 142.659 158.998 143.752 159.723 144.507C160.449 145.262 161.518 145.64 162.93 145.64C165.794 145.64 167.226 144.13 167.226 141.109V126.899H170.933ZM191.91 148.317H188.188L178.641 133.121V148.317H174.919V126.899H178.641L188.218 142.154V126.899H191.91V148.317ZM200.236 148.317H196.529V126.899H200.236V148.317ZM219.845 129.9H213.167V148.317H209.474V129.9H202.855V126.899H219.845V129.9ZM229.893 137.049L234.821 126.899H238.94L231.761 140.433V148.317H228.024V140.433L220.831 126.899H224.965L229.893 137.049ZM131.626 183.317H127.919V173.8H118.343V183.317H114.621V161.899H118.343V170.813H127.919V161.899H131.626V183.317ZM148.558 173.756H139.761V180.346H150.044V183.317H136.039V161.899H149.941V164.9H139.761V170.813H148.558V173.756ZM156.796 180.346H166.52V183.317H153.074V161.899H156.796V180.346ZM173.095 175.359V183.317H169.374V161.899H177.567C179.96 161.899 181.858 162.522 183.26 163.767C184.672 165.013 185.379 166.66 185.379 168.71C185.379 170.809 184.687 172.441 183.304 173.608C181.931 174.775 180.004 175.359 177.523 175.359H173.095ZM173.095 172.373H177.567C178.891 172.373 179.901 172.064 180.598 171.446C181.294 170.818 181.642 169.916 181.642 168.739C181.642 167.582 181.289 166.66 180.583 165.974C179.877 165.277 178.906 164.919 177.67 164.9H173.095V172.373Z" fill="white"/>
<defs>
<linearGradient id="paint0_linear_400_8180" x1="148.738" y1="23.1563" x2="137.977" y2="282.861" gradientUnits="userSpaceOnUse">
<stop stop-color="#A327FC"/>
<stop offset="0.270567" stop-color="#822CC7"/>
<stop offset="0.579785" stop-color="#5D1C9B"/>
<stop offset="1" stop-color="#371667"/>
</linearGradient>
</defs>
</svg>
