<svg width="309" height="308" viewBox="0 0 309 308" fill="none" xmlns="http://www.w3.org/2000/svg">
<g filter="url(#filter0_ddd_400_8192)">
<circle cx="154.345" cy="154.162" r="139.249" transform="rotate(6.36954 154.345 154.162)" fill="url(#paint0_linear_400_8192)"/>
<path d="M78.44 163.823H74.7329V154.305H65.1564V163.823H61.4346V142.404H65.1564V151.319H74.7329V142.404H78.44V163.823ZM95.3718 154.261H86.5749V160.851H96.8576V163.823H82.8531V142.404H96.7546V145.405H86.5749V151.319H95.3718V154.261ZM111.877 158.836H103.58L101.844 163.823H97.9756L106.066 142.404H109.406L117.511 163.823H113.628L111.877 158.836ZM104.625 155.835H110.833L107.729 146.95L104.625 155.835ZM123.675 160.851H133.399V163.823H119.953V142.404H123.675V160.851ZM148.698 145.405H142.019V163.823H138.327V145.405H131.707V142.404H148.698V145.405ZM168.527 163.823H164.82V154.305H155.244V163.823H151.522V142.404H155.244V151.319H164.82V142.404H168.527V163.823ZM189.284 156.85C189.068 159.135 188.225 160.92 186.754 162.205C185.283 163.48 183.326 164.117 180.884 164.117C179.178 164.117 177.672 163.715 176.368 162.911C175.074 162.097 174.073 160.944 173.367 159.454C172.661 157.963 172.293 156.232 172.264 154.261V152.26C172.264 150.24 172.622 148.46 173.338 146.92C174.054 145.381 175.078 144.194 176.412 143.36C177.756 142.527 179.305 142.11 181.061 142.11C183.424 142.11 185.327 142.752 186.768 144.037C188.21 145.322 189.049 147.136 189.284 149.48H185.577C185.4 147.94 184.949 146.832 184.223 146.155C183.508 145.469 182.453 145.126 181.061 145.126C179.443 145.126 178.197 145.719 177.324 146.906C176.461 148.082 176.02 149.813 176 152.098V153.996C176 156.311 176.412 158.076 177.236 159.292C178.07 160.508 179.286 161.116 180.884 161.116C182.345 161.116 183.444 160.787 184.179 160.13C184.915 159.473 185.381 158.38 185.577 156.85H189.284ZM204.612 158.836H196.316L194.58 163.823H190.711L198.802 142.404H202.141L210.246 163.823H206.363L204.612 158.836ZM197.36 155.835H203.568L200.464 146.95L197.36 155.835ZM220.559 155.57H216.41V163.823H212.688V142.404H220.22C222.692 142.404 224.599 142.958 225.943 144.066C227.286 145.175 227.958 146.778 227.958 148.877C227.958 150.309 227.61 151.51 226.913 152.481C226.227 153.442 225.266 154.182 224.03 154.702L228.841 163.632V163.823H224.854L220.559 155.57ZM216.41 152.584H220.235C221.49 152.584 222.471 152.27 223.177 151.642C223.883 151.005 224.236 150.137 224.236 149.039C224.236 147.891 223.908 147.004 223.251 146.376C222.603 145.748 221.632 145.425 220.338 145.405H216.41V152.584ZM244.007 154.261H235.21V160.851H245.493V163.823H231.488V142.404H245.39V145.405H235.21V151.319H244.007V154.261Z" fill="white"/>
</g>
<defs>
<filter id="filter0_ddd_400_8192" x="11.3176" y="14.9014" width="286.054" height="286.054" filterUnits="userSpaceOnUse" color-interpolation-filters="sRGB">
<feFlood flood-opacity="0" result="BackgroundImageFix"/>
<feColorMatrix in="SourceAlpha" type="matrix" values="0 0 0 0 0 0 0 0 0 0 0 0 0 0 0 0 0 0 127 0" result="hardAlpha"/>
<feOffset dy="3.7659"/>
<feGaussianBlur stdDeviation="1.88295"/>
<feComposite in2="hardAlpha" operator="out"/>
<feColorMatrix type="matrix" values="0 0 0 0 0 0 0 0 0 0 0 0 0 0 0 0 0 0 0.25 0"/>
<feBlend mode="normal" in2="BackgroundImageFix" result="effect1_dropShadow_400_8192"/>
<feColorMatrix in="SourceAlpha" type="matrix" values="0 0 0 0 0 0 0 0 0 0 0 0 0 0 0 0 0 0 127 0" result="hardAlpha"/>
<feOffset dy="3.7659"/>
<feGaussianBlur stdDeviation="1.88295"/>
<feComposite in2="hardAlpha" operator="out"/>
<feColorMatrix type="matrix" values="0 0 0 0 0 0 0 0 0 0 0 0 0 0 0 0 0 0 0.25 0"/>
<feBlend mode="normal" in2="effect1_dropShadow_400_8192" result="effect2_dropShadow_400_8192"/>
<feColorMatrix in="SourceAlpha" type="matrix" values="0 0 0 0 0 0 0 0 0 0 0 0 0 0 0 0 0 0 127 0" result="hardAlpha"/>
<feOffset dy="3.7659"/>
<feGaussianBlur stdDeviation="1.88295"/>
<feComposite in2="hardAlpha" operator="out"/>
<feColorMatrix type="matrix" values="0 0 0 0 0 0 0 0 0 0 0 0 0 0 0 0 0 0 0.25 0"/>
<feBlend mode="normal" in2="effect2_dropShadow_400_8192" result="effect3_dropShadow_400_8192"/>
<feBlend mode="normal" in="SourceGraphic" in2="effect3_dropShadow_400_8192" result="shape"/>
</filter>
<linearGradient id="paint0_linear_400_8192" x1="152.067" y1="22.8313" x2="141" y2="289.916" gradientUnits="userSpaceOnUse">
<stop stop-color="#A327FC"/>
<stop offset="0.270567" stop-color="#822CC7"/>
<stop offset="0.579785" stop-color="#5D1C9B"/>
<stop offset="1" stop-color="#371667"/>
</linearGradient>
</defs>
</svg>
