<svg width="267" height="262" viewBox="0 0 267 262" fill="none" xmlns="http://www.w3.org/2000/svg">
<g filter="url(#filter0_ddd_400_8183)">
<ellipse rx="119.392" ry="117.288" transform="matrix(0.992903 0.118928 -0.122919 0.992417 133.531 130.863)" fill="url(#paint0_linear_400_8183)"/>
<path d="M114.517 110.114C114.517 112.213 114.154 114.056 113.429 115.645C112.703 117.224 111.663 118.44 110.31 119.293C108.967 120.137 107.417 120.558 105.662 120.558C103.926 120.558 102.376 120.137 101.013 119.293C99.6597 118.44 98.6103 117.229 97.865 115.66C97.1294 114.091 96.7568 112.281 96.747 110.232V109.025C96.747 106.936 97.1147 105.093 97.8503 103.494C98.5956 101.896 99.64 100.675 100.984 99.8312C102.337 98.978 103.886 98.5514 105.632 98.5514C107.378 98.5514 108.922 98.9731 110.266 99.8165C111.619 100.65 112.664 101.856 113.399 103.435C114.135 105.004 114.508 106.833 114.517 108.922V110.114ZM110.796 108.996C110.796 106.623 110.344 104.803 109.442 103.538C108.55 102.273 107.28 101.641 105.632 101.641C104.024 101.641 102.764 102.273 101.852 103.538C100.949 104.794 100.488 106.574 100.469 108.878V110.114C100.469 112.468 100.925 114.287 101.837 115.571C102.759 116.856 104.034 117.499 105.662 117.499C107.309 117.499 108.574 116.871 109.457 115.616C110.349 114.36 110.796 112.526 110.796 110.114V108.996ZM121.946 112.306V120.264H118.224V98.8456H126.418C128.811 98.8456 130.709 99.4684 132.111 100.714C133.523 101.959 134.229 103.607 134.229 105.657C134.229 107.755 133.538 109.388 132.155 110.555C130.782 111.722 128.855 112.306 126.374 112.306H121.946ZM121.946 109.32H126.418C127.742 109.32 128.752 109.011 129.449 108.393C130.145 107.765 130.493 106.863 130.493 105.686C130.493 104.529 130.14 103.607 129.434 102.92C128.728 102.224 127.757 101.866 126.521 101.847H121.946V109.32ZM150.014 110.702H141.217V117.293H151.5V120.264H137.495V98.8456H151.397V101.847H141.217V107.76H150.014V110.702ZM171.521 120.264H167.799L158.252 105.068V120.264H154.53V98.8456H158.252L167.828 114.1V98.8456H171.521V120.264ZM55.631 155.264H51.9239V133.846H55.631V155.264ZM77.1967 155.264H73.4749L63.9278 140.068V155.264H60.206V133.846H63.9278L73.5043 149.1V133.846H77.1967V155.264ZM98.5858 155.264H94.864L85.3169 140.068V155.264H81.5951V133.846H85.3169L94.8934 149.1V133.846H98.5858V155.264ZM120.078 145.114C120.078 147.213 119.715 149.056 118.989 150.645C118.264 152.224 117.224 153.44 115.871 154.293C114.527 155.137 112.978 155.558 111.222 155.558C109.486 155.558 107.937 155.137 106.574 154.293C105.22 153.44 104.171 152.229 103.426 150.66C102.69 149.091 102.317 147.281 102.308 145.232V144.025C102.308 141.936 102.675 140.093 103.411 138.494C104.156 136.896 105.201 135.675 106.544 134.831C107.898 133.978 109.447 133.551 111.193 133.551C112.938 133.551 114.483 133.973 115.827 134.817C117.18 135.65 118.224 136.856 118.96 138.435C119.695 140.004 120.068 141.833 120.078 143.922V145.114ZM116.356 143.996C116.356 141.623 115.905 139.803 115.003 138.538C114.11 137.273 112.84 136.641 111.193 136.641C109.584 136.641 108.324 137.273 107.412 138.538C106.51 139.794 106.049 141.574 106.029 143.878V145.114C106.029 147.468 106.485 149.287 107.397 150.571C108.319 151.856 109.594 152.499 111.222 152.499C112.87 152.499 114.135 151.871 115.017 150.616C115.91 149.36 116.356 147.526 116.356 145.114V143.996ZM131.008 150.601L136.451 133.846H140.54L132.832 155.264H129.228L121.549 133.846H125.624L131.008 150.601ZM153.839 150.277H145.542L143.806 155.264H139.937L148.028 133.846H151.367L159.473 155.264H155.589L153.839 150.277ZM146.586 147.276H152.794L149.69 138.391L146.586 147.276ZM175.625 136.847H168.946V155.264H165.254V136.847H158.634V133.846H175.625V136.847ZM182.377 155.264H178.67V133.846H182.377V155.264ZM204.046 145.114C204.046 147.213 203.683 149.056 202.957 150.645C202.231 152.224 201.192 153.44 199.838 154.293C198.495 155.137 196.945 155.558 195.19 155.558C193.454 155.558 191.905 155.137 190.541 154.293C189.188 153.44 188.139 152.229 187.393 150.66C186.658 149.091 186.285 147.281 186.275 145.232V144.025C186.275 141.936 186.643 140.093 187.379 138.494C188.124 136.896 189.168 135.675 190.512 134.831C191.865 133.978 193.415 133.551 195.161 133.551C196.906 133.551 198.451 133.973 199.794 134.817C201.148 135.65 202.192 136.856 202.928 138.435C203.663 140.004 204.036 141.833 204.046 143.922V145.114ZM200.324 143.996C200.324 141.623 199.873 139.803 198.971 138.538C198.078 137.273 196.808 136.641 195.161 136.641C193.552 136.641 192.292 137.273 191.38 138.538C190.478 139.794 190.017 141.574 189.997 143.878V145.114C189.997 147.468 190.453 149.287 191.365 150.571C192.287 151.856 193.562 152.499 195.19 152.499C196.838 152.499 198.103 151.871 198.985 150.616C199.878 149.36 200.324 147.526 200.324 145.114V143.996ZM224.743 155.264H221.022L211.474 140.068V155.264H207.753V133.846H211.474L221.051 149.1V133.846H224.743V155.264Z" fill="white"/>
</g>
<defs>
<filter id="filter0_ddd_400_8183" x="10.3342" y="13.5898" width="246.393" height="242.078" filterUnits="userSpaceOnUse" color-interpolation-filters="sRGB">
<feFlood flood-opacity="0" result="BackgroundImageFix"/>
<feColorMatrix in="SourceAlpha" type="matrix" values="0 0 0 0 0 0 0 0 0 0 0 0 0 0 0 0 0 0 127 0" result="hardAlpha"/>
<feOffset dy="3.7659"/>
<feGaussianBlur stdDeviation="1.88295"/>
<feComposite in2="hardAlpha" operator="out"/>
<feColorMatrix type="matrix" values="0 0 0 0 0 0 0 0 0 0 0 0 0 0 0 0 0 0 0.25 0"/>
<feBlend mode="normal" in2="BackgroundImageFix" result="effect1_dropShadow_400_8183"/>
<feColorMatrix in="SourceAlpha" type="matrix" values="0 0 0 0 0 0 0 0 0 0 0 0 0 0 0 0 0 0 127 0" result="hardAlpha"/>
<feOffset dy="3.7659"/>
<feGaussianBlur stdDeviation="1.88295"/>
<feComposite in2="hardAlpha" operator="out"/>
<feColorMatrix type="matrix" values="0 0 0 0 0 0 0 0 0 0 0 0 0 0 0 0 0 0 0.25 0"/>
<feBlend mode="normal" in2="effect1_dropShadow_400_8183" result="effect2_dropShadow_400_8183"/>
<feColorMatrix in="SourceAlpha" type="matrix" values="0 0 0 0 0 0 0 0 0 0 0 0 0 0 0 0 0 0 127 0" result="hardAlpha"/>
<feOffset dy="3.7659"/>
<feGaussianBlur stdDeviation="1.88295"/>
<feComposite in2="hardAlpha" operator="out"/>
<feColorMatrix type="matrix" values="0 0 0 0 0 0 0 0 0 0 0 0 0 0 0 0 0 0 0.25 0"/>
<feBlend mode="normal" in2="effect2_dropShadow_400_8183" result="effect3_dropShadow_400_8183"/>
<feBlend mode="normal" in="SourceGraphic" in2="effect3_dropShadow_400_8183" result="shape"/>
</filter>
<linearGradient id="paint0_linear_400_8183" x1="117.44" y1="6.66889" x2="108.282" y2="231.645" gradientUnits="userSpaceOnUse">
<stop stop-color="#A327FC"/>
<stop offset="0.270567" stop-color="#822CC7"/>
<stop offset="0.579785" stop-color="#5D1C9B"/>
<stop offset="1" stop-color="#371667"/>
</linearGradient>
</defs>
</svg>
