<svg width="182" height="176" viewBox="0 0 182 176" fill="none" xmlns="http://www.w3.org/2000/svg">
<g filter="url(#filter0_ddd_400_8187)">
<ellipse rx="81.1013" ry="78.5118" transform="matrix(0.993094 0.117322 -0.124606 0.992206 90.8441 87.8499)" fill="url(#paint0_linear_400_8187)"/>
<path d="M58.7167 94.7697C58.7167 93.8282 58.3833 93.1025 57.7164 92.5925C57.0593 92.0826 55.8678 91.5677 54.1417 91.0479C52.4157 90.5281 51.0427 89.9495 50.0228 89.3121C48.0712 88.0862 47.0954 86.4876 47.0954 84.5164C47.0954 82.7904 47.7966 81.3684 49.199 80.2504C50.6112 79.1324 52.4402 78.5734 54.686 78.5734C56.1767 78.5734 57.5056 78.848 58.6726 79.3972C59.8396 79.9464 60.7566 80.7309 61.4235 81.7508C62.0903 82.761 62.4238 83.8839 62.4238 85.1196L58.7167 85.1196C58.7167 84.0016 58.3637 83.1287 57.6576 82.5011C56.9613 81.8636 55.961 81.5449 54.6566 81.5449C53.4405 81.5449 52.4942 81.8048 51.8175 82.3246C51.1506 82.8443 50.8172 83.5701 50.8172 84.5017C50.8172 85.2863 51.18 85.9434 51.9057 86.4729C52.6315 86.9927 53.8279 87.5027 55.4951 88.0028C57.1623 88.4932 58.501 89.0571 59.5111 89.6945C60.5212 90.3222 61.2617 91.0479 61.7324 91.8717C62.2031 92.6857 62.4385 93.6419 62.4385 94.7403C62.4385 96.5251 61.752 97.9472 60.379 99.0063C59.0158 100.056 57.1623 100.58 54.8184 100.58C53.2689 100.58 51.842 100.296 50.5377 99.7271C49.2431 99.1485 48.233 98.3541 47.5073 97.344C46.7914 96.3339 46.4334 95.1571 46.4334 93.8135L50.1552 93.8135C50.1552 95.0296 50.5573 95.971 51.3615 96.6379C52.1656 97.3048 53.318 97.6382 54.8184 97.6382C56.113 97.6382 57.0839 97.3783 57.7311 96.8586C58.3882 96.329 58.7167 95.6327 58.7167 94.7697ZM69.426 92.3277L69.426 100.286L65.7042 100.286L65.7042 78.8676L73.898 78.8676C76.2909 78.8676 78.1886 79.4903 79.591 80.7358C81.0032 81.9813 81.7093 83.6289 81.7093 85.6786C81.7093 87.7773 81.0179 89.4101 79.6351 90.5772C78.2621 91.7442 76.3351 92.3277 73.8539 92.3277L69.426 92.3277ZM69.426 89.3415L73.898 89.3415C75.222 89.3415 76.2321 89.0326 76.9284 88.4147C77.6247 87.7871 77.9728 86.8848 77.9728 85.708C77.9728 84.5508 77.6198 83.6289 76.9137 82.9424C76.2076 82.2461 75.2367 81.8881 74.001 81.8685L69.426 81.8685L69.426 89.3415ZM94.3457 95.2993L86.0489 95.2993L84.3131 100.286L80.4442 100.286L88.535 78.8676L91.8743 78.8676L99.9798 100.286L96.0962 100.286L94.3457 95.2993ZM87.0934 92.2983L93.3012 92.2983L90.1973 83.4131L87.0934 92.2983ZM118.442 93.3133C118.226 95.5984 117.382 97.3833 115.911 98.668C114.44 99.9429 112.484 100.58 110.042 100.58C108.335 100.58 106.83 100.178 105.526 99.3741C104.231 98.5601 103.231 97.4078 102.525 95.9171C101.819 94.4264 101.451 92.6955 101.421 90.7243L101.421 88.7236C101.421 86.7034 101.779 84.9234 102.495 83.3837C103.211 81.844 104.236 80.6574 105.57 79.8238C106.913 78.9902 108.463 78.5734 110.218 78.5734C112.582 78.5734 114.484 79.2157 115.926 80.5005C117.368 81.7852 118.206 83.5995 118.442 85.9434L114.734 85.9434C114.558 84.4037 114.107 83.2955 113.381 82.6188C112.665 81.9323 111.611 81.589 110.218 81.589C108.6 81.589 107.355 82.1824 106.482 83.369C105.619 84.5459 105.178 86.2768 105.158 88.5618L105.158 90.4595C105.158 92.7739 105.57 94.5392 106.394 95.7553C107.227 96.9714 108.443 97.5794 110.042 97.5794C111.503 97.5794 112.601 97.2509 113.337 96.5938C114.072 95.9367 114.538 94.8432 114.734 93.3133L118.442 93.3133ZM134.3 90.7243L125.503 90.7243L125.503 97.3146L135.785 97.3146L135.785 100.286L121.781 100.286L121.781 78.8676L135.682 78.8676L135.682 81.8685L125.503 81.8685L125.503 87.7822L134.3 87.7822L134.3 90.7243Z" fill="white"/>
</g>
<defs>
<filter id="filter0_ddd_400_8187" x="5.93674" y="9.36304" width="169.815" height="164.505" filterUnits="userSpaceOnUse" color-interpolation-filters="sRGB">
<feFlood flood-opacity="0" result="BackgroundImageFix"/>
<feColorMatrix in="SourceAlpha" type="matrix" values="0 0 0 0 0 0 0 0 0 0 0 0 0 0 0 0 0 0 127 0" result="hardAlpha"/>
<feOffset dy="3.7659"/>
<feGaussianBlur stdDeviation="1.88295"/>
<feComposite in2="hardAlpha" operator="out"/>
<feColorMatrix type="matrix" values="0 0 0 0 0 0 0 0 0 0 0 0 0 0 0 0 0 0 0.25 0"/>
<feBlend mode="normal" in2="BackgroundImageFix" result="effect1_dropShadow_400_8187"/>
<feColorMatrix in="SourceAlpha" type="matrix" values="0 0 0 0 0 0 0 0 0 0 0 0 0 0 0 0 0 0 127 0" result="hardAlpha"/>
<feOffset dy="3.7659"/>
<feGaussianBlur stdDeviation="1.88295"/>
<feComposite in2="hardAlpha" operator="out"/>
<feColorMatrix type="matrix" values="0 0 0 0 0 0 0 0 0 0 0 0 0 0 0 0 0 0 0.25 0"/>
<feBlend mode="normal" in2="effect1_dropShadow_400_8187" result="effect2_dropShadow_400_8187"/>
<feColorMatrix in="SourceAlpha" type="matrix" values="0 0 0 0 0 0 0 0 0 0 0 0 0 0 0 0 0 0 127 0" result="hardAlpha"/>
<feOffset dy="3.7659"/>
<feGaussianBlur stdDeviation="1.88295"/>
<feComposite in2="hardAlpha" operator="out"/>
<feColorMatrix type="matrix" values="0 0 0 0 0 0 0 0 0 0 0 0 0 0 0 0 0 0 0.25 0"/>
<feBlend mode="normal" in2="effect2_dropShadow_400_8187" result="effect3_dropShadow_400_8187"/>
<feBlend mode="normal" in="SourceGraphic" in2="effect3_dropShadow_400_8187" result="shape"/>
</filter>
<linearGradient id="paint0_linear_400_8187" x1="79.7748" y1="4.46412" x2="73.7338" y2="155.069" gradientUnits="userSpaceOnUse">
<stop stop-color="#A327FC"/>
<stop offset="0.270567" stop-color="#822CC7"/>
<stop offset="0.579785" stop-color="#5D1C9B"/>
<stop offset="1" stop-color="#371667"/>
</linearGradient>
</defs>
</svg>
