<svg width="189" height="36" viewBox="0 0 189 36" fill="none" xmlns="http://www.w3.org/2000/svg">
<ellipse cx="105.155" cy="0.768732" rx="0.594485" ry="0.768732" fill="#A979EF"/>
<ellipse cx="107.532" cy="0.76922" rx="0.594485" ry="0.768732" fill="#A979EF"/>
<ellipse cx="109.912" cy="0.76922" rx="0.594485" ry="0.768732" fill="#A979EF"/>
<ellipse cx="112.289" cy="0.76922" rx="0.594485" ry="0.768732" fill="#A979EF"/>
<ellipse cx="114.667" cy="0.76922" rx="0.594485" ry="0.768732" fill="#A979EF"/>
<ellipse cx="117.046" cy="0.76922" rx="0.594485" ry="0.768732" fill="#A979EF"/>
<ellipse cx="119.424" cy="0.76922" rx="0.594485" ry="0.768732" fill="#A979EF"/>
<ellipse cx="121.8" cy="0.76922" rx="0.594485" ry="0.768732" fill="#A979EF"/>
<ellipse cx="124.177" cy="0.76922" rx="0.594485" ry="0.768732" fill="#A979EF"/>
<ellipse cx="126.556" cy="0.76922" rx="0.594485" ry="0.768732" fill="#A979EF"/>
<ellipse cx="128.934" cy="0.76922" rx="0.594485" ry="0.768732" fill="#A979EF"/>
<ellipse cx="131.312" cy="0.76922" rx="0.594485" ry="0.768732" fill="#A979EF"/>
<ellipse cx="133.691" cy="0.76922" rx="0.594485" ry="0.768732" fill="#A979EF"/>
<ellipse cx="136.069" cy="0.76922" rx="0.594485" ry="0.768732" fill="#A979EF"/>
<ellipse cx="138.446" cy="0.76922" rx="0.594485" ry="0.768732" fill="#A979EF"/>
<ellipse cx="140.825" cy="0.76922" rx="0.594485" ry="0.768732" fill="#A979EF"/>
<ellipse cx="143.203" cy="0.76922" rx="0.594485" ry="0.768732" fill="#A979EF"/>
<ellipse cx="145.58" cy="0.76922" rx="0.594485" ry="0.768732" fill="#A979EF"/>
<ellipse cx="147.96" cy="0.76922" rx="0.594485" ry="0.768732" fill="#A979EF"/>
<ellipse cx="150.337" cy="0.76922" rx="0.594485" ry="0.768732" fill="#A979EF"/>
<ellipse cx="152.715" cy="0.76922" rx="0.594485" ry="0.768732" fill="#A979EF"/>
<ellipse cx="155.094" cy="0.76922" rx="0.594485" ry="0.768732" fill="#A979EF"/>
<ellipse cx="157.468" cy="0.76922" rx="0.594485" ry="0.768732" fill="#A979EF"/>
<ellipse cx="159.847" cy="0.76922" rx="0.594485" ry="0.768732" fill="#A979EF"/>
<ellipse cx="162.225" cy="0.76922" rx="0.594485" ry="0.768732" fill="#A979EF"/>
<ellipse cx="164.604" cy="0.76922" rx="0.594485" ry="0.768732" fill="#A979EF"/>
<ellipse cx="166.982" cy="0.76922" rx="0.594485" ry="0.768732" fill="#A979EF"/>
<ellipse cx="169.36" cy="0.76922" rx="0.594485" ry="0.768732" fill="#A979EF"/>
<ellipse cx="171.739" cy="0.76922" rx="0.594485" ry="0.768732" fill="#A979EF"/>
<ellipse cx="174.115" cy="0.76922" rx="0.594485" ry="0.768732" fill="#A979EF"/>
<ellipse cx="176.492" cy="0.76922" rx="0.594485" ry="0.768732" fill="#A979EF"/>
<ellipse cx="178.871" cy="0.76922" rx="0.594485" ry="0.768732" fill="#A979EF"/>
<ellipse cx="181.249" cy="0.76922" rx="0.594485" ry="0.768732" fill="#A979EF"/>
<ellipse cx="183.628" cy="0.76922" rx="0.594485" ry="0.768732" fill="#A979EF"/>
<ellipse cx="186.006" cy="0.76922" rx="0.594485" ry="0.768732" fill="#A979EF"/>
<ellipse cx="188.384" cy="0.76922" rx="0.594485" ry="0.768732" fill="#A979EF"/>
<ellipse cx="105.155" cy="3.84442" rx="0.594485" ry="0.768732" fill="#A979EF"/>
<ellipse cx="107.532" cy="3.84442" rx="0.594485" ry="0.768732" fill="#A979EF"/>
<ellipse cx="109.912" cy="3.84442" rx="0.594485" ry="0.768732" fill="#A979EF"/>
<ellipse cx="112.289" cy="3.84442" rx="0.594485" ry="0.768732" fill="#A979EF"/>
<ellipse cx="114.667" cy="3.84442" rx="0.594485" ry="0.768732" fill="#A979EF"/>
<ellipse cx="117.046" cy="3.84442" rx="0.594485" ry="0.768732" fill="#A979EF"/>
<ellipse cx="119.424" cy="3.84442" rx="0.594485" ry="0.768732" fill="#A979EF"/>
<ellipse cx="121.8" cy="3.84442" rx="0.594485" ry="0.768732" fill="#A979EF"/>
<ellipse cx="124.177" cy="3.84442" rx="0.594485" ry="0.768732" fill="#A979EF"/>
<ellipse cx="126.556" cy="3.84442" rx="0.594485" ry="0.768732" fill="#A979EF"/>
<ellipse cx="128.934" cy="3.84442" rx="0.594485" ry="0.768732" fill="#A979EF"/>
<ellipse cx="131.312" cy="3.84442" rx="0.594485" ry="0.768732" fill="#A979EF"/>
<ellipse cx="133.691" cy="3.84442" rx="0.594485" ry="0.768732" fill="#A979EF"/>
<ellipse cx="136.069" cy="3.84442" rx="0.594485" ry="0.768732" fill="#A979EF"/>
<ellipse cx="138.446" cy="3.84442" rx="0.594485" ry="0.768732" fill="#A979EF"/>
<ellipse cx="140.825" cy="3.84442" rx="0.594485" ry="0.768732" fill="#A979EF"/>
<ellipse cx="143.203" cy="3.84442" rx="0.594485" ry="0.768732" fill="#A979EF"/>
<ellipse cx="145.58" cy="3.84442" rx="0.594485" ry="0.768732" fill="#A979EF"/>
<ellipse cx="147.96" cy="3.84442" rx="0.594485" ry="0.768732" fill="#A979EF"/>
<ellipse cx="150.337" cy="3.84442" rx="0.594485" ry="0.768732" fill="#A979EF"/>
<ellipse cx="152.715" cy="3.84442" rx="0.594485" ry="0.768732" fill="#A979EF"/>
<ellipse cx="155.094" cy="3.84442" rx="0.594485" ry="0.768732" fill="#A979EF"/>
<ellipse cx="157.468" cy="3.84442" rx="0.594485" ry="0.768732" fill="#A979EF"/>
<ellipse cx="159.847" cy="3.84442" rx="0.594485" ry="0.768732" fill="#A979EF"/>
<ellipse cx="162.225" cy="3.84442" rx="0.594485" ry="0.768732" fill="#A979EF"/>
<ellipse cx="164.604" cy="3.84442" rx="0.594485" ry="0.768732" fill="#A979EF"/>
<ellipse cx="166.982" cy="3.84442" rx="0.594485" ry="0.768732" fill="#A979EF"/>
<ellipse cx="169.36" cy="3.84442" rx="0.594485" ry="0.768732" fill="#A979EF"/>
<ellipse cx="171.739" cy="3.84442" rx="0.594485" ry="0.768732" fill="#A979EF"/>
<ellipse cx="174.115" cy="3.84442" rx="0.594485" ry="0.768732" fill="#A979EF"/>
<ellipse cx="176.492" cy="3.84442" rx="0.594485" ry="0.768732" fill="#A979EF"/>
<ellipse cx="178.871" cy="3.84442" rx="0.594485" ry="0.768732" fill="#A979EF"/>
<ellipse cx="181.249" cy="3.84442" rx="0.594485" ry="0.768732" fill="#A979EF"/>
<ellipse cx="183.628" cy="3.84442" rx="0.594485" ry="0.768732" fill="#A979EF"/>
<ellipse cx="186.006" cy="3.84442" rx="0.594485" ry="0.768732" fill="#A979EF"/>
<ellipse cx="188.384" cy="3.84442" rx="0.594485" ry="0.768732" fill="#A979EF"/>
<ellipse cx="105.155" cy="6.91961" rx="0.594485" ry="0.768732" fill="#A979EF"/>
<ellipse cx="107.532" cy="6.91961" rx="0.594485" ry="0.768732" fill="#A979EF"/>
<ellipse cx="109.912" cy="6.91961" rx="0.594485" ry="0.768732" fill="#A979EF"/>
<ellipse cx="112.289" cy="6.91961" rx="0.594485" ry="0.768732" fill="#A979EF"/>
<ellipse cx="114.667" cy="6.91961" rx="0.594485" ry="0.768732" fill="#A979EF"/>
<ellipse cx="117.046" cy="6.91961" rx="0.594485" ry="0.768732" fill="#A979EF"/>
<ellipse cx="119.424" cy="6.91961" rx="0.594485" ry="0.768732" fill="#A979EF"/>
<ellipse cx="121.8" cy="6.91961" rx="0.594485" ry="0.768732" fill="#A979EF"/>
<ellipse cx="124.177" cy="6.91961" rx="0.594485" ry="0.768732" fill="#A979EF"/>
<ellipse cx="126.556" cy="6.91961" rx="0.594485" ry="0.768732" fill="#A979EF"/>
<ellipse cx="128.934" cy="6.91961" rx="0.594485" ry="0.768732" fill="#A979EF"/>
<ellipse cx="131.312" cy="6.91961" rx="0.594485" ry="0.768732" fill="#A979EF"/>
<ellipse cx="133.691" cy="6.91961" rx="0.594485" ry="0.768732" fill="#A979EF"/>
<ellipse cx="136.069" cy="6.91961" rx="0.594485" ry="0.768732" fill="#A979EF"/>
<ellipse cx="138.446" cy="6.91961" rx="0.594485" ry="0.768732" fill="#A979EF"/>
<ellipse cx="140.825" cy="6.91961" rx="0.594485" ry="0.768732" fill="#A979EF"/>
<ellipse cx="143.203" cy="6.91961" rx="0.594485" ry="0.768732" fill="#A979EF"/>
<ellipse cx="145.58" cy="6.91961" rx="0.594485" ry="0.768732" fill="#A979EF"/>
<ellipse cx="147.96" cy="6.91961" rx="0.594485" ry="0.768732" fill="#A979EF"/>
<ellipse cx="150.337" cy="6.91961" rx="0.594485" ry="0.768732" fill="#A979EF"/>
<ellipse cx="152.715" cy="6.91961" rx="0.594485" ry="0.768732" fill="#A979EF"/>
<ellipse cx="155.094" cy="6.91961" rx="0.594485" ry="0.768732" fill="#A979EF"/>
<ellipse cx="157.468" cy="6.91961" rx="0.594485" ry="0.768732" fill="#A979EF"/>
<ellipse cx="159.847" cy="6.91961" rx="0.594485" ry="0.768732" fill="#A979EF"/>
<ellipse cx="162.225" cy="6.91961" rx="0.594485" ry="0.768732" fill="#A979EF"/>
<ellipse cx="164.604" cy="6.91961" rx="0.594485" ry="0.768732" fill="#A979EF"/>
<ellipse cx="166.982" cy="6.91961" rx="0.594485" ry="0.768732" fill="#A979EF"/>
<ellipse cx="169.36" cy="6.91961" rx="0.594485" ry="0.768732" fill="#A979EF"/>
<ellipse cx="171.739" cy="6.91961" rx="0.594485" ry="0.768732" fill="#A979EF"/>
<ellipse cx="174.115" cy="6.91961" rx="0.594485" ry="0.768732" fill="#A979EF"/>
<ellipse cx="176.492" cy="6.91961" rx="0.594485" ry="0.768732" fill="#A979EF"/>
<ellipse cx="178.871" cy="6.91961" rx="0.594485" ry="0.768732" fill="#A979EF"/>
<ellipse cx="181.249" cy="6.91961" rx="0.594485" ry="0.768732" fill="#A979EF"/>
<ellipse cx="183.628" cy="6.91961" rx="0.594485" ry="0.768732" fill="#A979EF"/>
<ellipse cx="186.006" cy="6.91961" rx="0.594485" ry="0.768732" fill="#A979EF"/>
<ellipse cx="188.384" cy="6.91961" rx="0.594485" ry="0.768732" fill="#A979EF"/>
<ellipse cx="105.155" cy="9.99481" rx="0.594485" ry="0.768732" fill="#A979EF"/>
<ellipse cx="107.532" cy="9.99481" rx="0.594485" ry="0.768732" fill="#A979EF"/>
<ellipse cx="109.912" cy="9.99481" rx="0.594485" ry="0.768732" fill="#A979EF"/>
<ellipse cx="112.289" cy="9.99481" rx="0.594485" ry="0.768732" fill="#A979EF"/>
<ellipse cx="114.667" cy="9.99481" rx="0.594485" ry="0.768732" fill="#A979EF"/>
<ellipse cx="117.046" cy="9.99481" rx="0.594485" ry="0.768732" fill="#A979EF"/>
<ellipse cx="119.424" cy="9.99481" rx="0.594485" ry="0.768732" fill="#A979EF"/>
<ellipse cx="121.8" cy="9.99481" rx="0.594485" ry="0.768732" fill="#A979EF"/>
<ellipse cx="124.177" cy="9.99481" rx="0.594485" ry="0.768732" fill="#A979EF"/>
<ellipse cx="126.556" cy="9.99481" rx="0.594485" ry="0.768732" fill="#A979EF"/>
<ellipse cx="128.934" cy="9.99481" rx="0.594485" ry="0.768732" fill="#A979EF"/>
<ellipse cx="131.312" cy="9.99481" rx="0.594485" ry="0.768732" fill="#A979EF"/>
<ellipse cx="133.691" cy="9.99481" rx="0.594485" ry="0.768732" fill="#A979EF"/>
<ellipse cx="136.069" cy="9.99481" rx="0.594485" ry="0.768732" fill="#A979EF"/>
<ellipse cx="138.446" cy="9.99481" rx="0.594485" ry="0.768732" fill="#A979EF"/>
<ellipse cx="140.825" cy="9.99481" rx="0.594485" ry="0.768732" fill="#A979EF"/>
<ellipse cx="143.203" cy="9.99481" rx="0.594485" ry="0.768732" fill="#A979EF"/>
<ellipse cx="145.58" cy="9.99481" rx="0.594485" ry="0.768732" fill="#A979EF"/>
<ellipse cx="147.96" cy="9.99481" rx="0.594485" ry="0.768732" fill="#A979EF"/>
<ellipse cx="150.337" cy="9.99481" rx="0.594485" ry="0.768732" fill="#A979EF"/>
<ellipse cx="152.715" cy="9.99481" rx="0.594485" ry="0.768732" fill="#A979EF"/>
<ellipse cx="155.094" cy="9.99481" rx="0.594485" ry="0.768732" fill="#A979EF"/>
<ellipse cx="157.468" cy="9.99481" rx="0.594485" ry="0.768732" fill="#A979EF"/>
<ellipse cx="159.847" cy="9.99481" rx="0.594485" ry="0.768732" fill="#A979EF"/>
<ellipse cx="162.225" cy="9.99481" rx="0.594485" ry="0.768732" fill="#A979EF"/>
<ellipse cx="164.604" cy="9.99481" rx="0.594485" ry="0.768732" fill="#A979EF"/>
<ellipse cx="166.982" cy="9.99481" rx="0.594485" ry="0.768732" fill="#A979EF"/>
<ellipse cx="169.36" cy="9.99481" rx="0.594485" ry="0.768732" fill="#A979EF"/>
<ellipse cx="171.739" cy="9.99481" rx="0.594485" ry="0.768732" fill="#A979EF"/>
<ellipse cx="174.115" cy="9.99481" rx="0.594485" ry="0.768732" fill="#A979EF"/>
<ellipse cx="176.492" cy="9.99481" rx="0.594485" ry="0.768732" fill="#A979EF"/>
<ellipse cx="178.871" cy="9.99481" rx="0.594485" ry="0.768732" fill="#A979EF"/>
<ellipse cx="181.249" cy="9.99481" rx="0.594485" ry="0.768732" fill="#A979EF"/>
<ellipse cx="183.628" cy="9.99481" rx="0.594485" ry="0.768732" fill="#A979EF"/>
<ellipse cx="186.006" cy="9.99481" rx="0.594485" ry="0.768732" fill="#A979EF"/>
<ellipse cx="188.384" cy="9.99481" rx="0.594485" ry="0.768732" fill="#A979EF"/>
<ellipse cx="105.155" cy="13.068" rx="0.594485" ry="0.768732" fill="#A979EF"/>
<ellipse cx="107.532" cy="13.068" rx="0.594485" ry="0.768732" fill="#A979EF"/>
<ellipse cx="109.912" cy="13.068" rx="0.594485" ry="0.768732" fill="#A979EF"/>
<ellipse cx="112.289" cy="13.068" rx="0.594485" ry="0.768732" fill="#A979EF"/>
<ellipse cx="114.667" cy="13.068" rx="0.594485" ry="0.768732" fill="#A979EF"/>
<ellipse cx="117.046" cy="13.068" rx="0.594485" ry="0.768732" fill="#A979EF"/>
<ellipse cx="119.424" cy="13.068" rx="0.594485" ry="0.768732" fill="#A979EF"/>
<ellipse cx="121.8" cy="13.068" rx="0.594485" ry="0.768732" fill="#A979EF"/>
<ellipse cx="124.177" cy="13.068" rx="0.594485" ry="0.768732" fill="#A979EF"/>
<ellipse cx="126.556" cy="13.068" rx="0.594485" ry="0.768732" fill="#A979EF"/>
<ellipse cx="128.934" cy="13.068" rx="0.594485" ry="0.768732" fill="#A979EF"/>
<ellipse cx="131.312" cy="13.068" rx="0.594485" ry="0.768732" fill="#A979EF"/>
<ellipse cx="133.691" cy="13.068" rx="0.594485" ry="0.768732" fill="#A979EF"/>
<ellipse cx="136.069" cy="13.068" rx="0.594485" ry="0.768732" fill="#A979EF"/>
<ellipse cx="138.446" cy="13.068" rx="0.594485" ry="0.768732" fill="#A979EF"/>
<ellipse cx="140.825" cy="13.068" rx="0.594485" ry="0.768732" fill="#A979EF"/>
<ellipse cx="143.203" cy="13.068" rx="0.594485" ry="0.768732" fill="#A979EF"/>
<ellipse cx="145.58" cy="13.068" rx="0.594485" ry="0.768732" fill="#A979EF"/>
<ellipse cx="147.96" cy="13.068" rx="0.594485" ry="0.768732" fill="#A979EF"/>
<ellipse cx="150.337" cy="13.068" rx="0.594485" ry="0.768732" fill="#A979EF"/>
<ellipse cx="152.715" cy="13.068" rx="0.594485" ry="0.768732" fill="#A979EF"/>
<ellipse cx="155.094" cy="13.068" rx="0.594485" ry="0.768732" fill="#A979EF"/>
<ellipse cx="157.468" cy="13.068" rx="0.594485" ry="0.768732" fill="#A979EF"/>
<ellipse cx="159.847" cy="13.068" rx="0.594485" ry="0.768732" fill="#A979EF"/>
<ellipse cx="162.225" cy="13.068" rx="0.594485" ry="0.768732" fill="#A979EF"/>
<ellipse cx="164.604" cy="13.068" rx="0.594485" ry="0.768732" fill="#A979EF"/>
<ellipse cx="166.982" cy="13.068" rx="0.594485" ry="0.768732" fill="#A979EF"/>
<ellipse cx="169.36" cy="13.068" rx="0.594485" ry="0.768732" fill="#A979EF"/>
<ellipse cx="171.739" cy="13.068" rx="0.594485" ry="0.768732" fill="#A979EF"/>
<ellipse cx="174.115" cy="13.068" rx="0.594485" ry="0.768732" fill="#A979EF"/>
<ellipse cx="176.492" cy="13.068" rx="0.594485" ry="0.768732" fill="#A979EF"/>
<ellipse cx="178.871" cy="13.068" rx="0.594485" ry="0.768732" fill="#A979EF"/>
<ellipse cx="181.249" cy="13.068" rx="0.594485" ry="0.768732" fill="#A979EF"/>
<ellipse cx="183.628" cy="13.068" rx="0.594485" ry="0.768732" fill="#A979EF"/>
<ellipse cx="186.006" cy="13.068" rx="0.594485" ry="0.768732" fill="#A979EF"/>
<ellipse cx="188.384" cy="13.068" rx="0.594485" ry="0.768732" fill="#A979EF"/>
<ellipse cx="105.155" cy="16.1432" rx="0.594485" ry="0.768732" fill="#A979EF"/>
<ellipse cx="107.532" cy="16.1432" rx="0.594485" ry="0.768732" fill="#A979EF"/>
<ellipse cx="109.912" cy="16.1432" rx="0.594485" ry="0.768732" fill="#A979EF"/>
<ellipse cx="112.289" cy="16.1432" rx="0.594485" ry="0.768732" fill="#A979EF"/>
<ellipse cx="114.667" cy="16.1432" rx="0.594485" ry="0.768732" fill="#A979EF"/>
<ellipse cx="117.046" cy="16.1432" rx="0.594485" ry="0.768732" fill="#A979EF"/>
<ellipse cx="119.424" cy="16.1432" rx="0.594485" ry="0.768732" fill="#A979EF"/>
<ellipse cx="121.8" cy="16.1432" rx="0.594485" ry="0.768732" fill="#A979EF"/>
<ellipse cx="124.177" cy="16.1432" rx="0.594485" ry="0.768732" fill="#A979EF"/>
<ellipse cx="126.556" cy="16.1432" rx="0.594485" ry="0.768732" fill="#A979EF"/>
<ellipse cx="128.934" cy="16.1432" rx="0.594485" ry="0.768732" fill="#A979EF"/>
<ellipse cx="131.312" cy="16.1432" rx="0.594485" ry="0.768732" fill="#A979EF"/>
<ellipse cx="133.691" cy="16.1432" rx="0.594485" ry="0.768732" fill="#A979EF"/>
<ellipse cx="136.069" cy="16.1432" rx="0.594485" ry="0.768732" fill="#A979EF"/>
<ellipse cx="138.446" cy="16.1432" rx="0.594485" ry="0.768732" fill="#A979EF"/>
<ellipse cx="140.825" cy="16.1432" rx="0.594485" ry="0.768732" fill="#A979EF"/>
<ellipse cx="143.203" cy="16.1432" rx="0.594485" ry="0.768732" fill="#A979EF"/>
<ellipse cx="145.58" cy="16.1432" rx="0.594485" ry="0.768732" fill="#A979EF"/>
<ellipse cx="147.96" cy="16.1432" rx="0.594485" ry="0.768732" fill="#A979EF"/>
<ellipse cx="150.337" cy="16.1432" rx="0.594485" ry="0.768732" fill="#A979EF"/>
<ellipse cx="152.715" cy="16.1432" rx="0.594485" ry="0.768732" fill="#A979EF"/>
<ellipse cx="155.094" cy="16.1432" rx="0.594485" ry="0.768732" fill="#A979EF"/>
<ellipse cx="157.468" cy="16.1432" rx="0.594485" ry="0.768732" fill="#A979EF"/>
<ellipse cx="159.847" cy="16.1432" rx="0.594485" ry="0.768732" fill="#A979EF"/>
<ellipse cx="162.225" cy="16.1432" rx="0.594485" ry="0.768732" fill="#A979EF"/>
<ellipse cx="164.604" cy="16.1432" rx="0.594485" ry="0.768732" fill="#A979EF"/>
<ellipse cx="166.982" cy="16.1432" rx="0.594485" ry="0.768732" fill="#A979EF"/>
<ellipse cx="169.36" cy="16.1432" rx="0.594485" ry="0.768732" fill="#A979EF"/>
<ellipse cx="171.739" cy="16.1432" rx="0.594485" ry="0.768732" fill="#A979EF"/>
<ellipse cx="174.115" cy="16.1432" rx="0.594485" ry="0.768732" fill="#A979EF"/>
<ellipse cx="176.492" cy="16.1432" rx="0.594485" ry="0.768732" fill="#A979EF"/>
<ellipse cx="178.871" cy="16.1432" rx="0.594485" ry="0.768732" fill="#A979EF"/>
<ellipse cx="181.249" cy="16.1432" rx="0.594485" ry="0.768732" fill="#A979EF"/>
<ellipse cx="183.628" cy="16.1432" rx="0.594485" ry="0.768732" fill="#A979EF"/>
<ellipse cx="186.006" cy="16.1432" rx="0.594485" ry="0.768732" fill="#A979EF"/>
<ellipse cx="188.384" cy="16.1432" rx="0.594485" ry="0.768732" fill="#A979EF"/>
<ellipse cx="105.155" cy="19.2184" rx="0.594485" ry="0.768732" fill="#A979EF"/>
<ellipse cx="107.532" cy="19.2184" rx="0.594485" ry="0.768732" fill="#A979EF"/>
<ellipse cx="109.912" cy="19.2184" rx="0.594485" ry="0.768732" fill="#A979EF"/>
<ellipse cx="112.289" cy="19.2184" rx="0.594485" ry="0.768732" fill="#A979EF"/>
<ellipse cx="114.667" cy="19.2184" rx="0.594485" ry="0.768732" fill="#A979EF"/>
<ellipse cx="117.046" cy="19.2184" rx="0.594485" ry="0.768732" fill="#A979EF"/>
<ellipse cx="119.424" cy="19.2184" rx="0.594485" ry="0.768732" fill="#A979EF"/>
<ellipse cx="121.8" cy="19.2184" rx="0.594485" ry="0.768732" fill="#A979EF"/>
<ellipse cx="124.177" cy="19.2184" rx="0.594485" ry="0.768732" fill="#A979EF"/>
<ellipse cx="126.556" cy="19.2184" rx="0.594485" ry="0.768732" fill="#A979EF"/>
<ellipse cx="128.934" cy="19.2184" rx="0.594485" ry="0.768732" fill="#A979EF"/>
<ellipse cx="131.312" cy="19.2184" rx="0.594485" ry="0.768732" fill="#A979EF"/>
<ellipse cx="133.691" cy="19.2184" rx="0.594485" ry="0.768732" fill="#A979EF"/>
<ellipse cx="136.069" cy="19.2184" rx="0.594485" ry="0.768732" fill="#A979EF"/>
<ellipse cx="138.446" cy="19.2184" rx="0.594485" ry="0.768732" fill="#A979EF"/>
<ellipse cx="140.825" cy="19.2184" rx="0.594485" ry="0.768732" fill="#A979EF"/>
<ellipse cx="143.203" cy="19.2184" rx="0.594485" ry="0.768732" fill="#A979EF"/>
<ellipse cx="145.58" cy="19.2184" rx="0.594485" ry="0.768732" fill="#A979EF"/>
<ellipse cx="147.96" cy="19.2184" rx="0.594485" ry="0.768732" fill="#A979EF"/>
<ellipse cx="150.337" cy="19.2184" rx="0.594485" ry="0.768732" fill="#A979EF"/>
<ellipse cx="152.715" cy="19.2184" rx="0.594485" ry="0.768732" fill="#A979EF"/>
<ellipse cx="155.094" cy="19.2184" rx="0.594485" ry="0.768732" fill="#A979EF"/>
<ellipse cx="157.468" cy="19.2184" rx="0.594485" ry="0.768732" fill="#A979EF"/>
<ellipse cx="159.847" cy="19.2184" rx="0.594485" ry="0.768732" fill="#A979EF"/>
<ellipse cx="162.225" cy="19.2184" rx="0.594485" ry="0.768732" fill="#A979EF"/>
<ellipse cx="164.604" cy="19.2184" rx="0.594485" ry="0.768732" fill="#A979EF"/>
<ellipse cx="166.982" cy="19.2184" rx="0.594485" ry="0.768732" fill="#A979EF"/>
<ellipse cx="169.36" cy="19.2184" rx="0.594485" ry="0.768732" fill="#A979EF"/>
<ellipse cx="171.739" cy="19.2184" rx="0.594485" ry="0.768732" fill="#A979EF"/>
<ellipse cx="174.115" cy="19.2184" rx="0.594485" ry="0.768732" fill="#A979EF"/>
<ellipse cx="176.492" cy="19.2184" rx="0.594485" ry="0.768732" fill="#A979EF"/>
<ellipse cx="178.871" cy="19.2184" rx="0.594485" ry="0.768732" fill="#A979EF"/>
<ellipse cx="181.249" cy="19.2184" rx="0.594485" ry="0.768732" fill="#A979EF"/>
<ellipse cx="183.628" cy="19.2184" rx="0.594485" ry="0.768732" fill="#A979EF"/>
<ellipse cx="186.006" cy="19.2184" rx="0.594485" ry="0.768732" fill="#A979EF"/>
<ellipse cx="188.384" cy="19.2184" rx="0.594485" ry="0.768732" fill="#A979EF"/>
<ellipse cx="105.155" cy="22.2936" rx="0.594485" ry="0.768732" fill="#A979EF"/>
<ellipse cx="107.532" cy="22.2936" rx="0.594485" ry="0.768732" fill="#A979EF"/>
<ellipse cx="109.912" cy="22.2936" rx="0.594485" ry="0.768732" fill="#A979EF"/>
<ellipse cx="112.289" cy="22.2936" rx="0.594485" ry="0.768732" fill="#A979EF"/>
<ellipse cx="114.667" cy="22.2936" rx="0.594485" ry="0.768732" fill="#A979EF"/>
<ellipse cx="117.046" cy="22.2936" rx="0.594485" ry="0.768732" fill="#A979EF"/>
<ellipse cx="119.424" cy="22.2936" rx="0.594485" ry="0.768732" fill="#A979EF"/>
<ellipse cx="121.8" cy="22.2936" rx="0.594485" ry="0.768732" fill="#A979EF"/>
<ellipse cx="124.177" cy="22.2936" rx="0.594485" ry="0.768732" fill="#A979EF"/>
<ellipse cx="126.556" cy="22.2936" rx="0.594485" ry="0.768732" fill="#A979EF"/>
<ellipse cx="128.934" cy="22.2936" rx="0.594485" ry="0.768732" fill="#A979EF"/>
<ellipse cx="131.312" cy="22.2936" rx="0.594485" ry="0.768732" fill="#A979EF"/>
<ellipse cx="133.691" cy="22.2936" rx="0.594485" ry="0.768732" fill="#A979EF"/>
<ellipse cx="136.069" cy="22.2936" rx="0.594485" ry="0.768732" fill="#A979EF"/>
<ellipse cx="138.446" cy="22.2936" rx="0.594485" ry="0.768732" fill="#A979EF"/>
<ellipse cx="140.825" cy="22.2936" rx="0.594485" ry="0.768732" fill="#A979EF"/>
<ellipse cx="143.203" cy="22.2936" rx="0.594485" ry="0.768732" fill="#A979EF"/>
<ellipse cx="145.58" cy="22.2936" rx="0.594485" ry="0.768732" fill="#A979EF"/>
<ellipse cx="147.96" cy="22.2936" rx="0.594485" ry="0.768732" fill="#A979EF"/>
<ellipse cx="150.337" cy="22.2936" rx="0.594485" ry="0.768732" fill="#A979EF"/>
<ellipse cx="152.715" cy="22.2936" rx="0.594485" ry="0.768732" fill="#A979EF"/>
<ellipse cx="155.094" cy="22.2936" rx="0.594485" ry="0.768732" fill="#A979EF"/>
<ellipse cx="157.468" cy="22.2936" rx="0.594485" ry="0.768732" fill="#A979EF"/>
<ellipse cx="159.847" cy="22.2936" rx="0.594485" ry="0.768732" fill="#A979EF"/>
<ellipse cx="162.225" cy="22.2936" rx="0.594485" ry="0.768732" fill="#A979EF"/>
<ellipse cx="164.604" cy="22.2936" rx="0.594485" ry="0.768732" fill="#A979EF"/>
<ellipse cx="166.982" cy="22.2936" rx="0.594485" ry="0.768732" fill="#A979EF"/>
<ellipse cx="169.36" cy="22.2936" rx="0.594485" ry="0.768732" fill="#A979EF"/>
<ellipse cx="171.739" cy="22.2936" rx="0.594485" ry="0.768732" fill="#A979EF"/>
<ellipse cx="174.115" cy="22.2936" rx="0.594485" ry="0.768732" fill="#A979EF"/>
<ellipse cx="176.492" cy="22.2936" rx="0.594485" ry="0.768732" fill="#A979EF"/>
<ellipse cx="178.871" cy="22.2936" rx="0.594485" ry="0.768732" fill="#A979EF"/>
<ellipse cx="181.249" cy="22.2936" rx="0.594485" ry="0.768732" fill="#A979EF"/>
<ellipse cx="183.628" cy="22.2936" rx="0.594485" ry="0.768732" fill="#A979EF"/>
<ellipse cx="186.006" cy="22.2936" rx="0.594485" ry="0.768732" fill="#A979EF"/>
<ellipse cx="188.384" cy="22.2936" rx="0.594485" ry="0.768732" fill="#A979EF"/>
<ellipse cx="105.155" cy="25.3688" rx="0.594485" ry="0.768732" fill="#A979EF"/>
<ellipse cx="107.532" cy="25.3688" rx="0.594485" ry="0.768732" fill="#A979EF"/>
<ellipse cx="109.912" cy="25.3688" rx="0.594485" ry="0.768732" fill="#A979EF"/>
<ellipse cx="112.289" cy="25.3688" rx="0.594485" ry="0.768732" fill="#A979EF"/>
<ellipse cx="114.667" cy="25.3688" rx="0.594485" ry="0.768732" fill="#A979EF"/>
<ellipse cx="117.046" cy="25.3688" rx="0.594485" ry="0.768732" fill="#A979EF"/>
<ellipse cx="119.424" cy="25.3688" rx="0.594485" ry="0.768732" fill="#A979EF"/>
<ellipse cx="121.8" cy="25.3688" rx="0.594485" ry="0.768732" fill="#A979EF"/>
<ellipse cx="124.177" cy="25.3688" rx="0.594485" ry="0.768732" fill="#A979EF"/>
<ellipse cx="126.556" cy="25.3688" rx="0.594485" ry="0.768732" fill="#A979EF"/>
<ellipse cx="128.934" cy="25.3688" rx="0.594485" ry="0.768732" fill="#A979EF"/>
<ellipse cx="131.312" cy="25.3688" rx="0.594485" ry="0.768732" fill="#A979EF"/>
<ellipse cx="133.691" cy="25.3688" rx="0.594485" ry="0.768732" fill="#A979EF"/>
<ellipse cx="136.069" cy="25.3688" rx="0.594485" ry="0.768732" fill="#A979EF"/>
<ellipse cx="138.446" cy="25.3688" rx="0.594485" ry="0.768732" fill="#A979EF"/>
<ellipse cx="140.825" cy="25.3688" rx="0.594485" ry="0.768732" fill="#A979EF"/>
<ellipse cx="143.203" cy="25.3688" rx="0.594485" ry="0.768732" fill="#A979EF"/>
<ellipse cx="145.58" cy="25.3688" rx="0.594485" ry="0.768732" fill="#A979EF"/>
<ellipse cx="147.96" cy="25.3688" rx="0.594485" ry="0.768732" fill="#A979EF"/>
<ellipse cx="150.337" cy="25.3688" rx="0.594485" ry="0.768732" fill="#A979EF"/>
<ellipse cx="152.715" cy="25.3688" rx="0.594485" ry="0.768732" fill="#A979EF"/>
<ellipse cx="155.094" cy="25.3688" rx="0.594485" ry="0.768732" fill="#A979EF"/>
<ellipse cx="157.468" cy="25.3688" rx="0.594485" ry="0.768732" fill="#A979EF"/>
<ellipse cx="159.847" cy="25.3688" rx="0.594485" ry="0.768732" fill="#A979EF"/>
<ellipse cx="162.225" cy="25.3688" rx="0.594485" ry="0.768732" fill="#A979EF"/>
<ellipse cx="164.604" cy="25.3688" rx="0.594485" ry="0.768732" fill="#A979EF"/>
<ellipse cx="166.982" cy="25.3688" rx="0.594485" ry="0.768732" fill="#A979EF"/>
<ellipse cx="169.36" cy="25.3688" rx="0.594485" ry="0.768732" fill="#A979EF"/>
<ellipse cx="171.739" cy="25.3688" rx="0.594485" ry="0.768732" fill="#A979EF"/>
<ellipse cx="174.115" cy="25.3688" rx="0.594485" ry="0.768732" fill="#A979EF"/>
<ellipse cx="176.492" cy="25.3688" rx="0.594485" ry="0.768732" fill="#A979EF"/>
<ellipse cx="178.871" cy="25.3688" rx="0.594485" ry="0.768732" fill="#A979EF"/>
<ellipse cx="181.249" cy="25.3688" rx="0.594485" ry="0.768732" fill="#A979EF"/>
<ellipse cx="183.628" cy="25.3688" rx="0.594485" ry="0.768732" fill="#A979EF"/>
<ellipse cx="186.006" cy="25.3688" rx="0.594485" ry="0.768732" fill="#A979EF"/>
<ellipse cx="188.384" cy="25.3688" rx="0.594485" ry="0.768732" fill="#A979EF"/>
<ellipse cx="105.155" cy="28.444" rx="0.594485" ry="0.768732" fill="#A979EF"/>
<ellipse cx="107.532" cy="28.444" rx="0.594485" ry="0.768732" fill="#A979EF"/>
<ellipse cx="109.912" cy="28.444" rx="0.594485" ry="0.768732" fill="#A979EF"/>
<ellipse cx="112.289" cy="28.444" rx="0.594485" ry="0.768732" fill="#A979EF"/>
<ellipse cx="114.667" cy="28.444" rx="0.594485" ry="0.768732" fill="#A979EF"/>
<ellipse cx="117.046" cy="28.444" rx="0.594485" ry="0.768732" fill="#A979EF"/>
<ellipse cx="119.424" cy="28.444" rx="0.594485" ry="0.768732" fill="#A979EF"/>
<ellipse cx="121.8" cy="28.444" rx="0.594485" ry="0.768732" fill="#A979EF"/>
<ellipse cx="124.177" cy="28.444" rx="0.594485" ry="0.768732" fill="#A979EF"/>
<ellipse cx="126.556" cy="28.444" rx="0.594485" ry="0.768732" fill="#A979EF"/>
<ellipse cx="128.934" cy="28.444" rx="0.594485" ry="0.768732" fill="#A979EF"/>
<ellipse cx="131.312" cy="28.444" rx="0.594485" ry="0.768732" fill="#A979EF"/>
<ellipse cx="133.691" cy="28.444" rx="0.594485" ry="0.768732" fill="#A979EF"/>
<ellipse cx="136.069" cy="28.444" rx="0.594485" ry="0.768732" fill="#A979EF"/>
<ellipse cx="138.446" cy="28.444" rx="0.594485" ry="0.768732" fill="#A979EF"/>
<ellipse cx="140.825" cy="28.444" rx="0.594485" ry="0.768732" fill="#A979EF"/>
<ellipse cx="143.203" cy="28.444" rx="0.594485" ry="0.768732" fill="#A979EF"/>
<ellipse cx="145.58" cy="28.444" rx="0.594485" ry="0.768732" fill="#A979EF"/>
<ellipse cx="147.96" cy="28.444" rx="0.594485" ry="0.768732" fill="#A979EF"/>
<ellipse cx="150.337" cy="28.444" rx="0.594485" ry="0.768732" fill="#A979EF"/>
<ellipse cx="152.715" cy="28.444" rx="0.594485" ry="0.768732" fill="#A979EF"/>
<ellipse cx="155.094" cy="28.444" rx="0.594485" ry="0.768732" fill="#A979EF"/>
<ellipse cx="157.468" cy="28.444" rx="0.594485" ry="0.768732" fill="#A979EF"/>
<ellipse cx="159.847" cy="28.444" rx="0.594485" ry="0.768732" fill="#A979EF"/>
<ellipse cx="162.225" cy="28.444" rx="0.594485" ry="0.768732" fill="#A979EF"/>
<ellipse cx="164.604" cy="28.444" rx="0.594485" ry="0.768732" fill="#A979EF"/>
<ellipse cx="166.982" cy="28.444" rx="0.594485" ry="0.768732" fill="#A979EF"/>
<ellipse cx="169.36" cy="28.444" rx="0.594485" ry="0.768732" fill="#A979EF"/>
<ellipse cx="171.739" cy="28.444" rx="0.594485" ry="0.768732" fill="#A979EF"/>
<ellipse cx="174.115" cy="28.444" rx="0.594485" ry="0.768732" fill="#A979EF"/>
<ellipse cx="176.492" cy="28.444" rx="0.594485" ry="0.768732" fill="#A979EF"/>
<ellipse cx="178.871" cy="28.444" rx="0.594485" ry="0.768732" fill="#A979EF"/>
<ellipse cx="181.249" cy="28.444" rx="0.594485" ry="0.768732" fill="#A979EF"/>
<ellipse cx="183.628" cy="28.444" rx="0.594485" ry="0.768732" fill="#A979EF"/>
<ellipse cx="186.006" cy="28.444" rx="0.594485" ry="0.768732" fill="#A979EF"/>
<ellipse cx="188.384" cy="28.444" rx="0.594485" ry="0.768732" fill="#A979EF"/>
<ellipse cx="105.155" cy="31.5192" rx="0.594485" ry="0.768732" fill="#A979EF"/>
<ellipse cx="107.532" cy="31.5192" rx="0.594485" ry="0.768732" fill="#A979EF"/>
<ellipse cx="109.912" cy="31.5192" rx="0.594485" ry="0.768732" fill="#A979EF"/>
<ellipse cx="112.289" cy="31.5192" rx="0.594485" ry="0.768732" fill="#A979EF"/>
<ellipse cx="114.667" cy="31.5192" rx="0.594485" ry="0.768732" fill="#A979EF"/>
<ellipse cx="117.046" cy="31.5192" rx="0.594485" ry="0.768732" fill="#A979EF"/>
<ellipse cx="119.424" cy="31.5192" rx="0.594485" ry="0.768732" fill="#A979EF"/>
<ellipse cx="121.8" cy="31.5192" rx="0.594485" ry="0.768732" fill="#A979EF"/>
<ellipse cx="124.177" cy="31.5192" rx="0.594485" ry="0.768732" fill="#A979EF"/>
<ellipse cx="126.556" cy="31.5192" rx="0.594485" ry="0.768732" fill="#A979EF"/>
<ellipse cx="128.934" cy="31.5192" rx="0.594485" ry="0.768732" fill="#A979EF"/>
<ellipse cx="131.312" cy="31.5192" rx="0.594485" ry="0.768732" fill="#A979EF"/>
<ellipse cx="133.691" cy="31.5192" rx="0.594485" ry="0.768732" fill="#A979EF"/>
<ellipse cx="136.069" cy="31.5192" rx="0.594485" ry="0.768732" fill="#A979EF"/>
<ellipse cx="138.446" cy="31.5192" rx="0.594485" ry="0.768732" fill="#A979EF"/>
<ellipse cx="140.825" cy="31.5192" rx="0.594485" ry="0.768732" fill="#A979EF"/>
<ellipse cx="143.203" cy="31.5192" rx="0.594485" ry="0.768732" fill="#A979EF"/>
<ellipse cx="145.58" cy="31.5192" rx="0.594485" ry="0.768732" fill="#A979EF"/>
<ellipse cx="147.96" cy="31.5192" rx="0.594485" ry="0.768732" fill="#A979EF"/>
<ellipse cx="150.337" cy="31.5192" rx="0.594485" ry="0.768732" fill="#A979EF"/>
<ellipse cx="152.715" cy="31.5192" rx="0.594485" ry="0.768732" fill="#A979EF"/>
<ellipse cx="155.094" cy="31.5192" rx="0.594485" ry="0.768732" fill="#A979EF"/>
<ellipse cx="157.468" cy="31.5192" rx="0.594485" ry="0.768732" fill="#A979EF"/>
<ellipse cx="159.847" cy="31.5192" rx="0.594485" ry="0.768732" fill="#A979EF"/>
<ellipse cx="162.225" cy="31.5192" rx="0.594485" ry="0.768732" fill="#A979EF"/>
<ellipse cx="164.604" cy="31.5192" rx="0.594485" ry="0.768732" fill="#A979EF"/>
<ellipse cx="166.982" cy="31.5192" rx="0.594485" ry="0.768732" fill="#A979EF"/>
<ellipse cx="169.36" cy="31.5192" rx="0.594485" ry="0.768732" fill="#A979EF"/>
<ellipse cx="171.739" cy="31.5192" rx="0.594485" ry="0.768732" fill="#A979EF"/>
<ellipse cx="174.115" cy="31.5192" rx="0.594485" ry="0.768732" fill="#A979EF"/>
<ellipse cx="176.492" cy="31.5192" rx="0.594485" ry="0.768732" fill="#A979EF"/>
<ellipse cx="178.871" cy="31.5192" rx="0.594485" ry="0.768732" fill="#A979EF"/>
<ellipse cx="181.249" cy="31.5192" rx="0.594485" ry="0.768732" fill="#A979EF"/>
<ellipse cx="183.628" cy="31.5192" rx="0.594485" ry="0.768732" fill="#A979EF"/>
<ellipse cx="186.006" cy="31.5192" rx="0.594485" ry="0.768732" fill="#A979EF"/>
<ellipse cx="188.384" cy="31.5192" rx="0.594485" ry="0.768732" fill="#A979EF"/>
<ellipse cx="105.155" cy="34.5929" rx="0.594485" ry="0.768732" fill="#A979EF"/>
<ellipse cx="107.532" cy="34.5929" rx="0.594485" ry="0.768732" fill="#A979EF"/>
<ellipse cx="109.912" cy="34.5929" rx="0.594485" ry="0.768732" fill="#A979EF"/>
<ellipse cx="112.289" cy="34.5929" rx="0.594485" ry="0.768732" fill="#A979EF"/>
<ellipse cx="114.667" cy="34.5929" rx="0.594485" ry="0.768732" fill="#A979EF"/>
<ellipse cx="117.046" cy="34.5929" rx="0.594485" ry="0.768732" fill="#A979EF"/>
<ellipse cx="119.424" cy="34.5929" rx="0.594485" ry="0.768732" fill="#A979EF"/>
<ellipse cx="121.8" cy="34.5929" rx="0.594485" ry="0.768732" fill="#A979EF"/>
<ellipse cx="124.177" cy="34.5929" rx="0.594485" ry="0.768732" fill="#A979EF"/>
<ellipse cx="126.556" cy="34.5929" rx="0.594485" ry="0.768732" fill="#A979EF"/>
<ellipse cx="128.934" cy="34.5929" rx="0.594485" ry="0.768732" fill="#A979EF"/>
<ellipse cx="131.312" cy="34.5929" rx="0.594485" ry="0.768732" fill="#A979EF"/>
<ellipse cx="133.691" cy="34.5929" rx="0.594485" ry="0.768732" fill="#A979EF"/>
<ellipse cx="136.069" cy="34.5929" rx="0.594485" ry="0.768732" fill="#A979EF"/>
<ellipse cx="138.446" cy="34.5929" rx="0.594485" ry="0.768732" fill="#A979EF"/>
<ellipse cx="140.825" cy="34.5929" rx="0.594485" ry="0.768732" fill="#A979EF"/>
<ellipse cx="143.203" cy="34.5929" rx="0.594485" ry="0.768732" fill="#A979EF"/>
<ellipse cx="145.58" cy="34.5929" rx="0.594485" ry="0.768732" fill="#A979EF"/>
<ellipse cx="147.96" cy="34.5929" rx="0.594485" ry="0.768732" fill="#A979EF"/>
<ellipse cx="150.337" cy="34.5929" rx="0.594485" ry="0.768732" fill="#A979EF"/>
<ellipse cx="152.715" cy="34.5929" rx="0.594485" ry="0.768732" fill="#A979EF"/>
<ellipse cx="155.094" cy="34.5929" rx="0.594485" ry="0.768732" fill="#A979EF"/>
<ellipse cx="157.468" cy="34.5929" rx="0.594485" ry="0.768732" fill="#A979EF"/>
<ellipse cx="159.847" cy="34.5929" rx="0.594485" ry="0.768732" fill="#A979EF"/>
<ellipse cx="162.225" cy="34.5929" rx="0.594485" ry="0.768732" fill="#A979EF"/>
<ellipse cx="164.604" cy="34.5929" rx="0.594485" ry="0.768732" fill="#A979EF"/>
<ellipse cx="166.982" cy="34.5929" rx="0.594485" ry="0.768732" fill="#A979EF"/>
<ellipse cx="169.36" cy="34.5929" rx="0.594485" ry="0.768732" fill="#A979EF"/>
<ellipse cx="171.739" cy="34.5929" rx="0.594485" ry="0.768732" fill="#A979EF"/>
<ellipse cx="174.115" cy="34.5929" rx="0.594485" ry="0.768732" fill="#A979EF"/>
<ellipse cx="176.492" cy="34.5929" rx="0.594485" ry="0.768732" fill="#A979EF"/>
<ellipse cx="178.871" cy="34.5929" rx="0.594485" ry="0.768732" fill="#A979EF"/>
<ellipse cx="181.249" cy="34.5929" rx="0.594485" ry="0.768732" fill="#A979EF"/>
<ellipse cx="183.628" cy="34.5929" rx="0.594485" ry="0.768732" fill="#A979EF"/>
<ellipse cx="186.006" cy="34.5929" rx="0.594485" ry="0.768732" fill="#A979EF"/>
<ellipse cx="188.384" cy="34.5929" rx="0.594485" ry="0.768732" fill="#A979EF"/>
<ellipse cx="0.594485" cy="0.76922" rx="0.594485" ry="0.768732" fill="#A979EF"/>
<ellipse cx="2.97193" cy="0.768732" rx="0.594485" ry="0.768732" fill="#A979EF"/>
<ellipse cx="5.35132" cy="0.768732" rx="0.594485" ry="0.768732" fill="#A979EF"/>
<ellipse cx="7.72876" cy="0.768732" rx="0.594485" ry="0.768732" fill="#A979EF"/>
<ellipse cx="10.1062" cy="0.768732" rx="0.594485" ry="0.768732" fill="#A979EF"/>
<ellipse cx="12.4856" cy="0.768732" rx="0.594485" ry="0.768732" fill="#A979EF"/>
<ellipse cx="14.863" cy="0.768732" rx="0.594485" ry="0.768732" fill="#A979EF"/>
<ellipse cx="17.239" cy="0.768732" rx="0.594485" ry="0.768732" fill="#A979EF"/>
<ellipse cx="19.6169" cy="0.768732" rx="0.594485" ry="0.768732" fill="#A979EF"/>
<ellipse cx="21.9959" cy="0.768732" rx="0.594485" ry="0.768732" fill="#A979EF"/>
<ellipse cx="24.3733" cy="0.768732" rx="0.594485" ry="0.768732" fill="#A979EF"/>
<ellipse cx="26.7512" cy="0.768732" rx="0.594485" ry="0.768732" fill="#A979EF"/>
<ellipse cx="29.1301" cy="0.768732" rx="0.594485" ry="0.768732" fill="#A979EF"/>
<ellipse cx="31.5081" cy="0.768732" rx="0.594485" ry="0.768732" fill="#A979EF"/>
<ellipse cx="33.8855" cy="0.768732" rx="0.594485" ry="0.768732" fill="#A979EF"/>
<ellipse cx="36.2649" cy="0.768732" rx="0.594485" ry="0.768732" fill="#A979EF"/>
<ellipse cx="38.6423" cy="0.768732" rx="0.594485" ry="0.768732" fill="#A979EF"/>
<ellipse cx="41.0198" cy="0.768732" rx="0.594485" ry="0.768732" fill="#A979EF"/>
<ellipse cx="43.3992" cy="0.768732" rx="0.594485" ry="0.768732" fill="#A979EF"/>
<ellipse cx="45.7766" cy="0.768732" rx="0.594485" ry="0.768732" fill="#A979EF"/>
<ellipse cx="48.1541" cy="0.768732" rx="0.594485" ry="0.768732" fill="#A979EF"/>
<ellipse cx="50.5335" cy="0.768732" rx="0.594485" ry="0.768732" fill="#A979EF"/>
<ellipse cx="52.9075" cy="0.768732" rx="0.594485" ry="0.768732" fill="#A979EF"/>
<ellipse cx="55.2869" cy="0.768732" rx="0.594485" ry="0.768732" fill="#A979EF"/>
<ellipse cx="57.6643" cy="0.768732" rx="0.594485" ry="0.768732" fill="#A979EF"/>
<ellipse cx="60.0437" cy="0.768732" rx="0.594485" ry="0.768732" fill="#A979EF"/>
<ellipse cx="62.4211" cy="0.768732" rx="0.594485" ry="0.768732" fill="#A979EF"/>
<ellipse cx="64.7991" cy="0.768732" rx="0.594485" ry="0.768732" fill="#A979EF"/>
<ellipse cx="67.178" cy="0.768732" rx="0.594485" ry="0.768732" fill="#A979EF"/>
<ellipse cx="69.554" cy="0.768732" rx="0.594485" ry="0.768732" fill="#A979EF"/>
<ellipse cx="71.9314" cy="0.768732" rx="0.594485" ry="0.768732" fill="#A979EF"/>
<ellipse cx="74.3108" cy="0.768732" rx="0.594485" ry="0.768732" fill="#A979EF"/>
<ellipse cx="76.6882" cy="0.768732" rx="0.594485" ry="0.768732" fill="#A979EF"/>
<ellipse cx="79.0676" cy="0.768732" rx="0.594485" ry="0.768732" fill="#A979EF"/>
<ellipse cx="81.4451" cy="0.768732" rx="0.594485" ry="0.768732" fill="#A979EF"/>
<ellipse cx="83.823" cy="0.768732" rx="0.594485" ry="0.768732" fill="#A979EF"/>
<ellipse cx="86.2019" cy="0.768732" rx="0.594485" ry="0.768732" fill="#A979EF"/>
<ellipse cx="88.5764" cy="0.768732" rx="0.594485" ry="0.768732" fill="#A979EF"/>
<ellipse cx="90.9553" cy="0.768732" rx="0.594485" ry="0.768732" fill="#A979EF"/>
<ellipse cx="93.3333" cy="0.768732" rx="0.594485" ry="0.768732" fill="#A979EF"/>
<ellipse cx="95.7107" cy="0.768732" rx="0.594485" ry="0.768732" fill="#A979EF"/>
<ellipse cx="98.0901" cy="0.768732" rx="0.594485" ry="0.768732" fill="#A979EF"/>
<ellipse cx="100.468" cy="0.768732" rx="0.594485" ry="0.768732" fill="#A979EF"/>
<ellipse cx="102.845" cy="0.768732" rx="0.594485" ry="0.768732" fill="#A979EF"/>
<ellipse cx="0.594485" cy="3.84393" rx="0.594485" ry="0.768732" fill="#A979EF"/>
<ellipse cx="2.97193" cy="3.84393" rx="0.594485" ry="0.768732" fill="#A979EF"/>
<ellipse cx="5.35132" cy="3.84393" rx="0.594485" ry="0.768732" fill="#A979EF"/>
<ellipse cx="7.72876" cy="3.84393" rx="0.594485" ry="0.768732" fill="#A979EF"/>
<ellipse cx="10.1062" cy="3.84393" rx="0.594485" ry="0.768732" fill="#A979EF"/>
<ellipse cx="12.4856" cy="3.84393" rx="0.594485" ry="0.768732" fill="#A979EF"/>
<ellipse cx="14.863" cy="3.84393" rx="0.594485" ry="0.768732" fill="#A979EF"/>
<ellipse cx="17.239" cy="3.84393" rx="0.594485" ry="0.768732" fill="#A979EF"/>
<ellipse cx="19.6169" cy="3.84393" rx="0.594485" ry="0.768732" fill="#A979EF"/>
<ellipse cx="21.9959" cy="3.84393" rx="0.594485" ry="0.768732" fill="#A979EF"/>
<ellipse cx="24.3733" cy="3.84393" rx="0.594485" ry="0.768732" fill="#A979EF"/>
<ellipse cx="26.7512" cy="3.84393" rx="0.594485" ry="0.768732" fill="#A979EF"/>
<ellipse cx="29.1301" cy="3.84393" rx="0.594485" ry="0.768732" fill="#A979EF"/>
<ellipse cx="31.5081" cy="3.84393" rx="0.594485" ry="0.768732" fill="#A979EF"/>
<ellipse cx="33.8855" cy="3.84393" rx="0.594485" ry="0.768732" fill="#A979EF"/>
<ellipse cx="36.2649" cy="3.84393" rx="0.594485" ry="0.768732" fill="#A979EF"/>
<ellipse cx="38.6423" cy="3.84393" rx="0.594485" ry="0.768732" fill="#A979EF"/>
<ellipse cx="41.0198" cy="3.84393" rx="0.594485" ry="0.768732" fill="#A979EF"/>
<ellipse cx="43.3992" cy="3.84393" rx="0.594485" ry="0.768732" fill="#A979EF"/>
<ellipse cx="45.7766" cy="3.84393" rx="0.594485" ry="0.768732" fill="#A979EF"/>
<ellipse cx="48.1541" cy="3.84393" rx="0.594485" ry="0.768732" fill="#A979EF"/>
<ellipse cx="50.5335" cy="3.84393" rx="0.594485" ry="0.768732" fill="#A979EF"/>
<ellipse cx="52.9075" cy="3.84393" rx="0.594485" ry="0.768732" fill="#A979EF"/>
<ellipse cx="55.2869" cy="3.84393" rx="0.594485" ry="0.768732" fill="#A979EF"/>
<ellipse cx="57.6643" cy="3.84393" rx="0.594485" ry="0.768732" fill="#A979EF"/>
<ellipse cx="60.0437" cy="3.84393" rx="0.594485" ry="0.768732" fill="#A979EF"/>
<ellipse cx="62.4211" cy="3.84393" rx="0.594485" ry="0.768732" fill="#A979EF"/>
<ellipse cx="64.7991" cy="3.84393" rx="0.594485" ry="0.768732" fill="#A979EF"/>
<ellipse cx="67.178" cy="3.84393" rx="0.594485" ry="0.768732" fill="#A979EF"/>
<ellipse cx="69.554" cy="3.84393" rx="0.594485" ry="0.768732" fill="#A979EF"/>
<ellipse cx="71.9314" cy="3.84393" rx="0.594485" ry="0.768732" fill="#A979EF"/>
<ellipse cx="74.3108" cy="3.84393" rx="0.594485" ry="0.768732" fill="#A979EF"/>
<ellipse cx="76.6882" cy="3.84393" rx="0.594485" ry="0.768732" fill="#A979EF"/>
<ellipse cx="79.0676" cy="3.84393" rx="0.594485" ry="0.768732" fill="#A979EF"/>
<ellipse cx="81.4451" cy="3.84393" rx="0.594485" ry="0.768732" fill="#A979EF"/>
<ellipse cx="83.823" cy="3.84393" rx="0.594485" ry="0.768732" fill="#A979EF"/>
<ellipse cx="86.2019" cy="3.84393" rx="0.594485" ry="0.768732" fill="#A979EF"/>
<ellipse cx="88.5764" cy="3.84393" rx="0.594485" ry="0.768732" fill="#A979EF"/>
<ellipse cx="90.9553" cy="3.84393" rx="0.594485" ry="0.768732" fill="#A979EF"/>
<ellipse cx="93.3333" cy="3.84393" rx="0.594485" ry="0.768732" fill="#A979EF"/>
<ellipse cx="95.7107" cy="3.84393" rx="0.594485" ry="0.768732" fill="#A979EF"/>
<ellipse cx="98.0901" cy="3.84393" rx="0.594485" ry="0.768732" fill="#A979EF"/>
<ellipse cx="100.468" cy="3.84393" rx="0.594485" ry="0.768732" fill="#A979EF"/>
<ellipse cx="102.845" cy="3.84393" rx="0.594485" ry="0.768732" fill="#A979EF"/>
<ellipse cx="0.594485" cy="6.91912" rx="0.594485" ry="0.768732" fill="#A979EF"/>
<ellipse cx="2.97193" cy="6.91912" rx="0.594485" ry="0.768732" fill="#A979EF"/>
<ellipse cx="5.35132" cy="6.91912" rx="0.594485" ry="0.768732" fill="#A979EF"/>
<ellipse cx="7.72876" cy="6.91912" rx="0.594485" ry="0.768732" fill="#A979EF"/>
<ellipse cx="10.1062" cy="6.91912" rx="0.594485" ry="0.768732" fill="#A979EF"/>
<ellipse cx="12.4856" cy="6.91912" rx="0.594485" ry="0.768732" fill="#A979EF"/>
<ellipse cx="14.863" cy="6.91912" rx="0.594485" ry="0.768732" fill="#A979EF"/>
<ellipse cx="17.239" cy="6.91912" rx="0.594485" ry="0.768732" fill="#A979EF"/>
<ellipse cx="19.6169" cy="6.91912" rx="0.594485" ry="0.768732" fill="#A979EF"/>
<ellipse cx="21.9959" cy="6.91912" rx="0.594485" ry="0.768732" fill="#A979EF"/>
<ellipse cx="24.3733" cy="6.91912" rx="0.594485" ry="0.768732" fill="#A979EF"/>
<ellipse cx="26.7512" cy="6.91912" rx="0.594485" ry="0.768732" fill="#A979EF"/>
<ellipse cx="29.1301" cy="6.91912" rx="0.594485" ry="0.768732" fill="#A979EF"/>
<ellipse cx="31.5081" cy="6.91912" rx="0.594485" ry="0.768732" fill="#A979EF"/>
<ellipse cx="33.8855" cy="6.91912" rx="0.594485" ry="0.768732" fill="#A979EF"/>
<ellipse cx="36.2649" cy="6.91912" rx="0.594485" ry="0.768732" fill="#A979EF"/>
<ellipse cx="38.6423" cy="6.91912" rx="0.594485" ry="0.768732" fill="#A979EF"/>
<ellipse cx="41.0198" cy="6.91912" rx="0.594485" ry="0.768732" fill="#A979EF"/>
<ellipse cx="43.3992" cy="6.91912" rx="0.594485" ry="0.768732" fill="#A979EF"/>
<ellipse cx="45.7766" cy="6.91912" rx="0.594485" ry="0.768732" fill="#A979EF"/>
<ellipse cx="48.1541" cy="6.91912" rx="0.594485" ry="0.768732" fill="#A979EF"/>
<ellipse cx="50.5335" cy="6.91912" rx="0.594485" ry="0.768732" fill="#A979EF"/>
<ellipse cx="52.9075" cy="6.91912" rx="0.594485" ry="0.768732" fill="#A979EF"/>
<ellipse cx="55.2869" cy="6.91912" rx="0.594485" ry="0.768732" fill="#A979EF"/>
<ellipse cx="57.6643" cy="6.91912" rx="0.594485" ry="0.768732" fill="#A979EF"/>
<ellipse cx="60.0437" cy="6.91912" rx="0.594485" ry="0.768732" fill="#A979EF"/>
<ellipse cx="62.4211" cy="6.91912" rx="0.594485" ry="0.768732" fill="#A979EF"/>
<ellipse cx="64.7991" cy="6.91912" rx="0.594485" ry="0.768732" fill="#A979EF"/>
<ellipse cx="67.178" cy="6.91912" rx="0.594485" ry="0.768732" fill="#A979EF"/>
<ellipse cx="69.554" cy="6.91912" rx="0.594485" ry="0.768732" fill="#A979EF"/>
<ellipse cx="71.9314" cy="6.91912" rx="0.594485" ry="0.768732" fill="#A979EF"/>
<ellipse cx="74.3108" cy="6.91912" rx="0.594485" ry="0.768732" fill="#A979EF"/>
<ellipse cx="76.6882" cy="6.91912" rx="0.594485" ry="0.768732" fill="#A979EF"/>
<ellipse cx="79.0676" cy="6.91912" rx="0.594485" ry="0.768732" fill="#A979EF"/>
<ellipse cx="81.4451" cy="6.91912" rx="0.594485" ry="0.768732" fill="#A979EF"/>
<ellipse cx="83.823" cy="6.91912" rx="0.594485" ry="0.768732" fill="#A979EF"/>
<ellipse cx="86.2019" cy="6.91912" rx="0.594485" ry="0.768732" fill="#A979EF"/>
<ellipse cx="88.5764" cy="6.91912" rx="0.594485" ry="0.768732" fill="#A979EF"/>
<ellipse cx="90.9553" cy="6.91912" rx="0.594485" ry="0.768732" fill="#A979EF"/>
<ellipse cx="93.3333" cy="6.91912" rx="0.594485" ry="0.768732" fill="#A979EF"/>
<ellipse cx="95.7107" cy="6.91912" rx="0.594485" ry="0.768732" fill="#A979EF"/>
<ellipse cx="98.0901" cy="6.91912" rx="0.594485" ry="0.768732" fill="#A979EF"/>
<ellipse cx="100.468" cy="6.91912" rx="0.594485" ry="0.768732" fill="#A979EF"/>
<ellipse cx="102.845" cy="6.91912" rx="0.594485" ry="0.768732" fill="#A979EF"/>
<ellipse cx="0.594485" cy="9.99432" rx="0.594485" ry="0.768732" fill="#A979EF"/>
<ellipse cx="2.97193" cy="9.99432" rx="0.594485" ry="0.768732" fill="#A979EF"/>
<ellipse cx="5.35132" cy="9.99432" rx="0.594485" ry="0.768732" fill="#A979EF"/>
<ellipse cx="7.72876" cy="9.99432" rx="0.594485" ry="0.768732" fill="#A979EF"/>
<ellipse cx="10.1062" cy="9.99432" rx="0.594485" ry="0.768732" fill="#A979EF"/>
<ellipse cx="12.4856" cy="9.99432" rx="0.594485" ry="0.768732" fill="#A979EF"/>
<ellipse cx="14.863" cy="9.99432" rx="0.594485" ry="0.768732" fill="#A979EF"/>
<ellipse cx="17.239" cy="9.99432" rx="0.594485" ry="0.768732" fill="#A979EF"/>
<ellipse cx="19.6169" cy="9.99432" rx="0.594485" ry="0.768732" fill="#A979EF"/>
<ellipse cx="21.9959" cy="9.99432" rx="0.594485" ry="0.768732" fill="#A979EF"/>
<ellipse cx="24.3733" cy="9.99432" rx="0.594485" ry="0.768732" fill="#A979EF"/>
<ellipse cx="26.7512" cy="9.99432" rx="0.594485" ry="0.768732" fill="#A979EF"/>
<ellipse cx="29.1301" cy="9.99432" rx="0.594485" ry="0.768732" fill="#A979EF"/>
<ellipse cx="31.5081" cy="9.99432" rx="0.594485" ry="0.768732" fill="#A979EF"/>
<ellipse cx="33.8855" cy="9.99432" rx="0.594485" ry="0.768732" fill="#A979EF"/>
<ellipse cx="36.2649" cy="9.99432" rx="0.594485" ry="0.768732" fill="#A979EF"/>
<ellipse cx="38.6423" cy="9.99432" rx="0.594485" ry="0.768732" fill="#A979EF"/>
<ellipse cx="41.0198" cy="9.99432" rx="0.594485" ry="0.768732" fill="#A979EF"/>
<ellipse cx="43.3992" cy="9.99432" rx="0.594485" ry="0.768732" fill="#A979EF"/>
<ellipse cx="45.7766" cy="9.99432" rx="0.594485" ry="0.768732" fill="#A979EF"/>
<ellipse cx="48.1541" cy="9.99432" rx="0.594485" ry="0.768732" fill="#A979EF"/>
<ellipse cx="50.5335" cy="9.99432" rx="0.594485" ry="0.768732" fill="#A979EF"/>
<ellipse cx="52.9075" cy="9.99432" rx="0.594485" ry="0.768732" fill="#A979EF"/>
<ellipse cx="55.2869" cy="9.99432" rx="0.594485" ry="0.768732" fill="#A979EF"/>
<ellipse cx="57.6643" cy="9.99432" rx="0.594485" ry="0.768732" fill="#A979EF"/>
<ellipse cx="60.0437" cy="9.99432" rx="0.594485" ry="0.768732" fill="#A979EF"/>
<ellipse cx="62.4211" cy="9.99432" rx="0.594485" ry="0.768732" fill="#A979EF"/>
<ellipse cx="64.7991" cy="9.99432" rx="0.594485" ry="0.768732" fill="#A979EF"/>
<ellipse cx="67.178" cy="9.99432" rx="0.594485" ry="0.768732" fill="#A979EF"/>
<ellipse cx="69.554" cy="9.99432" rx="0.594485" ry="0.768732" fill="#A979EF"/>
<ellipse cx="71.9314" cy="9.99432" rx="0.594485" ry="0.768732" fill="#A979EF"/>
<ellipse cx="74.3108" cy="9.99432" rx="0.594485" ry="0.768732" fill="#A979EF"/>
<ellipse cx="76.6882" cy="9.99432" rx="0.594485" ry="0.768732" fill="#A979EF"/>
<ellipse cx="79.0676" cy="9.99432" rx="0.594485" ry="0.768732" fill="#A979EF"/>
<ellipse cx="81.4451" cy="9.99432" rx="0.594485" ry="0.768732" fill="#A979EF"/>
<ellipse cx="83.823" cy="9.99432" rx="0.594485" ry="0.768732" fill="#A979EF"/>
<ellipse cx="86.2019" cy="9.99432" rx="0.594485" ry="0.768732" fill="#A979EF"/>
<ellipse cx="88.5764" cy="9.99432" rx="0.594485" ry="0.768732" fill="#A979EF"/>
<ellipse cx="90.9553" cy="9.99432" rx="0.594485" ry="0.768732" fill="#A979EF"/>
<ellipse cx="93.3333" cy="9.99432" rx="0.594485" ry="0.768732" fill="#A979EF"/>
<ellipse cx="95.7107" cy="9.99432" rx="0.594485" ry="0.768732" fill="#A979EF"/>
<ellipse cx="98.0901" cy="9.99432" rx="0.594485" ry="0.768732" fill="#A979EF"/>
<ellipse cx="100.468" cy="9.99432" rx="0.594485" ry="0.768732" fill="#A979EF"/>
<ellipse cx="102.845" cy="9.99432" rx="0.594485" ry="0.768732" fill="#A979EF"/>
<ellipse cx="0.594485" cy="13.068" rx="0.594485" ry="0.768732" fill="#A979EF"/>
<ellipse cx="2.97193" cy="13.068" rx="0.594485" ry="0.768732" fill="#A979EF"/>
<ellipse cx="5.35132" cy="13.068" rx="0.594485" ry="0.768732" fill="#A979EF"/>
<ellipse cx="7.72876" cy="13.068" rx="0.594485" ry="0.768732" fill="#A979EF"/>
<ellipse cx="10.1062" cy="13.068" rx="0.594485" ry="0.768732" fill="#A979EF"/>
<ellipse cx="12.4856" cy="13.068" rx="0.594485" ry="0.768732" fill="#A979EF"/>
<ellipse cx="14.863" cy="13.068" rx="0.594485" ry="0.768732" fill="#A979EF"/>
<ellipse cx="17.239" cy="13.068" rx="0.594485" ry="0.768732" fill="#A979EF"/>
<ellipse cx="19.6169" cy="13.068" rx="0.594485" ry="0.768732" fill="#A979EF"/>
<ellipse cx="21.9959" cy="13.068" rx="0.594485" ry="0.768732" fill="#A979EF"/>
<ellipse cx="24.3733" cy="13.068" rx="0.594485" ry="0.768732" fill="#A979EF"/>
<ellipse cx="26.7512" cy="13.068" rx="0.594485" ry="0.768732" fill="#A979EF"/>
<ellipse cx="29.1301" cy="13.068" rx="0.594485" ry="0.768732" fill="#A979EF"/>
<ellipse cx="31.5081" cy="13.068" rx="0.594485" ry="0.768732" fill="#A979EF"/>
<ellipse cx="33.8855" cy="13.068" rx="0.594485" ry="0.768732" fill="#A979EF"/>
<ellipse cx="36.2649" cy="13.068" rx="0.594485" ry="0.768732" fill="#A979EF"/>
<ellipse cx="38.6423" cy="13.068" rx="0.594485" ry="0.768732" fill="#A979EF"/>
<ellipse cx="41.0198" cy="13.068" rx="0.594485" ry="0.768732" fill="#A979EF"/>
<ellipse cx="43.3992" cy="13.068" rx="0.594485" ry="0.768732" fill="#A979EF"/>
<ellipse cx="45.7766" cy="13.068" rx="0.594485" ry="0.768732" fill="#A979EF"/>
<ellipse cx="48.1541" cy="13.068" rx="0.594485" ry="0.768732" fill="#A979EF"/>
<ellipse cx="50.5335" cy="13.068" rx="0.594485" ry="0.768732" fill="#A979EF"/>
<ellipse cx="52.9075" cy="13.068" rx="0.594485" ry="0.768732" fill="#A979EF"/>
<ellipse cx="55.2869" cy="13.068" rx="0.594485" ry="0.768732" fill="#A979EF"/>
<ellipse cx="57.6643" cy="13.068" rx="0.594485" ry="0.768732" fill="#A979EF"/>
<ellipse cx="60.0437" cy="13.068" rx="0.594485" ry="0.768732" fill="#A979EF"/>
<ellipse cx="62.4211" cy="13.068" rx="0.594485" ry="0.768732" fill="#A979EF"/>
<ellipse cx="64.7991" cy="13.068" rx="0.594485" ry="0.768732" fill="#A979EF"/>
<ellipse cx="67.178" cy="13.068" rx="0.594485" ry="0.768732" fill="#A979EF"/>
<ellipse cx="69.554" cy="13.068" rx="0.594485" ry="0.768732" fill="#A979EF"/>
<ellipse cx="71.9314" cy="13.068" rx="0.594485" ry="0.768732" fill="#A979EF"/>
<ellipse cx="74.3108" cy="13.068" rx="0.594485" ry="0.768732" fill="#A979EF"/>
<ellipse cx="76.6882" cy="13.068" rx="0.594485" ry="0.768732" fill="#A979EF"/>
<ellipse cx="79.0676" cy="13.068" rx="0.594485" ry="0.768732" fill="#A979EF"/>
<ellipse cx="81.4451" cy="13.068" rx="0.594485" ry="0.768732" fill="#A979EF"/>
<ellipse cx="83.823" cy="13.068" rx="0.594485" ry="0.768732" fill="#A979EF"/>
<ellipse cx="86.2019" cy="13.068" rx="0.594485" ry="0.768732" fill="#A979EF"/>
<ellipse cx="88.5764" cy="13.068" rx="0.594485" ry="0.768732" fill="#A979EF"/>
<ellipse cx="90.9553" cy="13.068" rx="0.594485" ry="0.768732" fill="#A979EF"/>
<ellipse cx="93.3333" cy="13.068" rx="0.594485" ry="0.768732" fill="#A979EF"/>
<ellipse cx="95.7107" cy="13.068" rx="0.594485" ry="0.768732" fill="#A979EF"/>
<ellipse cx="98.0901" cy="13.068" rx="0.594485" ry="0.768732" fill="#A979EF"/>
<ellipse cx="100.468" cy="13.068" rx="0.594485" ry="0.768732" fill="#A979EF"/>
<ellipse cx="102.845" cy="13.068" rx="0.594485" ry="0.768732" fill="#A979EF"/>
<ellipse cx="0.594485" cy="16.1432" rx="0.594485" ry="0.768732" fill="#A979EF"/>
<ellipse cx="2.97193" cy="16.1432" rx="0.594485" ry="0.768732" fill="#A979EF"/>
<ellipse cx="5.35132" cy="16.1432" rx="0.594485" ry="0.768732" fill="#A979EF"/>
<ellipse cx="7.72876" cy="16.1432" rx="0.594485" ry="0.768732" fill="#A979EF"/>
<ellipse cx="10.1062" cy="16.1432" rx="0.594485" ry="0.768732" fill="#A979EF"/>
<ellipse cx="12.4856" cy="16.1432" rx="0.594485" ry="0.768732" fill="#A979EF"/>
<ellipse cx="14.863" cy="16.1432" rx="0.594485" ry="0.768732" fill="#A979EF"/>
<ellipse cx="17.239" cy="16.1432" rx="0.594485" ry="0.768732" fill="#A979EF"/>
<ellipse cx="19.6169" cy="16.1432" rx="0.594485" ry="0.768732" fill="#A979EF"/>
<ellipse cx="21.9959" cy="16.1432" rx="0.594485" ry="0.768732" fill="#A979EF"/>
<ellipse cx="24.3733" cy="16.1432" rx="0.594485" ry="0.768732" fill="#A979EF"/>
<ellipse cx="26.7512" cy="16.1432" rx="0.594485" ry="0.768732" fill="#A979EF"/>
<ellipse cx="29.1301" cy="16.1432" rx="0.594485" ry="0.768732" fill="#A979EF"/>
<ellipse cx="31.5081" cy="16.1432" rx="0.594485" ry="0.768732" fill="#A979EF"/>
<ellipse cx="33.8855" cy="16.1432" rx="0.594485" ry="0.768732" fill="#A979EF"/>
<ellipse cx="36.2649" cy="16.1432" rx="0.594485" ry="0.768732" fill="#A979EF"/>
<ellipse cx="38.6423" cy="16.1432" rx="0.594485" ry="0.768732" fill="#A979EF"/>
<ellipse cx="41.0198" cy="16.1432" rx="0.594485" ry="0.768732" fill="#A979EF"/>
<ellipse cx="43.3992" cy="16.1432" rx="0.594485" ry="0.768732" fill="#A979EF"/>
<ellipse cx="45.7766" cy="16.1432" rx="0.594485" ry="0.768732" fill="#A979EF"/>
<ellipse cx="48.1541" cy="16.1432" rx="0.594485" ry="0.768732" fill="#A979EF"/>
<ellipse cx="50.5335" cy="16.1432" rx="0.594485" ry="0.768732" fill="#A979EF"/>
<ellipse cx="52.9075" cy="16.1432" rx="0.594485" ry="0.768732" fill="#A979EF"/>
<ellipse cx="55.2869" cy="16.1432" rx="0.594485" ry="0.768732" fill="#A979EF"/>
<ellipse cx="57.6643" cy="16.1432" rx="0.594485" ry="0.768732" fill="#A979EF"/>
<ellipse cx="60.0437" cy="16.1432" rx="0.594485" ry="0.768732" fill="#A979EF"/>
<ellipse cx="62.4211" cy="16.1432" rx="0.594485" ry="0.768732" fill="#A979EF"/>
<ellipse cx="64.7991" cy="16.1432" rx="0.594485" ry="0.768732" fill="#A979EF"/>
<ellipse cx="67.178" cy="16.1432" rx="0.594485" ry="0.768732" fill="#A979EF"/>
<ellipse cx="69.554" cy="16.1432" rx="0.594485" ry="0.768732" fill="#A979EF"/>
<ellipse cx="71.9314" cy="16.1432" rx="0.594485" ry="0.768732" fill="#A979EF"/>
<ellipse cx="74.3108" cy="16.1432" rx="0.594485" ry="0.768732" fill="#A979EF"/>
<ellipse cx="76.6882" cy="16.1432" rx="0.594485" ry="0.768732" fill="#A979EF"/>
<ellipse cx="79.0676" cy="16.1432" rx="0.594485" ry="0.768732" fill="#A979EF"/>
<ellipse cx="81.4451" cy="16.1432" rx="0.594485" ry="0.768732" fill="#A979EF"/>
<ellipse cx="83.823" cy="16.1432" rx="0.594485" ry="0.768732" fill="#A979EF"/>
<ellipse cx="86.2019" cy="16.1432" rx="0.594485" ry="0.768732" fill="#A979EF"/>
<ellipse cx="88.5764" cy="16.1432" rx="0.594485" ry="0.768732" fill="#A979EF"/>
<ellipse cx="90.9553" cy="16.1432" rx="0.594485" ry="0.768732" fill="#A979EF"/>
<ellipse cx="93.3333" cy="16.1432" rx="0.594485" ry="0.768732" fill="#A979EF"/>
<ellipse cx="95.7107" cy="16.1432" rx="0.594485" ry="0.768732" fill="#A979EF"/>
<ellipse cx="98.0901" cy="16.1432" rx="0.594485" ry="0.768732" fill="#A979EF"/>
<ellipse cx="100.468" cy="16.1432" rx="0.594485" ry="0.768732" fill="#A979EF"/>
<ellipse cx="102.845" cy="16.1432" rx="0.594485" ry="0.768732" fill="#A979EF"/>
<ellipse cx="0.594485" cy="19.2184" rx="0.594485" ry="0.768732" fill="#A979EF"/>
<ellipse cx="2.97193" cy="19.2184" rx="0.594485" ry="0.768732" fill="#A979EF"/>
<ellipse cx="5.35132" cy="19.2184" rx="0.594485" ry="0.768732" fill="#A979EF"/>
<ellipse cx="7.72876" cy="19.2184" rx="0.594485" ry="0.768732" fill="#A979EF"/>
<ellipse cx="10.1062" cy="19.2184" rx="0.594485" ry="0.768732" fill="#A979EF"/>
<ellipse cx="12.4856" cy="19.2184" rx="0.594485" ry="0.768732" fill="#A979EF"/>
<ellipse cx="14.863" cy="19.2184" rx="0.594485" ry="0.768732" fill="#A979EF"/>
<ellipse cx="17.239" cy="19.2184" rx="0.594485" ry="0.768732" fill="#A979EF"/>
<ellipse cx="19.6169" cy="19.2184" rx="0.594485" ry="0.768732" fill="#A979EF"/>
<ellipse cx="21.9959" cy="19.2184" rx="0.594485" ry="0.768732" fill="#A979EF"/>
<ellipse cx="24.3733" cy="19.2184" rx="0.594485" ry="0.768732" fill="#A979EF"/>
<ellipse cx="26.7512" cy="19.2184" rx="0.594485" ry="0.768732" fill="#A979EF"/>
<ellipse cx="29.1301" cy="19.2184" rx="0.594485" ry="0.768732" fill="#A979EF"/>
<ellipse cx="31.5081" cy="19.2184" rx="0.594485" ry="0.768732" fill="#A979EF"/>
<ellipse cx="33.8855" cy="19.2184" rx="0.594485" ry="0.768732" fill="#A979EF"/>
<ellipse cx="36.2649" cy="19.2184" rx="0.594485" ry="0.768732" fill="#A979EF"/>
<ellipse cx="38.6423" cy="19.2184" rx="0.594485" ry="0.768732" fill="#A979EF"/>
<ellipse cx="41.0198" cy="19.2184" rx="0.594485" ry="0.768732" fill="#A979EF"/>
<ellipse cx="43.3992" cy="19.2184" rx="0.594485" ry="0.768732" fill="#A979EF"/>
<ellipse cx="45.7766" cy="19.2184" rx="0.594485" ry="0.768732" fill="#A979EF"/>
<ellipse cx="48.1541" cy="19.2184" rx="0.594485" ry="0.768732" fill="#A979EF"/>
<ellipse cx="50.5335" cy="19.2184" rx="0.594485" ry="0.768732" fill="#A979EF"/>
<ellipse cx="52.9075" cy="19.2184" rx="0.594485" ry="0.768732" fill="#A979EF"/>
<ellipse cx="55.2869" cy="19.2184" rx="0.594485" ry="0.768732" fill="#A979EF"/>
<ellipse cx="57.6643" cy="19.2184" rx="0.594485" ry="0.768732" fill="#A979EF"/>
<ellipse cx="60.0437" cy="19.2184" rx="0.594485" ry="0.768732" fill="#A979EF"/>
<ellipse cx="62.4211" cy="19.2184" rx="0.594485" ry="0.768732" fill="#A979EF"/>
<ellipse cx="64.7991" cy="19.2184" rx="0.594485" ry="0.768732" fill="#A979EF"/>
<ellipse cx="67.178" cy="19.2184" rx="0.594485" ry="0.768732" fill="#A979EF"/>
<ellipse cx="69.554" cy="19.2184" rx="0.594485" ry="0.768732" fill="#A979EF"/>
<ellipse cx="71.9314" cy="19.2184" rx="0.594485" ry="0.768732" fill="#A979EF"/>
<ellipse cx="74.3108" cy="19.2184" rx="0.594485" ry="0.768732" fill="#A979EF"/>
<ellipse cx="76.6882" cy="19.2184" rx="0.594485" ry="0.768732" fill="#A979EF"/>
<ellipse cx="79.0676" cy="19.2184" rx="0.594485" ry="0.768732" fill="#A979EF"/>
<ellipse cx="81.4451" cy="19.2184" rx="0.594485" ry="0.768732" fill="#A979EF"/>
<ellipse cx="83.823" cy="19.2184" rx="0.594485" ry="0.768732" fill="#A979EF"/>
<ellipse cx="86.2019" cy="19.2184" rx="0.594485" ry="0.768732" fill="#A979EF"/>
<ellipse cx="88.5764" cy="19.2184" rx="0.594485" ry="0.768732" fill="#A979EF"/>
<ellipse cx="90.9553" cy="19.2184" rx="0.594485" ry="0.768732" fill="#A979EF"/>
<ellipse cx="93.3333" cy="19.2184" rx="0.594485" ry="0.768732" fill="#A979EF"/>
<ellipse cx="95.7107" cy="19.2184" rx="0.594485" ry="0.768732" fill="#A979EF"/>
<ellipse cx="98.0901" cy="19.2184" rx="0.594485" ry="0.768732" fill="#A979EF"/>
<ellipse cx="100.468" cy="19.2184" rx="0.594485" ry="0.768732" fill="#A979EF"/>
<ellipse cx="102.845" cy="19.2184" rx="0.594485" ry="0.768732" fill="#A979EF"/>
<ellipse cx="0.594485" cy="22.2936" rx="0.594485" ry="0.768732" fill="#A979EF"/>
<ellipse cx="2.97193" cy="22.2936" rx="0.594485" ry="0.768732" fill="#A979EF"/>
<ellipse cx="5.35132" cy="22.2936" rx="0.594485" ry="0.768732" fill="#A979EF"/>
<ellipse cx="7.72876" cy="22.2936" rx="0.594485" ry="0.768732" fill="#A979EF"/>
<ellipse cx="10.1062" cy="22.2936" rx="0.594485" ry="0.768732" fill="#A979EF"/>
<ellipse cx="12.4856" cy="22.2936" rx="0.594485" ry="0.768732" fill="#A979EF"/>
<ellipse cx="14.863" cy="22.2936" rx="0.594485" ry="0.768732" fill="#A979EF"/>
<ellipse cx="17.239" cy="22.2936" rx="0.594485" ry="0.768732" fill="#A979EF"/>
<ellipse cx="19.6169" cy="22.2936" rx="0.594485" ry="0.768732" fill="#A979EF"/>
<ellipse cx="21.9959" cy="22.2936" rx="0.594485" ry="0.768732" fill="#A979EF"/>
<ellipse cx="24.3733" cy="22.2936" rx="0.594485" ry="0.768732" fill="#A979EF"/>
<ellipse cx="26.7512" cy="22.2936" rx="0.594485" ry="0.768732" fill="#A979EF"/>
<ellipse cx="29.1301" cy="22.2936" rx="0.594485" ry="0.768732" fill="#A979EF"/>
<ellipse cx="31.5081" cy="22.2936" rx="0.594485" ry="0.768732" fill="#A979EF"/>
<ellipse cx="33.8855" cy="22.2936" rx="0.594485" ry="0.768732" fill="#A979EF"/>
<ellipse cx="36.2649" cy="22.2936" rx="0.594485" ry="0.768732" fill="#A979EF"/>
<ellipse cx="38.6423" cy="22.2936" rx="0.594485" ry="0.768732" fill="#A979EF"/>
<ellipse cx="41.0198" cy="22.2936" rx="0.594485" ry="0.768732" fill="#A979EF"/>
<ellipse cx="43.3992" cy="22.2936" rx="0.594485" ry="0.768732" fill="#A979EF"/>
<ellipse cx="45.7766" cy="22.2936" rx="0.594485" ry="0.768732" fill="#A979EF"/>
<ellipse cx="48.1541" cy="22.2936" rx="0.594485" ry="0.768732" fill="#A979EF"/>
<ellipse cx="50.5335" cy="22.2936" rx="0.594485" ry="0.768732" fill="#A979EF"/>
<ellipse cx="52.9075" cy="22.2936" rx="0.594485" ry="0.768732" fill="#A979EF"/>
<ellipse cx="55.2869" cy="22.2936" rx="0.594485" ry="0.768732" fill="#A979EF"/>
<ellipse cx="57.6643" cy="22.2936" rx="0.594485" ry="0.768732" fill="#A979EF"/>
<ellipse cx="60.0437" cy="22.2936" rx="0.594485" ry="0.768732" fill="#A979EF"/>
<ellipse cx="62.4211" cy="22.2936" rx="0.594485" ry="0.768732" fill="#A979EF"/>
<ellipse cx="64.7991" cy="22.2936" rx="0.594485" ry="0.768732" fill="#A979EF"/>
<ellipse cx="67.178" cy="22.2936" rx="0.594485" ry="0.768732" fill="#A979EF"/>
<ellipse cx="69.554" cy="22.2936" rx="0.594485" ry="0.768732" fill="#A979EF"/>
<ellipse cx="71.9314" cy="22.2936" rx="0.594485" ry="0.768732" fill="#A979EF"/>
<ellipse cx="74.3108" cy="22.2936" rx="0.594485" ry="0.768732" fill="#A979EF"/>
<ellipse cx="76.6882" cy="22.2936" rx="0.594485" ry="0.768732" fill="#A979EF"/>
<ellipse cx="79.0676" cy="22.2936" rx="0.594485" ry="0.768732" fill="#A979EF"/>
<ellipse cx="81.4451" cy="22.2936" rx="0.594485" ry="0.768732" fill="#A979EF"/>
<ellipse cx="83.823" cy="22.2936" rx="0.594485" ry="0.768732" fill="#A979EF"/>
<ellipse cx="86.2019" cy="22.2936" rx="0.594485" ry="0.768732" fill="#A979EF"/>
<ellipse cx="88.5764" cy="22.2936" rx="0.594485" ry="0.768732" fill="#A979EF"/>
<ellipse cx="90.9553" cy="22.2936" rx="0.594485" ry="0.768732" fill="#A979EF"/>
<ellipse cx="93.3333" cy="22.2936" rx="0.594485" ry="0.768732" fill="#A979EF"/>
<ellipse cx="95.7107" cy="22.2936" rx="0.594485" ry="0.768732" fill="#A979EF"/>
<ellipse cx="98.0901" cy="22.2936" rx="0.594485" ry="0.768732" fill="#A979EF"/>
<ellipse cx="100.468" cy="22.2936" rx="0.594485" ry="0.768732" fill="#A979EF"/>
<ellipse cx="102.845" cy="22.2936" rx="0.594485" ry="0.768732" fill="#A979EF"/>
<ellipse cx="0.594485" cy="25.3688" rx="0.594485" ry="0.768732" fill="#A979EF"/>
<ellipse cx="2.97193" cy="25.3688" rx="0.594485" ry="0.768732" fill="#A979EF"/>
<ellipse cx="5.35132" cy="25.3688" rx="0.594485" ry="0.768732" fill="#A979EF"/>
<ellipse cx="7.72876" cy="25.3688" rx="0.594485" ry="0.768732" fill="#A979EF"/>
<ellipse cx="10.1062" cy="25.3688" rx="0.594485" ry="0.768732" fill="#A979EF"/>
<ellipse cx="12.4856" cy="25.3688" rx="0.594485" ry="0.768732" fill="#A979EF"/>
<ellipse cx="14.863" cy="25.3688" rx="0.594485" ry="0.768732" fill="#A979EF"/>
<ellipse cx="17.239" cy="25.3688" rx="0.594485" ry="0.768732" fill="#A979EF"/>
<ellipse cx="19.6169" cy="25.3688" rx="0.594485" ry="0.768732" fill="#A979EF"/>
<ellipse cx="21.9959" cy="25.3688" rx="0.594485" ry="0.768732" fill="#A979EF"/>
<ellipse cx="24.3733" cy="25.3688" rx="0.594485" ry="0.768732" fill="#A979EF"/>
<ellipse cx="26.7512" cy="25.3688" rx="0.594485" ry="0.768732" fill="#A979EF"/>
<ellipse cx="29.1301" cy="25.3688" rx="0.594485" ry="0.768732" fill="#A979EF"/>
<ellipse cx="31.5081" cy="25.3688" rx="0.594485" ry="0.768732" fill="#A979EF"/>
<ellipse cx="33.8855" cy="25.3688" rx="0.594485" ry="0.768732" fill="#A979EF"/>
<ellipse cx="36.2649" cy="25.3688" rx="0.594485" ry="0.768732" fill="#A979EF"/>
<ellipse cx="38.6423" cy="25.3688" rx="0.594485" ry="0.768732" fill="#A979EF"/>
<ellipse cx="41.0198" cy="25.3688" rx="0.594485" ry="0.768732" fill="#A979EF"/>
<ellipse cx="43.3992" cy="25.3688" rx="0.594485" ry="0.768732" fill="#A979EF"/>
<ellipse cx="45.7766" cy="25.3688" rx="0.594485" ry="0.768732" fill="#A979EF"/>
<ellipse cx="48.1541" cy="25.3688" rx="0.594485" ry="0.768732" fill="#A979EF"/>
<ellipse cx="50.5335" cy="25.3688" rx="0.594485" ry="0.768732" fill="#A979EF"/>
<ellipse cx="52.9075" cy="25.3688" rx="0.594485" ry="0.768732" fill="#A979EF"/>
<ellipse cx="55.2869" cy="25.3688" rx="0.594485" ry="0.768732" fill="#A979EF"/>
<ellipse cx="57.6643" cy="25.3688" rx="0.594485" ry="0.768732" fill="#A979EF"/>
<ellipse cx="60.0437" cy="25.3688" rx="0.594485" ry="0.768732" fill="#A979EF"/>
<ellipse cx="62.4211" cy="25.3688" rx="0.594485" ry="0.768732" fill="#A979EF"/>
<ellipse cx="64.7991" cy="25.3688" rx="0.594485" ry="0.768732" fill="#A979EF"/>
<ellipse cx="67.178" cy="25.3688" rx="0.594485" ry="0.768732" fill="#A979EF"/>
<ellipse cx="69.554" cy="25.3688" rx="0.594485" ry="0.768732" fill="#A979EF"/>
<ellipse cx="71.9314" cy="25.3688" rx="0.594485" ry="0.768732" fill="#A979EF"/>
<ellipse cx="74.3108" cy="25.3688" rx="0.594485" ry="0.768732" fill="#A979EF"/>
<ellipse cx="76.6882" cy="25.3688" rx="0.594485" ry="0.768732" fill="#A979EF"/>
<ellipse cx="79.0676" cy="25.3688" rx="0.594485" ry="0.768732" fill="#A979EF"/>
<ellipse cx="81.4451" cy="25.3688" rx="0.594485" ry="0.768732" fill="#A979EF"/>
<ellipse cx="83.823" cy="25.3688" rx="0.594485" ry="0.768732" fill="#A979EF"/>
<ellipse cx="86.2019" cy="25.3688" rx="0.594485" ry="0.768732" fill="#A979EF"/>
<ellipse cx="88.5764" cy="25.3688" rx="0.594485" ry="0.768732" fill="#A979EF"/>
<ellipse cx="90.9553" cy="25.3688" rx="0.594485" ry="0.768732" fill="#A979EF"/>
<ellipse cx="93.3333" cy="25.3688" rx="0.594485" ry="0.768732" fill="#A979EF"/>
<ellipse cx="95.7107" cy="25.3688" rx="0.594485" ry="0.768732" fill="#A979EF"/>
<ellipse cx="98.0901" cy="25.3688" rx="0.594485" ry="0.768732" fill="#A979EF"/>
<ellipse cx="100.468" cy="25.3688" rx="0.594485" ry="0.768732" fill="#A979EF"/>
<ellipse cx="102.845" cy="25.3688" rx="0.594485" ry="0.768732" fill="#A979EF"/>
<ellipse cx="0.594485" cy="28.444" rx="0.594485" ry="0.768732" fill="#A979EF"/>
<ellipse cx="2.97193" cy="28.444" rx="0.594485" ry="0.768732" fill="#A979EF"/>
<ellipse cx="5.35132" cy="28.444" rx="0.594485" ry="0.768732" fill="#A979EF"/>
<ellipse cx="7.72876" cy="28.444" rx="0.594485" ry="0.768732" fill="#A979EF"/>
<ellipse cx="10.1062" cy="28.444" rx="0.594485" ry="0.768732" fill="#A979EF"/>
<ellipse cx="12.4856" cy="28.444" rx="0.594485" ry="0.768732" fill="#A979EF"/>
<ellipse cx="14.863" cy="28.444" rx="0.594485" ry="0.768732" fill="#A979EF"/>
<ellipse cx="17.239" cy="28.444" rx="0.594485" ry="0.768732" fill="#A979EF"/>
<ellipse cx="19.6169" cy="28.444" rx="0.594485" ry="0.768732" fill="#A979EF"/>
<ellipse cx="21.9959" cy="28.444" rx="0.594485" ry="0.768732" fill="#A979EF"/>
<ellipse cx="24.3733" cy="28.444" rx="0.594485" ry="0.768732" fill="#A979EF"/>
<ellipse cx="26.7512" cy="28.444" rx="0.594485" ry="0.768732" fill="#A979EF"/>
<ellipse cx="29.1301" cy="28.444" rx="0.594485" ry="0.768732" fill="#A979EF"/>
<ellipse cx="31.5081" cy="28.444" rx="0.594485" ry="0.768732" fill="#A979EF"/>
<ellipse cx="33.8855" cy="28.444" rx="0.594485" ry="0.768732" fill="#A979EF"/>
<ellipse cx="36.2649" cy="28.444" rx="0.594485" ry="0.768732" fill="#A979EF"/>
<ellipse cx="38.6423" cy="28.444" rx="0.594485" ry="0.768732" fill="#A979EF"/>
<ellipse cx="41.0198" cy="28.444" rx="0.594485" ry="0.768732" fill="#A979EF"/>
<ellipse cx="43.3992" cy="28.444" rx="0.594485" ry="0.768732" fill="#A979EF"/>
<ellipse cx="45.7766" cy="28.444" rx="0.594485" ry="0.768732" fill="#A979EF"/>
<ellipse cx="48.1541" cy="28.444" rx="0.594485" ry="0.768732" fill="#A979EF"/>
<ellipse cx="50.5335" cy="28.444" rx="0.594485" ry="0.768732" fill="#A979EF"/>
<ellipse cx="52.9075" cy="28.444" rx="0.594485" ry="0.768732" fill="#A979EF"/>
<ellipse cx="55.2869" cy="28.444" rx="0.594485" ry="0.768732" fill="#A979EF"/>
<ellipse cx="57.6643" cy="28.444" rx="0.594485" ry="0.768732" fill="#A979EF"/>
<ellipse cx="60.0437" cy="28.444" rx="0.594485" ry="0.768732" fill="#A979EF"/>
<ellipse cx="62.4211" cy="28.444" rx="0.594485" ry="0.768732" fill="#A979EF"/>
<ellipse cx="64.7991" cy="28.444" rx="0.594485" ry="0.768732" fill="#A979EF"/>
<ellipse cx="67.178" cy="28.444" rx="0.594485" ry="0.768732" fill="#A979EF"/>
<ellipse cx="69.554" cy="28.444" rx="0.594485" ry="0.768732" fill="#A979EF"/>
<ellipse cx="71.9314" cy="28.444" rx="0.594485" ry="0.768732" fill="#A979EF"/>
<ellipse cx="74.3108" cy="28.444" rx="0.594485" ry="0.768732" fill="#A979EF"/>
<ellipse cx="76.6882" cy="28.444" rx="0.594485" ry="0.768732" fill="#A979EF"/>
<ellipse cx="79.0676" cy="28.444" rx="0.594485" ry="0.768732" fill="#A979EF"/>
<ellipse cx="81.4451" cy="28.444" rx="0.594485" ry="0.768732" fill="#A979EF"/>
<ellipse cx="83.823" cy="28.444" rx="0.594485" ry="0.768732" fill="#A979EF"/>
<ellipse cx="86.2019" cy="28.444" rx="0.594485" ry="0.768732" fill="#A979EF"/>
<ellipse cx="88.5764" cy="28.444" rx="0.594485" ry="0.768732" fill="#A979EF"/>
<ellipse cx="90.9553" cy="28.444" rx="0.594485" ry="0.768732" fill="#A979EF"/>
<ellipse cx="93.3333" cy="28.444" rx="0.594485" ry="0.768732" fill="#A979EF"/>
<ellipse cx="95.7107" cy="28.444" rx="0.594485" ry="0.768732" fill="#A979EF"/>
<ellipse cx="98.0901" cy="28.444" rx="0.594485" ry="0.768732" fill="#A979EF"/>
<ellipse cx="100.468" cy="28.444" rx="0.594485" ry="0.768732" fill="#A979EF"/>
<ellipse cx="102.845" cy="28.444" rx="0.594485" ry="0.768732" fill="#A979EF"/>
<ellipse cx="0.594485" cy="31.5187" rx="0.594485" ry="0.768732" fill="#A979EF"/>
<ellipse cx="2.97193" cy="31.5187" rx="0.594485" ry="0.768732" fill="#A979EF"/>
<ellipse cx="5.35132" cy="31.5187" rx="0.594485" ry="0.768732" fill="#A979EF"/>
<ellipse cx="7.72876" cy="31.5187" rx="0.594485" ry="0.768732" fill="#A979EF"/>
<ellipse cx="10.1062" cy="31.5187" rx="0.594485" ry="0.768732" fill="#A979EF"/>
<ellipse cx="12.4856" cy="31.5187" rx="0.594485" ry="0.768732" fill="#A979EF"/>
<ellipse cx="14.863" cy="31.5187" rx="0.594485" ry="0.768732" fill="#A979EF"/>
<ellipse cx="17.239" cy="31.5187" rx="0.594485" ry="0.768732" fill="#A979EF"/>
<ellipse cx="19.6169" cy="31.5187" rx="0.594485" ry="0.768732" fill="#A979EF"/>
<ellipse cx="21.9959" cy="31.5187" rx="0.594485" ry="0.768732" fill="#A979EF"/>
<ellipse cx="24.3733" cy="31.5187" rx="0.594485" ry="0.768732" fill="#A979EF"/>
<ellipse cx="26.7512" cy="31.5187" rx="0.594485" ry="0.768732" fill="#A979EF"/>
<ellipse cx="29.1301" cy="31.5187" rx="0.594485" ry="0.768732" fill="#A979EF"/>
<ellipse cx="31.5081" cy="31.5187" rx="0.594485" ry="0.768732" fill="#A979EF"/>
<ellipse cx="33.8855" cy="31.5187" rx="0.594485" ry="0.768732" fill="#A979EF"/>
<ellipse cx="36.2649" cy="31.5187" rx="0.594485" ry="0.768732" fill="#A979EF"/>
<ellipse cx="38.6423" cy="31.5187" rx="0.594485" ry="0.768732" fill="#A979EF"/>
<ellipse cx="41.0198" cy="31.5187" rx="0.594485" ry="0.768732" fill="#A979EF"/>
<ellipse cx="43.3992" cy="31.5187" rx="0.594485" ry="0.768732" fill="#A979EF"/>
<ellipse cx="45.7766" cy="31.5187" rx="0.594485" ry="0.768732" fill="#A979EF"/>
<ellipse cx="48.1541" cy="31.5187" rx="0.594485" ry="0.768732" fill="#A979EF"/>
<ellipse cx="50.5335" cy="31.5187" rx="0.594485" ry="0.768732" fill="#A979EF"/>
<ellipse cx="52.9075" cy="31.5187" rx="0.594485" ry="0.768732" fill="#A979EF"/>
<ellipse cx="55.2869" cy="31.5187" rx="0.594485" ry="0.768732" fill="#A979EF"/>
<ellipse cx="57.6643" cy="31.5187" rx="0.594485" ry="0.768732" fill="#A979EF"/>
<ellipse cx="60.0437" cy="31.5187" rx="0.594485" ry="0.768732" fill="#A979EF"/>
<ellipse cx="62.4211" cy="31.5187" rx="0.594485" ry="0.768732" fill="#A979EF"/>
<ellipse cx="64.7991" cy="31.5187" rx="0.594485" ry="0.768732" fill="#A979EF"/>
<ellipse cx="67.178" cy="31.5187" rx="0.594485" ry="0.768732" fill="#A979EF"/>
<ellipse cx="69.554" cy="31.5187" rx="0.594485" ry="0.768732" fill="#A979EF"/>
<ellipse cx="71.9314" cy="31.5187" rx="0.594485" ry="0.768732" fill="#A979EF"/>
<ellipse cx="74.3108" cy="31.5187" rx="0.594485" ry="0.768732" fill="#A979EF"/>
<ellipse cx="76.6882" cy="31.5187" rx="0.594485" ry="0.768732" fill="#A979EF"/>
<ellipse cx="79.0676" cy="31.5187" rx="0.594485" ry="0.768732" fill="#A979EF"/>
<ellipse cx="81.4451" cy="31.5187" rx="0.594485" ry="0.768732" fill="#A979EF"/>
<ellipse cx="83.823" cy="31.5187" rx="0.594485" ry="0.768732" fill="#A979EF"/>
<ellipse cx="86.2019" cy="31.5187" rx="0.594485" ry="0.768732" fill="#A979EF"/>
<ellipse cx="88.5764" cy="31.5187" rx="0.594485" ry="0.768732" fill="#A979EF"/>
<ellipse cx="90.9553" cy="31.5187" rx="0.594485" ry="0.768732" fill="#A979EF"/>
<ellipse cx="93.3333" cy="31.5187" rx="0.594485" ry="0.768732" fill="#A979EF"/>
<ellipse cx="95.7107" cy="31.5187" rx="0.594485" ry="0.768732" fill="#A979EF"/>
<ellipse cx="98.0901" cy="31.5187" rx="0.594485" ry="0.768732" fill="#A979EF"/>
<ellipse cx="100.468" cy="31.5187" rx="0.594485" ry="0.768732" fill="#A979EF"/>
<ellipse cx="102.845" cy="31.5187" rx="0.594485" ry="0.768732" fill="#A979EF"/>
<ellipse cx="0.594485" cy="34.5925" rx="0.594485" ry="0.768732" fill="#A979EF"/>
<ellipse cx="2.97193" cy="34.5925" rx="0.594485" ry="0.768732" fill="#A979EF"/>
<ellipse cx="5.35132" cy="34.5925" rx="0.594485" ry="0.768732" fill="#A979EF"/>
<ellipse cx="7.72876" cy="34.5925" rx="0.594485" ry="0.768732" fill="#A979EF"/>
<ellipse cx="10.1062" cy="34.5925" rx="0.594485" ry="0.768732" fill="#A979EF"/>
<ellipse cx="12.4856" cy="34.5925" rx="0.594485" ry="0.768732" fill="#A979EF"/>
<ellipse cx="14.863" cy="34.5925" rx="0.594485" ry="0.768732" fill="#A979EF"/>
<ellipse cx="17.239" cy="34.5925" rx="0.594485" ry="0.768732" fill="#A979EF"/>
<ellipse cx="19.6169" cy="34.5925" rx="0.594485" ry="0.768732" fill="#A979EF"/>
<ellipse cx="21.9959" cy="34.5925" rx="0.594485" ry="0.768732" fill="#A979EF"/>
<ellipse cx="24.3733" cy="34.5925" rx="0.594485" ry="0.768732" fill="#A979EF"/>
<ellipse cx="26.7512" cy="34.5925" rx="0.594485" ry="0.768732" fill="#A979EF"/>
<ellipse cx="29.1301" cy="34.5925" rx="0.594485" ry="0.768732" fill="#A979EF"/>
<ellipse cx="31.5081" cy="34.5925" rx="0.594485" ry="0.768732" fill="#A979EF"/>
<ellipse cx="33.8855" cy="34.5925" rx="0.594485" ry="0.768732" fill="#A979EF"/>
<ellipse cx="36.2649" cy="34.5925" rx="0.594485" ry="0.768732" fill="#A979EF"/>
<ellipse cx="38.6423" cy="34.5925" rx="0.594485" ry="0.768732" fill="#A979EF"/>
<ellipse cx="41.0198" cy="34.5925" rx="0.594485" ry="0.768732" fill="#A979EF"/>
<ellipse cx="43.3992" cy="34.5925" rx="0.594485" ry="0.768732" fill="#A979EF"/>
<ellipse cx="45.7766" cy="34.5925" rx="0.594485" ry="0.768732" fill="#A979EF"/>
<ellipse cx="48.1541" cy="34.5925" rx="0.594485" ry="0.768732" fill="#A979EF"/>
<ellipse cx="50.5335" cy="34.5925" rx="0.594485" ry="0.768732" fill="#A979EF"/>
<ellipse cx="52.9075" cy="34.5925" rx="0.594485" ry="0.768732" fill="#A979EF"/>
<ellipse cx="55.2869" cy="34.5925" rx="0.594485" ry="0.768732" fill="#A979EF"/>
<ellipse cx="57.6643" cy="34.5925" rx="0.594485" ry="0.768732" fill="#A979EF"/>
<ellipse cx="60.0437" cy="34.5925" rx="0.594485" ry="0.768732" fill="#A979EF"/>
<ellipse cx="62.4211" cy="34.5925" rx="0.594485" ry="0.768732" fill="#A979EF"/>
<ellipse cx="64.7991" cy="34.5925" rx="0.594485" ry="0.768732" fill="#A979EF"/>
<ellipse cx="67.178" cy="34.5925" rx="0.594485" ry="0.768732" fill="#A979EF"/>
<ellipse cx="69.554" cy="34.5925" rx="0.594485" ry="0.768732" fill="#A979EF"/>
<ellipse cx="71.9314" cy="34.5925" rx="0.594485" ry="0.768732" fill="#A979EF"/>
<ellipse cx="74.3108" cy="34.5925" rx="0.594485" ry="0.768732" fill="#A979EF"/>
<ellipse cx="76.6882" cy="34.5925" rx="0.594485" ry="0.768732" fill="#A979EF"/>
<ellipse cx="79.0676" cy="34.5925" rx="0.594485" ry="0.768732" fill="#A979EF"/>
<ellipse cx="81.4451" cy="34.5925" rx="0.594485" ry="0.768732" fill="#A979EF"/>
<ellipse cx="83.823" cy="34.5925" rx="0.594485" ry="0.768732" fill="#A979EF"/>
<ellipse cx="86.2019" cy="34.5925" rx="0.594485" ry="0.768732" fill="#A979EF"/>
<ellipse cx="88.5764" cy="34.5925" rx="0.594485" ry="0.768732" fill="#A979EF"/>
<ellipse cx="90.9553" cy="34.5925" rx="0.594485" ry="0.768732" fill="#A979EF"/>
<ellipse cx="93.3333" cy="34.5925" rx="0.594485" ry="0.768732" fill="#A979EF"/>
<ellipse cx="95.7107" cy="34.5925" rx="0.594485" ry="0.768732" fill="#A979EF"/>
<ellipse cx="98.0901" cy="34.5925" rx="0.594485" ry="0.768732" fill="#A979EF"/>
<ellipse cx="100.468" cy="34.5925" rx="0.594485" ry="0.768732" fill="#A979EF"/>
<ellipse cx="102.845" cy="34.5925" rx="0.594485" ry="0.768732" fill="#A979EF"/>
</svg>
