<svg width="115" height="46" viewBox="0 0 115 46" fill="none" xmlns="http://www.w3.org/2000/svg">
<ellipse cx="1.06179" cy="0.999997" rx="1.06179" ry="0.999997" fill="#BF98F7"/>
<ellipse cx="5.30788" cy="0.999997" rx="1.06179" ry="0.999997" fill="#BF98F7"/>
<ellipse cx="9.5574" cy="0.999997" rx="1.06179" ry="0.999997" fill="#BF98F7"/>
<ellipse cx="13.8035" cy="0.999997" rx="1.06179" ry="0.999997" fill="#BF98F7"/>
<ellipse cx="18.0496" cy="0.999997" rx="1.06179" ry="0.999997" fill="#BF98F7"/>
<ellipse cx="22.2996" cy="0.999997" rx="1.06179" ry="0.999997" fill="#BF98F7"/>
<ellipse cx="26.5457" cy="0.999997" rx="1.06179" ry="0.999997" fill="#BF98F7"/>
<ellipse cx="30.7913" cy="0.999997" rx="1.06179" ry="0.999997" fill="#BF98F7"/>
<ellipse cx="35.0374" cy="0.999997" rx="1.06179" ry="0.999997" fill="#BF98F7"/>
<ellipse cx="39.2874" cy="0.999997" rx="1.06179" ry="0.999997" fill="#BF98F7"/>
<ellipse cx="43.5335" cy="0.999997" rx="1.06179" ry="0.999997" fill="#BF98F7"/>
<ellipse cx="47.7796" cy="0.999997" rx="1.06179" ry="0.999997" fill="#BF98F7"/>
<ellipse cx="52.0291" cy="0.999997" rx="1.06179" ry="0.999997" fill="#BF98F7"/>
<ellipse cx="56.2752" cy="0.999997" rx="1.06179" ry="0.999997" fill="#BF98F7"/>
<ellipse cx="60.5213" cy="0.999997" rx="1.06179" ry="0.999997" fill="#BF98F7"/>
<ellipse cx="64.7708" cy="0.999997" rx="1.06179" ry="0.999997" fill="#BF98F7"/>
<ellipse cx="69.0169" cy="0.999997" rx="1.06179" ry="0.999997" fill="#BF98F7"/>
<ellipse cx="73.263" cy="0.999997" rx="1.06179" ry="0.999997" fill="#BF98F7"/>
<ellipse cx="77.5091" cy="0.999997" rx="1.06179" ry="0.999997" fill="#BF98F7"/>
<ellipse cx="81.7586" cy="0.999997" rx="1.06179" ry="0.999997" fill="#BF98F7"/>
<ellipse cx="86.0047" cy="0.999997" rx="1.06179" ry="0.999997" fill="#BF98F7"/>
<ellipse cx="90.2508" cy="0.999997" rx="1.06179" ry="0.999997" fill="#BF98F7"/>
<ellipse cx="94.5008" cy="0.999997" rx="1.06179" ry="0.999997" fill="#BF98F7"/>
<ellipse cx="98.7468" cy="0.999997" rx="1.06179" ry="0.999997" fill="#BF98F7"/>
<ellipse cx="102.992" cy="0.999997" rx="1.06179" ry="0.999997" fill="#BF98F7"/>
<ellipse cx="107.242" cy="0.999997" rx="1.06179" ry="0.999997" fill="#BF98F7"/>
<ellipse cx="111.489" cy="0.999997" rx="1.06179" ry="0.999997" fill="#BF98F7"/>
<ellipse cx="115.735" cy="0.999997" rx="1.06179" ry="0.999997" fill="#BF98F7"/>
<ellipse cx="1.06179" cy="5" rx="1.06179" ry="0.999997" fill="#BF98F7"/>
<ellipse cx="5.30788" cy="5" rx="1.06179" ry="0.999997" fill="#BF98F7"/>
<ellipse cx="9.5574" cy="5" rx="1.06179" ry="0.999997" fill="#BF98F7"/>
<ellipse cx="13.8035" cy="5" rx="1.06179" ry="0.999997" fill="#BF98F7"/>
<ellipse cx="18.0496" cy="5" rx="1.06179" ry="0.999997" fill="#BF98F7"/>
<ellipse cx="22.2957" cy="5" rx="1.06179" ry="0.999997" fill="#BF98F7"/>
<ellipse cx="26.5457" cy="5" rx="1.06179" ry="0.999997" fill="#BF98F7"/>
<ellipse cx="30.7913" cy="5" rx="1.06179" ry="0.999997" fill="#BF98F7"/>
<ellipse cx="35.0374" cy="5" rx="1.06179" ry="0.999997" fill="#BF98F7"/>
<ellipse cx="39.2874" cy="5" rx="1.06179" ry="0.999997" fill="#BF98F7"/>
<ellipse cx="43.5335" cy="5" rx="1.06179" ry="0.999997" fill="#BF98F7"/>
<ellipse cx="47.7796" cy="5" rx="1.06179" ry="0.999997" fill="#BF98F7"/>
<ellipse cx="52.0291" cy="5" rx="1.06179" ry="0.999997" fill="#BF98F7"/>
<ellipse cx="56.2752" cy="5" rx="1.06179" ry="0.999997" fill="#BF98F7"/>
<ellipse cx="60.5213" cy="5" rx="1.06179" ry="0.999997" fill="#BF98F7"/>
<ellipse cx="64.7708" cy="5" rx="1.06179" ry="0.999997" fill="#BF98F7"/>
<ellipse cx="69.0169" cy="5" rx="1.06179" ry="0.999997" fill="#BF98F7"/>
<ellipse cx="73.263" cy="5" rx="1.06179" ry="0.999997" fill="#BF98F7"/>
<ellipse cx="77.5091" cy="5" rx="1.06179" ry="0.999997" fill="#BF98F7"/>
<ellipse cx="81.7586" cy="5" rx="1.06179" ry="0.999997" fill="#BF98F7"/>
<ellipse cx="86.0047" cy="5" rx="1.06179" ry="0.999997" fill="#BF98F7"/>
<ellipse cx="90.2508" cy="5" rx="1.06179" ry="0.999997" fill="#BF98F7"/>
<ellipse cx="94.5008" cy="5" rx="1.06179" ry="0.999997" fill="#BF98F7"/>
<ellipse cx="98.7468" cy="5" rx="1.06179" ry="0.999997" fill="#BF98F7"/>
<ellipse cx="102.992" cy="5" rx="1.06179" ry="0.999997" fill="#BF98F7"/>
<ellipse cx="107.242" cy="5" rx="1.06179" ry="0.999997" fill="#BF98F7"/>
<ellipse cx="111.489" cy="5" rx="1.06179" ry="0.999997" fill="#BF98F7"/>
<ellipse cx="115.735" cy="5" rx="1.06179" ry="0.999997" fill="#BF98F7"/>
<ellipse cx="1.06179" cy="9" rx="1.06179" ry="0.999997" fill="#BF98F7"/>
<ellipse cx="5.30788" cy="9" rx="1.06179" ry="0.999997" fill="#BF98F7"/>
<ellipse cx="9.5574" cy="9" rx="1.06179" ry="0.999997" fill="#BF98F7"/>
<ellipse cx="13.8035" cy="9" rx="1.06179" ry="0.999997" fill="#BF98F7"/>
<ellipse cx="18.0496" cy="9" rx="1.06179" ry="0.999997" fill="#BF98F7"/>
<ellipse cx="22.2957" cy="9" rx="1.06179" ry="0.999997" fill="#BF98F7"/>
<ellipse cx="26.5457" cy="9" rx="1.06179" ry="0.999997" fill="#BF98F7"/>
<ellipse cx="30.7913" cy="9" rx="1.06179" ry="0.999997" fill="#BF98F7"/>
<ellipse cx="35.0374" cy="9" rx="1.06179" ry="0.999997" fill="#BF98F7"/>
<ellipse cx="39.2874" cy="9" rx="1.06179" ry="0.999997" fill="#BF98F7"/>
<ellipse cx="43.5335" cy="9" rx="1.06179" ry="0.999997" fill="#BF98F7"/>
<ellipse cx="47.7796" cy="9" rx="1.06179" ry="0.999997" fill="#BF98F7"/>
<ellipse cx="52.0291" cy="9" rx="1.06179" ry="0.999997" fill="#BF98F7"/>
<ellipse cx="56.2752" cy="9" rx="1.06179" ry="0.999997" fill="#BF98F7"/>
<ellipse cx="60.5213" cy="9" rx="1.06179" ry="0.999997" fill="#BF98F7"/>
<ellipse cx="64.7708" cy="9" rx="1.06179" ry="0.999997" fill="#BF98F7"/>
<ellipse cx="69.0169" cy="9" rx="1.06179" ry="0.999997" fill="#BF98F7"/>
<ellipse cx="73.263" cy="9" rx="1.06179" ry="0.999997" fill="#BF98F7"/>
<ellipse cx="77.5091" cy="9" rx="1.06179" ry="0.999997" fill="#BF98F7"/>
<ellipse cx="81.7586" cy="9" rx="1.06179" ry="0.999997" fill="#BF98F7"/>
<ellipse cx="86.0047" cy="9" rx="1.06179" ry="0.999997" fill="#BF98F7"/>
<ellipse cx="90.2508" cy="9" rx="1.06179" ry="0.999997" fill="#BF98F7"/>
<ellipse cx="94.5008" cy="9" rx="1.06179" ry="0.999997" fill="#BF98F7"/>
<ellipse cx="98.7468" cy="9" rx="1.06179" ry="0.999997" fill="#BF98F7"/>
<ellipse cx="102.992" cy="9" rx="1.06179" ry="0.999997" fill="#BF98F7"/>
<ellipse cx="107.242" cy="9" rx="1.06179" ry="0.999997" fill="#BF98F7"/>
<ellipse cx="111.489" cy="9" rx="1.06179" ry="0.999997" fill="#BF98F7"/>
<ellipse cx="115.735" cy="9" rx="1.06179" ry="0.999997" fill="#BF98F7"/>
<ellipse cx="1.06179" cy="13" rx="1.06179" ry="0.999997" fill="#BF98F7"/>
<ellipse cx="5.30788" cy="13" rx="1.06179" ry="0.999997" fill="#BF98F7"/>
<ellipse cx="9.5574" cy="13" rx="1.06179" ry="0.999997" fill="#BF98F7"/>
<ellipse cx="13.8035" cy="13" rx="1.06179" ry="0.999997" fill="#BF98F7"/>
<ellipse cx="18.0496" cy="13" rx="1.06179" ry="0.999997" fill="#BF98F7"/>
<ellipse cx="22.2957" cy="13" rx="1.06179" ry="0.999997" fill="#BF98F7"/>
<ellipse cx="26.5457" cy="13" rx="1.06179" ry="0.999997" fill="#BF98F7"/>
<ellipse cx="30.7913" cy="13" rx="1.06179" ry="0.999997" fill="#BF98F7"/>
<ellipse cx="35.0374" cy="13" rx="1.06179" ry="0.999997" fill="#BF98F7"/>
<ellipse cx="39.2874" cy="13" rx="1.06179" ry="0.999997" fill="#BF98F7"/>
<ellipse cx="43.5335" cy="13" rx="1.06179" ry="0.999997" fill="#BF98F7"/>
<ellipse cx="47.7796" cy="13" rx="1.06179" ry="0.999997" fill="#BF98F7"/>
<ellipse cx="52.0291" cy="13" rx="1.06179" ry="0.999997" fill="#BF98F7"/>
<ellipse cx="56.2752" cy="13" rx="1.06179" ry="0.999997" fill="#BF98F7"/>
<ellipse cx="60.5213" cy="13" rx="1.06179" ry="0.999997" fill="#BF98F7"/>
<ellipse cx="64.7708" cy="13" rx="1.06179" ry="0.999997" fill="#BF98F7"/>
<ellipse cx="69.0169" cy="13" rx="1.06179" ry="0.999997" fill="#BF98F7"/>
<ellipse cx="73.263" cy="13" rx="1.06179" ry="0.999997" fill="#BF98F7"/>
<ellipse cx="77.5091" cy="13" rx="1.06179" ry="0.999997" fill="#BF98F7"/>
<ellipse cx="81.7586" cy="13" rx="1.06179" ry="0.999997" fill="#BF98F7"/>
<ellipse cx="86.0047" cy="13" rx="1.06179" ry="0.999997" fill="#BF98F7"/>
<ellipse cx="90.2508" cy="13" rx="1.06179" ry="0.999997" fill="#BF98F7"/>
<ellipse cx="94.5008" cy="13" rx="1.06179" ry="0.999997" fill="#BF98F7"/>
<ellipse cx="98.7468" cy="13" rx="1.06179" ry="0.999997" fill="#BF98F7"/>
<ellipse cx="102.992" cy="13" rx="1.06179" ry="0.999997" fill="#BF98F7"/>
<ellipse cx="107.242" cy="13" rx="1.06179" ry="0.999997" fill="#BF98F7"/>
<ellipse cx="111.489" cy="13" rx="1.06179" ry="0.999997" fill="#BF98F7"/>
<ellipse cx="115.735" cy="13" rx="1.06179" ry="0.999997" fill="#BF98F7"/>
<ellipse cx="1.06179" cy="17" rx="1.06179" ry="0.999997" fill="#BF98F7"/>
<ellipse cx="5.30788" cy="17" rx="1.06179" ry="0.999997" fill="#BF98F7"/>
<ellipse cx="9.5574" cy="17" rx="1.06179" ry="0.999997" fill="#BF98F7"/>
<ellipse cx="13.8035" cy="17" rx="1.06179" ry="0.999997" fill="#BF98F7"/>
<ellipse cx="18.0496" cy="17" rx="1.06179" ry="0.999997" fill="#BF98F7"/>
<ellipse cx="22.2957" cy="17" rx="1.06179" ry="0.999997" fill="#BF98F7"/>
<ellipse cx="26.5457" cy="17" rx="1.06179" ry="0.999997" fill="#BF98F7"/>
<ellipse cx="30.7913" cy="17" rx="1.06179" ry="0.999997" fill="#BF98F7"/>
<ellipse cx="35.0374" cy="17" rx="1.06179" ry="0.999997" fill="#BF98F7"/>
<ellipse cx="39.2874" cy="17" rx="1.06179" ry="0.999997" fill="#BF98F7"/>
<ellipse cx="43.5335" cy="17" rx="1.06179" ry="0.999997" fill="#BF98F7"/>
<ellipse cx="47.7796" cy="17" rx="1.06179" ry="0.999997" fill="#BF98F7"/>
<ellipse cx="52.0291" cy="17" rx="1.06179" ry="0.999997" fill="#BF98F7"/>
<ellipse cx="56.2752" cy="17" rx="1.06179" ry="0.999997" fill="#BF98F7"/>
<ellipse cx="60.5213" cy="17" rx="1.06179" ry="0.999997" fill="#BF98F7"/>
<ellipse cx="64.7708" cy="17" rx="1.06179" ry="0.999997" fill="#BF98F7"/>
<ellipse cx="69.0169" cy="17" rx="1.06179" ry="0.999997" fill="#BF98F7"/>
<ellipse cx="73.263" cy="17" rx="1.06179" ry="0.999997" fill="#BF98F7"/>
<ellipse cx="77.5091" cy="17" rx="1.06179" ry="0.999997" fill="#BF98F7"/>
<ellipse cx="81.7586" cy="17" rx="1.06179" ry="0.999997" fill="#BF98F7"/>
<ellipse cx="86.0047" cy="17" rx="1.06179" ry="0.999997" fill="#BF98F7"/>
<ellipse cx="90.2508" cy="17" rx="1.06179" ry="0.999997" fill="#BF98F7"/>
<ellipse cx="94.5008" cy="17" rx="1.06179" ry="0.999997" fill="#BF98F7"/>
<ellipse cx="98.7468" cy="17" rx="1.06179" ry="0.999997" fill="#BF98F7"/>
<ellipse cx="102.992" cy="17" rx="1.06179" ry="0.999997" fill="#BF98F7"/>
<ellipse cx="107.242" cy="17" rx="1.06179" ry="0.999997" fill="#BF98F7"/>
<ellipse cx="111.489" cy="17" rx="1.06179" ry="0.999997" fill="#BF98F7"/>
<ellipse cx="115.735" cy="17" rx="1.06179" ry="0.999997" fill="#BF98F7"/>
<ellipse cx="1.06179" cy="21" rx="1.06179" ry="0.999997" fill="#BF98F7"/>
<ellipse cx="5.30788" cy="21" rx="1.06179" ry="0.999997" fill="#BF98F7"/>
<ellipse cx="9.5574" cy="21" rx="1.06179" ry="0.999997" fill="#BF98F7"/>
<ellipse cx="13.8035" cy="21" rx="1.06179" ry="0.999997" fill="#BF98F7"/>
<ellipse cx="18.0496" cy="21" rx="1.06179" ry="0.999997" fill="#BF98F7"/>
<ellipse cx="22.2957" cy="21" rx="1.06179" ry="0.999997" fill="#BF98F7"/>
<ellipse cx="26.5457" cy="21" rx="1.06179" ry="0.999997" fill="#BF98F7"/>
<ellipse cx="30.7913" cy="21" rx="1.06179" ry="0.999997" fill="#BF98F7"/>
<ellipse cx="35.0374" cy="21" rx="1.06179" ry="0.999997" fill="#BF98F7"/>
<ellipse cx="39.2874" cy="21" rx="1.06179" ry="0.999997" fill="#BF98F7"/>
<ellipse cx="43.5335" cy="21" rx="1.06179" ry="0.999997" fill="#BF98F7"/>
<ellipse cx="47.7796" cy="21" rx="1.06179" ry="0.999997" fill="#BF98F7"/>
<ellipse cx="52.0291" cy="21" rx="1.06179" ry="0.999997" fill="#BF98F7"/>
<ellipse cx="56.2752" cy="21" rx="1.06179" ry="0.999997" fill="#BF98F7"/>
<ellipse cx="60.5213" cy="21" rx="1.06179" ry="0.999997" fill="#BF98F7"/>
<ellipse cx="64.7708" cy="21" rx="1.06179" ry="0.999997" fill="#BF98F7"/>
<ellipse cx="69.0169" cy="21" rx="1.06179" ry="0.999997" fill="#BF98F7"/>
<ellipse cx="73.263" cy="21" rx="1.06179" ry="0.999997" fill="#BF98F7"/>
<ellipse cx="77.5091" cy="21" rx="1.06179" ry="0.999997" fill="#BF98F7"/>
<ellipse cx="81.7586" cy="21" rx="1.06179" ry="0.999997" fill="#BF98F7"/>
<ellipse cx="86.0047" cy="21" rx="1.06179" ry="0.999997" fill="#BF98F7"/>
<ellipse cx="90.2508" cy="21" rx="1.06179" ry="0.999997" fill="#BF98F7"/>
<ellipse cx="94.5008" cy="21" rx="1.06179" ry="0.999997" fill="#BF98F7"/>
<ellipse cx="98.7468" cy="21" rx="1.06179" ry="0.999997" fill="#BF98F7"/>
<ellipse cx="102.992" cy="21" rx="1.06179" ry="0.999997" fill="#BF98F7"/>
<ellipse cx="107.242" cy="21" rx="1.06179" ry="0.999997" fill="#BF98F7"/>
<ellipse cx="111.489" cy="21" rx="1.06179" ry="0.999997" fill="#BF98F7"/>
<ellipse cx="115.735" cy="21" rx="1.06179" ry="0.999997" fill="#BF98F7"/>
<ellipse cx="1.06179" cy="25" rx="1.06179" ry="0.999997" fill="#BF98F7"/>
<ellipse cx="5.30788" cy="25" rx="1.06179" ry="0.999997" fill="#BF98F7"/>
<ellipse cx="9.5574" cy="25" rx="1.06179" ry="0.999997" fill="#BF98F7"/>
<ellipse cx="13.8035" cy="25" rx="1.06179" ry="0.999997" fill="#BF98F7"/>
<ellipse cx="18.0496" cy="25" rx="1.06179" ry="0.999997" fill="#BF98F7"/>
<ellipse cx="22.2957" cy="25" rx="1.06179" ry="0.999997" fill="#BF98F7"/>
<ellipse cx="26.5457" cy="25" rx="1.06179" ry="0.999997" fill="#BF98F7"/>
<ellipse cx="30.7913" cy="25" rx="1.06179" ry="0.999997" fill="#BF98F7"/>
<ellipse cx="35.0374" cy="25" rx="1.06179" ry="0.999997" fill="#BF98F7"/>
<ellipse cx="39.2874" cy="25" rx="1.06179" ry="0.999997" fill="#BF98F7"/>
<ellipse cx="43.5335" cy="25" rx="1.06179" ry="0.999997" fill="#BF98F7"/>
<ellipse cx="47.7796" cy="25" rx="1.06179" ry="0.999997" fill="#BF98F7"/>
<ellipse cx="52.0291" cy="25" rx="1.06179" ry="0.999997" fill="#BF98F7"/>
<ellipse cx="56.2752" cy="25" rx="1.06179" ry="0.999997" fill="#BF98F7"/>
<ellipse cx="60.5213" cy="25" rx="1.06179" ry="0.999997" fill="#BF98F7"/>
<ellipse cx="64.7708" cy="25" rx="1.06179" ry="0.999997" fill="#BF98F7"/>
<ellipse cx="69.0169" cy="25" rx="1.06179" ry="0.999997" fill="#BF98F7"/>
<ellipse cx="73.263" cy="25" rx="1.06179" ry="0.999997" fill="#BF98F7"/>
<ellipse cx="77.5091" cy="25" rx="1.06179" ry="0.999997" fill="#BF98F7"/>
<ellipse cx="81.7586" cy="25" rx="1.06179" ry="0.999997" fill="#BF98F7"/>
<ellipse cx="86.0047" cy="25" rx="1.06179" ry="0.999997" fill="#BF98F7"/>
<ellipse cx="90.2508" cy="25" rx="1.06179" ry="0.999997" fill="#BF98F7"/>
<ellipse cx="94.5008" cy="25" rx="1.06179" ry="0.999997" fill="#BF98F7"/>
<ellipse cx="98.7468" cy="25" rx="1.06179" ry="0.999997" fill="#BF98F7"/>
<ellipse cx="102.992" cy="25" rx="1.06179" ry="0.999997" fill="#BF98F7"/>
<ellipse cx="107.242" cy="25" rx="1.06179" ry="0.999997" fill="#BF98F7"/>
<ellipse cx="111.489" cy="25" rx="1.06179" ry="0.999997" fill="#BF98F7"/>
<ellipse cx="115.735" cy="25" rx="1.06179" ry="0.999997" fill="#BF98F7"/>
<ellipse cx="1.06179" cy="29" rx="1.06179" ry="0.999997" fill="#BF98F7"/>
<ellipse cx="5.30788" cy="29" rx="1.06179" ry="0.999997" fill="#BF98F7"/>
<ellipse cx="9.5574" cy="29" rx="1.06179" ry="0.999997" fill="#BF98F7"/>
<ellipse cx="13.8035" cy="29" rx="1.06179" ry="0.999997" fill="#BF98F7"/>
<ellipse cx="18.0496" cy="29" rx="1.06179" ry="0.999997" fill="#BF98F7"/>
<ellipse cx="22.2957" cy="29" rx="1.06179" ry="0.999997" fill="#BF98F7"/>
<ellipse cx="26.5457" cy="29" rx="1.06179" ry="0.999997" fill="#BF98F7"/>
<ellipse cx="30.7913" cy="29" rx="1.06179" ry="0.999997" fill="#BF98F7"/>
<ellipse cx="35.0374" cy="29" rx="1.06179" ry="0.999997" fill="#BF98F7"/>
<ellipse cx="39.2874" cy="29" rx="1.06179" ry="0.999997" fill="#BF98F7"/>
<ellipse cx="43.5335" cy="29" rx="1.06179" ry="0.999997" fill="#BF98F7"/>
<ellipse cx="47.7796" cy="29" rx="1.06179" ry="0.999997" fill="#BF98F7"/>
<ellipse cx="52.0291" cy="29" rx="1.06179" ry="0.999997" fill="#BF98F7"/>
<ellipse cx="56.2752" cy="29" rx="1.06179" ry="0.999997" fill="#BF98F7"/>
<ellipse cx="60.5213" cy="29" rx="1.06179" ry="0.999997" fill="#BF98F7"/>
<ellipse cx="64.7708" cy="29" rx="1.06179" ry="0.999997" fill="#BF98F7"/>
<ellipse cx="69.0169" cy="29" rx="1.06179" ry="0.999997" fill="#BF98F7"/>
<ellipse cx="73.263" cy="29" rx="1.06179" ry="0.999997" fill="#BF98F7"/>
<ellipse cx="77.5091" cy="29" rx="1.06179" ry="0.999997" fill="#BF98F7"/>
<ellipse cx="81.7586" cy="29" rx="1.06179" ry="0.999997" fill="#BF98F7"/>
<ellipse cx="86.0047" cy="29" rx="1.06179" ry="0.999997" fill="#BF98F7"/>
<ellipse cx="90.2508" cy="29" rx="1.06179" ry="0.999997" fill="#BF98F7"/>
<ellipse cx="94.5008" cy="29" rx="1.06179" ry="0.999997" fill="#BF98F7"/>
<ellipse cx="98.7468" cy="29" rx="1.06179" ry="0.999997" fill="#BF98F7"/>
<ellipse cx="102.992" cy="29" rx="1.06179" ry="0.999997" fill="#BF98F7"/>
<ellipse cx="107.242" cy="29" rx="1.06179" ry="0.999997" fill="#BF98F7"/>
<ellipse cx="111.489" cy="29" rx="1.06179" ry="0.999997" fill="#BF98F7"/>
<ellipse cx="115.735" cy="29" rx="1.06179" ry="0.999997" fill="#BF98F7"/>
<ellipse cx="1.06179" cy="33" rx="1.06179" ry="0.999997" fill="#BF98F7"/>
<ellipse cx="5.30788" cy="33" rx="1.06179" ry="0.999997" fill="#BF98F7"/>
<ellipse cx="9.5574" cy="33" rx="1.06179" ry="0.999997" fill="#BF98F7"/>
<ellipse cx="13.8035" cy="33" rx="1.06179" ry="0.999997" fill="#BF98F7"/>
<ellipse cx="18.0496" cy="33" rx="1.06179" ry="0.999997" fill="#BF98F7"/>
<ellipse cx="22.2957" cy="33" rx="1.06179" ry="0.999997" fill="#BF98F7"/>
<ellipse cx="26.5457" cy="33" rx="1.06179" ry="0.999997" fill="#BF98F7"/>
<ellipse cx="30.7913" cy="33" rx="1.06179" ry="0.999997" fill="#BF98F7"/>
<ellipse cx="35.0374" cy="33" rx="1.06179" ry="0.999997" fill="#BF98F7"/>
<ellipse cx="39.2874" cy="33" rx="1.06179" ry="0.999997" fill="#BF98F7"/>
<ellipse cx="43.5335" cy="33" rx="1.06179" ry="0.999997" fill="#BF98F7"/>
<ellipse cx="47.7796" cy="33" rx="1.06179" ry="0.999997" fill="#BF98F7"/>
<ellipse cx="52.0291" cy="33" rx="1.06179" ry="0.999997" fill="#BF98F7"/>
<ellipse cx="56.2752" cy="33" rx="1.06179" ry="0.999997" fill="#BF98F7"/>
<ellipse cx="60.5213" cy="33" rx="1.06179" ry="0.999997" fill="#BF98F7"/>
<ellipse cx="64.7708" cy="33" rx="1.06179" ry="0.999997" fill="#BF98F7"/>
<ellipse cx="69.0169" cy="33" rx="1.06179" ry="0.999997" fill="#BF98F7"/>
<ellipse cx="73.263" cy="33" rx="1.06179" ry="0.999997" fill="#BF98F7"/>
<ellipse cx="77.5091" cy="33" rx="1.06179" ry="0.999997" fill="#BF98F7"/>
<ellipse cx="81.7586" cy="33" rx="1.06179" ry="0.999997" fill="#BF98F7"/>
<ellipse cx="86.0047" cy="33" rx="1.06179" ry="0.999997" fill="#BF98F7"/>
<ellipse cx="90.2508" cy="33" rx="1.06179" ry="0.999997" fill="#BF98F7"/>
<ellipse cx="94.5008" cy="33" rx="1.06179" ry="0.999997" fill="#BF98F7"/>
<ellipse cx="98.7468" cy="33" rx="1.06179" ry="0.999997" fill="#BF98F7"/>
<ellipse cx="102.992" cy="33" rx="1.06179" ry="0.999997" fill="#BF98F7"/>
<ellipse cx="107.242" cy="33" rx="1.06179" ry="0.999997" fill="#BF98F7"/>
<ellipse cx="111.489" cy="33" rx="1.06179" ry="0.999997" fill="#BF98F7"/>
<ellipse cx="115.735" cy="33" rx="1.06179" ry="0.999997" fill="#BF98F7"/>
<ellipse cx="1.06179" cy="37" rx="1.06179" ry="0.999997" fill="#BF98F7"/>
<ellipse cx="5.30788" cy="37" rx="1.06179" ry="0.999997" fill="#BF98F7"/>
<ellipse cx="9.5574" cy="37" rx="1.06179" ry="0.999997" fill="#BF98F7"/>
<ellipse cx="13.8035" cy="37" rx="1.06179" ry="0.999997" fill="#BF98F7"/>
<ellipse cx="18.0496" cy="37" rx="1.06179" ry="0.999997" fill="#BF98F7"/>
<ellipse cx="22.2957" cy="37" rx="1.06179" ry="0.999997" fill="#BF98F7"/>
<ellipse cx="26.5457" cy="37" rx="1.06179" ry="0.999997" fill="#BF98F7"/>
<ellipse cx="30.7913" cy="37" rx="1.06179" ry="0.999997" fill="#BF98F7"/>
<ellipse cx="35.0374" cy="37" rx="1.06179" ry="0.999997" fill="#BF98F7"/>
<ellipse cx="39.2874" cy="37" rx="1.06179" ry="0.999997" fill="#BF98F7"/>
<ellipse cx="43.5335" cy="37" rx="1.06179" ry="0.999997" fill="#BF98F7"/>
<ellipse cx="47.7796" cy="37" rx="1.06179" ry="0.999997" fill="#BF98F7"/>
<ellipse cx="52.0291" cy="37" rx="1.06179" ry="0.999997" fill="#BF98F7"/>
<ellipse cx="56.2752" cy="37" rx="1.06179" ry="0.999997" fill="#BF98F7"/>
<ellipse cx="60.5213" cy="37" rx="1.06179" ry="0.999997" fill="#BF98F7"/>
<ellipse cx="64.7708" cy="37" rx="1.06179" ry="0.999997" fill="#BF98F7"/>
<ellipse cx="69.0169" cy="37" rx="1.06179" ry="0.999997" fill="#BF98F7"/>
<ellipse cx="73.263" cy="37" rx="1.06179" ry="0.999997" fill="#BF98F7"/>
<ellipse cx="77.5091" cy="37" rx="1.06179" ry="0.999997" fill="#BF98F7"/>
<ellipse cx="81.7586" cy="37" rx="1.06179" ry="0.999997" fill="#BF98F7"/>
<ellipse cx="86.0047" cy="37" rx="1.06179" ry="0.999997" fill="#BF98F7"/>
<ellipse cx="90.2508" cy="37" rx="1.06179" ry="0.999997" fill="#BF98F7"/>
<ellipse cx="94.5008" cy="37" rx="1.06179" ry="0.999997" fill="#BF98F7"/>
<ellipse cx="98.7468" cy="37" rx="1.06179" ry="0.999997" fill="#BF98F7"/>
<ellipse cx="102.992" cy="37" rx="1.06179" ry="0.999997" fill="#BF98F7"/>
<ellipse cx="107.242" cy="37" rx="1.06179" ry="0.999997" fill="#BF98F7"/>
<ellipse cx="111.489" cy="37" rx="1.06179" ry="0.999997" fill="#BF98F7"/>
<ellipse cx="115.735" cy="37" rx="1.06179" ry="0.999997" fill="#BF98F7"/>
<ellipse cx="1.06179" cy="41" rx="1.06179" ry="0.999997" fill="#BF98F7"/>
<ellipse cx="5.30788" cy="41" rx="1.06179" ry="0.999997" fill="#BF98F7"/>
<ellipse cx="9.5574" cy="41" rx="1.06179" ry="0.999997" fill="#BF98F7"/>
<ellipse cx="13.8035" cy="41" rx="1.06179" ry="0.999997" fill="#BF98F7"/>
<ellipse cx="18.0496" cy="41" rx="1.06179" ry="0.999997" fill="#BF98F7"/>
<ellipse cx="22.2957" cy="41" rx="1.06179" ry="0.999997" fill="#BF98F7"/>
<ellipse cx="26.5457" cy="41" rx="1.06179" ry="0.999997" fill="#BF98F7"/>
<ellipse cx="30.7913" cy="41" rx="1.06179" ry="0.999997" fill="#BF98F7"/>
<ellipse cx="35.0374" cy="41" rx="1.06179" ry="0.999997" fill="#BF98F7"/>
<ellipse cx="39.2874" cy="41" rx="1.06179" ry="0.999997" fill="#BF98F7"/>
<ellipse cx="43.5335" cy="41" rx="1.06179" ry="0.999997" fill="#BF98F7"/>
<ellipse cx="47.7796" cy="41" rx="1.06179" ry="0.999997" fill="#BF98F7"/>
<ellipse cx="52.0291" cy="41" rx="1.06179" ry="0.999997" fill="#BF98F7"/>
<ellipse cx="56.2752" cy="41" rx="1.06179" ry="0.999997" fill="#BF98F7"/>
<ellipse cx="60.5213" cy="41" rx="1.06179" ry="0.999997" fill="#BF98F7"/>
<ellipse cx="64.7708" cy="41" rx="1.06179" ry="0.999997" fill="#BF98F7"/>
<ellipse cx="69.0169" cy="41" rx="1.06179" ry="0.999997" fill="#BF98F7"/>
<ellipse cx="73.263" cy="41" rx="1.06179" ry="0.999997" fill="#BF98F7"/>
<ellipse cx="77.5091" cy="41" rx="1.06179" ry="0.999997" fill="#BF98F7"/>
<ellipse cx="81.7586" cy="41" rx="1.06179" ry="0.999997" fill="#BF98F7"/>
<ellipse cx="86.0047" cy="41" rx="1.06179" ry="0.999997" fill="#BF98F7"/>
<ellipse cx="90.2508" cy="41" rx="1.06179" ry="0.999997" fill="#BF98F7"/>
<ellipse cx="94.5008" cy="41" rx="1.06179" ry="0.999997" fill="#BF98F7"/>
<ellipse cx="98.7468" cy="41" rx="1.06179" ry="0.999997" fill="#BF98F7"/>
<ellipse cx="102.992" cy="41" rx="1.06179" ry="0.999997" fill="#BF98F7"/>
<ellipse cx="107.242" cy="41" rx="1.06179" ry="0.999997" fill="#BF98F7"/>
<ellipse cx="111.489" cy="41" rx="1.06179" ry="0.999997" fill="#BF98F7"/>
<ellipse cx="115.735" cy="41" rx="1.06179" ry="0.999997" fill="#BF98F7"/>
<ellipse cx="1.06179" cy="45" rx="1.06179" ry="0.999997" fill="#BF98F7"/>
<ellipse cx="5.30788" cy="45" rx="1.06179" ry="0.999997" fill="#BF98F7"/>
<ellipse cx="9.5574" cy="45" rx="1.06179" ry="0.999997" fill="#BF98F7"/>
<ellipse cx="13.8035" cy="45" rx="1.06179" ry="0.999997" fill="#BF98F7"/>
<ellipse cx="18.0496" cy="45" rx="1.06179" ry="0.999997" fill="#BF98F7"/>
<ellipse cx="22.2957" cy="45" rx="1.06179" ry="0.999997" fill="#BF98F7"/>
<ellipse cx="26.5457" cy="45" rx="1.06179" ry="0.999997" fill="#BF98F7"/>
<ellipse cx="30.7913" cy="45" rx="1.06179" ry="0.999997" fill="#BF98F7"/>
<ellipse cx="35.0374" cy="45" rx="1.06179" ry="0.999997" fill="#BF98F7"/>
<ellipse cx="39.2874" cy="45" rx="1.06179" ry="0.999997" fill="#BF98F7"/>
<ellipse cx="43.5335" cy="45" rx="1.06179" ry="0.999997" fill="#BF98F7"/>
<ellipse cx="47.7796" cy="45" rx="1.06179" ry="0.999997" fill="#BF98F7"/>
<ellipse cx="52.0291" cy="45" rx="1.06179" ry="0.999997" fill="#BF98F7"/>
<ellipse cx="56.2752" cy="45" rx="1.06179" ry="0.999997" fill="#BF98F7"/>
<ellipse cx="60.5213" cy="45" rx="1.06179" ry="0.999997" fill="#BF98F7"/>
<ellipse cx="64.7708" cy="45" rx="1.06179" ry="0.999997" fill="#BF98F7"/>
<ellipse cx="69.0169" cy="45" rx="1.06179" ry="0.999997" fill="#BF98F7"/>
<ellipse cx="73.263" cy="45" rx="1.06179" ry="0.999997" fill="#BF98F7"/>
<ellipse cx="77.5091" cy="45" rx="1.06179" ry="0.999997" fill="#BF98F7"/>
<ellipse cx="81.7586" cy="45" rx="1.06179" ry="0.999997" fill="#BF98F7"/>
<ellipse cx="86.0047" cy="45" rx="1.06179" ry="0.999997" fill="#BF98F7"/>
<ellipse cx="90.2508" cy="45" rx="1.06179" ry="0.999997" fill="#BF98F7"/>
<ellipse cx="94.5008" cy="45" rx="1.06179" ry="0.999997" fill="#BF98F7"/>
<ellipse cx="98.7468" cy="45" rx="1.06179" ry="0.999997" fill="#BF98F7"/>
<ellipse cx="102.992" cy="45" rx="1.06179" ry="0.999997" fill="#BF98F7"/>
<ellipse cx="107.242" cy="45" rx="1.06179" ry="0.999997" fill="#BF98F7"/>
<ellipse cx="111.489" cy="45" rx="1.06179" ry="0.999997" fill="#BF98F7"/>
<ellipse cx="115.735" cy="45" rx="1.06179" ry="0.999997" fill="#BF98F7"/>
</svg>
