<svg width="167" height="45" viewBox="0 0 167 45" fill="none" xmlns="http://www.w3.org/2000/svg">
<circle cx="0.958526" cy="0.958526" r="0.958526" fill="#8652D1"/>
<circle cx="4.79202" cy="0.958526" r="0.958526" fill="#8652D1"/>
<circle cx="8.62747" cy="0.958526" r="0.958526" fill="#8652D1"/>
<circle cx="12.4595" cy="0.958526" r="0.958526" fill="#8652D1"/>
<circle cx="16.295" cy="0.958526" r="0.958526" fill="#8652D1"/>
<circle cx="20.1284" cy="0.958526" r="0.958526" fill="#8652D1"/>
<circle cx="23.9639" cy="0.958526" r="0.958526" fill="#8652D1"/>
<circle cx="27.7974" cy="0.958526" r="0.958526" fill="#8652D1"/>
<circle cx="31.6328" cy="0.958526" r="0.958526" fill="#8652D1"/>
<circle cx="35.4649" cy="0.958526" r="0.958526" fill="#8652D1"/>
<circle cx="39.2984" cy="0.958526" r="0.958526" fill="#8652D1"/>
<circle cx="43.1338" cy="0.958526" r="0.958526" fill="#8652D1"/>
<circle cx="46.9673" cy="0.958526" r="0.958526" fill="#8652D1"/>
<circle cx="50.8028" cy="0.958526" r="0.958526" fill="#8652D1"/>
<circle cx="54.6367" cy="0.958526" r="0.958526" fill="#8652D1"/>
<circle cx="58.4702" cy="0.958526" r="0.958526" fill="#8652D1"/>
<circle cx="62.3037" cy="0.958526" r="0.958526" fill="#8652D1"/>
<circle cx="66.1392" cy="0.958526" r="0.958526" fill="#8652D1"/>
<circle cx="69.9727" cy="0.958526" r="0.958526" fill="#8652D1"/>
<circle cx="73.8067" cy="0.958526" r="0.958526" fill="#8652D1"/>
<circle cx="77.6402" cy="0.958526" r="0.958526" fill="#8652D1"/>
<circle cx="81.4737" cy="0.958526" r="0.958526" fill="#8652D1"/>
<circle cx="85.3091" cy="0.958526" r="0.958526" fill="#8652D1"/>
<circle cx="89.1426" cy="0.958526" r="0.958526" fill="#8652D1"/>
<circle cx="92.9785" cy="0.958526" r="0.958526" fill="#8652D1"/>
<circle cx="96.812" cy="0.958526" r="0.958526" fill="#8652D1"/>
<circle cx="100.644" cy="0.958526" r="0.958526" fill="#8652D1"/>
<circle cx="104.479" cy="0.958526" r="0.958526" fill="#8652D1"/>
<circle cx="108.313" cy="0.958526" r="0.958526" fill="#8652D1"/>
<circle cx="112.148" cy="0.958526" r="0.958526" fill="#8652D1"/>
<circle cx="115.982" cy="0.958526" r="0.958526" fill="#8652D1"/>
<circle cx="119.815" cy="0.958526" r="0.958526" fill="#8652D1"/>
<circle cx="123.649" cy="0.958526" r="0.958526" fill="#8652D1"/>
<circle cx="127.484" cy="0.958526" r="0.958526" fill="#8652D1"/>
<circle cx="131.318" cy="0.958526" r="0.958526" fill="#8652D1"/>
<circle cx="135.152" cy="0.958526" r="0.958526" fill="#8652D1"/>
<circle cx="138.987" cy="0.958526" r="0.958526" fill="#8652D1"/>
<circle cx="142.819" cy="0.958526" r="0.958526" fill="#8652D1"/>
<circle cx="146.654" cy="0.958526" r="0.958526" fill="#8652D1"/>
<circle cx="150.488" cy="0.958526" r="0.958526" fill="#8652D1"/>
<circle cx="154.324" cy="0.958526" r="0.958526" fill="#8652D1"/>
<circle cx="158.157" cy="0.958526" r="0.958526" fill="#8652D1"/>
<circle cx="161.991" cy="0.958526" r="0.958526" fill="#8652D1"/>
<circle cx="165.824" cy="0.958526" r="0.958526" fill="#8652D1"/>
<circle cx="0.958526" cy="4.79251" r="0.958526" fill="#8652D1"/>
<circle cx="4.79202" cy="4.79251" r="0.958526" fill="#8652D1"/>
<circle cx="8.62747" cy="4.79251" r="0.958526" fill="#8652D1"/>
<circle cx="12.4595" cy="4.79251" r="0.958526" fill="#8652D1"/>
<circle cx="16.295" cy="4.79251" r="0.958526" fill="#8652D1"/>
<circle cx="20.1284" cy="4.79251" r="0.958526" fill="#8652D1"/>
<circle cx="23.9639" cy="4.79251" r="0.958526" fill="#8652D1"/>
<circle cx="27.7974" cy="4.79251" r="0.958526" fill="#8652D1"/>
<circle cx="31.6328" cy="4.79251" r="0.958526" fill="#8652D1"/>
<circle cx="35.4649" cy="4.79251" r="0.958526" fill="#8652D1"/>
<circle cx="39.2984" cy="4.79251" r="0.958526" fill="#8652D1"/>
<circle cx="43.1338" cy="4.79251" r="0.958526" fill="#8652D1"/>
<circle cx="46.9673" cy="4.79251" r="0.958526" fill="#8652D1"/>
<circle cx="50.8028" cy="4.79251" r="0.958526" fill="#8652D1"/>
<circle cx="54.6367" cy="4.79251" r="0.958526" fill="#8652D1"/>
<circle cx="58.4702" cy="4.79251" r="0.958526" fill="#8652D1"/>
<circle cx="62.3037" cy="4.79251" r="0.958526" fill="#8652D1"/>
<circle cx="66.1392" cy="4.79251" r="0.958526" fill="#8652D1"/>
<circle cx="69.9727" cy="4.79251" r="0.958526" fill="#8652D1"/>
<circle cx="73.8067" cy="4.79251" r="0.958526" fill="#8652D1"/>
<circle cx="77.6402" cy="4.79251" r="0.958526" fill="#8652D1"/>
<circle cx="81.4737" cy="4.79251" r="0.958526" fill="#8652D1"/>
<circle cx="85.3091" cy="4.79251" r="0.958526" fill="#8652D1"/>
<circle cx="89.1426" cy="4.79251" r="0.958526" fill="#8652D1"/>
<circle cx="92.9785" cy="4.79251" r="0.958526" fill="#8652D1"/>
<circle cx="96.812" cy="4.79251" r="0.958526" fill="#8652D1"/>
<circle cx="100.644" cy="4.79251" r="0.958526" fill="#8652D1"/>
<circle cx="104.479" cy="4.79251" r="0.958526" fill="#8652D1"/>
<circle cx="108.313" cy="4.79251" r="0.958526" fill="#8652D1"/>
<circle cx="112.148" cy="4.79251" r="0.958526" fill="#8652D1"/>
<circle cx="115.982" cy="4.79251" r="0.958526" fill="#8652D1"/>
<circle cx="119.815" cy="4.79251" r="0.958526" fill="#8652D1"/>
<circle cx="123.649" cy="4.79251" r="0.958526" fill="#8652D1"/>
<circle cx="127.484" cy="4.79251" r="0.958526" fill="#8652D1"/>
<circle cx="131.318" cy="4.79251" r="0.958526" fill="#8652D1"/>
<circle cx="135.152" cy="4.79251" r="0.958526" fill="#8652D1"/>
<circle cx="138.987" cy="4.79251" r="0.958526" fill="#8652D1"/>
<circle cx="142.819" cy="4.79251" r="0.958526" fill="#8652D1"/>
<circle cx="146.654" cy="4.79251" r="0.958526" fill="#8652D1"/>
<circle cx="150.488" cy="4.79251" r="0.958526" fill="#8652D1"/>
<circle cx="154.324" cy="4.79251" r="0.958526" fill="#8652D1"/>
<circle cx="158.157" cy="4.79251" r="0.958526" fill="#8652D1"/>
<circle cx="161.991" cy="4.79251" r="0.958526" fill="#8652D1"/>
<circle cx="165.824" cy="4.79251" r="0.958526" fill="#8652D1"/>
<circle cx="0.958526" cy="8.62698" r="0.958526" fill="#8652D1"/>
<circle cx="4.79202" cy="8.62698" r="0.958526" fill="#8652D1"/>
<circle cx="8.62747" cy="8.62698" r="0.958526" fill="#8652D1"/>
<circle cx="12.4595" cy="8.62698" r="0.958526" fill="#8652D1"/>
<circle cx="16.295" cy="8.62698" r="0.958526" fill="#8652D1"/>
<circle cx="20.1284" cy="8.62698" r="0.958526" fill="#8652D1"/>
<circle cx="23.9639" cy="8.62698" r="0.958526" fill="#8652D1"/>
<circle cx="27.7974" cy="8.62698" r="0.958526" fill="#8652D1"/>
<circle cx="31.6328" cy="8.62698" r="0.958526" fill="#8652D1"/>
<circle cx="35.4649" cy="8.62698" r="0.958526" fill="#8652D1"/>
<circle cx="39.2984" cy="8.62698" r="0.958526" fill="#8652D1"/>
<circle cx="43.1338" cy="8.62698" r="0.958526" fill="#8652D1"/>
<circle cx="46.9673" cy="8.62698" r="0.958526" fill="#8652D1"/>
<circle cx="50.8028" cy="8.62698" r="0.958526" fill="#8652D1"/>
<circle cx="54.6367" cy="8.62698" r="0.958526" fill="#8652D1"/>
<circle cx="58.4702" cy="8.62698" r="0.958526" fill="#8652D1"/>
<circle cx="62.3037" cy="8.62698" r="0.958526" fill="#8652D1"/>
<circle cx="66.1392" cy="8.62698" r="0.958526" fill="#8652D1"/>
<circle cx="69.9727" cy="8.62698" r="0.958526" fill="#8652D1"/>
<circle cx="73.8067" cy="8.62698" r="0.958526" fill="#8652D1"/>
<circle cx="77.6402" cy="8.62698" r="0.958526" fill="#8652D1"/>
<circle cx="81.4737" cy="8.62698" r="0.958526" fill="#8652D1"/>
<circle cx="85.3091" cy="8.62698" r="0.958526" fill="#8652D1"/>
<circle cx="89.1426" cy="8.62698" r="0.958526" fill="#8652D1"/>
<circle cx="92.9785" cy="8.62698" r="0.958526" fill="#8652D1"/>
<circle cx="96.812" cy="8.62698" r="0.958526" fill="#8652D1"/>
<circle cx="100.644" cy="8.62698" r="0.958526" fill="#8652D1"/>
<circle cx="104.479" cy="8.62698" r="0.958526" fill="#8652D1"/>
<circle cx="108.313" cy="8.62698" r="0.958526" fill="#8652D1"/>
<circle cx="112.148" cy="8.62698" r="0.958526" fill="#8652D1"/>
<circle cx="115.982" cy="8.62698" r="0.958526" fill="#8652D1"/>
<circle cx="119.815" cy="8.62698" r="0.958526" fill="#8652D1"/>
<circle cx="123.649" cy="8.62698" r="0.958526" fill="#8652D1"/>
<circle cx="127.484" cy="8.62698" r="0.958526" fill="#8652D1"/>
<circle cx="131.318" cy="8.62698" r="0.958526" fill="#8652D1"/>
<circle cx="135.152" cy="8.62698" r="0.958526" fill="#8652D1"/>
<circle cx="138.987" cy="8.62698" r="0.958526" fill="#8652D1"/>
<circle cx="142.819" cy="8.62698" r="0.958526" fill="#8652D1"/>
<circle cx="146.654" cy="8.62698" r="0.958526" fill="#8652D1"/>
<circle cx="150.488" cy="8.62698" r="0.958526" fill="#8652D1"/>
<circle cx="154.324" cy="8.62698" r="0.958526" fill="#8652D1"/>
<circle cx="158.157" cy="8.62698" r="0.958526" fill="#8652D1"/>
<circle cx="161.991" cy="8.62698" r="0.958526" fill="#8652D1"/>
<circle cx="165.824" cy="8.62698" r="0.958526" fill="#8652D1"/>
<circle cx="0.958526" cy="12.4615" r="0.958526" fill="#8652D1"/>
<circle cx="4.79202" cy="12.4615" r="0.958526" fill="#8652D1"/>
<circle cx="8.62747" cy="12.4615" r="0.958526" fill="#8652D1"/>
<circle cx="12.4595" cy="12.4615" r="0.958526" fill="#8652D1"/>
<circle cx="16.295" cy="12.4615" r="0.958526" fill="#8652D1"/>
<circle cx="20.1284" cy="12.4615" r="0.958526" fill="#8652D1"/>
<circle cx="23.9639" cy="12.4615" r="0.958526" fill="#8652D1"/>
<circle cx="27.7974" cy="12.4615" r="0.958526" fill="#8652D1"/>
<circle cx="31.6328" cy="12.4615" r="0.958526" fill="#8652D1"/>
<circle cx="35.4649" cy="12.4615" r="0.958526" fill="#8652D1"/>
<circle cx="39.2984" cy="12.4615" r="0.958526" fill="#8652D1"/>
<circle cx="43.1338" cy="12.4615" r="0.958526" fill="#8652D1"/>
<circle cx="46.9673" cy="12.4615" r="0.958526" fill="#8652D1"/>
<circle cx="50.8028" cy="12.4615" r="0.958526" fill="#8652D1"/>
<circle cx="54.6367" cy="12.4615" r="0.958526" fill="#8652D1"/>
<circle cx="58.4702" cy="12.4615" r="0.958526" fill="#8652D1"/>
<circle cx="62.3037" cy="12.4615" r="0.958526" fill="#8652D1"/>
<circle cx="66.1392" cy="12.4615" r="0.958526" fill="#8652D1"/>
<circle cx="69.9727" cy="12.4615" r="0.958526" fill="#8652D1"/>
<circle cx="73.8067" cy="12.4615" r="0.958526" fill="#8652D1"/>
<circle cx="77.6402" cy="12.4615" r="0.958526" fill="#8652D1"/>
<circle cx="81.4737" cy="12.4615" r="0.958526" fill="#8652D1"/>
<circle cx="85.3091" cy="12.4615" r="0.958526" fill="#8652D1"/>
<circle cx="89.1426" cy="12.4615" r="0.958526" fill="#8652D1"/>
<circle cx="92.9785" cy="12.4615" r="0.958526" fill="#8652D1"/>
<circle cx="96.812" cy="12.4615" r="0.958526" fill="#8652D1"/>
<circle cx="100.644" cy="12.4615" r="0.958526" fill="#8652D1"/>
<circle cx="104.479" cy="12.4615" r="0.958526" fill="#8652D1"/>
<circle cx="108.313" cy="12.4615" r="0.958526" fill="#8652D1"/>
<circle cx="112.148" cy="12.4615" r="0.958526" fill="#8652D1"/>
<circle cx="115.982" cy="12.4615" r="0.958526" fill="#8652D1"/>
<circle cx="119.815" cy="12.4615" r="0.958526" fill="#8652D1"/>
<circle cx="123.649" cy="12.4615" r="0.958526" fill="#8652D1"/>
<circle cx="127.484" cy="12.4615" r="0.958526" fill="#8652D1"/>
<circle cx="131.318" cy="12.4615" r="0.958526" fill="#8652D1"/>
<circle cx="135.152" cy="12.4615" r="0.958526" fill="#8652D1"/>
<circle cx="138.987" cy="12.4615" r="0.958526" fill="#8652D1"/>
<circle cx="142.819" cy="12.4615" r="0.958526" fill="#8652D1"/>
<circle cx="146.654" cy="12.4615" r="0.958526" fill="#8652D1"/>
<circle cx="150.488" cy="12.4615" r="0.958526" fill="#8652D1"/>
<circle cx="154.324" cy="12.4615" r="0.958526" fill="#8652D1"/>
<circle cx="158.157" cy="12.4615" r="0.958526" fill="#8652D1"/>
<circle cx="161.991" cy="12.4615" r="0.958526" fill="#8652D1"/>
<circle cx="165.824" cy="12.4615" r="0.958526" fill="#8652D1"/>
<circle cx="0.958526" cy="16.2945" r="0.958526" fill="#8652D1"/>
<circle cx="4.79202" cy="16.2945" r="0.958526" fill="#8652D1"/>
<circle cx="8.62747" cy="16.2945" r="0.958526" fill="#8652D1"/>
<circle cx="12.4595" cy="16.2945" r="0.958526" fill="#8652D1"/>
<circle cx="16.295" cy="16.2945" r="0.958526" fill="#8652D1"/>
<circle cx="20.1284" cy="16.2945" r="0.958526" fill="#8652D1"/>
<circle cx="23.9639" cy="16.2945" r="0.958526" fill="#8652D1"/>
<circle cx="27.7974" cy="16.2945" r="0.958526" fill="#8652D1"/>
<circle cx="31.6328" cy="16.2945" r="0.958526" fill="#8652D1"/>
<circle cx="35.4649" cy="16.2945" r="0.958526" fill="#8652D1"/>
<circle cx="39.2984" cy="16.2945" r="0.958526" fill="#8652D1"/>
<circle cx="43.1338" cy="16.2945" r="0.958526" fill="#8652D1"/>
<circle cx="46.9673" cy="16.2945" r="0.958526" fill="#8652D1"/>
<circle cx="50.8028" cy="16.2945" r="0.958526" fill="#8652D1"/>
<circle cx="54.6367" cy="16.2945" r="0.958526" fill="#8652D1"/>
<circle cx="58.4702" cy="16.2945" r="0.958526" fill="#8652D1"/>
<circle cx="62.3037" cy="16.2945" r="0.958526" fill="#8652D1"/>
<circle cx="66.1392" cy="16.2945" r="0.958526" fill="#8652D1"/>
<circle cx="69.9727" cy="16.2945" r="0.958526" fill="#8652D1"/>
<circle cx="73.8067" cy="16.2945" r="0.958526" fill="#8652D1"/>
<circle cx="77.6402" cy="16.2945" r="0.958526" fill="#8652D1"/>
<circle cx="81.4737" cy="16.2945" r="0.958526" fill="#8652D1"/>
<circle cx="85.3091" cy="16.2945" r="0.958526" fill="#8652D1"/>
<circle cx="89.1426" cy="16.2945" r="0.958526" fill="#8652D1"/>
<circle cx="92.9785" cy="16.2945" r="0.958526" fill="#8652D1"/>
<circle cx="96.812" cy="16.2945" r="0.958526" fill="#8652D1"/>
<circle cx="100.644" cy="16.2945" r="0.958526" fill="#8652D1"/>
<circle cx="104.479" cy="16.2945" r="0.958526" fill="#8652D1"/>
<circle cx="108.313" cy="16.2945" r="0.958526" fill="#8652D1"/>
<circle cx="112.148" cy="16.2945" r="0.958526" fill="#8652D1"/>
<circle cx="115.982" cy="16.2945" r="0.958526" fill="#8652D1"/>
<circle cx="119.815" cy="16.2945" r="0.958526" fill="#8652D1"/>
<circle cx="123.649" cy="16.2945" r="0.958526" fill="#8652D1"/>
<circle cx="127.484" cy="16.2945" r="0.958526" fill="#8652D1"/>
<circle cx="131.318" cy="16.2945" r="0.958526" fill="#8652D1"/>
<circle cx="135.152" cy="16.2945" r="0.958526" fill="#8652D1"/>
<circle cx="138.987" cy="16.2945" r="0.958526" fill="#8652D1"/>
<circle cx="142.819" cy="16.2945" r="0.958526" fill="#8652D1"/>
<circle cx="146.654" cy="16.2945" r="0.958526" fill="#8652D1"/>
<circle cx="150.488" cy="16.2945" r="0.958526" fill="#8652D1"/>
<circle cx="154.324" cy="16.2945" r="0.958526" fill="#8652D1"/>
<circle cx="158.157" cy="16.2945" r="0.958526" fill="#8652D1"/>
<circle cx="161.991" cy="16.2945" r="0.958526" fill="#8652D1"/>
<circle cx="165.824" cy="16.2945" r="0.958526" fill="#8652D1"/>
<circle cx="0.958526" cy="20.1284" r="0.958526" fill="#8652D1"/>
<circle cx="4.79202" cy="20.1284" r="0.958526" fill="#8652D1"/>
<circle cx="8.62747" cy="20.1284" r="0.958526" fill="#8652D1"/>
<circle cx="12.4595" cy="20.1284" r="0.958526" fill="#8652D1"/>
<circle cx="16.295" cy="20.1284" r="0.958526" fill="#8652D1"/>
<circle cx="20.1284" cy="20.1284" r="0.958526" fill="#8652D1"/>
<circle cx="23.9639" cy="20.1284" r="0.958526" fill="#8652D1"/>
<circle cx="27.7974" cy="20.1284" r="0.958526" fill="#8652D1"/>
<circle cx="31.6328" cy="20.1284" r="0.958526" fill="#8652D1"/>
<circle cx="35.4649" cy="20.1284" r="0.958526" fill="#8652D1"/>
<circle cx="39.2984" cy="20.1284" r="0.958526" fill="#8652D1"/>
<circle cx="43.1338" cy="20.1284" r="0.958526" fill="#8652D1"/>
<circle cx="46.9673" cy="20.1284" r="0.958526" fill="#8652D1"/>
<circle cx="50.8028" cy="20.1284" r="0.958526" fill="#8652D1"/>
<circle cx="54.6367" cy="20.1284" r="0.958526" fill="#8652D1"/>
<circle cx="58.4702" cy="20.1284" r="0.958526" fill="#8652D1"/>
<circle cx="62.3037" cy="20.1284" r="0.958526" fill="#8652D1"/>
<circle cx="66.1392" cy="20.1284" r="0.958526" fill="#8652D1"/>
<circle cx="69.9727" cy="20.1284" r="0.958526" fill="#8652D1"/>
<circle cx="73.8067" cy="20.1284" r="0.958526" fill="#8652D1"/>
<circle cx="77.6402" cy="20.1284" r="0.958526" fill="#8652D1"/>
<circle cx="81.4737" cy="20.1284" r="0.958526" fill="#8652D1"/>
<circle cx="85.3091" cy="20.1284" r="0.958526" fill="#8652D1"/>
<circle cx="89.1426" cy="20.1284" r="0.958526" fill="#8652D1"/>
<circle cx="92.9785" cy="20.1284" r="0.958526" fill="#8652D1"/>
<circle cx="96.812" cy="20.1284" r="0.958526" fill="#8652D1"/>
<circle cx="100.644" cy="20.1284" r="0.958526" fill="#8652D1"/>
<circle cx="104.479" cy="20.1284" r="0.958526" fill="#8652D1"/>
<circle cx="108.313" cy="20.1284" r="0.958526" fill="#8652D1"/>
<circle cx="112.148" cy="20.1284" r="0.958526" fill="#8652D1"/>
<circle cx="115.982" cy="20.1284" r="0.958526" fill="#8652D1"/>
<circle cx="119.815" cy="20.1284" r="0.958526" fill="#8652D1"/>
<circle cx="123.649" cy="20.1284" r="0.958526" fill="#8652D1"/>
<circle cx="127.484" cy="20.1284" r="0.958526" fill="#8652D1"/>
<circle cx="131.318" cy="20.1284" r="0.958526" fill="#8652D1"/>
<circle cx="135.152" cy="20.1284" r="0.958526" fill="#8652D1"/>
<circle cx="138.987" cy="20.1284" r="0.958526" fill="#8652D1"/>
<circle cx="142.819" cy="20.1284" r="0.958526" fill="#8652D1"/>
<circle cx="146.654" cy="20.1284" r="0.958526" fill="#8652D1"/>
<circle cx="150.488" cy="20.1284" r="0.958526" fill="#8652D1"/>
<circle cx="154.324" cy="20.1284" r="0.958526" fill="#8652D1"/>
<circle cx="158.157" cy="20.1284" r="0.958526" fill="#8652D1"/>
<circle cx="161.991" cy="20.1284" r="0.958526" fill="#8652D1"/>
<circle cx="165.824" cy="20.1284" r="0.958526" fill="#8652D1"/>
<circle cx="0.958526" cy="23.9629" r="0.958526" fill="#8652D1"/>
<circle cx="4.79202" cy="23.9629" r="0.958526" fill="#8652D1"/>
<circle cx="8.62747" cy="23.9629" r="0.958526" fill="#8652D1"/>
<circle cx="12.4595" cy="23.9629" r="0.958526" fill="#8652D1"/>
<circle cx="16.295" cy="23.9629" r="0.958526" fill="#8652D1"/>
<circle cx="20.1284" cy="23.9629" r="0.958526" fill="#8652D1"/>
<circle cx="23.9639" cy="23.9629" r="0.958526" fill="#8652D1"/>
<circle cx="27.7974" cy="23.9629" r="0.958526" fill="#8652D1"/>
<circle cx="31.6328" cy="23.9629" r="0.958526" fill="#8652D1"/>
<circle cx="35.4649" cy="23.9629" r="0.958526" fill="#8652D1"/>
<circle cx="39.2984" cy="23.9629" r="0.958526" fill="#8652D1"/>
<circle cx="43.1338" cy="23.9629" r="0.958526" fill="#8652D1"/>
<circle cx="46.9673" cy="23.9629" r="0.958526" fill="#8652D1"/>
<circle cx="50.8028" cy="23.9629" r="0.958526" fill="#8652D1"/>
<circle cx="54.6367" cy="23.9629" r="0.958526" fill="#8652D1"/>
<circle cx="58.4702" cy="23.9629" r="0.958526" fill="#8652D1"/>
<circle cx="62.3037" cy="23.9629" r="0.958526" fill="#8652D1"/>
<circle cx="66.1392" cy="23.9629" r="0.958526" fill="#8652D1"/>
<circle cx="69.9727" cy="23.9629" r="0.958526" fill="#8652D1"/>
<circle cx="73.8067" cy="23.9629" r="0.958526" fill="#8652D1"/>
<circle cx="77.6402" cy="23.9629" r="0.958526" fill="#8652D1"/>
<circle cx="81.4737" cy="23.9629" r="0.958526" fill="#8652D1"/>
<circle cx="85.3091" cy="23.9629" r="0.958526" fill="#8652D1"/>
<circle cx="89.1426" cy="23.9629" r="0.958526" fill="#8652D1"/>
<circle cx="92.9785" cy="23.9629" r="0.958526" fill="#8652D1"/>
<circle cx="96.812" cy="23.9629" r="0.958526" fill="#8652D1"/>
<circle cx="100.644" cy="23.9629" r="0.958526" fill="#8652D1"/>
<circle cx="104.479" cy="23.9629" r="0.958526" fill="#8652D1"/>
<circle cx="108.313" cy="23.9629" r="0.958526" fill="#8652D1"/>
<circle cx="112.148" cy="23.9629" r="0.958526" fill="#8652D1"/>
<circle cx="115.982" cy="23.9629" r="0.958526" fill="#8652D1"/>
<circle cx="119.815" cy="23.9629" r="0.958526" fill="#8652D1"/>
<circle cx="123.649" cy="23.9629" r="0.958526" fill="#8652D1"/>
<circle cx="127.484" cy="23.9629" r="0.958526" fill="#8652D1"/>
<circle cx="131.318" cy="23.9629" r="0.958526" fill="#8652D1"/>
<circle cx="135.152" cy="23.9629" r="0.958526" fill="#8652D1"/>
<circle cx="138.987" cy="23.9629" r="0.958526" fill="#8652D1"/>
<circle cx="142.819" cy="23.9629" r="0.958526" fill="#8652D1"/>
<circle cx="146.654" cy="23.9629" r="0.958526" fill="#8652D1"/>
<circle cx="150.488" cy="23.9629" r="0.958526" fill="#8652D1"/>
<circle cx="154.324" cy="23.9629" r="0.958526" fill="#8652D1"/>
<circle cx="158.157" cy="23.9629" r="0.958526" fill="#8652D1"/>
<circle cx="161.991" cy="23.9629" r="0.958526" fill="#8652D1"/>
<circle cx="165.824" cy="23.9629" r="0.958526" fill="#8652D1"/>
<circle cx="0.958526" cy="27.7969" r="0.958526" fill="#8652D1"/>
<circle cx="4.79202" cy="27.7969" r="0.958526" fill="#8652D1"/>
<circle cx="8.62747" cy="27.7969" r="0.958526" fill="#8652D1"/>
<circle cx="12.4595" cy="27.7969" r="0.958526" fill="#8652D1"/>
<circle cx="16.295" cy="27.7969" r="0.958526" fill="#8652D1"/>
<circle cx="20.1284" cy="27.7969" r="0.958526" fill="#8652D1"/>
<circle cx="23.9639" cy="27.7969" r="0.958526" fill="#8652D1"/>
<circle cx="27.7974" cy="27.7969" r="0.958526" fill="#8652D1"/>
<circle cx="31.6328" cy="27.7969" r="0.958526" fill="#8652D1"/>
<circle cx="35.4649" cy="27.7969" r="0.958526" fill="#8652D1"/>
<circle cx="39.2984" cy="27.7969" r="0.958526" fill="#8652D1"/>
<circle cx="43.1338" cy="27.7969" r="0.958526" fill="#8652D1"/>
<circle cx="46.9673" cy="27.7969" r="0.958526" fill="#8652D1"/>
<circle cx="50.8028" cy="27.7969" r="0.958526" fill="#8652D1"/>
<circle cx="54.6367" cy="27.7969" r="0.958526" fill="#8652D1"/>
<circle cx="58.4702" cy="27.7969" r="0.958526" fill="#8652D1"/>
<circle cx="62.3037" cy="27.7969" r="0.958526" fill="#8652D1"/>
<circle cx="66.1392" cy="27.7969" r="0.958526" fill="#8652D1"/>
<circle cx="69.9727" cy="27.7969" r="0.958526" fill="#8652D1"/>
<circle cx="73.8067" cy="27.7969" r="0.958526" fill="#8652D1"/>
<circle cx="77.6402" cy="27.7969" r="0.958526" fill="#8652D1"/>
<circle cx="81.4737" cy="27.7969" r="0.958526" fill="#8652D1"/>
<circle cx="85.3091" cy="27.7969" r="0.958526" fill="#8652D1"/>
<circle cx="89.1426" cy="27.7969" r="0.958526" fill="#8652D1"/>
<circle cx="92.9785" cy="27.7969" r="0.958526" fill="#8652D1"/>
<circle cx="96.812" cy="27.7969" r="0.958526" fill="#8652D1"/>
<circle cx="100.644" cy="27.7969" r="0.958526" fill="#8652D1"/>
<circle cx="104.479" cy="27.7969" r="0.958526" fill="#8652D1"/>
<circle cx="108.313" cy="27.7969" r="0.958526" fill="#8652D1"/>
<circle cx="112.148" cy="27.7969" r="0.958526" fill="#8652D1"/>
<circle cx="115.982" cy="27.7969" r="0.958526" fill="#8652D1"/>
<circle cx="119.815" cy="27.7969" r="0.958526" fill="#8652D1"/>
<circle cx="123.649" cy="27.7969" r="0.958526" fill="#8652D1"/>
<circle cx="127.484" cy="27.7969" r="0.958526" fill="#8652D1"/>
<circle cx="131.318" cy="27.7969" r="0.958526" fill="#8652D1"/>
<circle cx="135.152" cy="27.7969" r="0.958526" fill="#8652D1"/>
<circle cx="138.987" cy="27.7969" r="0.958526" fill="#8652D1"/>
<circle cx="142.819" cy="27.7969" r="0.958526" fill="#8652D1"/>
<circle cx="146.654" cy="27.7969" r="0.958526" fill="#8652D1"/>
<circle cx="150.488" cy="27.7969" r="0.958526" fill="#8652D1"/>
<circle cx="154.324" cy="27.7969" r="0.958526" fill="#8652D1"/>
<circle cx="158.157" cy="27.7969" r="0.958526" fill="#8652D1"/>
<circle cx="161.991" cy="27.7969" r="0.958526" fill="#8652D1"/>
<circle cx="165.824" cy="27.7969" r="0.958526" fill="#8652D1"/>
<circle cx="0.958526" cy="31.6314" r="0.958526" fill="#8652D1"/>
<circle cx="4.79202" cy="31.6314" r="0.958526" fill="#8652D1"/>
<circle cx="8.62747" cy="31.6314" r="0.958526" fill="#8652D1"/>
<circle cx="12.4595" cy="31.6314" r="0.958526" fill="#8652D1"/>
<circle cx="16.295" cy="31.6314" r="0.958526" fill="#8652D1"/>
<circle cx="20.1284" cy="31.6314" r="0.958526" fill="#8652D1"/>
<circle cx="23.9639" cy="31.6314" r="0.958526" fill="#8652D1"/>
<circle cx="27.7974" cy="31.6314" r="0.958526" fill="#8652D1"/>
<circle cx="31.6328" cy="31.6314" r="0.958526" fill="#8652D1"/>
<circle cx="35.4649" cy="31.6314" r="0.958526" fill="#8652D1"/>
<circle cx="39.2984" cy="31.6314" r="0.958526" fill="#8652D1"/>
<circle cx="43.1338" cy="31.6314" r="0.958526" fill="#8652D1"/>
<circle cx="46.9673" cy="31.6314" r="0.958526" fill="#8652D1"/>
<circle cx="50.8028" cy="31.6314" r="0.958526" fill="#8652D1"/>
<circle cx="54.6367" cy="31.6314" r="0.958526" fill="#8652D1"/>
<circle cx="58.4702" cy="31.6314" r="0.958526" fill="#8652D1"/>
<circle cx="62.3037" cy="31.6314" r="0.958526" fill="#8652D1"/>
<circle cx="66.1392" cy="31.6314" r="0.958526" fill="#8652D1"/>
<circle cx="69.9727" cy="31.6314" r="0.958526" fill="#8652D1"/>
<circle cx="73.8067" cy="31.6314" r="0.958526" fill="#8652D1"/>
<circle cx="77.6402" cy="31.6314" r="0.958526" fill="#8652D1"/>
<circle cx="81.4737" cy="31.6314" r="0.958526" fill="#8652D1"/>
<circle cx="85.3091" cy="31.6314" r="0.958526" fill="#8652D1"/>
<circle cx="89.1426" cy="31.6314" r="0.958526" fill="#8652D1"/>
<circle cx="92.9785" cy="31.6314" r="0.958526" fill="#8652D1"/>
<circle cx="96.812" cy="31.6314" r="0.958526" fill="#8652D1"/>
<circle cx="100.644" cy="31.6314" r="0.958526" fill="#8652D1"/>
<circle cx="104.479" cy="31.6314" r="0.958526" fill="#8652D1"/>
<circle cx="108.313" cy="31.6314" r="0.958526" fill="#8652D1"/>
<circle cx="112.148" cy="31.6314" r="0.958526" fill="#8652D1"/>
<circle cx="115.982" cy="31.6314" r="0.958526" fill="#8652D1"/>
<circle cx="119.815" cy="31.6314" r="0.958526" fill="#8652D1"/>
<circle cx="123.649" cy="31.6314" r="0.958526" fill="#8652D1"/>
<circle cx="127.484" cy="31.6314" r="0.958526" fill="#8652D1"/>
<circle cx="131.318" cy="31.6314" r="0.958526" fill="#8652D1"/>
<circle cx="135.152" cy="31.6314" r="0.958526" fill="#8652D1"/>
<circle cx="138.987" cy="31.6314" r="0.958526" fill="#8652D1"/>
<circle cx="142.819" cy="31.6314" r="0.958526" fill="#8652D1"/>
<circle cx="146.654" cy="31.6314" r="0.958526" fill="#8652D1"/>
<circle cx="150.488" cy="31.6314" r="0.958526" fill="#8652D1"/>
<circle cx="154.324" cy="31.6314" r="0.958526" fill="#8652D1"/>
<circle cx="158.157" cy="31.6314" r="0.958526" fill="#8652D1"/>
<circle cx="161.991" cy="31.6314" r="0.958526" fill="#8652D1"/>
<circle cx="165.824" cy="31.6314" r="0.958526" fill="#8652D1"/>
<circle cx="0.958526" cy="35.4659" r="0.958526" fill="#8652D1"/>
<circle cx="4.79202" cy="35.4659" r="0.958526" fill="#8652D1"/>
<circle cx="8.62747" cy="35.4659" r="0.958526" fill="#8652D1"/>
<circle cx="12.4595" cy="35.4659" r="0.958526" fill="#8652D1"/>
<circle cx="16.295" cy="35.4659" r="0.958526" fill="#8652D1"/>
<circle cx="20.1284" cy="35.4659" r="0.958526" fill="#8652D1"/>
<circle cx="23.9639" cy="35.4659" r="0.958526" fill="#8652D1"/>
<circle cx="27.7974" cy="35.4659" r="0.958526" fill="#8652D1"/>
<circle cx="31.6328" cy="35.4659" r="0.958526" fill="#8652D1"/>
<circle cx="35.4649" cy="35.4659" r="0.958526" fill="#8652D1"/>
<circle cx="39.2984" cy="35.4659" r="0.958526" fill="#8652D1"/>
<circle cx="43.1338" cy="35.4659" r="0.958526" fill="#8652D1"/>
<circle cx="46.9673" cy="35.4659" r="0.958526" fill="#8652D1"/>
<circle cx="50.8028" cy="35.4659" r="0.958526" fill="#8652D1"/>
<circle cx="54.6367" cy="35.4659" r="0.958526" fill="#8652D1"/>
<circle cx="58.4702" cy="35.4659" r="0.958526" fill="#8652D1"/>
<circle cx="62.3037" cy="35.4659" r="0.958526" fill="#8652D1"/>
<circle cx="66.1392" cy="35.4659" r="0.958526" fill="#8652D1"/>
<circle cx="69.9727" cy="35.4659" r="0.958526" fill="#8652D1"/>
<circle cx="73.8067" cy="35.4659" r="0.958526" fill="#8652D1"/>
<circle cx="77.6402" cy="35.4659" r="0.958526" fill="#8652D1"/>
<circle cx="81.4737" cy="35.4659" r="0.958526" fill="#8652D1"/>
<circle cx="85.3091" cy="35.4659" r="0.958526" fill="#8652D1"/>
<circle cx="89.1426" cy="35.4659" r="0.958526" fill="#8652D1"/>
<circle cx="92.9785" cy="35.4659" r="0.958526" fill="#8652D1"/>
<circle cx="96.812" cy="35.4659" r="0.958526" fill="#8652D1"/>
<circle cx="100.644" cy="35.4659" r="0.958526" fill="#8652D1"/>
<circle cx="104.479" cy="35.4659" r="0.958526" fill="#8652D1"/>
<circle cx="108.313" cy="35.4659" r="0.958526" fill="#8652D1"/>
<circle cx="112.148" cy="35.4659" r="0.958526" fill="#8652D1"/>
<circle cx="115.982" cy="35.4659" r="0.958526" fill="#8652D1"/>
<circle cx="119.815" cy="35.4659" r="0.958526" fill="#8652D1"/>
<circle cx="123.649" cy="35.4659" r="0.958526" fill="#8652D1"/>
<circle cx="127.484" cy="35.4659" r="0.958526" fill="#8652D1"/>
<circle cx="131.318" cy="35.4659" r="0.958526" fill="#8652D1"/>
<circle cx="135.152" cy="35.4659" r="0.958526" fill="#8652D1"/>
<circle cx="138.987" cy="35.4659" r="0.958526" fill="#8652D1"/>
<circle cx="142.819" cy="35.4659" r="0.958526" fill="#8652D1"/>
<circle cx="146.654" cy="35.4659" r="0.958526" fill="#8652D1"/>
<circle cx="150.488" cy="35.4659" r="0.958526" fill="#8652D1"/>
<circle cx="154.324" cy="35.4659" r="0.958526" fill="#8652D1"/>
<circle cx="158.157" cy="35.4659" r="0.958526" fill="#8652D1"/>
<circle cx="161.991" cy="35.4659" r="0.958526" fill="#8652D1"/>
<circle cx="165.824" cy="35.4659" r="0.958526" fill="#8652D1"/>
<circle cx="0.958526" cy="39.2998" r="0.958526" fill="#8652D1"/>
<circle cx="4.79202" cy="39.2998" r="0.958526" fill="#8652D1"/>
<circle cx="8.62747" cy="39.2998" r="0.958526" fill="#8652D1"/>
<circle cx="12.4595" cy="39.2998" r="0.958526" fill="#8652D1"/>
<circle cx="16.295" cy="39.2998" r="0.958526" fill="#8652D1"/>
<circle cx="20.1284" cy="39.2998" r="0.958526" fill="#8652D1"/>
<circle cx="23.9639" cy="39.2998" r="0.958526" fill="#8652D1"/>
<circle cx="27.7974" cy="39.2998" r="0.958526" fill="#8652D1"/>
<circle cx="31.6328" cy="39.2998" r="0.958526" fill="#8652D1"/>
<circle cx="35.4649" cy="39.2998" r="0.958526" fill="#8652D1"/>
<circle cx="39.2984" cy="39.2998" r="0.958526" fill="#8652D1"/>
<circle cx="43.1338" cy="39.2998" r="0.958526" fill="#8652D1"/>
<circle cx="46.9673" cy="39.2998" r="0.958526" fill="#8652D1"/>
<circle cx="50.8028" cy="39.2998" r="0.958526" fill="#8652D1"/>
<circle cx="54.6367" cy="39.2998" r="0.958526" fill="#8652D1"/>
<circle cx="58.4702" cy="39.2998" r="0.958526" fill="#8652D1"/>
<circle cx="62.3037" cy="39.2998" r="0.958526" fill="#8652D1"/>
<circle cx="66.1392" cy="39.2998" r="0.958526" fill="#8652D1"/>
<circle cx="69.9727" cy="39.2998" r="0.958526" fill="#8652D1"/>
<circle cx="73.8067" cy="39.2998" r="0.958526" fill="#8652D1"/>
<circle cx="77.6402" cy="39.2998" r="0.958526" fill="#8652D1"/>
<circle cx="81.4737" cy="39.2998" r="0.958526" fill="#8652D1"/>
<circle cx="85.3091" cy="39.2998" r="0.958526" fill="#8652D1"/>
<circle cx="89.1426" cy="39.2998" r="0.958526" fill="#8652D1"/>
<circle cx="92.9785" cy="39.2998" r="0.958526" fill="#8652D1"/>
<circle cx="96.812" cy="39.2998" r="0.958526" fill="#8652D1"/>
<circle cx="100.644" cy="39.2998" r="0.958526" fill="#8652D1"/>
<circle cx="104.479" cy="39.2998" r="0.958526" fill="#8652D1"/>
<circle cx="108.313" cy="39.2998" r="0.958526" fill="#8652D1"/>
<circle cx="112.148" cy="39.2998" r="0.958526" fill="#8652D1"/>
<circle cx="115.982" cy="39.2998" r="0.958526" fill="#8652D1"/>
<circle cx="119.815" cy="39.2998" r="0.958526" fill="#8652D1"/>
<circle cx="123.649" cy="39.2998" r="0.958526" fill="#8652D1"/>
<circle cx="127.484" cy="39.2998" r="0.958526" fill="#8652D1"/>
<circle cx="131.318" cy="39.2998" r="0.958526" fill="#8652D1"/>
<circle cx="135.152" cy="39.2998" r="0.958526" fill="#8652D1"/>
<circle cx="138.987" cy="39.2998" r="0.958526" fill="#8652D1"/>
<circle cx="142.819" cy="39.2998" r="0.958526" fill="#8652D1"/>
<circle cx="146.654" cy="39.2998" r="0.958526" fill="#8652D1"/>
<circle cx="150.488" cy="39.2998" r="0.958526" fill="#8652D1"/>
<circle cx="154.324" cy="39.2998" r="0.958526" fill="#8652D1"/>
<circle cx="158.157" cy="39.2998" r="0.958526" fill="#8652D1"/>
<circle cx="161.991" cy="39.2998" r="0.958526" fill="#8652D1"/>
<circle cx="165.824" cy="39.2998" r="0.958526" fill="#8652D1"/>
<circle cx="0.958526" cy="43.1338" r="0.958526" fill="#8652D1"/>
<circle cx="4.79202" cy="43.1338" r="0.958526" fill="#8652D1"/>
<circle cx="8.62747" cy="43.1338" r="0.958526" fill="#8652D1"/>
<circle cx="12.4595" cy="43.1338" r="0.958526" fill="#8652D1"/>
<circle cx="16.295" cy="43.1338" r="0.958526" fill="#8652D1"/>
<circle cx="20.1284" cy="43.1338" r="0.958526" fill="#8652D1"/>
<circle cx="23.9639" cy="43.1338" r="0.958526" fill="#8652D1"/>
<circle cx="27.7974" cy="43.1338" r="0.958526" fill="#8652D1"/>
<circle cx="31.6328" cy="43.1338" r="0.958526" fill="#8652D1"/>
<circle cx="35.4649" cy="43.1338" r="0.958526" fill="#8652D1"/>
<circle cx="39.2984" cy="43.1338" r="0.958526" fill="#8652D1"/>
<circle cx="43.1338" cy="43.1338" r="0.958526" fill="#8652D1"/>
<circle cx="46.9673" cy="43.1338" r="0.958526" fill="#8652D1"/>
<circle cx="50.8028" cy="43.1338" r="0.958526" fill="#8652D1"/>
<circle cx="54.6367" cy="43.1338" r="0.958526" fill="#8652D1"/>
<circle cx="58.4702" cy="43.1338" r="0.958526" fill="#8652D1"/>
<circle cx="62.3037" cy="43.1338" r="0.958526" fill="#8652D1"/>
<circle cx="66.1392" cy="43.1338" r="0.958526" fill="#8652D1"/>
<circle cx="69.9727" cy="43.1338" r="0.958526" fill="#8652D1"/>
<circle cx="73.8067" cy="43.1338" r="0.958526" fill="#8652D1"/>
<circle cx="77.6402" cy="43.1338" r="0.958526" fill="#8652D1"/>
<circle cx="81.4737" cy="43.1338" r="0.958526" fill="#8652D1"/>
<circle cx="85.3091" cy="43.1338" r="0.958526" fill="#8652D1"/>
<circle cx="89.1426" cy="43.1338" r="0.958526" fill="#8652D1"/>
<circle cx="92.9785" cy="43.1338" r="0.958526" fill="#8652D1"/>
<circle cx="96.812" cy="43.1338" r="0.958526" fill="#8652D1"/>
<circle cx="100.644" cy="43.1338" r="0.958526" fill="#8652D1"/>
<circle cx="104.479" cy="43.1338" r="0.958526" fill="#8652D1"/>
<circle cx="108.313" cy="43.1338" r="0.958526" fill="#8652D1"/>
<circle cx="112.148" cy="43.1338" r="0.958526" fill="#8652D1"/>
<circle cx="115.982" cy="43.1338" r="0.958526" fill="#8652D1"/>
<circle cx="119.815" cy="43.1338" r="0.958526" fill="#8652D1"/>
<circle cx="123.649" cy="43.1338" r="0.958526" fill="#8652D1"/>
<circle cx="127.484" cy="43.1338" r="0.958526" fill="#8652D1"/>
<circle cx="131.318" cy="43.1338" r="0.958526" fill="#8652D1"/>
<circle cx="135.152" cy="43.1338" r="0.958526" fill="#8652D1"/>
<circle cx="138.987" cy="43.1338" r="0.958526" fill="#8652D1"/>
<circle cx="142.819" cy="43.1338" r="0.958526" fill="#8652D1"/>
<circle cx="146.654" cy="43.1338" r="0.958526" fill="#8652D1"/>
<circle cx="150.488" cy="43.1338" r="0.958526" fill="#8652D1"/>
<circle cx="154.324" cy="43.1338" r="0.958526" fill="#8652D1"/>
<circle cx="158.157" cy="43.1338" r="0.958526" fill="#8652D1"/>
<circle cx="161.991" cy="43.1338" r="0.958526" fill="#8652D1"/>
<circle cx="165.824" cy="43.1338" r="0.958526" fill="#8652D1"/>
</svg>
