<svg width="110" height="59" viewBox="0 0 110 59" fill="none" xmlns="http://www.w3.org/2000/svg">
<ellipse cx="2.22724" cy="1.69531" rx="1.89081" ry="1.27343" fill="#8652D1"/>
<ellipse cx="9.78876" cy="1.69531" rx="1.89081" ry="1.27343" fill="#8652D1"/>
<ellipse cx="17.3508" cy="1.69531" rx="1.89081" ry="1.27343" fill="#8652D1"/>
<ellipse cx="24.9123" cy="1.69531" rx="1.89081" ry="1.27343" fill="#8652D1"/>
<ellipse cx="32.4782" cy="1.69531" rx="1.89081" ry="1.27343" fill="#8652D1"/>
<ellipse cx="40.0402" cy="1.69531" rx="1.89081" ry="1.27343" fill="#8652D1"/>
<ellipse cx="47.6017" cy="1.69531" rx="1.89081" ry="1.27343" fill="#8652D1"/>
<ellipse cx="55.1677" cy="1.69531" rx="1.89081" ry="1.27343" fill="#8652D1"/>
<ellipse cx="62.7297" cy="1.69531" rx="1.89081" ry="1.27343" fill="#8652D1"/>
<ellipse cx="70.2951" cy="1.69531" rx="1.89081" ry="1.27343" fill="#8652D1"/>
<ellipse cx="77.8571" cy="1.69531" rx="1.89081" ry="1.27343" fill="#8652D1"/>
<ellipse cx="85.423" cy="1.69531" rx="1.89081" ry="1.27343" fill="#8652D1"/>
<ellipse cx="92.9846" cy="1.69531" rx="1.89081" ry="1.27343" fill="#8652D1"/>
<ellipse cx="100.547" cy="1.69531" rx="1.89081" ry="1.27343" fill="#8652D1"/>
<ellipse cx="108.109" cy="1.69531" rx="1.89081" ry="1.27343" fill="#8652D1"/>
<ellipse cx="2.22724" cy="6.78906" rx="1.89081" ry="1.27343" fill="#8652D1"/>
<ellipse cx="9.78876" cy="6.78906" rx="1.89081" ry="1.27343" fill="#8652D1"/>
<ellipse cx="17.3508" cy="6.78906" rx="1.89081" ry="1.27343" fill="#8652D1"/>
<ellipse cx="24.9123" cy="6.78906" rx="1.89081" ry="1.27343" fill="#8652D1"/>
<ellipse cx="32.4782" cy="6.78906" rx="1.89081" ry="1.27343" fill="#8652D1"/>
<ellipse cx="40.0402" cy="6.78906" rx="1.89081" ry="1.27343" fill="#8652D1"/>
<ellipse cx="47.6017" cy="6.78906" rx="1.89081" ry="1.27343" fill="#8652D1"/>
<ellipse cx="55.1677" cy="6.78906" rx="1.89081" ry="1.27343" fill="#8652D1"/>
<ellipse cx="62.7297" cy="6.78906" rx="1.89081" ry="1.27343" fill="#8652D1"/>
<ellipse cx="70.2951" cy="6.78906" rx="1.89081" ry="1.27343" fill="#8652D1"/>
<ellipse cx="77.8571" cy="6.78906" rx="1.89081" ry="1.27343" fill="#8652D1"/>
<ellipse cx="85.423" cy="6.78906" rx="1.89081" ry="1.27343" fill="#8652D1"/>
<ellipse cx="92.9846" cy="6.78906" rx="1.89081" ry="1.27343" fill="#8652D1"/>
<ellipse cx="100.547" cy="6.78906" rx="1.89081" ry="1.27343" fill="#8652D1"/>
<ellipse cx="108.109" cy="6.78906" rx="1.89081" ry="1.27343" fill="#8652D1"/>
<ellipse cx="2.22724" cy="11.8833" rx="1.89081" ry="1.27343" fill="#8652D1"/>
<ellipse cx="9.78876" cy="11.8833" rx="1.89081" ry="1.27343" fill="#8652D1"/>
<ellipse cx="17.3508" cy="11.8833" rx="1.89081" ry="1.27343" fill="#8652D1"/>
<ellipse cx="24.9123" cy="11.8833" rx="1.89081" ry="1.27343" fill="#8652D1"/>
<ellipse cx="32.4782" cy="11.8833" rx="1.89081" ry="1.27343" fill="#8652D1"/>
<ellipse cx="40.0402" cy="11.8833" rx="1.89081" ry="1.27343" fill="#8652D1"/>
<ellipse cx="47.6017" cy="11.8833" rx="1.89081" ry="1.27343" fill="#8652D1"/>
<ellipse cx="55.1677" cy="11.8833" rx="1.89081" ry="1.27343" fill="#8652D1"/>
<ellipse cx="62.7297" cy="11.8833" rx="1.89081" ry="1.27343" fill="#8652D1"/>
<ellipse cx="70.2951" cy="11.8833" rx="1.89081" ry="1.27343" fill="#8652D1"/>
<ellipse cx="77.8571" cy="11.8833" rx="1.89081" ry="1.27343" fill="#8652D1"/>
<ellipse cx="85.423" cy="11.8833" rx="1.89081" ry="1.27343" fill="#8652D1"/>
<ellipse cx="92.9846" cy="11.8833" rx="1.89081" ry="1.27343" fill="#8652D1"/>
<ellipse cx="100.547" cy="11.8833" rx="1.89081" ry="1.27343" fill="#8652D1"/>
<ellipse cx="108.109" cy="11.8833" rx="1.89081" ry="1.27343" fill="#8652D1"/>
<ellipse cx="2.22724" cy="16.977" rx="1.89081" ry="1.27343" fill="#8652D1"/>
<ellipse cx="9.78876" cy="16.977" rx="1.89081" ry="1.27343" fill="#8652D1"/>
<ellipse cx="17.3508" cy="16.977" rx="1.89081" ry="1.27343" fill="#8652D1"/>
<ellipse cx="24.9123" cy="16.977" rx="1.89081" ry="1.27343" fill="#8652D1"/>
<ellipse cx="32.4782" cy="16.977" rx="1.89081" ry="1.27343" fill="#8652D1"/>
<ellipse cx="40.0402" cy="16.977" rx="1.89081" ry="1.27343" fill="#8652D1"/>
<ellipse cx="47.6017" cy="16.977" rx="1.89081" ry="1.27343" fill="#8652D1"/>
<ellipse cx="55.1677" cy="16.977" rx="1.89081" ry="1.27343" fill="#8652D1"/>
<ellipse cx="62.7297" cy="16.977" rx="1.89081" ry="1.27343" fill="#8652D1"/>
<ellipse cx="70.2951" cy="16.977" rx="1.89081" ry="1.27343" fill="#8652D1"/>
<ellipse cx="77.8571" cy="16.977" rx="1.89081" ry="1.27343" fill="#8652D1"/>
<ellipse cx="85.423" cy="16.977" rx="1.89081" ry="1.27343" fill="#8652D1"/>
<ellipse cx="92.9846" cy="16.977" rx="1.89081" ry="1.27343" fill="#8652D1"/>
<ellipse cx="100.547" cy="16.977" rx="1.89081" ry="1.27343" fill="#8652D1"/>
<ellipse cx="108.109" cy="16.977" rx="1.89081" ry="1.27343" fill="#8652D1"/>
<ellipse cx="2.22724" cy="22.0693" rx="1.89081" ry="1.27343" fill="#8652D1"/>
<ellipse cx="9.78876" cy="22.0693" rx="1.89081" ry="1.27343" fill="#8652D1"/>
<ellipse cx="17.3508" cy="22.0693" rx="1.89081" ry="1.27343" fill="#8652D1"/>
<ellipse cx="24.9123" cy="22.0693" rx="1.89081" ry="1.27343" fill="#8652D1"/>
<ellipse cx="32.4782" cy="22.0693" rx="1.89081" ry="1.27343" fill="#8652D1"/>
<ellipse cx="40.0402" cy="22.0693" rx="1.89081" ry="1.27343" fill="#8652D1"/>
<ellipse cx="47.6017" cy="22.0693" rx="1.89081" ry="1.27343" fill="#8652D1"/>
<ellipse cx="55.1677" cy="22.0693" rx="1.89081" ry="1.27343" fill="#8652D1"/>
<ellipse cx="62.7297" cy="22.0693" rx="1.89081" ry="1.27343" fill="#8652D1"/>
<ellipse cx="70.2951" cy="22.0693" rx="1.89081" ry="1.27343" fill="#8652D1"/>
<ellipse cx="77.8571" cy="22.0693" rx="1.89081" ry="1.27343" fill="#8652D1"/>
<ellipse cx="85.423" cy="22.0693" rx="1.89081" ry="1.27343" fill="#8652D1"/>
<ellipse cx="92.9846" cy="22.0693" rx="1.89081" ry="1.27343" fill="#8652D1"/>
<ellipse cx="100.547" cy="22.0693" rx="1.89081" ry="1.27343" fill="#8652D1"/>
<ellipse cx="108.109" cy="22.0693" rx="1.89081" ry="1.27343" fill="#8652D1"/>
<ellipse cx="2.22724" cy="27.1631" rx="1.89081" ry="1.27343" fill="#8652D1"/>
<ellipse cx="9.78876" cy="27.1631" rx="1.89081" ry="1.27343" fill="#8652D1"/>
<ellipse cx="17.3508" cy="27.1631" rx="1.89081" ry="1.27343" fill="#8652D1"/>
<ellipse cx="24.9123" cy="27.1631" rx="1.89081" ry="1.27343" fill="#8652D1"/>
<ellipse cx="32.4782" cy="27.1631" rx="1.89081" ry="1.27343" fill="#8652D1"/>
<ellipse cx="40.0402" cy="27.1631" rx="1.89081" ry="1.27343" fill="#8652D1"/>
<ellipse cx="47.6017" cy="27.1631" rx="1.89081" ry="1.27343" fill="#8652D1"/>
<ellipse cx="55.1677" cy="27.1631" rx="1.89081" ry="1.27343" fill="#8652D1"/>
<ellipse cx="62.7297" cy="27.1631" rx="1.89081" ry="1.27343" fill="#8652D1"/>
<ellipse cx="70.2951" cy="27.1631" rx="1.89081" ry="1.27343" fill="#8652D1"/>
<ellipse cx="77.8571" cy="27.1631" rx="1.89081" ry="1.27343" fill="#8652D1"/>
<ellipse cx="85.423" cy="27.1631" rx="1.89081" ry="1.27343" fill="#8652D1"/>
<ellipse cx="92.9846" cy="27.1631" rx="1.89081" ry="1.27343" fill="#8652D1"/>
<ellipse cx="100.547" cy="27.1631" rx="1.89081" ry="1.27343" fill="#8652D1"/>
<ellipse cx="108.109" cy="27.1631" rx="1.89081" ry="1.27343" fill="#8652D1"/>
<ellipse cx="2.22724" cy="32.2573" rx="1.89081" ry="1.27343" fill="#8652D1"/>
<ellipse cx="9.78876" cy="32.2573" rx="1.89081" ry="1.27343" fill="#8652D1"/>
<ellipse cx="17.3508" cy="32.2573" rx="1.89081" ry="1.27343" fill="#8652D1"/>
<ellipse cx="24.9123" cy="32.2573" rx="1.89081" ry="1.27343" fill="#8652D1"/>
<ellipse cx="32.4782" cy="32.2573" rx="1.89081" ry="1.27343" fill="#8652D1"/>
<ellipse cx="40.0402" cy="32.2573" rx="1.89081" ry="1.27343" fill="#8652D1"/>
<ellipse cx="47.6017" cy="32.2573" rx="1.89081" ry="1.27343" fill="#8652D1"/>
<ellipse cx="55.1677" cy="32.2573" rx="1.89081" ry="1.27343" fill="#8652D1"/>
<ellipse cx="62.7297" cy="32.2573" rx="1.89081" ry="1.27343" fill="#8652D1"/>
<ellipse cx="70.2951" cy="32.2573" rx="1.89081" ry="1.27343" fill="#8652D1"/>
<ellipse cx="77.8571" cy="32.2573" rx="1.89081" ry="1.27343" fill="#8652D1"/>
<ellipse cx="85.423" cy="32.2573" rx="1.89081" ry="1.27343" fill="#8652D1"/>
<ellipse cx="92.9846" cy="32.2573" rx="1.89081" ry="1.27343" fill="#8652D1"/>
<ellipse cx="100.547" cy="32.2573" rx="1.89081" ry="1.27343" fill="#8652D1"/>
<ellipse cx="108.109" cy="32.2573" rx="1.89081" ry="1.27343" fill="#8652D1"/>
<ellipse cx="2.22724" cy="37.3511" rx="1.89081" ry="1.27343" fill="#8652D1"/>
<ellipse cx="9.78876" cy="37.3511" rx="1.89081" ry="1.27343" fill="#8652D1"/>
<ellipse cx="17.3508" cy="37.3511" rx="1.89081" ry="1.27343" fill="#8652D1"/>
<ellipse cx="24.9123" cy="37.3511" rx="1.89081" ry="1.27343" fill="#8652D1"/>
<ellipse cx="32.4782" cy="37.3511" rx="1.89081" ry="1.27343" fill="#8652D1"/>
<ellipse cx="40.0402" cy="37.3511" rx="1.89081" ry="1.27343" fill="#8652D1"/>
<ellipse cx="47.6017" cy="37.3511" rx="1.89081" ry="1.27343" fill="#8652D1"/>
<ellipse cx="55.1677" cy="37.3511" rx="1.89081" ry="1.27343" fill="#8652D1"/>
<ellipse cx="62.7297" cy="37.3511" rx="1.89081" ry="1.27343" fill="#8652D1"/>
<ellipse cx="70.2951" cy="37.3511" rx="1.89081" ry="1.27343" fill="#8652D1"/>
<ellipse cx="77.8571" cy="37.3511" rx="1.89081" ry="1.27343" fill="#8652D1"/>
<ellipse cx="85.423" cy="37.3511" rx="1.89081" ry="1.27343" fill="#8652D1"/>
<ellipse cx="92.9846" cy="37.3511" rx="1.89081" ry="1.27343" fill="#8652D1"/>
<ellipse cx="100.547" cy="37.3511" rx="1.89081" ry="1.27343" fill="#8652D1"/>
<ellipse cx="108.109" cy="37.3511" rx="1.89081" ry="1.27343" fill="#8652D1"/>
<ellipse cx="2.22724" cy="42.4448" rx="1.89081" ry="1.27343" fill="#8652D1"/>
<ellipse cx="9.78876" cy="42.4448" rx="1.89081" ry="1.27343" fill="#8652D1"/>
<ellipse cx="17.3508" cy="42.4448" rx="1.89081" ry="1.27343" fill="#8652D1"/>
<ellipse cx="24.9123" cy="42.4448" rx="1.89081" ry="1.27343" fill="#8652D1"/>
<ellipse cx="32.4782" cy="42.4448" rx="1.89081" ry="1.27343" fill="#8652D1"/>
<ellipse cx="40.0402" cy="42.4448" rx="1.89081" ry="1.27343" fill="#8652D1"/>
<ellipse cx="47.6017" cy="42.4448" rx="1.89081" ry="1.27343" fill="#8652D1"/>
<ellipse cx="55.1677" cy="42.4448" rx="1.89081" ry="1.27343" fill="#8652D1"/>
<ellipse cx="62.7297" cy="42.4448" rx="1.89081" ry="1.27343" fill="#8652D1"/>
<ellipse cx="70.2951" cy="42.4448" rx="1.89081" ry="1.27343" fill="#8652D1"/>
<ellipse cx="77.8571" cy="42.4448" rx="1.89081" ry="1.27343" fill="#8652D1"/>
<ellipse cx="85.423" cy="42.4448" rx="1.89081" ry="1.27343" fill="#8652D1"/>
<ellipse cx="92.9846" cy="42.4448" rx="1.89081" ry="1.27343" fill="#8652D1"/>
<ellipse cx="100.547" cy="42.4448" rx="1.89081" ry="1.27343" fill="#8652D1"/>
<ellipse cx="108.109" cy="42.4448" rx="1.89081" ry="1.27343" fill="#8652D1"/>
<ellipse cx="2.22724" cy="47.5391" rx="1.89081" ry="1.27343" fill="#8652D1"/>
<ellipse cx="9.78876" cy="47.5391" rx="1.89081" ry="1.27343" fill="#8652D1"/>
<ellipse cx="17.3508" cy="47.5391" rx="1.89081" ry="1.27343" fill="#8652D1"/>
<ellipse cx="24.9123" cy="47.5391" rx="1.89081" ry="1.27343" fill="#8652D1"/>
<ellipse cx="32.4782" cy="47.5391" rx="1.89081" ry="1.27343" fill="#8652D1"/>
<ellipse cx="40.0402" cy="47.5391" rx="1.89081" ry="1.27343" fill="#8652D1"/>
<ellipse cx="47.6017" cy="47.5391" rx="1.89081" ry="1.27343" fill="#8652D1"/>
<ellipse cx="55.1677" cy="47.5391" rx="1.89081" ry="1.27343" fill="#8652D1"/>
<ellipse cx="62.7297" cy="47.5391" rx="1.89081" ry="1.27343" fill="#8652D1"/>
<ellipse cx="70.2951" cy="47.5391" rx="1.89081" ry="1.27343" fill="#8652D1"/>
<ellipse cx="77.8571" cy="47.5391" rx="1.89081" ry="1.27343" fill="#8652D1"/>
<ellipse cx="85.423" cy="47.5391" rx="1.89081" ry="1.27343" fill="#8652D1"/>
<ellipse cx="92.9846" cy="47.5391" rx="1.89081" ry="1.27343" fill="#8652D1"/>
<ellipse cx="100.547" cy="47.5391" rx="1.89081" ry="1.27343" fill="#8652D1"/>
<ellipse cx="108.109" cy="47.5391" rx="1.89081" ry="1.27343" fill="#8652D1"/>
<ellipse cx="2.22724" cy="52.6328" rx="1.89081" ry="1.27343" fill="#8652D1"/>
<ellipse cx="9.78876" cy="52.6328" rx="1.89081" ry="1.27343" fill="#8652D1"/>
<ellipse cx="17.3508" cy="52.6328" rx="1.89081" ry="1.27343" fill="#8652D1"/>
<ellipse cx="24.9123" cy="52.6328" rx="1.89081" ry="1.27343" fill="#8652D1"/>
<ellipse cx="32.4782" cy="52.6328" rx="1.89081" ry="1.27343" fill="#8652D1"/>
<ellipse cx="40.0402" cy="52.6328" rx="1.89081" ry="1.27343" fill="#8652D1"/>
<ellipse cx="47.6017" cy="52.6328" rx="1.89081" ry="1.27343" fill="#8652D1"/>
<ellipse cx="55.1677" cy="52.6328" rx="1.89081" ry="1.27343" fill="#8652D1"/>
<ellipse cx="62.7297" cy="52.6328" rx="1.89081" ry="1.27343" fill="#8652D1"/>
<ellipse cx="70.2951" cy="52.6328" rx="1.89081" ry="1.27343" fill="#8652D1"/>
<ellipse cx="77.8571" cy="52.6328" rx="1.89081" ry="1.27343" fill="#8652D1"/>
<ellipse cx="85.423" cy="52.6328" rx="1.89081" ry="1.27343" fill="#8652D1"/>
<ellipse cx="92.9846" cy="52.6328" rx="1.89081" ry="1.27343" fill="#8652D1"/>
<ellipse cx="100.547" cy="52.6328" rx="1.89081" ry="1.27343" fill="#8652D1"/>
<ellipse cx="108.109" cy="52.6328" rx="1.89081" ry="1.27343" fill="#8652D1"/>
<ellipse cx="2.22724" cy="57.7266" rx="1.89081" ry="1.27343" fill="#8652D1"/>
<ellipse cx="9.78876" cy="57.7266" rx="1.89081" ry="1.27343" fill="#8652D1"/>
<ellipse cx="17.3508" cy="57.7266" rx="1.89081" ry="1.27343" fill="#8652D1"/>
<ellipse cx="24.9123" cy="57.7266" rx="1.89081" ry="1.27343" fill="#8652D1"/>
<ellipse cx="32.4782" cy="57.7266" rx="1.89081" ry="1.27343" fill="#8652D1"/>
<ellipse cx="40.0402" cy="57.7266" rx="1.89081" ry="1.27343" fill="#8652D1"/>
<ellipse cx="47.6017" cy="57.7266" rx="1.89081" ry="1.27343" fill="#8652D1"/>
<ellipse cx="55.1677" cy="57.7266" rx="1.89081" ry="1.27343" fill="#8652D1"/>
<ellipse cx="62.7297" cy="57.7266" rx="1.89081" ry="1.27343" fill="#8652D1"/>
<ellipse cx="70.2951" cy="57.7266" rx="1.89081" ry="1.27343" fill="#8652D1"/>
<ellipse cx="77.8571" cy="57.7266" rx="1.89081" ry="1.27343" fill="#8652D1"/>
<ellipse cx="85.423" cy="57.7266" rx="1.89081" ry="1.27343" fill="#8652D1"/>
<ellipse cx="92.9846" cy="57.7266" rx="1.89081" ry="1.27343" fill="#8652D1"/>
<ellipse cx="100.547" cy="57.7266" rx="1.89081" ry="1.27343" fill="#8652D1"/>
<ellipse cx="108.109" cy="57.7266" rx="1.89081" ry="1.27343" fill="#8652D1"/>
</svg>
