<svg width="208" height="37" viewBox="0 0 208 37" fill="none" xmlns="http://www.w3.org/2000/svg">
<ellipse cx="105.155" cy="1.75115" rx="0.594485" ry="0.768732" fill="#A979EF"/>
<ellipse cx="107.532" cy="1.75164" rx="0.594485" ry="0.768732" fill="#A979EF"/>
<ellipse cx="109.912" cy="1.75164" rx="0.594485" ry="0.768732" fill="#A979EF"/>
<ellipse cx="112.289" cy="1.75164" rx="0.594485" ry="0.768732" fill="#A979EF"/>
<ellipse cx="114.667" cy="1.75164" rx="0.594485" ry="0.768732" fill="#A979EF"/>
<ellipse cx="117.046" cy="1.75164" rx="0.594485" ry="0.768732" fill="#A979EF"/>
<ellipse cx="119.424" cy="1.75164" rx="0.594485" ry="0.768732" fill="#A979EF"/>
<ellipse cx="121.8" cy="1.75164" rx="0.594485" ry="0.768732" fill="#A979EF"/>
<ellipse cx="124.177" cy="1.75164" rx="0.594485" ry="0.768732" fill="#A979EF"/>
<ellipse cx="126.556" cy="1.75164" rx="0.594485" ry="0.768732" fill="#A979EF"/>
<ellipse cx="128.934" cy="1.75164" rx="0.594485" ry="0.768732" fill="#A979EF"/>
<ellipse cx="131.312" cy="1.75164" rx="0.594485" ry="0.768732" fill="#A979EF"/>
<ellipse cx="133.691" cy="1.75164" rx="0.594485" ry="0.768732" fill="#A979EF"/>
<ellipse cx="136.069" cy="1.75164" rx="0.594485" ry="0.768732" fill="#A979EF"/>
<ellipse cx="138.446" cy="1.75164" rx="0.594485" ry="0.768732" fill="#A979EF"/>
<ellipse cx="140.825" cy="1.75164" rx="0.594485" ry="0.768732" fill="#A979EF"/>
<ellipse cx="143.203" cy="1.75164" rx="0.594485" ry="0.768732" fill="#A979EF"/>
<ellipse cx="145.58" cy="1.75164" rx="0.594485" ry="0.768732" fill="#A979EF"/>
<ellipse cx="147.96" cy="1.75164" rx="0.594485" ry="0.768732" fill="#A979EF"/>
<ellipse cx="150.337" cy="1.75164" rx="0.594485" ry="0.768732" fill="#A979EF"/>
<ellipse cx="152.715" cy="1.75164" rx="0.594485" ry="0.768732" fill="#A979EF"/>
<ellipse cx="155.094" cy="1.75164" rx="0.594485" ry="0.768732" fill="#A979EF"/>
<ellipse cx="157.468" cy="1.75164" rx="0.594485" ry="0.768732" fill="#A979EF"/>
<ellipse cx="159.847" cy="1.75164" rx="0.594485" ry="0.768732" fill="#A979EF"/>
<ellipse cx="162.225" cy="1.75164" rx="0.594485" ry="0.768732" fill="#A979EF"/>
<ellipse cx="164.604" cy="1.75164" rx="0.594485" ry="0.768732" fill="#A979EF"/>
<ellipse cx="166.982" cy="1.75164" rx="0.594485" ry="0.768732" fill="#A979EF"/>
<ellipse cx="169.36" cy="1.75164" rx="0.594485" ry="0.768732" fill="#A979EF"/>
<ellipse cx="171.739" cy="1.75164" rx="0.594485" ry="0.768732" fill="#A979EF"/>
<ellipse cx="174.115" cy="1.75164" rx="0.594485" ry="0.768732" fill="#A979EF"/>
<ellipse cx="176.492" cy="1.75164" rx="0.594485" ry="0.768732" fill="#A979EF"/>
<ellipse cx="178.871" cy="1.75164" rx="0.594485" ry="0.768732" fill="#A979EF"/>
<ellipse cx="181.249" cy="1.75164" rx="0.594485" ry="0.768732" fill="#A979EF"/>
<ellipse cx="183.628" cy="1.75164" rx="0.594485" ry="0.768732" fill="#A979EF"/>
<ellipse cx="186.006" cy="1.75164" rx="0.594485" ry="0.768732" fill="#A979EF"/>
<ellipse cx="188.384" cy="1.75164" rx="0.594485" ry="0.768732" fill="#A979EF"/>
<ellipse cx="190.762" cy="1.75164" rx="0.594485" ry="0.768732" fill="#A979EF"/>
<ellipse cx="193.137" cy="1.75164" rx="0.594485" ry="0.768732" fill="#A979EF"/>
<ellipse cx="195.516" cy="1.75164" rx="0.594485" ry="0.768732" fill="#A979EF"/>
<ellipse cx="197.894" cy="1.75164" rx="0.594485" ry="0.768732" fill="#A979EF"/>
<ellipse cx="200.271" cy="1.75164" rx="0.594485" ry="0.768732" fill="#A979EF"/>
<ellipse cx="202.651" cy="1.75164" rx="0.594485" ry="0.768732" fill="#A979EF"/>
<ellipse cx="205.028" cy="1.75164" rx="0.594485" ry="0.768732" fill="#A979EF"/>
<ellipse cx="207.406" cy="1.75164" rx="0.594485" ry="0.768732" fill="#A979EF"/>
<ellipse cx="105.155" cy="4.82684" rx="0.594485" ry="0.768732" fill="#A979EF"/>
<ellipse cx="107.532" cy="4.82684" rx="0.594485" ry="0.768732" fill="#A979EF"/>
<ellipse cx="109.912" cy="4.82684" rx="0.594485" ry="0.768732" fill="#A979EF"/>
<ellipse cx="112.289" cy="4.82684" rx="0.594485" ry="0.768732" fill="#A979EF"/>
<ellipse cx="114.667" cy="4.82684" rx="0.594485" ry="0.768732" fill="#A979EF"/>
<ellipse cx="117.046" cy="4.82684" rx="0.594485" ry="0.768732" fill="#A979EF"/>
<ellipse cx="119.424" cy="4.82684" rx="0.594485" ry="0.768732" fill="#A979EF"/>
<ellipse cx="121.8" cy="4.82684" rx="0.594485" ry="0.768732" fill="#A979EF"/>
<ellipse cx="124.177" cy="4.82684" rx="0.594485" ry="0.768732" fill="#A979EF"/>
<ellipse cx="126.556" cy="4.82684" rx="0.594485" ry="0.768732" fill="#A979EF"/>
<ellipse cx="128.934" cy="4.82684" rx="0.594485" ry="0.768732" fill="#A979EF"/>
<ellipse cx="131.312" cy="4.82684" rx="0.594485" ry="0.768732" fill="#A979EF"/>
<ellipse cx="133.691" cy="4.82684" rx="0.594485" ry="0.768732" fill="#A979EF"/>
<ellipse cx="136.069" cy="4.82684" rx="0.594485" ry="0.768732" fill="#A979EF"/>
<ellipse cx="138.446" cy="4.82684" rx="0.594485" ry="0.768732" fill="#A979EF"/>
<ellipse cx="140.825" cy="4.82684" rx="0.594485" ry="0.768732" fill="#A979EF"/>
<ellipse cx="143.203" cy="4.82684" rx="0.594485" ry="0.768732" fill="#A979EF"/>
<ellipse cx="145.58" cy="4.82684" rx="0.594485" ry="0.768732" fill="#A979EF"/>
<ellipse cx="147.96" cy="4.82684" rx="0.594485" ry="0.768732" fill="#A979EF"/>
<ellipse cx="150.337" cy="4.82684" rx="0.594485" ry="0.768732" fill="#A979EF"/>
<ellipse cx="152.715" cy="4.82684" rx="0.594485" ry="0.768732" fill="#A979EF"/>
<ellipse cx="155.094" cy="4.82684" rx="0.594485" ry="0.768732" fill="#A979EF"/>
<ellipse cx="157.468" cy="4.82684" rx="0.594485" ry="0.768732" fill="#A979EF"/>
<ellipse cx="159.847" cy="4.82684" rx="0.594485" ry="0.768732" fill="#A979EF"/>
<ellipse cx="162.225" cy="4.82684" rx="0.594485" ry="0.768732" fill="#A979EF"/>
<ellipse cx="164.604" cy="4.82684" rx="0.594485" ry="0.768732" fill="#A979EF"/>
<ellipse cx="166.982" cy="4.82684" rx="0.594485" ry="0.768732" fill="#A979EF"/>
<ellipse cx="169.36" cy="4.82684" rx="0.594485" ry="0.768732" fill="#A979EF"/>
<ellipse cx="171.739" cy="4.82684" rx="0.594485" ry="0.768732" fill="#A979EF"/>
<ellipse cx="174.115" cy="4.82684" rx="0.594485" ry="0.768732" fill="#A979EF"/>
<ellipse cx="176.492" cy="4.82684" rx="0.594485" ry="0.768732" fill="#A979EF"/>
<ellipse cx="178.871" cy="4.82684" rx="0.594485" ry="0.768732" fill="#A979EF"/>
<ellipse cx="181.249" cy="4.82684" rx="0.594485" ry="0.768732" fill="#A979EF"/>
<ellipse cx="183.628" cy="4.82684" rx="0.594485" ry="0.768732" fill="#A979EF"/>
<ellipse cx="186.006" cy="4.82684" rx="0.594485" ry="0.768732" fill="#A979EF"/>
<ellipse cx="188.384" cy="4.82684" rx="0.594485" ry="0.768732" fill="#A979EF"/>
<ellipse cx="190.762" cy="4.82684" rx="0.594485" ry="0.768732" fill="#A979EF"/>
<ellipse cx="193.137" cy="4.82684" rx="0.594485" ry="0.768732" fill="#A979EF"/>
<ellipse cx="195.516" cy="4.82684" rx="0.594485" ry="0.768732" fill="#A979EF"/>
<ellipse cx="197.894" cy="4.82684" rx="0.594485" ry="0.768732" fill="#A979EF"/>
<ellipse cx="200.271" cy="4.82684" rx="0.594485" ry="0.768732" fill="#A979EF"/>
<ellipse cx="202.651" cy="4.82684" rx="0.594485" ry="0.768732" fill="#A979EF"/>
<ellipse cx="205.028" cy="4.82684" rx="0.594485" ry="0.768732" fill="#A979EF"/>
<ellipse cx="207.406" cy="4.82684" rx="0.594485" ry="0.768732" fill="#A979EF"/>
<ellipse cx="105.155" cy="7.90203" rx="0.594485" ry="0.768732" fill="#A979EF"/>
<ellipse cx="107.532" cy="7.90203" rx="0.594485" ry="0.768732" fill="#A979EF"/>
<ellipse cx="109.912" cy="7.90203" rx="0.594485" ry="0.768732" fill="#A979EF"/>
<ellipse cx="112.289" cy="7.90203" rx="0.594485" ry="0.768732" fill="#A979EF"/>
<ellipse cx="114.667" cy="7.90203" rx="0.594485" ry="0.768732" fill="#A979EF"/>
<ellipse cx="117.046" cy="7.90203" rx="0.594485" ry="0.768732" fill="#A979EF"/>
<ellipse cx="119.424" cy="7.90203" rx="0.594485" ry="0.768732" fill="#A979EF"/>
<ellipse cx="121.8" cy="7.90203" rx="0.594485" ry="0.768732" fill="#A979EF"/>
<ellipse cx="124.177" cy="7.90203" rx="0.594485" ry="0.768732" fill="#A979EF"/>
<ellipse cx="126.556" cy="7.90203" rx="0.594485" ry="0.768732" fill="#A979EF"/>
<ellipse cx="128.934" cy="7.90203" rx="0.594485" ry="0.768732" fill="#A979EF"/>
<ellipse cx="131.312" cy="7.90203" rx="0.594485" ry="0.768732" fill="#A979EF"/>
<ellipse cx="133.691" cy="7.90203" rx="0.594485" ry="0.768732" fill="#A979EF"/>
<ellipse cx="136.069" cy="7.90203" rx="0.594485" ry="0.768732" fill="#A979EF"/>
<ellipse cx="138.446" cy="7.90203" rx="0.594485" ry="0.768732" fill="#A979EF"/>
<ellipse cx="140.825" cy="7.90203" rx="0.594485" ry="0.768732" fill="#A979EF"/>
<ellipse cx="143.203" cy="7.90203" rx="0.594485" ry="0.768732" fill="#A979EF"/>
<ellipse cx="145.58" cy="7.90203" rx="0.594485" ry="0.768732" fill="#A979EF"/>
<ellipse cx="147.96" cy="7.90203" rx="0.594485" ry="0.768732" fill="#A979EF"/>
<ellipse cx="150.337" cy="7.90203" rx="0.594485" ry="0.768732" fill="#A979EF"/>
<ellipse cx="152.715" cy="7.90203" rx="0.594485" ry="0.768732" fill="#A979EF"/>
<ellipse cx="155.094" cy="7.90203" rx="0.594485" ry="0.768732" fill="#A979EF"/>
<ellipse cx="157.468" cy="7.90203" rx="0.594485" ry="0.768732" fill="#A979EF"/>
<ellipse cx="159.847" cy="7.90203" rx="0.594485" ry="0.768732" fill="#A979EF"/>
<ellipse cx="162.225" cy="7.90203" rx="0.594485" ry="0.768732" fill="#A979EF"/>
<ellipse cx="164.604" cy="7.90203" rx="0.594485" ry="0.768732" fill="#A979EF"/>
<ellipse cx="166.982" cy="7.90203" rx="0.594485" ry="0.768732" fill="#A979EF"/>
<ellipse cx="169.36" cy="7.90203" rx="0.594485" ry="0.768732" fill="#A979EF"/>
<ellipse cx="171.739" cy="7.90203" rx="0.594485" ry="0.768732" fill="#A979EF"/>
<ellipse cx="174.115" cy="7.90203" rx="0.594485" ry="0.768732" fill="#A979EF"/>
<ellipse cx="176.492" cy="7.90203" rx="0.594485" ry="0.768732" fill="#A979EF"/>
<ellipse cx="178.871" cy="7.90203" rx="0.594485" ry="0.768732" fill="#A979EF"/>
<ellipse cx="181.249" cy="7.90203" rx="0.594485" ry="0.768732" fill="#A979EF"/>
<ellipse cx="183.628" cy="7.90203" rx="0.594485" ry="0.768732" fill="#A979EF"/>
<ellipse cx="186.006" cy="7.90203" rx="0.594485" ry="0.768732" fill="#A979EF"/>
<ellipse cx="188.384" cy="7.90203" rx="0.594485" ry="0.768732" fill="#A979EF"/>
<ellipse cx="190.762" cy="7.90203" rx="0.594485" ry="0.768732" fill="#A979EF"/>
<ellipse cx="193.137" cy="7.90203" rx="0.594485" ry="0.768732" fill="#A979EF"/>
<ellipse cx="195.516" cy="7.90203" rx="0.594485" ry="0.768732" fill="#A979EF"/>
<ellipse cx="197.894" cy="7.90203" rx="0.594485" ry="0.768732" fill="#A979EF"/>
<ellipse cx="200.271" cy="7.90203" rx="0.594485" ry="0.768732" fill="#A979EF"/>
<ellipse cx="202.651" cy="7.90203" rx="0.594485" ry="0.768732" fill="#A979EF"/>
<ellipse cx="205.028" cy="7.90203" rx="0.594485" ry="0.768732" fill="#A979EF"/>
<ellipse cx="207.406" cy="7.90203" rx="0.594485" ry="0.768732" fill="#A979EF"/>
<ellipse cx="105.155" cy="10.9772" rx="0.594485" ry="0.768732" fill="#A979EF"/>
<ellipse cx="107.532" cy="10.9772" rx="0.594485" ry="0.768732" fill="#A979EF"/>
<ellipse cx="109.912" cy="10.9772" rx="0.594485" ry="0.768732" fill="#A979EF"/>
<ellipse cx="112.289" cy="10.9772" rx="0.594485" ry="0.768732" fill="#A979EF"/>
<ellipse cx="114.667" cy="10.9772" rx="0.594485" ry="0.768732" fill="#A979EF"/>
<ellipse cx="117.046" cy="10.9772" rx="0.594485" ry="0.768732" fill="#A979EF"/>
<ellipse cx="119.424" cy="10.9772" rx="0.594485" ry="0.768732" fill="#A979EF"/>
<ellipse cx="121.8" cy="10.9772" rx="0.594485" ry="0.768732" fill="#A979EF"/>
<ellipse cx="124.177" cy="10.9772" rx="0.594485" ry="0.768732" fill="#A979EF"/>
<ellipse cx="126.556" cy="10.9772" rx="0.594485" ry="0.768732" fill="#A979EF"/>
<ellipse cx="128.934" cy="10.9772" rx="0.594485" ry="0.768732" fill="#A979EF"/>
<ellipse cx="131.312" cy="10.9772" rx="0.594485" ry="0.768732" fill="#A979EF"/>
<ellipse cx="133.691" cy="10.9772" rx="0.594485" ry="0.768732" fill="#A979EF"/>
<ellipse cx="136.069" cy="10.9772" rx="0.594485" ry="0.768732" fill="#A979EF"/>
<ellipse cx="138.446" cy="10.9772" rx="0.594485" ry="0.768732" fill="#A979EF"/>
<ellipse cx="140.825" cy="10.9772" rx="0.594485" ry="0.768732" fill="#A979EF"/>
<ellipse cx="143.203" cy="10.9772" rx="0.594485" ry="0.768732" fill="#A979EF"/>
<ellipse cx="145.58" cy="10.9772" rx="0.594485" ry="0.768732" fill="#A979EF"/>
<ellipse cx="147.96" cy="10.9772" rx="0.594485" ry="0.768732" fill="#A979EF"/>
<ellipse cx="150.337" cy="10.9772" rx="0.594485" ry="0.768732" fill="#A979EF"/>
<ellipse cx="152.715" cy="10.9772" rx="0.594485" ry="0.768732" fill="#A979EF"/>
<ellipse cx="155.094" cy="10.9772" rx="0.594485" ry="0.768732" fill="#A979EF"/>
<ellipse cx="157.468" cy="10.9772" rx="0.594485" ry="0.768732" fill="#A979EF"/>
<ellipse cx="159.847" cy="10.9772" rx="0.594485" ry="0.768732" fill="#A979EF"/>
<ellipse cx="162.225" cy="10.9772" rx="0.594485" ry="0.768732" fill="#A979EF"/>
<ellipse cx="164.604" cy="10.9772" rx="0.594485" ry="0.768732" fill="#A979EF"/>
<ellipse cx="166.982" cy="10.9772" rx="0.594485" ry="0.768732" fill="#A979EF"/>
<ellipse cx="169.36" cy="10.9772" rx="0.594485" ry="0.768732" fill="#A979EF"/>
<ellipse cx="171.739" cy="10.9772" rx="0.594485" ry="0.768732" fill="#A979EF"/>
<ellipse cx="174.115" cy="10.9772" rx="0.594485" ry="0.768732" fill="#A979EF"/>
<ellipse cx="176.492" cy="10.9772" rx="0.594485" ry="0.768732" fill="#A979EF"/>
<ellipse cx="178.871" cy="10.9772" rx="0.594485" ry="0.768732" fill="#A979EF"/>
<ellipse cx="181.249" cy="10.9772" rx="0.594485" ry="0.768732" fill="#A979EF"/>
<ellipse cx="183.628" cy="10.9772" rx="0.594485" ry="0.768732" fill="#A979EF"/>
<ellipse cx="186.006" cy="10.9772" rx="0.594485" ry="0.768732" fill="#A979EF"/>
<ellipse cx="188.384" cy="10.9772" rx="0.594485" ry="0.768732" fill="#A979EF"/>
<ellipse cx="190.762" cy="10.9772" rx="0.594485" ry="0.768732" fill="#A979EF"/>
<ellipse cx="193.137" cy="10.9772" rx="0.594485" ry="0.768732" fill="#A979EF"/>
<ellipse cx="195.516" cy="10.9772" rx="0.594485" ry="0.768732" fill="#A979EF"/>
<ellipse cx="197.894" cy="10.9772" rx="0.594485" ry="0.768732" fill="#A979EF"/>
<ellipse cx="200.271" cy="10.9772" rx="0.594485" ry="0.768732" fill="#A979EF"/>
<ellipse cx="202.651" cy="10.9772" rx="0.594485" ry="0.768732" fill="#A979EF"/>
<ellipse cx="205.028" cy="10.9772" rx="0.594485" ry="0.768732" fill="#A979EF"/>
<ellipse cx="207.406" cy="10.9772" rx="0.594485" ry="0.768732" fill="#A979EF"/>
<ellipse cx="105.155" cy="14.0505" rx="0.594485" ry="0.768732" fill="#A979EF"/>
<ellipse cx="107.532" cy="14.0505" rx="0.594485" ry="0.768732" fill="#A979EF"/>
<ellipse cx="109.912" cy="14.0505" rx="0.594485" ry="0.768732" fill="#A979EF"/>
<ellipse cx="112.289" cy="14.0505" rx="0.594485" ry="0.768732" fill="#A979EF"/>
<ellipse cx="114.667" cy="14.0505" rx="0.594485" ry="0.768732" fill="#A979EF"/>
<ellipse cx="117.046" cy="14.0505" rx="0.594485" ry="0.768732" fill="#A979EF"/>
<ellipse cx="119.424" cy="14.0505" rx="0.594485" ry="0.768732" fill="#A979EF"/>
<ellipse cx="121.8" cy="14.0505" rx="0.594485" ry="0.768732" fill="#A979EF"/>
<ellipse cx="124.177" cy="14.0505" rx="0.594485" ry="0.768732" fill="#A979EF"/>
<ellipse cx="126.556" cy="14.0505" rx="0.594485" ry="0.768732" fill="#A979EF"/>
<ellipse cx="128.934" cy="14.0505" rx="0.594485" ry="0.768732" fill="#A979EF"/>
<ellipse cx="131.312" cy="14.0505" rx="0.594485" ry="0.768732" fill="#A979EF"/>
<ellipse cx="133.691" cy="14.0505" rx="0.594485" ry="0.768732" fill="#A979EF"/>
<ellipse cx="136.069" cy="14.0505" rx="0.594485" ry="0.768732" fill="#A979EF"/>
<ellipse cx="138.446" cy="14.0505" rx="0.594485" ry="0.768732" fill="#A979EF"/>
<ellipse cx="140.825" cy="14.0505" rx="0.594485" ry="0.768732" fill="#A979EF"/>
<ellipse cx="143.203" cy="14.0505" rx="0.594485" ry="0.768732" fill="#A979EF"/>
<ellipse cx="145.58" cy="14.0505" rx="0.594485" ry="0.768732" fill="#A979EF"/>
<ellipse cx="147.96" cy="14.0505" rx="0.594485" ry="0.768732" fill="#A979EF"/>
<ellipse cx="150.337" cy="14.0505" rx="0.594485" ry="0.768732" fill="#A979EF"/>
<ellipse cx="152.715" cy="14.0505" rx="0.594485" ry="0.768732" fill="#A979EF"/>
<ellipse cx="155.094" cy="14.0505" rx="0.594485" ry="0.768732" fill="#A979EF"/>
<ellipse cx="157.468" cy="14.0505" rx="0.594485" ry="0.768732" fill="#A979EF"/>
<ellipse cx="159.847" cy="14.0505" rx="0.594485" ry="0.768732" fill="#A979EF"/>
<ellipse cx="162.225" cy="14.0505" rx="0.594485" ry="0.768732" fill="#A979EF"/>
<ellipse cx="164.604" cy="14.0505" rx="0.594485" ry="0.768732" fill="#A979EF"/>
<ellipse cx="166.982" cy="14.0505" rx="0.594485" ry="0.768732" fill="#A979EF"/>
<ellipse cx="169.36" cy="14.0505" rx="0.594485" ry="0.768732" fill="#A979EF"/>
<ellipse cx="171.739" cy="14.0505" rx="0.594485" ry="0.768732" fill="#A979EF"/>
<ellipse cx="174.115" cy="14.0505" rx="0.594485" ry="0.768732" fill="#A979EF"/>
<ellipse cx="176.492" cy="14.0505" rx="0.594485" ry="0.768732" fill="#A979EF"/>
<ellipse cx="178.871" cy="14.0505" rx="0.594485" ry="0.768732" fill="#A979EF"/>
<ellipse cx="181.249" cy="14.0505" rx="0.594485" ry="0.768732" fill="#A979EF"/>
<ellipse cx="183.628" cy="14.0505" rx="0.594485" ry="0.768732" fill="#A979EF"/>
<ellipse cx="186.006" cy="14.0505" rx="0.594485" ry="0.768732" fill="#A979EF"/>
<ellipse cx="188.384" cy="14.0505" rx="0.594485" ry="0.768732" fill="#A979EF"/>
<ellipse cx="190.762" cy="14.0505" rx="0.594485" ry="0.768732" fill="#A979EF"/>
<ellipse cx="193.137" cy="14.0505" rx="0.594485" ry="0.768732" fill="#A979EF"/>
<ellipse cx="195.516" cy="14.0505" rx="0.594485" ry="0.768732" fill="#A979EF"/>
<ellipse cx="197.894" cy="14.0505" rx="0.594485" ry="0.768732" fill="#A979EF"/>
<ellipse cx="200.271" cy="14.0505" rx="0.594485" ry="0.768732" fill="#A979EF"/>
<ellipse cx="202.651" cy="14.0505" rx="0.594485" ry="0.768732" fill="#A979EF"/>
<ellipse cx="205.028" cy="14.0505" rx="0.594485" ry="0.768732" fill="#A979EF"/>
<ellipse cx="207.406" cy="14.0505" rx="0.594485" ry="0.768732" fill="#A979EF"/>
<ellipse cx="105.155" cy="17.1257" rx="0.594485" ry="0.768732" fill="#A979EF"/>
<ellipse cx="107.532" cy="17.1257" rx="0.594485" ry="0.768732" fill="#A979EF"/>
<ellipse cx="109.912" cy="17.1257" rx="0.594485" ry="0.768732" fill="#A979EF"/>
<ellipse cx="112.289" cy="17.1257" rx="0.594485" ry="0.768732" fill="#A979EF"/>
<ellipse cx="114.667" cy="17.1257" rx="0.594485" ry="0.768732" fill="#A979EF"/>
<ellipse cx="117.046" cy="17.1257" rx="0.594485" ry="0.768732" fill="#A979EF"/>
<ellipse cx="119.424" cy="17.1257" rx="0.594485" ry="0.768732" fill="#A979EF"/>
<ellipse cx="121.8" cy="17.1257" rx="0.594485" ry="0.768732" fill="#A979EF"/>
<ellipse cx="124.177" cy="17.1257" rx="0.594485" ry="0.768732" fill="#A979EF"/>
<ellipse cx="126.556" cy="17.1257" rx="0.594485" ry="0.768732" fill="#A979EF"/>
<ellipse cx="128.934" cy="17.1257" rx="0.594485" ry="0.768732" fill="#A979EF"/>
<ellipse cx="131.312" cy="17.1257" rx="0.594485" ry="0.768732" fill="#A979EF"/>
<ellipse cx="133.691" cy="17.1257" rx="0.594485" ry="0.768732" fill="#A979EF"/>
<ellipse cx="136.069" cy="17.1257" rx="0.594485" ry="0.768732" fill="#A979EF"/>
<ellipse cx="138.446" cy="17.1257" rx="0.594485" ry="0.768732" fill="#A979EF"/>
<ellipse cx="140.825" cy="17.1257" rx="0.594485" ry="0.768732" fill="#A979EF"/>
<ellipse cx="143.203" cy="17.1257" rx="0.594485" ry="0.768732" fill="#A979EF"/>
<ellipse cx="145.58" cy="17.1257" rx="0.594485" ry="0.768732" fill="#A979EF"/>
<ellipse cx="147.96" cy="17.1257" rx="0.594485" ry="0.768732" fill="#A979EF"/>
<ellipse cx="150.337" cy="17.1257" rx="0.594485" ry="0.768732" fill="#A979EF"/>
<ellipse cx="152.715" cy="17.1257" rx="0.594485" ry="0.768732" fill="#A979EF"/>
<ellipse cx="155.094" cy="17.1257" rx="0.594485" ry="0.768732" fill="#A979EF"/>
<ellipse cx="157.468" cy="17.1257" rx="0.594485" ry="0.768732" fill="#A979EF"/>
<ellipse cx="159.847" cy="17.1257" rx="0.594485" ry="0.768732" fill="#A979EF"/>
<ellipse cx="162.225" cy="17.1257" rx="0.594485" ry="0.768732" fill="#A979EF"/>
<ellipse cx="164.604" cy="17.1257" rx="0.594485" ry="0.768732" fill="#A979EF"/>
<ellipse cx="166.982" cy="17.1257" rx="0.594485" ry="0.768732" fill="#A979EF"/>
<ellipse cx="169.36" cy="17.1257" rx="0.594485" ry="0.768732" fill="#A979EF"/>
<ellipse cx="171.739" cy="17.1257" rx="0.594485" ry="0.768732" fill="#A979EF"/>
<ellipse cx="174.115" cy="17.1257" rx="0.594485" ry="0.768732" fill="#A979EF"/>
<ellipse cx="176.492" cy="17.1257" rx="0.594485" ry="0.768732" fill="#A979EF"/>
<ellipse cx="178.871" cy="17.1257" rx="0.594485" ry="0.768732" fill="#A979EF"/>
<ellipse cx="181.249" cy="17.1257" rx="0.594485" ry="0.768732" fill="#A979EF"/>
<ellipse cx="183.628" cy="17.1257" rx="0.594485" ry="0.768732" fill="#A979EF"/>
<ellipse cx="186.006" cy="17.1257" rx="0.594485" ry="0.768732" fill="#A979EF"/>
<ellipse cx="188.384" cy="17.1257" rx="0.594485" ry="0.768732" fill="#A979EF"/>
<ellipse cx="190.762" cy="17.1257" rx="0.594485" ry="0.768732" fill="#A979EF"/>
<ellipse cx="193.137" cy="17.1257" rx="0.594485" ry="0.768732" fill="#A979EF"/>
<ellipse cx="195.516" cy="17.1257" rx="0.594485" ry="0.768732" fill="#A979EF"/>
<ellipse cx="197.894" cy="17.1257" rx="0.594485" ry="0.768732" fill="#A979EF"/>
<ellipse cx="200.271" cy="17.1257" rx="0.594485" ry="0.768732" fill="#A979EF"/>
<ellipse cx="202.651" cy="17.1257" rx="0.594485" ry="0.768732" fill="#A979EF"/>
<ellipse cx="205.028" cy="17.1257" rx="0.594485" ry="0.768732" fill="#A979EF"/>
<ellipse cx="207.406" cy="17.1257" rx="0.594485" ry="0.768732" fill="#A979EF"/>
<ellipse cx="105.155" cy="20.2009" rx="0.594485" ry="0.768732" fill="#A979EF"/>
<ellipse cx="107.532" cy="20.2009" rx="0.594485" ry="0.768732" fill="#A979EF"/>
<ellipse cx="109.912" cy="20.2009" rx="0.594485" ry="0.768732" fill="#A979EF"/>
<ellipse cx="112.289" cy="20.2009" rx="0.594485" ry="0.768732" fill="#A979EF"/>
<ellipse cx="114.667" cy="20.2009" rx="0.594485" ry="0.768732" fill="#A979EF"/>
<ellipse cx="117.046" cy="20.2009" rx="0.594485" ry="0.768732" fill="#A979EF"/>
<ellipse cx="119.424" cy="20.2009" rx="0.594485" ry="0.768732" fill="#A979EF"/>
<ellipse cx="121.8" cy="20.2009" rx="0.594485" ry="0.768732" fill="#A979EF"/>
<ellipse cx="124.177" cy="20.2009" rx="0.594485" ry="0.768732" fill="#A979EF"/>
<ellipse cx="126.556" cy="20.2009" rx="0.594485" ry="0.768732" fill="#A979EF"/>
<ellipse cx="128.934" cy="20.2009" rx="0.594485" ry="0.768732" fill="#A979EF"/>
<ellipse cx="131.312" cy="20.2009" rx="0.594485" ry="0.768732" fill="#A979EF"/>
<ellipse cx="133.691" cy="20.2009" rx="0.594485" ry="0.768732" fill="#A979EF"/>
<ellipse cx="136.069" cy="20.2009" rx="0.594485" ry="0.768732" fill="#A979EF"/>
<ellipse cx="138.446" cy="20.2009" rx="0.594485" ry="0.768732" fill="#A979EF"/>
<ellipse cx="140.825" cy="20.2009" rx="0.594485" ry="0.768732" fill="#A979EF"/>
<ellipse cx="143.203" cy="20.2009" rx="0.594485" ry="0.768732" fill="#A979EF"/>
<ellipse cx="145.58" cy="20.2009" rx="0.594485" ry="0.768732" fill="#A979EF"/>
<ellipse cx="147.96" cy="20.2009" rx="0.594485" ry="0.768732" fill="#A979EF"/>
<ellipse cx="150.337" cy="20.2009" rx="0.594485" ry="0.768732" fill="#A979EF"/>
<ellipse cx="152.715" cy="20.2009" rx="0.594485" ry="0.768732" fill="#A979EF"/>
<ellipse cx="155.094" cy="20.2009" rx="0.594485" ry="0.768732" fill="#A979EF"/>
<ellipse cx="157.468" cy="20.2009" rx="0.594485" ry="0.768732" fill="#A979EF"/>
<ellipse cx="159.847" cy="20.2009" rx="0.594485" ry="0.768732" fill="#A979EF"/>
<ellipse cx="162.225" cy="20.2009" rx="0.594485" ry="0.768732" fill="#A979EF"/>
<ellipse cx="164.604" cy="20.2009" rx="0.594485" ry="0.768732" fill="#A979EF"/>
<ellipse cx="166.982" cy="20.2009" rx="0.594485" ry="0.768732" fill="#A979EF"/>
<ellipse cx="169.36" cy="20.2009" rx="0.594485" ry="0.768732" fill="#A979EF"/>
<ellipse cx="171.739" cy="20.2009" rx="0.594485" ry="0.768732" fill="#A979EF"/>
<ellipse cx="174.115" cy="20.2009" rx="0.594485" ry="0.768732" fill="#A979EF"/>
<ellipse cx="176.492" cy="20.2009" rx="0.594485" ry="0.768732" fill="#A979EF"/>
<ellipse cx="178.871" cy="20.2009" rx="0.594485" ry="0.768732" fill="#A979EF"/>
<ellipse cx="181.249" cy="20.2009" rx="0.594485" ry="0.768732" fill="#A979EF"/>
<ellipse cx="183.628" cy="20.2009" rx="0.594485" ry="0.768732" fill="#A979EF"/>
<ellipse cx="186.006" cy="20.2009" rx="0.594485" ry="0.768732" fill="#A979EF"/>
<ellipse cx="188.384" cy="20.2009" rx="0.594485" ry="0.768732" fill="#A979EF"/>
<ellipse cx="190.762" cy="20.2009" rx="0.594485" ry="0.768732" fill="#A979EF"/>
<ellipse cx="193.137" cy="20.2009" rx="0.594485" ry="0.768732" fill="#A979EF"/>
<ellipse cx="195.516" cy="20.2009" rx="0.594485" ry="0.768732" fill="#A979EF"/>
<ellipse cx="197.894" cy="20.2009" rx="0.594485" ry="0.768732" fill="#A979EF"/>
<ellipse cx="200.271" cy="20.2009" rx="0.594485" ry="0.768732" fill="#A979EF"/>
<ellipse cx="202.651" cy="20.2009" rx="0.594485" ry="0.768732" fill="#A979EF"/>
<ellipse cx="205.028" cy="20.2009" rx="0.594485" ry="0.768732" fill="#A979EF"/>
<ellipse cx="207.406" cy="20.2009" rx="0.594485" ry="0.768732" fill="#A979EF"/>
<ellipse cx="105.155" cy="23.2761" rx="0.594485" ry="0.768732" fill="#A979EF"/>
<ellipse cx="107.532" cy="23.2761" rx="0.594485" ry="0.768732" fill="#A979EF"/>
<ellipse cx="109.912" cy="23.2761" rx="0.594485" ry="0.768732" fill="#A979EF"/>
<ellipse cx="112.289" cy="23.2761" rx="0.594485" ry="0.768732" fill="#A979EF"/>
<ellipse cx="114.667" cy="23.2761" rx="0.594485" ry="0.768732" fill="#A979EF"/>
<ellipse cx="117.046" cy="23.2761" rx="0.594485" ry="0.768732" fill="#A979EF"/>
<ellipse cx="119.424" cy="23.2761" rx="0.594485" ry="0.768732" fill="#A979EF"/>
<ellipse cx="121.8" cy="23.2761" rx="0.594485" ry="0.768732" fill="#A979EF"/>
<ellipse cx="124.177" cy="23.2761" rx="0.594485" ry="0.768732" fill="#A979EF"/>
<ellipse cx="126.556" cy="23.2761" rx="0.594485" ry="0.768732" fill="#A979EF"/>
<ellipse cx="128.934" cy="23.2761" rx="0.594485" ry="0.768732" fill="#A979EF"/>
<ellipse cx="131.312" cy="23.2761" rx="0.594485" ry="0.768732" fill="#A979EF"/>
<ellipse cx="133.691" cy="23.2761" rx="0.594485" ry="0.768732" fill="#A979EF"/>
<ellipse cx="136.069" cy="23.2761" rx="0.594485" ry="0.768732" fill="#A979EF"/>
<ellipse cx="138.446" cy="23.2761" rx="0.594485" ry="0.768732" fill="#A979EF"/>
<ellipse cx="140.825" cy="23.2761" rx="0.594485" ry="0.768732" fill="#A979EF"/>
<ellipse cx="143.203" cy="23.2761" rx="0.594485" ry="0.768732" fill="#A979EF"/>
<ellipse cx="145.58" cy="23.2761" rx="0.594485" ry="0.768732" fill="#A979EF"/>
<ellipse cx="147.96" cy="23.2761" rx="0.594485" ry="0.768732" fill="#A979EF"/>
<ellipse cx="150.337" cy="23.2761" rx="0.594485" ry="0.768732" fill="#A979EF"/>
<ellipse cx="152.715" cy="23.2761" rx="0.594485" ry="0.768732" fill="#A979EF"/>
<ellipse cx="155.094" cy="23.2761" rx="0.594485" ry="0.768732" fill="#A979EF"/>
<ellipse cx="157.468" cy="23.2761" rx="0.594485" ry="0.768732" fill="#A979EF"/>
<ellipse cx="159.847" cy="23.2761" rx="0.594485" ry="0.768732" fill="#A979EF"/>
<ellipse cx="162.225" cy="23.2761" rx="0.594485" ry="0.768732" fill="#A979EF"/>
<ellipse cx="164.604" cy="23.2761" rx="0.594485" ry="0.768732" fill="#A979EF"/>
<ellipse cx="166.982" cy="23.2761" rx="0.594485" ry="0.768732" fill="#A979EF"/>
<ellipse cx="169.36" cy="23.2761" rx="0.594485" ry="0.768732" fill="#A979EF"/>
<ellipse cx="171.739" cy="23.2761" rx="0.594485" ry="0.768732" fill="#A979EF"/>
<ellipse cx="174.115" cy="23.2761" rx="0.594485" ry="0.768732" fill="#A979EF"/>
<ellipse cx="176.492" cy="23.2761" rx="0.594485" ry="0.768732" fill="#A979EF"/>
<ellipse cx="178.871" cy="23.2761" rx="0.594485" ry="0.768732" fill="#A979EF"/>
<ellipse cx="181.249" cy="23.2761" rx="0.594485" ry="0.768732" fill="#A979EF"/>
<ellipse cx="183.628" cy="23.2761" rx="0.594485" ry="0.768732" fill="#A979EF"/>
<ellipse cx="186.006" cy="23.2761" rx="0.594485" ry="0.768732" fill="#A979EF"/>
<ellipse cx="188.384" cy="23.2761" rx="0.594485" ry="0.768732" fill="#A979EF"/>
<ellipse cx="190.762" cy="23.2761" rx="0.594485" ry="0.768732" fill="#A979EF"/>
<ellipse cx="193.137" cy="23.2761" rx="0.594485" ry="0.768732" fill="#A979EF"/>
<ellipse cx="195.516" cy="23.2761" rx="0.594485" ry="0.768732" fill="#A979EF"/>
<ellipse cx="197.894" cy="23.2761" rx="0.594485" ry="0.768732" fill="#A979EF"/>
<ellipse cx="200.271" cy="23.2761" rx="0.594485" ry="0.768732" fill="#A979EF"/>
<ellipse cx="202.651" cy="23.2761" rx="0.594485" ry="0.768732" fill="#A979EF"/>
<ellipse cx="205.028" cy="23.2761" rx="0.594485" ry="0.768732" fill="#A979EF"/>
<ellipse cx="207.406" cy="23.2761" rx="0.594485" ry="0.768732" fill="#A979EF"/>
<ellipse cx="105.155" cy="26.3513" rx="0.594485" ry="0.768732" fill="#A979EF"/>
<ellipse cx="107.532" cy="26.3513" rx="0.594485" ry="0.768732" fill="#A979EF"/>
<ellipse cx="109.912" cy="26.3513" rx="0.594485" ry="0.768732" fill="#A979EF"/>
<ellipse cx="112.289" cy="26.3513" rx="0.594485" ry="0.768732" fill="#A979EF"/>
<ellipse cx="114.667" cy="26.3513" rx="0.594485" ry="0.768732" fill="#A979EF"/>
<ellipse cx="117.046" cy="26.3513" rx="0.594485" ry="0.768732" fill="#A979EF"/>
<ellipse cx="119.424" cy="26.3513" rx="0.594485" ry="0.768732" fill="#A979EF"/>
<ellipse cx="121.8" cy="26.3513" rx="0.594485" ry="0.768732" fill="#A979EF"/>
<ellipse cx="124.177" cy="26.3513" rx="0.594485" ry="0.768732" fill="#A979EF"/>
<ellipse cx="126.556" cy="26.3513" rx="0.594485" ry="0.768732" fill="#A979EF"/>
<ellipse cx="128.934" cy="26.3513" rx="0.594485" ry="0.768732" fill="#A979EF"/>
<ellipse cx="131.312" cy="26.3513" rx="0.594485" ry="0.768732" fill="#A979EF"/>
<ellipse cx="133.691" cy="26.3513" rx="0.594485" ry="0.768732" fill="#A979EF"/>
<ellipse cx="136.069" cy="26.3513" rx="0.594485" ry="0.768732" fill="#A979EF"/>
<ellipse cx="138.446" cy="26.3513" rx="0.594485" ry="0.768732" fill="#A979EF"/>
<ellipse cx="140.825" cy="26.3513" rx="0.594485" ry="0.768732" fill="#A979EF"/>
<ellipse cx="143.203" cy="26.3513" rx="0.594485" ry="0.768732" fill="#A979EF"/>
<ellipse cx="145.58" cy="26.3513" rx="0.594485" ry="0.768732" fill="#A979EF"/>
<ellipse cx="147.96" cy="26.3513" rx="0.594485" ry="0.768732" fill="#A979EF"/>
<ellipse cx="150.337" cy="26.3513" rx="0.594485" ry="0.768732" fill="#A979EF"/>
<ellipse cx="152.715" cy="26.3513" rx="0.594485" ry="0.768732" fill="#A979EF"/>
<ellipse cx="155.094" cy="26.3513" rx="0.594485" ry="0.768732" fill="#A979EF"/>
<ellipse cx="157.468" cy="26.3513" rx="0.594485" ry="0.768732" fill="#A979EF"/>
<ellipse cx="159.847" cy="26.3513" rx="0.594485" ry="0.768732" fill="#A979EF"/>
<ellipse cx="162.225" cy="26.3513" rx="0.594485" ry="0.768732" fill="#A979EF"/>
<ellipse cx="164.604" cy="26.3513" rx="0.594485" ry="0.768732" fill="#A979EF"/>
<ellipse cx="166.982" cy="26.3513" rx="0.594485" ry="0.768732" fill="#A979EF"/>
<ellipse cx="169.36" cy="26.3513" rx="0.594485" ry="0.768732" fill="#A979EF"/>
<ellipse cx="171.739" cy="26.3513" rx="0.594485" ry="0.768732" fill="#A979EF"/>
<ellipse cx="174.115" cy="26.3513" rx="0.594485" ry="0.768732" fill="#A979EF"/>
<ellipse cx="176.492" cy="26.3513" rx="0.594485" ry="0.768732" fill="#A979EF"/>
<ellipse cx="178.871" cy="26.3513" rx="0.594485" ry="0.768732" fill="#A979EF"/>
<ellipse cx="181.249" cy="26.3513" rx="0.594485" ry="0.768732" fill="#A979EF"/>
<ellipse cx="183.628" cy="26.3513" rx="0.594485" ry="0.768732" fill="#A979EF"/>
<ellipse cx="186.006" cy="26.3513" rx="0.594485" ry="0.768732" fill="#A979EF"/>
<ellipse cx="188.384" cy="26.3513" rx="0.594485" ry="0.768732" fill="#A979EF"/>
<ellipse cx="190.762" cy="26.3513" rx="0.594485" ry="0.768732" fill="#A979EF"/>
<ellipse cx="193.137" cy="26.3513" rx="0.594485" ry="0.768732" fill="#A979EF"/>
<ellipse cx="195.516" cy="26.3513" rx="0.594485" ry="0.768732" fill="#A979EF"/>
<ellipse cx="197.894" cy="26.3513" rx="0.594485" ry="0.768732" fill="#A979EF"/>
<ellipse cx="200.271" cy="26.3513" rx="0.594485" ry="0.768732" fill="#A979EF"/>
<ellipse cx="202.651" cy="26.3513" rx="0.594485" ry="0.768732" fill="#A979EF"/>
<ellipse cx="205.028" cy="26.3513" rx="0.594485" ry="0.768732" fill="#A979EF"/>
<ellipse cx="207.406" cy="26.3513" rx="0.594485" ry="0.768732" fill="#A979EF"/>
<ellipse cx="105.155" cy="29.4264" rx="0.594485" ry="0.768732" fill="#A979EF"/>
<ellipse cx="107.532" cy="29.4264" rx="0.594485" ry="0.768732" fill="#A979EF"/>
<ellipse cx="109.912" cy="29.4264" rx="0.594485" ry="0.768732" fill="#A979EF"/>
<ellipse cx="112.289" cy="29.4264" rx="0.594485" ry="0.768732" fill="#A979EF"/>
<ellipse cx="114.667" cy="29.4264" rx="0.594485" ry="0.768732" fill="#A979EF"/>
<ellipse cx="117.046" cy="29.4264" rx="0.594485" ry="0.768732" fill="#A979EF"/>
<ellipse cx="119.424" cy="29.4264" rx="0.594485" ry="0.768732" fill="#A979EF"/>
<ellipse cx="121.8" cy="29.4264" rx="0.594485" ry="0.768732" fill="#A979EF"/>
<ellipse cx="124.177" cy="29.4264" rx="0.594485" ry="0.768732" fill="#A979EF"/>
<ellipse cx="126.556" cy="29.4264" rx="0.594485" ry="0.768732" fill="#A979EF"/>
<ellipse cx="128.934" cy="29.4264" rx="0.594485" ry="0.768732" fill="#A979EF"/>
<ellipse cx="131.312" cy="29.4264" rx="0.594485" ry="0.768732" fill="#A979EF"/>
<ellipse cx="133.691" cy="29.4264" rx="0.594485" ry="0.768732" fill="#A979EF"/>
<ellipse cx="136.069" cy="29.4264" rx="0.594485" ry="0.768732" fill="#A979EF"/>
<ellipse cx="138.446" cy="29.4264" rx="0.594485" ry="0.768732" fill="#A979EF"/>
<ellipse cx="140.825" cy="29.4264" rx="0.594485" ry="0.768732" fill="#A979EF"/>
<ellipse cx="143.203" cy="29.4264" rx="0.594485" ry="0.768732" fill="#A979EF"/>
<ellipse cx="145.58" cy="29.4264" rx="0.594485" ry="0.768732" fill="#A979EF"/>
<ellipse cx="147.96" cy="29.4264" rx="0.594485" ry="0.768732" fill="#A979EF"/>
<ellipse cx="150.337" cy="29.4264" rx="0.594485" ry="0.768732" fill="#A979EF"/>
<ellipse cx="152.715" cy="29.4264" rx="0.594485" ry="0.768732" fill="#A979EF"/>
<ellipse cx="155.094" cy="29.4264" rx="0.594485" ry="0.768732" fill="#A979EF"/>
<ellipse cx="157.468" cy="29.4264" rx="0.594485" ry="0.768732" fill="#A979EF"/>
<ellipse cx="159.847" cy="29.4264" rx="0.594485" ry="0.768732" fill="#A979EF"/>
<ellipse cx="162.225" cy="29.4264" rx="0.594485" ry="0.768732" fill="#A979EF"/>
<ellipse cx="164.604" cy="29.4264" rx="0.594485" ry="0.768732" fill="#A979EF"/>
<ellipse cx="166.982" cy="29.4264" rx="0.594485" ry="0.768732" fill="#A979EF"/>
<ellipse cx="169.36" cy="29.4264" rx="0.594485" ry="0.768732" fill="#A979EF"/>
<ellipse cx="171.739" cy="29.4264" rx="0.594485" ry="0.768732" fill="#A979EF"/>
<ellipse cx="174.115" cy="29.4264" rx="0.594485" ry="0.768732" fill="#A979EF"/>
<ellipse cx="176.492" cy="29.4264" rx="0.594485" ry="0.768732" fill="#A979EF"/>
<ellipse cx="178.871" cy="29.4264" rx="0.594485" ry="0.768732" fill="#A979EF"/>
<ellipse cx="181.249" cy="29.4264" rx="0.594485" ry="0.768732" fill="#A979EF"/>
<ellipse cx="183.628" cy="29.4264" rx="0.594485" ry="0.768732" fill="#A979EF"/>
<ellipse cx="186.006" cy="29.4264" rx="0.594485" ry="0.768732" fill="#A979EF"/>
<ellipse cx="188.384" cy="29.4264" rx="0.594485" ry="0.768732" fill="#A979EF"/>
<ellipse cx="190.762" cy="29.4264" rx="0.594485" ry="0.768732" fill="#A979EF"/>
<ellipse cx="193.137" cy="29.4264" rx="0.594485" ry="0.768732" fill="#A979EF"/>
<ellipse cx="195.516" cy="29.4264" rx="0.594485" ry="0.768732" fill="#A979EF"/>
<ellipse cx="197.894" cy="29.4264" rx="0.594485" ry="0.768732" fill="#A979EF"/>
<ellipse cx="200.271" cy="29.4264" rx="0.594485" ry="0.768732" fill="#A979EF"/>
<ellipse cx="202.651" cy="29.4264" rx="0.594485" ry="0.768732" fill="#A979EF"/>
<ellipse cx="205.028" cy="29.4264" rx="0.594485" ry="0.768732" fill="#A979EF"/>
<ellipse cx="207.406" cy="29.4264" rx="0.594485" ry="0.768732" fill="#A979EF"/>
<ellipse cx="105.155" cy="32.5016" rx="0.594485" ry="0.768732" fill="#A979EF"/>
<ellipse cx="107.532" cy="32.5016" rx="0.594485" ry="0.768732" fill="#A979EF"/>
<ellipse cx="109.912" cy="32.5016" rx="0.594485" ry="0.768732" fill="#A979EF"/>
<ellipse cx="112.289" cy="32.5016" rx="0.594485" ry="0.768732" fill="#A979EF"/>
<ellipse cx="114.667" cy="32.5016" rx="0.594485" ry="0.768732" fill="#A979EF"/>
<ellipse cx="117.046" cy="32.5016" rx="0.594485" ry="0.768732" fill="#A979EF"/>
<ellipse cx="119.424" cy="32.5016" rx="0.594485" ry="0.768732" fill="#A979EF"/>
<ellipse cx="121.8" cy="32.5016" rx="0.594485" ry="0.768732" fill="#A979EF"/>
<ellipse cx="124.177" cy="32.5016" rx="0.594485" ry="0.768732" fill="#A979EF"/>
<ellipse cx="126.556" cy="32.5016" rx="0.594485" ry="0.768732" fill="#A979EF"/>
<ellipse cx="128.934" cy="32.5016" rx="0.594485" ry="0.768732" fill="#A979EF"/>
<ellipse cx="131.312" cy="32.5016" rx="0.594485" ry="0.768732" fill="#A979EF"/>
<ellipse cx="133.691" cy="32.5016" rx="0.594485" ry="0.768732" fill="#A979EF"/>
<ellipse cx="136.069" cy="32.5016" rx="0.594485" ry="0.768732" fill="#A979EF"/>
<ellipse cx="138.446" cy="32.5016" rx="0.594485" ry="0.768732" fill="#A979EF"/>
<ellipse cx="140.825" cy="32.5016" rx="0.594485" ry="0.768732" fill="#A979EF"/>
<ellipse cx="143.203" cy="32.5016" rx="0.594485" ry="0.768732" fill="#A979EF"/>
<ellipse cx="145.58" cy="32.5016" rx="0.594485" ry="0.768732" fill="#A979EF"/>
<ellipse cx="147.96" cy="32.5016" rx="0.594485" ry="0.768732" fill="#A979EF"/>
<ellipse cx="150.337" cy="32.5016" rx="0.594485" ry="0.768732" fill="#A979EF"/>
<ellipse cx="152.715" cy="32.5016" rx="0.594485" ry="0.768732" fill="#A979EF"/>
<ellipse cx="155.094" cy="32.5016" rx="0.594485" ry="0.768732" fill="#A979EF"/>
<ellipse cx="157.468" cy="32.5016" rx="0.594485" ry="0.768732" fill="#A979EF"/>
<ellipse cx="159.847" cy="32.5016" rx="0.594485" ry="0.768732" fill="#A979EF"/>
<ellipse cx="162.225" cy="32.5016" rx="0.594485" ry="0.768732" fill="#A979EF"/>
<ellipse cx="164.604" cy="32.5016" rx="0.594485" ry="0.768732" fill="#A979EF"/>
<ellipse cx="166.982" cy="32.5016" rx="0.594485" ry="0.768732" fill="#A979EF"/>
<ellipse cx="169.36" cy="32.5016" rx="0.594485" ry="0.768732" fill="#A979EF"/>
<ellipse cx="171.739" cy="32.5016" rx="0.594485" ry="0.768732" fill="#A979EF"/>
<ellipse cx="174.115" cy="32.5016" rx="0.594485" ry="0.768732" fill="#A979EF"/>
<ellipse cx="176.492" cy="32.5016" rx="0.594485" ry="0.768732" fill="#A979EF"/>
<ellipse cx="178.871" cy="32.5016" rx="0.594485" ry="0.768732" fill="#A979EF"/>
<ellipse cx="181.249" cy="32.5016" rx="0.594485" ry="0.768732" fill="#A979EF"/>
<ellipse cx="183.628" cy="32.5016" rx="0.594485" ry="0.768732" fill="#A979EF"/>
<ellipse cx="186.006" cy="32.5016" rx="0.594485" ry="0.768732" fill="#A979EF"/>
<ellipse cx="188.384" cy="32.5016" rx="0.594485" ry="0.768732" fill="#A979EF"/>
<ellipse cx="190.762" cy="32.5016" rx="0.594485" ry="0.768732" fill="#A979EF"/>
<ellipse cx="193.137" cy="32.5016" rx="0.594485" ry="0.768732" fill="#A979EF"/>
<ellipse cx="195.516" cy="32.5016" rx="0.594485" ry="0.768732" fill="#A979EF"/>
<ellipse cx="197.894" cy="32.5016" rx="0.594485" ry="0.768732" fill="#A979EF"/>
<ellipse cx="200.271" cy="32.5016" rx="0.594485" ry="0.768732" fill="#A979EF"/>
<ellipse cx="202.651" cy="32.5016" rx="0.594485" ry="0.768732" fill="#A979EF"/>
<ellipse cx="205.028" cy="32.5016" rx="0.594485" ry="0.768732" fill="#A979EF"/>
<ellipse cx="207.406" cy="32.5016" rx="0.594485" ry="0.768732" fill="#A979EF"/>
<ellipse cx="105.155" cy="35.5754" rx="0.594485" ry="0.768732" fill="#A979EF"/>
<ellipse cx="107.532" cy="35.5754" rx="0.594485" ry="0.768732" fill="#A979EF"/>
<ellipse cx="109.912" cy="35.5754" rx="0.594485" ry="0.768732" fill="#A979EF"/>
<ellipse cx="112.289" cy="35.5754" rx="0.594485" ry="0.768732" fill="#A979EF"/>
<ellipse cx="114.667" cy="35.5754" rx="0.594485" ry="0.768732" fill="#A979EF"/>
<ellipse cx="117.046" cy="35.5754" rx="0.594485" ry="0.768732" fill="#A979EF"/>
<ellipse cx="119.424" cy="35.5754" rx="0.594485" ry="0.768732" fill="#A979EF"/>
<ellipse cx="121.8" cy="35.5754" rx="0.594485" ry="0.768732" fill="#A979EF"/>
<ellipse cx="124.177" cy="35.5754" rx="0.594485" ry="0.768732" fill="#A979EF"/>
<ellipse cx="126.556" cy="35.5754" rx="0.594485" ry="0.768732" fill="#A979EF"/>
<ellipse cx="128.934" cy="35.5754" rx="0.594485" ry="0.768732" fill="#A979EF"/>
<ellipse cx="131.312" cy="35.5754" rx="0.594485" ry="0.768732" fill="#A979EF"/>
<ellipse cx="133.691" cy="35.5754" rx="0.594485" ry="0.768732" fill="#A979EF"/>
<ellipse cx="136.069" cy="35.5754" rx="0.594485" ry="0.768732" fill="#A979EF"/>
<ellipse cx="138.446" cy="35.5754" rx="0.594485" ry="0.768732" fill="#A979EF"/>
<ellipse cx="140.825" cy="35.5754" rx="0.594485" ry="0.768732" fill="#A979EF"/>
<ellipse cx="143.203" cy="35.5754" rx="0.594485" ry="0.768732" fill="#A979EF"/>
<ellipse cx="145.58" cy="35.5754" rx="0.594485" ry="0.768732" fill="#A979EF"/>
<ellipse cx="147.96" cy="35.5754" rx="0.594485" ry="0.768732" fill="#A979EF"/>
<ellipse cx="150.337" cy="35.5754" rx="0.594485" ry="0.768732" fill="#A979EF"/>
<ellipse cx="152.715" cy="35.5754" rx="0.594485" ry="0.768732" fill="#A979EF"/>
<ellipse cx="155.094" cy="35.5754" rx="0.594485" ry="0.768732" fill="#A979EF"/>
<ellipse cx="157.468" cy="35.5754" rx="0.594485" ry="0.768732" fill="#A979EF"/>
<ellipse cx="159.847" cy="35.5754" rx="0.594485" ry="0.768732" fill="#A979EF"/>
<ellipse cx="162.225" cy="35.5754" rx="0.594485" ry="0.768732" fill="#A979EF"/>
<ellipse cx="164.604" cy="35.5754" rx="0.594485" ry="0.768732" fill="#A979EF"/>
<ellipse cx="166.982" cy="35.5754" rx="0.594485" ry="0.768732" fill="#A979EF"/>
<ellipse cx="169.36" cy="35.5754" rx="0.594485" ry="0.768732" fill="#A979EF"/>
<ellipse cx="171.739" cy="35.5754" rx="0.594485" ry="0.768732" fill="#A979EF"/>
<ellipse cx="174.115" cy="35.5754" rx="0.594485" ry="0.768732" fill="#A979EF"/>
<ellipse cx="176.492" cy="35.5754" rx="0.594485" ry="0.768732" fill="#A979EF"/>
<ellipse cx="178.871" cy="35.5754" rx="0.594485" ry="0.768732" fill="#A979EF"/>
<ellipse cx="181.249" cy="35.5754" rx="0.594485" ry="0.768732" fill="#A979EF"/>
<ellipse cx="183.628" cy="35.5754" rx="0.594485" ry="0.768732" fill="#A979EF"/>
<ellipse cx="186.006" cy="35.5754" rx="0.594485" ry="0.768732" fill="#A979EF"/>
<ellipse cx="188.384" cy="35.5754" rx="0.594485" ry="0.768732" fill="#A979EF"/>
<ellipse cx="190.762" cy="35.5754" rx="0.594485" ry="0.768732" fill="#A979EF"/>
<ellipse cx="193.137" cy="35.5754" rx="0.594485" ry="0.768732" fill="#A979EF"/>
<ellipse cx="195.516" cy="35.5754" rx="0.594485" ry="0.768732" fill="#A979EF"/>
<ellipse cx="197.894" cy="35.5754" rx="0.594485" ry="0.768732" fill="#A979EF"/>
<ellipse cx="200.271" cy="35.5754" rx="0.594485" ry="0.768732" fill="#A979EF"/>
<ellipse cx="202.651" cy="35.5754" rx="0.594485" ry="0.768732" fill="#A979EF"/>
<ellipse cx="205.028" cy="35.5754" rx="0.594485" ry="0.768732" fill="#A979EF"/>
<ellipse cx="207.406" cy="35.5754" rx="0.594485" ry="0.768732" fill="#A979EF"/>
<ellipse cx="0.594485" cy="1.75164" rx="0.594485" ry="0.768732" fill="#A979EF"/>
<ellipse cx="2.97193" cy="1.75115" rx="0.594485" ry="0.768732" fill="#A979EF"/>
<ellipse cx="5.35132" cy="1.75115" rx="0.594485" ry="0.768732" fill="#A979EF"/>
<ellipse cx="7.72876" cy="1.75115" rx="0.594485" ry="0.768732" fill="#A979EF"/>
<ellipse cx="10.1062" cy="1.75115" rx="0.594485" ry="0.768732" fill="#A979EF"/>
<ellipse cx="12.4856" cy="1.75115" rx="0.594485" ry="0.768732" fill="#A979EF"/>
<ellipse cx="14.863" cy="1.75115" rx="0.594485" ry="0.768732" fill="#A979EF"/>
<ellipse cx="17.239" cy="1.75115" rx="0.594485" ry="0.768732" fill="#A979EF"/>
<ellipse cx="19.6169" cy="1.75115" rx="0.594485" ry="0.768732" fill="#A979EF"/>
<ellipse cx="21.9959" cy="1.75115" rx="0.594485" ry="0.768732" fill="#A979EF"/>
<ellipse cx="24.3733" cy="1.75115" rx="0.594485" ry="0.768732" fill="#A979EF"/>
<ellipse cx="26.7512" cy="1.75115" rx="0.594485" ry="0.768732" fill="#A979EF"/>
<ellipse cx="29.1301" cy="1.75115" rx="0.594485" ry="0.768732" fill="#A979EF"/>
<ellipse cx="31.5081" cy="1.75115" rx="0.594485" ry="0.768732" fill="#A979EF"/>
<ellipse cx="33.8855" cy="1.75115" rx="0.594485" ry="0.768732" fill="#A979EF"/>
<ellipse cx="36.2649" cy="1.75115" rx="0.594485" ry="0.768732" fill="#A979EF"/>
<ellipse cx="38.6423" cy="1.75115" rx="0.594485" ry="0.768732" fill="#A979EF"/>
<ellipse cx="41.0198" cy="1.75115" rx="0.594485" ry="0.768732" fill="#A979EF"/>
<ellipse cx="43.3992" cy="1.75115" rx="0.594485" ry="0.768732" fill="#A979EF"/>
<ellipse cx="45.7766" cy="1.75115" rx="0.594485" ry="0.768732" fill="#A979EF"/>
<ellipse cx="48.1541" cy="1.75115" rx="0.594485" ry="0.768732" fill="#A979EF"/>
<ellipse cx="50.5335" cy="1.75115" rx="0.594485" ry="0.768732" fill="#A979EF"/>
<ellipse cx="52.9075" cy="1.75115" rx="0.594485" ry="0.768732" fill="#A979EF"/>
<ellipse cx="55.2869" cy="1.75115" rx="0.594485" ry="0.768732" fill="#A979EF"/>
<ellipse cx="57.6643" cy="1.75115" rx="0.594485" ry="0.768732" fill="#A979EF"/>
<ellipse cx="60.0437" cy="1.75115" rx="0.594485" ry="0.768732" fill="#A979EF"/>
<ellipse cx="62.4211" cy="1.75115" rx="0.594485" ry="0.768732" fill="#A979EF"/>
<ellipse cx="64.7991" cy="1.75115" rx="0.594485" ry="0.768732" fill="#A979EF"/>
<ellipse cx="67.178" cy="1.75115" rx="0.594485" ry="0.768732" fill="#A979EF"/>
<ellipse cx="69.554" cy="1.75115" rx="0.594485" ry="0.768732" fill="#A979EF"/>
<ellipse cx="71.9314" cy="1.75115" rx="0.594485" ry="0.768732" fill="#A979EF"/>
<ellipse cx="74.3108" cy="1.75115" rx="0.594485" ry="0.768732" fill="#A979EF"/>
<ellipse cx="76.6882" cy="1.75115" rx="0.594485" ry="0.768732" fill="#A979EF"/>
<ellipse cx="79.0676" cy="1.75115" rx="0.594485" ry="0.768732" fill="#A979EF"/>
<ellipse cx="81.4451" cy="1.75115" rx="0.594485" ry="0.768732" fill="#A979EF"/>
<ellipse cx="83.823" cy="1.75115" rx="0.594485" ry="0.768732" fill="#A979EF"/>
<ellipse cx="86.2019" cy="1.75115" rx="0.594485" ry="0.768732" fill="#A979EF"/>
<ellipse cx="88.5764" cy="1.75115" rx="0.594485" ry="0.768732" fill="#A979EF"/>
<ellipse cx="90.9553" cy="1.75115" rx="0.594485" ry="0.768732" fill="#A979EF"/>
<ellipse cx="93.3333" cy="1.75115" rx="0.594485" ry="0.768732" fill="#A979EF"/>
<ellipse cx="95.7107" cy="1.75115" rx="0.594485" ry="0.768732" fill="#A979EF"/>
<ellipse cx="98.0901" cy="1.75115" rx="0.594485" ry="0.768732" fill="#A979EF"/>
<ellipse cx="100.468" cy="1.75115" rx="0.594485" ry="0.768732" fill="#A979EF"/>
<ellipse cx="102.845" cy="1.75115" rx="0.594485" ry="0.768732" fill="#A979EF"/>
<ellipse cx="0.594485" cy="4.82635" rx="0.594485" ry="0.768732" fill="#A979EF"/>
<ellipse cx="2.97193" cy="4.82635" rx="0.594485" ry="0.768732" fill="#A979EF"/>
<ellipse cx="5.35132" cy="4.82635" rx="0.594485" ry="0.768732" fill="#A979EF"/>
<ellipse cx="7.72876" cy="4.82635" rx="0.594485" ry="0.768732" fill="#A979EF"/>
<ellipse cx="10.1062" cy="4.82635" rx="0.594485" ry="0.768732" fill="#A979EF"/>
<ellipse cx="12.4856" cy="4.82635" rx="0.594485" ry="0.768732" fill="#A979EF"/>
<ellipse cx="14.863" cy="4.82635" rx="0.594485" ry="0.768732" fill="#A979EF"/>
<ellipse cx="17.239" cy="4.82635" rx="0.594485" ry="0.768732" fill="#A979EF"/>
<ellipse cx="19.6169" cy="4.82635" rx="0.594485" ry="0.768732" fill="#A979EF"/>
<ellipse cx="21.9959" cy="4.82635" rx="0.594485" ry="0.768732" fill="#A979EF"/>
<ellipse cx="24.3733" cy="4.82635" rx="0.594485" ry="0.768732" fill="#A979EF"/>
<ellipse cx="26.7512" cy="4.82635" rx="0.594485" ry="0.768732" fill="#A979EF"/>
<ellipse cx="29.1301" cy="4.82635" rx="0.594485" ry="0.768732" fill="#A979EF"/>
<ellipse cx="31.5081" cy="4.82635" rx="0.594485" ry="0.768732" fill="#A979EF"/>
<ellipse cx="33.8855" cy="4.82635" rx="0.594485" ry="0.768732" fill="#A979EF"/>
<ellipse cx="36.2649" cy="4.82635" rx="0.594485" ry="0.768732" fill="#A979EF"/>
<ellipse cx="38.6423" cy="4.82635" rx="0.594485" ry="0.768732" fill="#A979EF"/>
<ellipse cx="41.0198" cy="4.82635" rx="0.594485" ry="0.768732" fill="#A979EF"/>
<ellipse cx="43.3992" cy="4.82635" rx="0.594485" ry="0.768732" fill="#A979EF"/>
<ellipse cx="45.7766" cy="4.82635" rx="0.594485" ry="0.768732" fill="#A979EF"/>
<ellipse cx="48.1541" cy="4.82635" rx="0.594485" ry="0.768732" fill="#A979EF"/>
<ellipse cx="50.5335" cy="4.82635" rx="0.594485" ry="0.768732" fill="#A979EF"/>
<ellipse cx="52.9075" cy="4.82635" rx="0.594485" ry="0.768732" fill="#A979EF"/>
<ellipse cx="55.2869" cy="4.82635" rx="0.594485" ry="0.768732" fill="#A979EF"/>
<ellipse cx="57.6643" cy="4.82635" rx="0.594485" ry="0.768732" fill="#A979EF"/>
<ellipse cx="60.0437" cy="4.82635" rx="0.594485" ry="0.768732" fill="#A979EF"/>
<ellipse cx="62.4211" cy="4.82635" rx="0.594485" ry="0.768732" fill="#A979EF"/>
<ellipse cx="64.7991" cy="4.82635" rx="0.594485" ry="0.768732" fill="#A979EF"/>
<ellipse cx="67.178" cy="4.82635" rx="0.594485" ry="0.768732" fill="#A979EF"/>
<ellipse cx="69.554" cy="4.82635" rx="0.594485" ry="0.768732" fill="#A979EF"/>
<ellipse cx="71.9314" cy="4.82635" rx="0.594485" ry="0.768732" fill="#A979EF"/>
<ellipse cx="74.3108" cy="4.82635" rx="0.594485" ry="0.768732" fill="#A979EF"/>
<ellipse cx="76.6882" cy="4.82635" rx="0.594485" ry="0.768732" fill="#A979EF"/>
<ellipse cx="79.0676" cy="4.82635" rx="0.594485" ry="0.768732" fill="#A979EF"/>
<ellipse cx="81.4451" cy="4.82635" rx="0.594485" ry="0.768732" fill="#A979EF"/>
<ellipse cx="83.823" cy="4.82635" rx="0.594485" ry="0.768732" fill="#A979EF"/>
<ellipse cx="86.2019" cy="4.82635" rx="0.594485" ry="0.768732" fill="#A979EF"/>
<ellipse cx="88.5764" cy="4.82635" rx="0.594485" ry="0.768732" fill="#A979EF"/>
<ellipse cx="90.9553" cy="4.82635" rx="0.594485" ry="0.768732" fill="#A979EF"/>
<ellipse cx="93.3333" cy="4.82635" rx="0.594485" ry="0.768732" fill="#A979EF"/>
<ellipse cx="95.7107" cy="4.82635" rx="0.594485" ry="0.768732" fill="#A979EF"/>
<ellipse cx="98.0901" cy="4.82635" rx="0.594485" ry="0.768732" fill="#A979EF"/>
<ellipse cx="100.468" cy="4.82635" rx="0.594485" ry="0.768732" fill="#A979EF"/>
<ellipse cx="102.845" cy="4.82635" rx="0.594485" ry="0.768732" fill="#A979EF"/>
<ellipse cx="0.594485" cy="7.90154" rx="0.594485" ry="0.768732" fill="#A979EF"/>
<ellipse cx="2.97193" cy="7.90154" rx="0.594485" ry="0.768732" fill="#A979EF"/>
<ellipse cx="5.35132" cy="7.90154" rx="0.594485" ry="0.768732" fill="#A979EF"/>
<ellipse cx="7.72876" cy="7.90154" rx="0.594485" ry="0.768732" fill="#A979EF"/>
<ellipse cx="10.1062" cy="7.90154" rx="0.594485" ry="0.768732" fill="#A979EF"/>
<ellipse cx="12.4856" cy="7.90154" rx="0.594485" ry="0.768732" fill="#A979EF"/>
<ellipse cx="14.863" cy="7.90154" rx="0.594485" ry="0.768732" fill="#A979EF"/>
<ellipse cx="17.239" cy="7.90154" rx="0.594485" ry="0.768732" fill="#A979EF"/>
<ellipse cx="19.6169" cy="7.90154" rx="0.594485" ry="0.768732" fill="#A979EF"/>
<ellipse cx="21.9959" cy="7.90154" rx="0.594485" ry="0.768732" fill="#A979EF"/>
<ellipse cx="24.3733" cy="7.90154" rx="0.594485" ry="0.768732" fill="#A979EF"/>
<ellipse cx="26.7512" cy="7.90154" rx="0.594485" ry="0.768732" fill="#A979EF"/>
<ellipse cx="29.1301" cy="7.90154" rx="0.594485" ry="0.768732" fill="#A979EF"/>
<ellipse cx="31.5081" cy="7.90154" rx="0.594485" ry="0.768732" fill="#A979EF"/>
<ellipse cx="33.8855" cy="7.90154" rx="0.594485" ry="0.768732" fill="#A979EF"/>
<ellipse cx="36.2649" cy="7.90154" rx="0.594485" ry="0.768732" fill="#A979EF"/>
<ellipse cx="38.6423" cy="7.90154" rx="0.594485" ry="0.768732" fill="#A979EF"/>
<ellipse cx="41.0198" cy="7.90154" rx="0.594485" ry="0.768732" fill="#A979EF"/>
<ellipse cx="43.3992" cy="7.90154" rx="0.594485" ry="0.768732" fill="#A979EF"/>
<ellipse cx="45.7766" cy="7.90154" rx="0.594485" ry="0.768732" fill="#A979EF"/>
<ellipse cx="48.1541" cy="7.90154" rx="0.594485" ry="0.768732" fill="#A979EF"/>
<ellipse cx="50.5335" cy="7.90154" rx="0.594485" ry="0.768732" fill="#A979EF"/>
<ellipse cx="52.9075" cy="7.90154" rx="0.594485" ry="0.768732" fill="#A979EF"/>
<ellipse cx="55.2869" cy="7.90154" rx="0.594485" ry="0.768732" fill="#A979EF"/>
<ellipse cx="57.6643" cy="7.90154" rx="0.594485" ry="0.768732" fill="#A979EF"/>
<ellipse cx="60.0437" cy="7.90154" rx="0.594485" ry="0.768732" fill="#A979EF"/>
<ellipse cx="62.4211" cy="7.90154" rx="0.594485" ry="0.768732" fill="#A979EF"/>
<ellipse cx="64.7991" cy="7.90154" rx="0.594485" ry="0.768732" fill="#A979EF"/>
<ellipse cx="67.178" cy="7.90154" rx="0.594485" ry="0.768732" fill="#A979EF"/>
<ellipse cx="69.554" cy="7.90154" rx="0.594485" ry="0.768732" fill="#A979EF"/>
<ellipse cx="71.9314" cy="7.90154" rx="0.594485" ry="0.768732" fill="#A979EF"/>
<ellipse cx="74.3108" cy="7.90154" rx="0.594485" ry="0.768732" fill="#A979EF"/>
<ellipse cx="76.6882" cy="7.90154" rx="0.594485" ry="0.768732" fill="#A979EF"/>
<ellipse cx="79.0676" cy="7.90154" rx="0.594485" ry="0.768732" fill="#A979EF"/>
<ellipse cx="81.4451" cy="7.90154" rx="0.594485" ry="0.768732" fill="#A979EF"/>
<ellipse cx="83.823" cy="7.90154" rx="0.594485" ry="0.768732" fill="#A979EF"/>
<ellipse cx="86.2019" cy="7.90154" rx="0.594485" ry="0.768732" fill="#A979EF"/>
<ellipse cx="88.5764" cy="7.90154" rx="0.594485" ry="0.768732" fill="#A979EF"/>
<ellipse cx="90.9553" cy="7.90154" rx="0.594485" ry="0.768732" fill="#A979EF"/>
<ellipse cx="93.3333" cy="7.90154" rx="0.594485" ry="0.768732" fill="#A979EF"/>
<ellipse cx="95.7107" cy="7.90154" rx="0.594485" ry="0.768732" fill="#A979EF"/>
<ellipse cx="98.0901" cy="7.90154" rx="0.594485" ry="0.768732" fill="#A979EF"/>
<ellipse cx="100.468" cy="7.90154" rx="0.594485" ry="0.768732" fill="#A979EF"/>
<ellipse cx="102.845" cy="7.90154" rx="0.594485" ry="0.768732" fill="#A979EF"/>
<ellipse cx="0.594485" cy="10.9767" rx="0.594485" ry="0.768732" fill="#A979EF"/>
<ellipse cx="2.97193" cy="10.9767" rx="0.594485" ry="0.768732" fill="#A979EF"/>
<ellipse cx="5.35132" cy="10.9767" rx="0.594485" ry="0.768732" fill="#A979EF"/>
<ellipse cx="7.72876" cy="10.9767" rx="0.594485" ry="0.768732" fill="#A979EF"/>
<ellipse cx="10.1062" cy="10.9767" rx="0.594485" ry="0.768732" fill="#A979EF"/>
<ellipse cx="12.4856" cy="10.9767" rx="0.594485" ry="0.768732" fill="#A979EF"/>
<ellipse cx="14.863" cy="10.9767" rx="0.594485" ry="0.768732" fill="#A979EF"/>
<ellipse cx="17.239" cy="10.9767" rx="0.594485" ry="0.768732" fill="#A979EF"/>
<ellipse cx="19.6169" cy="10.9767" rx="0.594485" ry="0.768732" fill="#A979EF"/>
<ellipse cx="21.9959" cy="10.9767" rx="0.594485" ry="0.768732" fill="#A979EF"/>
<ellipse cx="24.3733" cy="10.9767" rx="0.594485" ry="0.768732" fill="#A979EF"/>
<ellipse cx="26.7512" cy="10.9767" rx="0.594485" ry="0.768732" fill="#A979EF"/>
<ellipse cx="29.1301" cy="10.9767" rx="0.594485" ry="0.768732" fill="#A979EF"/>
<ellipse cx="31.5081" cy="10.9767" rx="0.594485" ry="0.768732" fill="#A979EF"/>
<ellipse cx="33.8855" cy="10.9767" rx="0.594485" ry="0.768732" fill="#A979EF"/>
<ellipse cx="36.2649" cy="10.9767" rx="0.594485" ry="0.768732" fill="#A979EF"/>
<ellipse cx="38.6423" cy="10.9767" rx="0.594485" ry="0.768732" fill="#A979EF"/>
<ellipse cx="41.0198" cy="10.9767" rx="0.594485" ry="0.768732" fill="#A979EF"/>
<ellipse cx="43.3992" cy="10.9767" rx="0.594485" ry="0.768732" fill="#A979EF"/>
<ellipse cx="45.7766" cy="10.9767" rx="0.594485" ry="0.768732" fill="#A979EF"/>
<ellipse cx="48.1541" cy="10.9767" rx="0.594485" ry="0.768732" fill="#A979EF"/>
<ellipse cx="50.5335" cy="10.9767" rx="0.594485" ry="0.768732" fill="#A979EF"/>
<ellipse cx="52.9075" cy="10.9767" rx="0.594485" ry="0.768732" fill="#A979EF"/>
<ellipse cx="55.2869" cy="10.9767" rx="0.594485" ry="0.768732" fill="#A979EF"/>
<ellipse cx="57.6643" cy="10.9767" rx="0.594485" ry="0.768732" fill="#A979EF"/>
<ellipse cx="60.0437" cy="10.9767" rx="0.594485" ry="0.768732" fill="#A979EF"/>
<ellipse cx="62.4211" cy="10.9767" rx="0.594485" ry="0.768732" fill="#A979EF"/>
<ellipse cx="64.7991" cy="10.9767" rx="0.594485" ry="0.768732" fill="#A979EF"/>
<ellipse cx="67.178" cy="10.9767" rx="0.594485" ry="0.768732" fill="#A979EF"/>
<ellipse cx="69.554" cy="10.9767" rx="0.594485" ry="0.768732" fill="#A979EF"/>
<ellipse cx="71.9314" cy="10.9767" rx="0.594485" ry="0.768732" fill="#A979EF"/>
<ellipse cx="74.3108" cy="10.9767" rx="0.594485" ry="0.768732" fill="#A979EF"/>
<ellipse cx="76.6882" cy="10.9767" rx="0.594485" ry="0.768732" fill="#A979EF"/>
<ellipse cx="79.0676" cy="10.9767" rx="0.594485" ry="0.768732" fill="#A979EF"/>
<ellipse cx="81.4451" cy="10.9767" rx="0.594485" ry="0.768732" fill="#A979EF"/>
<ellipse cx="83.823" cy="10.9767" rx="0.594485" ry="0.768732" fill="#A979EF"/>
<ellipse cx="86.2019" cy="10.9767" rx="0.594485" ry="0.768732" fill="#A979EF"/>
<ellipse cx="88.5764" cy="10.9767" rx="0.594485" ry="0.768732" fill="#A979EF"/>
<ellipse cx="90.9553" cy="10.9767" rx="0.594485" ry="0.768732" fill="#A979EF"/>
<ellipse cx="93.3333" cy="10.9767" rx="0.594485" ry="0.768732" fill="#A979EF"/>
<ellipse cx="95.7107" cy="10.9767" rx="0.594485" ry="0.768732" fill="#A979EF"/>
<ellipse cx="98.0901" cy="10.9767" rx="0.594485" ry="0.768732" fill="#A979EF"/>
<ellipse cx="100.468" cy="10.9767" rx="0.594485" ry="0.768732" fill="#A979EF"/>
<ellipse cx="102.845" cy="10.9767" rx="0.594485" ry="0.768732" fill="#A979EF"/>
<ellipse cx="0.594485" cy="14.0505" rx="0.594485" ry="0.768732" fill="#A979EF"/>
<ellipse cx="2.97193" cy="14.0505" rx="0.594485" ry="0.768732" fill="#A979EF"/>
<ellipse cx="5.35132" cy="14.0505" rx="0.594485" ry="0.768732" fill="#A979EF"/>
<ellipse cx="7.72876" cy="14.0505" rx="0.594485" ry="0.768732" fill="#A979EF"/>
<ellipse cx="10.1062" cy="14.0505" rx="0.594485" ry="0.768732" fill="#A979EF"/>
<ellipse cx="12.4856" cy="14.0505" rx="0.594485" ry="0.768732" fill="#A979EF"/>
<ellipse cx="14.863" cy="14.0505" rx="0.594485" ry="0.768732" fill="#A979EF"/>
<ellipse cx="17.239" cy="14.0505" rx="0.594485" ry="0.768732" fill="#A979EF"/>
<ellipse cx="19.6169" cy="14.0505" rx="0.594485" ry="0.768732" fill="#A979EF"/>
<ellipse cx="21.9959" cy="14.0505" rx="0.594485" ry="0.768732" fill="#A979EF"/>
<ellipse cx="24.3733" cy="14.0505" rx="0.594485" ry="0.768732" fill="#A979EF"/>
<ellipse cx="26.7512" cy="14.0505" rx="0.594485" ry="0.768732" fill="#A979EF"/>
<ellipse cx="29.1301" cy="14.0505" rx="0.594485" ry="0.768732" fill="#A979EF"/>
<ellipse cx="31.5081" cy="14.0505" rx="0.594485" ry="0.768732" fill="#A979EF"/>
<ellipse cx="33.8855" cy="14.0505" rx="0.594485" ry="0.768732" fill="#A979EF"/>
<ellipse cx="36.2649" cy="14.0505" rx="0.594485" ry="0.768732" fill="#A979EF"/>
<ellipse cx="38.6423" cy="14.0505" rx="0.594485" ry="0.768732" fill="#A979EF"/>
<ellipse cx="41.0198" cy="14.0505" rx="0.594485" ry="0.768732" fill="#A979EF"/>
<ellipse cx="43.3992" cy="14.0505" rx="0.594485" ry="0.768732" fill="#A979EF"/>
<ellipse cx="45.7766" cy="14.0505" rx="0.594485" ry="0.768732" fill="#A979EF"/>
<ellipse cx="48.1541" cy="14.0505" rx="0.594485" ry="0.768732" fill="#A979EF"/>
<ellipse cx="50.5335" cy="14.0505" rx="0.594485" ry="0.768732" fill="#A979EF"/>
<ellipse cx="52.9075" cy="14.0505" rx="0.594485" ry="0.768732" fill="#A979EF"/>
<ellipse cx="55.2869" cy="14.0505" rx="0.594485" ry="0.768732" fill="#A979EF"/>
<ellipse cx="57.6643" cy="14.0505" rx="0.594485" ry="0.768732" fill="#A979EF"/>
<ellipse cx="60.0437" cy="14.0505" rx="0.594485" ry="0.768732" fill="#A979EF"/>
<ellipse cx="62.4211" cy="14.0505" rx="0.594485" ry="0.768732" fill="#A979EF"/>
<ellipse cx="64.7991" cy="14.0505" rx="0.594485" ry="0.768732" fill="#A979EF"/>
<ellipse cx="67.178" cy="14.0505" rx="0.594485" ry="0.768732" fill="#A979EF"/>
<ellipse cx="69.554" cy="14.0505" rx="0.594485" ry="0.768732" fill="#A979EF"/>
<ellipse cx="71.9314" cy="14.0505" rx="0.594485" ry="0.768732" fill="#A979EF"/>
<ellipse cx="74.3108" cy="14.0505" rx="0.594485" ry="0.768732" fill="#A979EF"/>
<ellipse cx="76.6882" cy="14.0505" rx="0.594485" ry="0.768732" fill="#A979EF"/>
<ellipse cx="79.0676" cy="14.0505" rx="0.594485" ry="0.768732" fill="#A979EF"/>
<ellipse cx="81.4451" cy="14.0505" rx="0.594485" ry="0.768732" fill="#A979EF"/>
<ellipse cx="83.823" cy="14.0505" rx="0.594485" ry="0.768732" fill="#A979EF"/>
<ellipse cx="86.2019" cy="14.0505" rx="0.594485" ry="0.768732" fill="#A979EF"/>
<ellipse cx="88.5764" cy="14.0505" rx="0.594485" ry="0.768732" fill="#A979EF"/>
<ellipse cx="90.9553" cy="14.0505" rx="0.594485" ry="0.768732" fill="#A979EF"/>
<ellipse cx="93.3333" cy="14.0505" rx="0.594485" ry="0.768732" fill="#A979EF"/>
<ellipse cx="95.7107" cy="14.0505" rx="0.594485" ry="0.768732" fill="#A979EF"/>
<ellipse cx="98.0901" cy="14.0505" rx="0.594485" ry="0.768732" fill="#A979EF"/>
<ellipse cx="100.468" cy="14.0505" rx="0.594485" ry="0.768732" fill="#A979EF"/>
<ellipse cx="102.845" cy="14.0505" rx="0.594485" ry="0.768732" fill="#A979EF"/>
<ellipse cx="0.594485" cy="17.1257" rx="0.594485" ry="0.768732" fill="#A979EF"/>
<ellipse cx="2.97193" cy="17.1257" rx="0.594485" ry="0.768732" fill="#A979EF"/>
<ellipse cx="5.35132" cy="17.1257" rx="0.594485" ry="0.768732" fill="#A979EF"/>
<ellipse cx="7.72876" cy="17.1257" rx="0.594485" ry="0.768732" fill="#A979EF"/>
<ellipse cx="10.1062" cy="17.1257" rx="0.594485" ry="0.768732" fill="#A979EF"/>
<ellipse cx="12.4856" cy="17.1257" rx="0.594485" ry="0.768732" fill="#A979EF"/>
<ellipse cx="14.863" cy="17.1257" rx="0.594485" ry="0.768732" fill="#A979EF"/>
<ellipse cx="17.239" cy="17.1257" rx="0.594485" ry="0.768732" fill="#A979EF"/>
<ellipse cx="19.6169" cy="17.1257" rx="0.594485" ry="0.768732" fill="#A979EF"/>
<ellipse cx="21.9959" cy="17.1257" rx="0.594485" ry="0.768732" fill="#A979EF"/>
<ellipse cx="24.3733" cy="17.1257" rx="0.594485" ry="0.768732" fill="#A979EF"/>
<ellipse cx="26.7512" cy="17.1257" rx="0.594485" ry="0.768732" fill="#A979EF"/>
<ellipse cx="29.1301" cy="17.1257" rx="0.594485" ry="0.768732" fill="#A979EF"/>
<ellipse cx="31.5081" cy="17.1257" rx="0.594485" ry="0.768732" fill="#A979EF"/>
<ellipse cx="33.8855" cy="17.1257" rx="0.594485" ry="0.768732" fill="#A979EF"/>
<ellipse cx="36.2649" cy="17.1257" rx="0.594485" ry="0.768732" fill="#A979EF"/>
<ellipse cx="38.6423" cy="17.1257" rx="0.594485" ry="0.768732" fill="#A979EF"/>
<ellipse cx="41.0198" cy="17.1257" rx="0.594485" ry="0.768732" fill="#A979EF"/>
<ellipse cx="43.3992" cy="17.1257" rx="0.594485" ry="0.768732" fill="#A979EF"/>
<ellipse cx="45.7766" cy="17.1257" rx="0.594485" ry="0.768732" fill="#A979EF"/>
<ellipse cx="48.1541" cy="17.1257" rx="0.594485" ry="0.768732" fill="#A979EF"/>
<ellipse cx="50.5335" cy="17.1257" rx="0.594485" ry="0.768732" fill="#A979EF"/>
<ellipse cx="52.9075" cy="17.1257" rx="0.594485" ry="0.768732" fill="#A979EF"/>
<ellipse cx="55.2869" cy="17.1257" rx="0.594485" ry="0.768732" fill="#A979EF"/>
<ellipse cx="57.6643" cy="17.1257" rx="0.594485" ry="0.768732" fill="#A979EF"/>
<ellipse cx="60.0437" cy="17.1257" rx="0.594485" ry="0.768732" fill="#A979EF"/>
<ellipse cx="62.4211" cy="17.1257" rx="0.594485" ry="0.768732" fill="#A979EF"/>
<ellipse cx="64.7991" cy="17.1257" rx="0.594485" ry="0.768732" fill="#A979EF"/>
<ellipse cx="67.178" cy="17.1257" rx="0.594485" ry="0.768732" fill="#A979EF"/>
<ellipse cx="69.554" cy="17.1257" rx="0.594485" ry="0.768732" fill="#A979EF"/>
<ellipse cx="71.9314" cy="17.1257" rx="0.594485" ry="0.768732" fill="#A979EF"/>
<ellipse cx="74.3108" cy="17.1257" rx="0.594485" ry="0.768732" fill="#A979EF"/>
<ellipse cx="76.6882" cy="17.1257" rx="0.594485" ry="0.768732" fill="#A979EF"/>
<ellipse cx="79.0676" cy="17.1257" rx="0.594485" ry="0.768732" fill="#A979EF"/>
<ellipse cx="81.4451" cy="17.1257" rx="0.594485" ry="0.768732" fill="#A979EF"/>
<ellipse cx="83.823" cy="17.1257" rx="0.594485" ry="0.768732" fill="#A979EF"/>
<ellipse cx="86.2019" cy="17.1257" rx="0.594485" ry="0.768732" fill="#A979EF"/>
<ellipse cx="88.5764" cy="17.1257" rx="0.594485" ry="0.768732" fill="#A979EF"/>
<ellipse cx="90.9553" cy="17.1257" rx="0.594485" ry="0.768732" fill="#A979EF"/>
<ellipse cx="93.3333" cy="17.1257" rx="0.594485" ry="0.768732" fill="#A979EF"/>
<ellipse cx="95.7107" cy="17.1257" rx="0.594485" ry="0.768732" fill="#A979EF"/>
<ellipse cx="98.0901" cy="17.1257" rx="0.594485" ry="0.768732" fill="#A979EF"/>
<ellipse cx="100.468" cy="17.1257" rx="0.594485" ry="0.768732" fill="#A979EF"/>
<ellipse cx="102.845" cy="17.1257" rx="0.594485" ry="0.768732" fill="#A979EF"/>
<ellipse cx="0.594485" cy="20.2009" rx="0.594485" ry="0.768732" fill="#A979EF"/>
<ellipse cx="2.97193" cy="20.2009" rx="0.594485" ry="0.768732" fill="#A979EF"/>
<ellipse cx="5.35132" cy="20.2009" rx="0.594485" ry="0.768732" fill="#A979EF"/>
<ellipse cx="7.72876" cy="20.2009" rx="0.594485" ry="0.768732" fill="#A979EF"/>
<ellipse cx="10.1062" cy="20.2009" rx="0.594485" ry="0.768732" fill="#A979EF"/>
<ellipse cx="12.4856" cy="20.2009" rx="0.594485" ry="0.768732" fill="#A979EF"/>
<ellipse cx="14.863" cy="20.2009" rx="0.594485" ry="0.768732" fill="#A979EF"/>
<ellipse cx="17.239" cy="20.2009" rx="0.594485" ry="0.768732" fill="#A979EF"/>
<ellipse cx="19.6169" cy="20.2009" rx="0.594485" ry="0.768732" fill="#A979EF"/>
<ellipse cx="21.9959" cy="20.2009" rx="0.594485" ry="0.768732" fill="#A979EF"/>
<ellipse cx="24.3733" cy="20.2009" rx="0.594485" ry="0.768732" fill="#A979EF"/>
<ellipse cx="26.7512" cy="20.2009" rx="0.594485" ry="0.768732" fill="#A979EF"/>
<ellipse cx="29.1301" cy="20.2009" rx="0.594485" ry="0.768732" fill="#A979EF"/>
<ellipse cx="31.5081" cy="20.2009" rx="0.594485" ry="0.768732" fill="#A979EF"/>
<ellipse cx="33.8855" cy="20.2009" rx="0.594485" ry="0.768732" fill="#A979EF"/>
<ellipse cx="36.2649" cy="20.2009" rx="0.594485" ry="0.768732" fill="#A979EF"/>
<ellipse cx="38.6423" cy="20.2009" rx="0.594485" ry="0.768732" fill="#A979EF"/>
<ellipse cx="41.0198" cy="20.2009" rx="0.594485" ry="0.768732" fill="#A979EF"/>
<ellipse cx="43.3992" cy="20.2009" rx="0.594485" ry="0.768732" fill="#A979EF"/>
<ellipse cx="45.7766" cy="20.2009" rx="0.594485" ry="0.768732" fill="#A979EF"/>
<ellipse cx="48.1541" cy="20.2009" rx="0.594485" ry="0.768732" fill="#A979EF"/>
<ellipse cx="50.5335" cy="20.2009" rx="0.594485" ry="0.768732" fill="#A979EF"/>
<ellipse cx="52.9075" cy="20.2009" rx="0.594485" ry="0.768732" fill="#A979EF"/>
<ellipse cx="55.2869" cy="20.2009" rx="0.594485" ry="0.768732" fill="#A979EF"/>
<ellipse cx="57.6643" cy="20.2009" rx="0.594485" ry="0.768732" fill="#A979EF"/>
<ellipse cx="60.0437" cy="20.2009" rx="0.594485" ry="0.768732" fill="#A979EF"/>
<ellipse cx="62.4211" cy="20.2009" rx="0.594485" ry="0.768732" fill="#A979EF"/>
<ellipse cx="64.7991" cy="20.2009" rx="0.594485" ry="0.768732" fill="#A979EF"/>
<ellipse cx="67.178" cy="20.2009" rx="0.594485" ry="0.768732" fill="#A979EF"/>
<ellipse cx="69.554" cy="20.2009" rx="0.594485" ry="0.768732" fill="#A979EF"/>
<ellipse cx="71.9314" cy="20.2009" rx="0.594485" ry="0.768732" fill="#A979EF"/>
<ellipse cx="74.3108" cy="20.2009" rx="0.594485" ry="0.768732" fill="#A979EF"/>
<ellipse cx="76.6882" cy="20.2009" rx="0.594485" ry="0.768732" fill="#A979EF"/>
<ellipse cx="79.0676" cy="20.2009" rx="0.594485" ry="0.768732" fill="#A979EF"/>
<ellipse cx="81.4451" cy="20.2009" rx="0.594485" ry="0.768732" fill="#A979EF"/>
<ellipse cx="83.823" cy="20.2009" rx="0.594485" ry="0.768732" fill="#A979EF"/>
<ellipse cx="86.2019" cy="20.2009" rx="0.594485" ry="0.768732" fill="#A979EF"/>
<ellipse cx="88.5764" cy="20.2009" rx="0.594485" ry="0.768732" fill="#A979EF"/>
<ellipse cx="90.9553" cy="20.2009" rx="0.594485" ry="0.768732" fill="#A979EF"/>
<ellipse cx="93.3333" cy="20.2009" rx="0.594485" ry="0.768732" fill="#A979EF"/>
<ellipse cx="95.7107" cy="20.2009" rx="0.594485" ry="0.768732" fill="#A979EF"/>
<ellipse cx="98.0901" cy="20.2009" rx="0.594485" ry="0.768732" fill="#A979EF"/>
<ellipse cx="100.468" cy="20.2009" rx="0.594485" ry="0.768732" fill="#A979EF"/>
<ellipse cx="102.845" cy="20.2009" rx="0.594485" ry="0.768732" fill="#A979EF"/>
<ellipse cx="0.594485" cy="23.2761" rx="0.594485" ry="0.768732" fill="#A979EF"/>
<ellipse cx="2.97193" cy="23.2761" rx="0.594485" ry="0.768732" fill="#A979EF"/>
<ellipse cx="5.35132" cy="23.2761" rx="0.594485" ry="0.768732" fill="#A979EF"/>
<ellipse cx="7.72876" cy="23.2761" rx="0.594485" ry="0.768732" fill="#A979EF"/>
<ellipse cx="10.1062" cy="23.2761" rx="0.594485" ry="0.768732" fill="#A979EF"/>
<ellipse cx="12.4856" cy="23.2761" rx="0.594485" ry="0.768732" fill="#A979EF"/>
<ellipse cx="14.863" cy="23.2761" rx="0.594485" ry="0.768732" fill="#A979EF"/>
<ellipse cx="17.239" cy="23.2761" rx="0.594485" ry="0.768732" fill="#A979EF"/>
<ellipse cx="19.6169" cy="23.2761" rx="0.594485" ry="0.768732" fill="#A979EF"/>
<ellipse cx="21.9959" cy="23.2761" rx="0.594485" ry="0.768732" fill="#A979EF"/>
<ellipse cx="24.3733" cy="23.2761" rx="0.594485" ry="0.768732" fill="#A979EF"/>
<ellipse cx="26.7512" cy="23.2761" rx="0.594485" ry="0.768732" fill="#A979EF"/>
<ellipse cx="29.1301" cy="23.2761" rx="0.594485" ry="0.768732" fill="#A979EF"/>
<ellipse cx="31.5081" cy="23.2761" rx="0.594485" ry="0.768732" fill="#A979EF"/>
<ellipse cx="33.8855" cy="23.2761" rx="0.594485" ry="0.768732" fill="#A979EF"/>
<ellipse cx="36.2649" cy="23.2761" rx="0.594485" ry="0.768732" fill="#A979EF"/>
<ellipse cx="38.6423" cy="23.2761" rx="0.594485" ry="0.768732" fill="#A979EF"/>
<ellipse cx="41.0198" cy="23.2761" rx="0.594485" ry="0.768732" fill="#A979EF"/>
<ellipse cx="43.3992" cy="23.2761" rx="0.594485" ry="0.768732" fill="#A979EF"/>
<ellipse cx="45.7766" cy="23.2761" rx="0.594485" ry="0.768732" fill="#A979EF"/>
<ellipse cx="48.1541" cy="23.2761" rx="0.594485" ry="0.768732" fill="#A979EF"/>
<ellipse cx="50.5335" cy="23.2761" rx="0.594485" ry="0.768732" fill="#A979EF"/>
<ellipse cx="52.9075" cy="23.2761" rx="0.594485" ry="0.768732" fill="#A979EF"/>
<ellipse cx="55.2869" cy="23.2761" rx="0.594485" ry="0.768732" fill="#A979EF"/>
<ellipse cx="57.6643" cy="23.2761" rx="0.594485" ry="0.768732" fill="#A979EF"/>
<ellipse cx="60.0437" cy="23.2761" rx="0.594485" ry="0.768732" fill="#A979EF"/>
<ellipse cx="62.4211" cy="23.2761" rx="0.594485" ry="0.768732" fill="#A979EF"/>
<ellipse cx="64.7991" cy="23.2761" rx="0.594485" ry="0.768732" fill="#A979EF"/>
<ellipse cx="67.178" cy="23.2761" rx="0.594485" ry="0.768732" fill="#A979EF"/>
<ellipse cx="69.554" cy="23.2761" rx="0.594485" ry="0.768732" fill="#A979EF"/>
<ellipse cx="71.9314" cy="23.2761" rx="0.594485" ry="0.768732" fill="#A979EF"/>
<ellipse cx="74.3108" cy="23.2761" rx="0.594485" ry="0.768732" fill="#A979EF"/>
<ellipse cx="76.6882" cy="23.2761" rx="0.594485" ry="0.768732" fill="#A979EF"/>
<ellipse cx="79.0676" cy="23.2761" rx="0.594485" ry="0.768732" fill="#A979EF"/>
<ellipse cx="81.4451" cy="23.2761" rx="0.594485" ry="0.768732" fill="#A979EF"/>
<ellipse cx="83.823" cy="23.2761" rx="0.594485" ry="0.768732" fill="#A979EF"/>
<ellipse cx="86.2019" cy="23.2761" rx="0.594485" ry="0.768732" fill="#A979EF"/>
<ellipse cx="88.5764" cy="23.2761" rx="0.594485" ry="0.768732" fill="#A979EF"/>
<ellipse cx="90.9553" cy="23.2761" rx="0.594485" ry="0.768732" fill="#A979EF"/>
<ellipse cx="93.3333" cy="23.2761" rx="0.594485" ry="0.768732" fill="#A979EF"/>
<ellipse cx="95.7107" cy="23.2761" rx="0.594485" ry="0.768732" fill="#A979EF"/>
<ellipse cx="98.0901" cy="23.2761" rx="0.594485" ry="0.768732" fill="#A979EF"/>
<ellipse cx="100.468" cy="23.2761" rx="0.594485" ry="0.768732" fill="#A979EF"/>
<ellipse cx="102.845" cy="23.2761" rx="0.594485" ry="0.768732" fill="#A979EF"/>
<ellipse cx="0.594485" cy="26.3513" rx="0.594485" ry="0.768732" fill="#A979EF"/>
<ellipse cx="2.97193" cy="26.3513" rx="0.594485" ry="0.768732" fill="#A979EF"/>
<ellipse cx="5.35132" cy="26.3513" rx="0.594485" ry="0.768732" fill="#A979EF"/>
<ellipse cx="7.72876" cy="26.3513" rx="0.594485" ry="0.768732" fill="#A979EF"/>
<ellipse cx="10.1062" cy="26.3513" rx="0.594485" ry="0.768732" fill="#A979EF"/>
<ellipse cx="12.4856" cy="26.3513" rx="0.594485" ry="0.768732" fill="#A979EF"/>
<ellipse cx="14.863" cy="26.3513" rx="0.594485" ry="0.768732" fill="#A979EF"/>
<ellipse cx="17.239" cy="26.3513" rx="0.594485" ry="0.768732" fill="#A979EF"/>
<ellipse cx="19.6169" cy="26.3513" rx="0.594485" ry="0.768732" fill="#A979EF"/>
<ellipse cx="21.9959" cy="26.3513" rx="0.594485" ry="0.768732" fill="#A979EF"/>
<ellipse cx="24.3733" cy="26.3513" rx="0.594485" ry="0.768732" fill="#A979EF"/>
<ellipse cx="26.7512" cy="26.3513" rx="0.594485" ry="0.768732" fill="#A979EF"/>
<ellipse cx="29.1301" cy="26.3513" rx="0.594485" ry="0.768732" fill="#A979EF"/>
<ellipse cx="31.5081" cy="26.3513" rx="0.594485" ry="0.768732" fill="#A979EF"/>
<ellipse cx="33.8855" cy="26.3513" rx="0.594485" ry="0.768732" fill="#A979EF"/>
<ellipse cx="36.2649" cy="26.3513" rx="0.594485" ry="0.768732" fill="#A979EF"/>
<ellipse cx="38.6423" cy="26.3513" rx="0.594485" ry="0.768732" fill="#A979EF"/>
<ellipse cx="41.0198" cy="26.3513" rx="0.594485" ry="0.768732" fill="#A979EF"/>
<ellipse cx="43.3992" cy="26.3513" rx="0.594485" ry="0.768732" fill="#A979EF"/>
<ellipse cx="45.7766" cy="26.3513" rx="0.594485" ry="0.768732" fill="#A979EF"/>
<ellipse cx="48.1541" cy="26.3513" rx="0.594485" ry="0.768732" fill="#A979EF"/>
<ellipse cx="50.5335" cy="26.3513" rx="0.594485" ry="0.768732" fill="#A979EF"/>
<ellipse cx="52.9075" cy="26.3513" rx="0.594485" ry="0.768732" fill="#A979EF"/>
<ellipse cx="55.2869" cy="26.3513" rx="0.594485" ry="0.768732" fill="#A979EF"/>
<ellipse cx="57.6643" cy="26.3513" rx="0.594485" ry="0.768732" fill="#A979EF"/>
<ellipse cx="60.0437" cy="26.3513" rx="0.594485" ry="0.768732" fill="#A979EF"/>
<ellipse cx="62.4211" cy="26.3513" rx="0.594485" ry="0.768732" fill="#A979EF"/>
<ellipse cx="64.7991" cy="26.3513" rx="0.594485" ry="0.768732" fill="#A979EF"/>
<ellipse cx="67.178" cy="26.3513" rx="0.594485" ry="0.768732" fill="#A979EF"/>
<ellipse cx="69.554" cy="26.3513" rx="0.594485" ry="0.768732" fill="#A979EF"/>
<ellipse cx="71.9314" cy="26.3513" rx="0.594485" ry="0.768732" fill="#A979EF"/>
<ellipse cx="74.3108" cy="26.3513" rx="0.594485" ry="0.768732" fill="#A979EF"/>
<ellipse cx="76.6882" cy="26.3513" rx="0.594485" ry="0.768732" fill="#A979EF"/>
<ellipse cx="79.0676" cy="26.3513" rx="0.594485" ry="0.768732" fill="#A979EF"/>
<ellipse cx="81.4451" cy="26.3513" rx="0.594485" ry="0.768732" fill="#A979EF"/>
<ellipse cx="83.823" cy="26.3513" rx="0.594485" ry="0.768732" fill="#A979EF"/>
<ellipse cx="86.2019" cy="26.3513" rx="0.594485" ry="0.768732" fill="#A979EF"/>
<ellipse cx="88.5764" cy="26.3513" rx="0.594485" ry="0.768732" fill="#A979EF"/>
<ellipse cx="90.9553" cy="26.3513" rx="0.594485" ry="0.768732" fill="#A979EF"/>
<ellipse cx="93.3333" cy="26.3513" rx="0.594485" ry="0.768732" fill="#A979EF"/>
<ellipse cx="95.7107" cy="26.3513" rx="0.594485" ry="0.768732" fill="#A979EF"/>
<ellipse cx="98.0901" cy="26.3513" rx="0.594485" ry="0.768732" fill="#A979EF"/>
<ellipse cx="100.468" cy="26.3513" rx="0.594485" ry="0.768732" fill="#A979EF"/>
<ellipse cx="102.845" cy="26.3513" rx="0.594485" ry="0.768732" fill="#A979EF"/>
<ellipse cx="0.594485" cy="29.4264" rx="0.594485" ry="0.768732" fill="#A979EF"/>
<ellipse cx="2.97193" cy="29.4264" rx="0.594485" ry="0.768732" fill="#A979EF"/>
<ellipse cx="5.35132" cy="29.4264" rx="0.594485" ry="0.768732" fill="#A979EF"/>
<ellipse cx="7.72876" cy="29.4264" rx="0.594485" ry="0.768732" fill="#A979EF"/>
<ellipse cx="10.1062" cy="29.4264" rx="0.594485" ry="0.768732" fill="#A979EF"/>
<ellipse cx="12.4856" cy="29.4264" rx="0.594485" ry="0.768732" fill="#A979EF"/>
<ellipse cx="14.863" cy="29.4264" rx="0.594485" ry="0.768732" fill="#A979EF"/>
<ellipse cx="17.239" cy="29.4264" rx="0.594485" ry="0.768732" fill="#A979EF"/>
<ellipse cx="19.6169" cy="29.4264" rx="0.594485" ry="0.768732" fill="#A979EF"/>
<ellipse cx="21.9959" cy="29.4264" rx="0.594485" ry="0.768732" fill="#A979EF"/>
<ellipse cx="24.3733" cy="29.4264" rx="0.594485" ry="0.768732" fill="#A979EF"/>
<ellipse cx="26.7512" cy="29.4264" rx="0.594485" ry="0.768732" fill="#A979EF"/>
<ellipse cx="29.1301" cy="29.4264" rx="0.594485" ry="0.768732" fill="#A979EF"/>
<ellipse cx="31.5081" cy="29.4264" rx="0.594485" ry="0.768732" fill="#A979EF"/>
<ellipse cx="33.8855" cy="29.4264" rx="0.594485" ry="0.768732" fill="#A979EF"/>
<ellipse cx="36.2649" cy="29.4264" rx="0.594485" ry="0.768732" fill="#A979EF"/>
<ellipse cx="38.6423" cy="29.4264" rx="0.594485" ry="0.768732" fill="#A979EF"/>
<ellipse cx="41.0198" cy="29.4264" rx="0.594485" ry="0.768732" fill="#A979EF"/>
<ellipse cx="43.3992" cy="29.4264" rx="0.594485" ry="0.768732" fill="#A979EF"/>
<ellipse cx="45.7766" cy="29.4264" rx="0.594485" ry="0.768732" fill="#A979EF"/>
<ellipse cx="48.1541" cy="29.4264" rx="0.594485" ry="0.768732" fill="#A979EF"/>
<ellipse cx="50.5335" cy="29.4264" rx="0.594485" ry="0.768732" fill="#A979EF"/>
<ellipse cx="52.9075" cy="29.4264" rx="0.594485" ry="0.768732" fill="#A979EF"/>
<ellipse cx="55.2869" cy="29.4264" rx="0.594485" ry="0.768732" fill="#A979EF"/>
<ellipse cx="57.6643" cy="29.4264" rx="0.594485" ry="0.768732" fill="#A979EF"/>
<ellipse cx="60.0437" cy="29.4264" rx="0.594485" ry="0.768732" fill="#A979EF"/>
<ellipse cx="62.4211" cy="29.4264" rx="0.594485" ry="0.768732" fill="#A979EF"/>
<ellipse cx="64.7991" cy="29.4264" rx="0.594485" ry="0.768732" fill="#A979EF"/>
<ellipse cx="67.178" cy="29.4264" rx="0.594485" ry="0.768732" fill="#A979EF"/>
<ellipse cx="69.554" cy="29.4264" rx="0.594485" ry="0.768732" fill="#A979EF"/>
<ellipse cx="71.9314" cy="29.4264" rx="0.594485" ry="0.768732" fill="#A979EF"/>
<ellipse cx="74.3108" cy="29.4264" rx="0.594485" ry="0.768732" fill="#A979EF"/>
<ellipse cx="76.6882" cy="29.4264" rx="0.594485" ry="0.768732" fill="#A979EF"/>
<ellipse cx="79.0676" cy="29.4264" rx="0.594485" ry="0.768732" fill="#A979EF"/>
<ellipse cx="81.4451" cy="29.4264" rx="0.594485" ry="0.768732" fill="#A979EF"/>
<ellipse cx="83.823" cy="29.4264" rx="0.594485" ry="0.768732" fill="#A979EF"/>
<ellipse cx="86.2019" cy="29.4264" rx="0.594485" ry="0.768732" fill="#A979EF"/>
<ellipse cx="88.5764" cy="29.4264" rx="0.594485" ry="0.768732" fill="#A979EF"/>
<ellipse cx="90.9553" cy="29.4264" rx="0.594485" ry="0.768732" fill="#A979EF"/>
<ellipse cx="93.3333" cy="29.4264" rx="0.594485" ry="0.768732" fill="#A979EF"/>
<ellipse cx="95.7107" cy="29.4264" rx="0.594485" ry="0.768732" fill="#A979EF"/>
<ellipse cx="98.0901" cy="29.4264" rx="0.594485" ry="0.768732" fill="#A979EF"/>
<ellipse cx="100.468" cy="29.4264" rx="0.594485" ry="0.768732" fill="#A979EF"/>
<ellipse cx="102.845" cy="29.4264" rx="0.594485" ry="0.768732" fill="#A979EF"/>
<ellipse cx="0.594485" cy="32.5012" rx="0.594485" ry="0.768732" fill="#A979EF"/>
<ellipse cx="2.97193" cy="32.5012" rx="0.594485" ry="0.768732" fill="#A979EF"/>
<ellipse cx="5.35132" cy="32.5012" rx="0.594485" ry="0.768732" fill="#A979EF"/>
<ellipse cx="7.72876" cy="32.5012" rx="0.594485" ry="0.768732" fill="#A979EF"/>
<ellipse cx="10.1062" cy="32.5012" rx="0.594485" ry="0.768732" fill="#A979EF"/>
<ellipse cx="12.4856" cy="32.5012" rx="0.594485" ry="0.768732" fill="#A979EF"/>
<ellipse cx="14.863" cy="32.5012" rx="0.594485" ry="0.768732" fill="#A979EF"/>
<ellipse cx="17.239" cy="32.5012" rx="0.594485" ry="0.768732" fill="#A979EF"/>
<ellipse cx="19.6169" cy="32.5012" rx="0.594485" ry="0.768732" fill="#A979EF"/>
<ellipse cx="21.9959" cy="32.5012" rx="0.594485" ry="0.768732" fill="#A979EF"/>
<ellipse cx="24.3733" cy="32.5012" rx="0.594485" ry="0.768732" fill="#A979EF"/>
<ellipse cx="26.7512" cy="32.5012" rx="0.594485" ry="0.768732" fill="#A979EF"/>
<ellipse cx="29.1301" cy="32.5012" rx="0.594485" ry="0.768732" fill="#A979EF"/>
<ellipse cx="31.5081" cy="32.5012" rx="0.594485" ry="0.768732" fill="#A979EF"/>
<ellipse cx="33.8855" cy="32.5012" rx="0.594485" ry="0.768732" fill="#A979EF"/>
<ellipse cx="36.2649" cy="32.5012" rx="0.594485" ry="0.768732" fill="#A979EF"/>
<ellipse cx="38.6423" cy="32.5012" rx="0.594485" ry="0.768732" fill="#A979EF"/>
<ellipse cx="41.0198" cy="32.5012" rx="0.594485" ry="0.768732" fill="#A979EF"/>
<ellipse cx="43.3992" cy="32.5012" rx="0.594485" ry="0.768732" fill="#A979EF"/>
<ellipse cx="45.7766" cy="32.5012" rx="0.594485" ry="0.768732" fill="#A979EF"/>
<ellipse cx="48.1541" cy="32.5012" rx="0.594485" ry="0.768732" fill="#A979EF"/>
<ellipse cx="50.5335" cy="32.5012" rx="0.594485" ry="0.768732" fill="#A979EF"/>
<ellipse cx="52.9075" cy="32.5012" rx="0.594485" ry="0.768732" fill="#A979EF"/>
<ellipse cx="55.2869" cy="32.5012" rx="0.594485" ry="0.768732" fill="#A979EF"/>
<ellipse cx="57.6643" cy="32.5012" rx="0.594485" ry="0.768732" fill="#A979EF"/>
<ellipse cx="60.0437" cy="32.5012" rx="0.594485" ry="0.768732" fill="#A979EF"/>
<ellipse cx="62.4211" cy="32.5012" rx="0.594485" ry="0.768732" fill="#A979EF"/>
<ellipse cx="64.7991" cy="32.5012" rx="0.594485" ry="0.768732" fill="#A979EF"/>
<ellipse cx="67.178" cy="32.5012" rx="0.594485" ry="0.768732" fill="#A979EF"/>
<ellipse cx="69.554" cy="32.5012" rx="0.594485" ry="0.768732" fill="#A979EF"/>
<ellipse cx="71.9314" cy="32.5012" rx="0.594485" ry="0.768732" fill="#A979EF"/>
<ellipse cx="74.3108" cy="32.5012" rx="0.594485" ry="0.768732" fill="#A979EF"/>
<ellipse cx="76.6882" cy="32.5012" rx="0.594485" ry="0.768732" fill="#A979EF"/>
<ellipse cx="79.0676" cy="32.5012" rx="0.594485" ry="0.768732" fill="#A979EF"/>
<ellipse cx="81.4451" cy="32.5012" rx="0.594485" ry="0.768732" fill="#A979EF"/>
<ellipse cx="83.823" cy="32.5012" rx="0.594485" ry="0.768732" fill="#A979EF"/>
<ellipse cx="86.2019" cy="32.5012" rx="0.594485" ry="0.768732" fill="#A979EF"/>
<ellipse cx="88.5764" cy="32.5012" rx="0.594485" ry="0.768732" fill="#A979EF"/>
<ellipse cx="90.9553" cy="32.5012" rx="0.594485" ry="0.768732" fill="#A979EF"/>
<ellipse cx="93.3333" cy="32.5012" rx="0.594485" ry="0.768732" fill="#A979EF"/>
<ellipse cx="95.7107" cy="32.5012" rx="0.594485" ry="0.768732" fill="#A979EF"/>
<ellipse cx="98.0901" cy="32.5012" rx="0.594485" ry="0.768732" fill="#A979EF"/>
<ellipse cx="100.468" cy="32.5012" rx="0.594485" ry="0.768732" fill="#A979EF"/>
<ellipse cx="102.845" cy="32.5012" rx="0.594485" ry="0.768732" fill="#A979EF"/>
<ellipse cx="0.594485" cy="35.5749" rx="0.594485" ry="0.768732" fill="#A979EF"/>
<ellipse cx="2.97193" cy="35.5749" rx="0.594485" ry="0.768732" fill="#A979EF"/>
<ellipse cx="5.35132" cy="35.5749" rx="0.594485" ry="0.768732" fill="#A979EF"/>
<ellipse cx="7.72876" cy="35.5749" rx="0.594485" ry="0.768732" fill="#A979EF"/>
<ellipse cx="10.1062" cy="35.5749" rx="0.594485" ry="0.768732" fill="#A979EF"/>
<ellipse cx="12.4856" cy="35.5749" rx="0.594485" ry="0.768732" fill="#A979EF"/>
<ellipse cx="14.863" cy="35.5749" rx="0.594485" ry="0.768732" fill="#A979EF"/>
<ellipse cx="17.239" cy="35.5749" rx="0.594485" ry="0.768732" fill="#A979EF"/>
<ellipse cx="19.6169" cy="35.5749" rx="0.594485" ry="0.768732" fill="#A979EF"/>
<ellipse cx="21.9959" cy="35.5749" rx="0.594485" ry="0.768732" fill="#A979EF"/>
<ellipse cx="24.3733" cy="35.5749" rx="0.594485" ry="0.768732" fill="#A979EF"/>
<ellipse cx="26.7512" cy="35.5749" rx="0.594485" ry="0.768732" fill="#A979EF"/>
<ellipse cx="29.1301" cy="35.5749" rx="0.594485" ry="0.768732" fill="#A979EF"/>
<ellipse cx="31.5081" cy="35.5749" rx="0.594485" ry="0.768732" fill="#A979EF"/>
<ellipse cx="33.8855" cy="35.5749" rx="0.594485" ry="0.768732" fill="#A979EF"/>
<ellipse cx="36.2649" cy="35.5749" rx="0.594485" ry="0.768732" fill="#A979EF"/>
<ellipse cx="38.6423" cy="35.5749" rx="0.594485" ry="0.768732" fill="#A979EF"/>
<ellipse cx="41.0198" cy="35.5749" rx="0.594485" ry="0.768732" fill="#A979EF"/>
<ellipse cx="43.3992" cy="35.5749" rx="0.594485" ry="0.768732" fill="#A979EF"/>
<ellipse cx="45.7766" cy="35.5749" rx="0.594485" ry="0.768732" fill="#A979EF"/>
<ellipse cx="48.1541" cy="35.5749" rx="0.594485" ry="0.768732" fill="#A979EF"/>
<ellipse cx="50.5335" cy="35.5749" rx="0.594485" ry="0.768732" fill="#A979EF"/>
<ellipse cx="52.9075" cy="35.5749" rx="0.594485" ry="0.768732" fill="#A979EF"/>
<ellipse cx="55.2869" cy="35.5749" rx="0.594485" ry="0.768732" fill="#A979EF"/>
<ellipse cx="57.6643" cy="35.5749" rx="0.594485" ry="0.768732" fill="#A979EF"/>
<ellipse cx="60.0437" cy="35.5749" rx="0.594485" ry="0.768732" fill="#A979EF"/>
<ellipse cx="62.4211" cy="35.5749" rx="0.594485" ry="0.768732" fill="#A979EF"/>
<ellipse cx="64.7991" cy="35.5749" rx="0.594485" ry="0.768732" fill="#A979EF"/>
<ellipse cx="67.178" cy="35.5749" rx="0.594485" ry="0.768732" fill="#A979EF"/>
<ellipse cx="69.554" cy="35.5749" rx="0.594485" ry="0.768732" fill="#A979EF"/>
<ellipse cx="71.9314" cy="35.5749" rx="0.594485" ry="0.768732" fill="#A979EF"/>
<ellipse cx="74.3108" cy="35.5749" rx="0.594485" ry="0.768732" fill="#A979EF"/>
<ellipse cx="76.6882" cy="35.5749" rx="0.594485" ry="0.768732" fill="#A979EF"/>
<ellipse cx="79.0676" cy="35.5749" rx="0.594485" ry="0.768732" fill="#A979EF"/>
<ellipse cx="81.4451" cy="35.5749" rx="0.594485" ry="0.768732" fill="#A979EF"/>
<ellipse cx="83.823" cy="35.5749" rx="0.594485" ry="0.768732" fill="#A979EF"/>
<ellipse cx="86.2019" cy="35.5749" rx="0.594485" ry="0.768732" fill="#A979EF"/>
<ellipse cx="88.5764" cy="35.5749" rx="0.594485" ry="0.768732" fill="#A979EF"/>
<ellipse cx="90.9553" cy="35.5749" rx="0.594485" ry="0.768732" fill="#A979EF"/>
<ellipse cx="93.3333" cy="35.5749" rx="0.594485" ry="0.768732" fill="#A979EF"/>
<ellipse cx="95.7107" cy="35.5749" rx="0.594485" ry="0.768732" fill="#A979EF"/>
<ellipse cx="98.0901" cy="35.5749" rx="0.594485" ry="0.768732" fill="#A979EF"/>
<ellipse cx="100.468" cy="35.5749" rx="0.594485" ry="0.768732" fill="#A979EF"/>
<ellipse cx="102.845" cy="35.5749" rx="0.594485" ry="0.768732" fill="#A979EF"/>
</svg>
