<svg width="36" height="36" viewBox="0 0 36 36" fill="none" xmlns="http://www.w3.org/2000/svg">
<ellipse cx="0.594485" cy="1.32977" rx="0.594485" ry="0.768732" fill="#A979EF"/>
<ellipse cx="2.97193" cy="1.32928" rx="0.594485" ry="0.768732" fill="#A979EF"/>
<ellipse cx="5.35132" cy="1.32928" rx="0.594485" ry="0.768732" fill="#A979EF"/>
<ellipse cx="7.72876" cy="1.32928" rx="0.594485" ry="0.768732" fill="#A979EF"/>
<ellipse cx="10.1062" cy="1.32928" rx="0.594485" ry="0.768732" fill="#A979EF"/>
<ellipse cx="12.4856" cy="1.32928" rx="0.594485" ry="0.768732" fill="#A979EF"/>
<ellipse cx="14.863" cy="1.32928" rx="0.594485" ry="0.768732" fill="#A979EF"/>
<ellipse cx="17.239" cy="1.32928" rx="0.594485" ry="0.768732" fill="#A979EF"/>
<ellipse cx="19.6169" cy="1.32928" rx="0.594485" ry="0.768732" fill="#A979EF"/>
<ellipse cx="21.9959" cy="1.32928" rx="0.594485" ry="0.768732" fill="#A979EF"/>
<ellipse cx="24.3733" cy="1.32928" rx="0.594485" ry="0.768732" fill="#A979EF"/>
<ellipse cx="26.7512" cy="1.32928" rx="0.594485" ry="0.768732" fill="#A979EF"/>
<ellipse cx="29.1301" cy="1.32928" rx="0.594485" ry="0.768732" fill="#A979EF"/>
<ellipse cx="31.5081" cy="1.32928" rx="0.594485" ry="0.768732" fill="#A979EF"/>
<ellipse cx="33.8855" cy="1.32928" rx="0.594485" ry="0.768732" fill="#A979EF"/>
<ellipse cx="36.2649" cy="1.32928" rx="0.594485" ry="0.768732" fill="#A979EF"/>
<ellipse cx="0.594485" cy="4.40447" rx="0.594485" ry="0.768732" fill="#A979EF"/>
<ellipse cx="2.97193" cy="4.40447" rx="0.594485" ry="0.768732" fill="#A979EF"/>
<ellipse cx="5.35132" cy="4.40447" rx="0.594485" ry="0.768732" fill="#A979EF"/>
<ellipse cx="7.72876" cy="4.40447" rx="0.594485" ry="0.768732" fill="#A979EF"/>
<ellipse cx="10.1062" cy="4.40447" rx="0.594485" ry="0.768732" fill="#A979EF"/>
<ellipse cx="12.4856" cy="4.40447" rx="0.594485" ry="0.768732" fill="#A979EF"/>
<ellipse cx="14.863" cy="4.40447" rx="0.594485" ry="0.768732" fill="#A979EF"/>
<ellipse cx="17.239" cy="4.40447" rx="0.594485" ry="0.768732" fill="#A979EF"/>
<ellipse cx="19.6169" cy="4.40447" rx="0.594485" ry="0.768732" fill="#A979EF"/>
<ellipse cx="21.9959" cy="4.40447" rx="0.594485" ry="0.768732" fill="#A979EF"/>
<ellipse cx="24.3733" cy="4.40447" rx="0.594485" ry="0.768732" fill="#A979EF"/>
<ellipse cx="26.7512" cy="4.40447" rx="0.594485" ry="0.768732" fill="#A979EF"/>
<ellipse cx="29.1301" cy="4.40447" rx="0.594485" ry="0.768732" fill="#A979EF"/>
<ellipse cx="31.5081" cy="4.40447" rx="0.594485" ry="0.768732" fill="#A979EF"/>
<ellipse cx="33.8855" cy="4.40447" rx="0.594485" ry="0.768732" fill="#A979EF"/>
<ellipse cx="36.2649" cy="4.40447" rx="0.594485" ry="0.768732" fill="#A979EF"/>
<ellipse cx="0.594485" cy="7.47967" rx="0.594485" ry="0.768732" fill="#A979EF"/>
<ellipse cx="2.97193" cy="7.47967" rx="0.594485" ry="0.768732" fill="#A979EF"/>
<ellipse cx="5.35132" cy="7.47967" rx="0.594485" ry="0.768732" fill="#A979EF"/>
<ellipse cx="7.72876" cy="7.47967" rx="0.594485" ry="0.768732" fill="#A979EF"/>
<ellipse cx="10.1062" cy="7.47967" rx="0.594485" ry="0.768732" fill="#A979EF"/>
<ellipse cx="12.4856" cy="7.47967" rx="0.594485" ry="0.768732" fill="#A979EF"/>
<ellipse cx="14.863" cy="7.47967" rx="0.594485" ry="0.768732" fill="#A979EF"/>
<ellipse cx="17.239" cy="7.47967" rx="0.594485" ry="0.768732" fill="#A979EF"/>
<ellipse cx="19.6169" cy="7.47967" rx="0.594485" ry="0.768732" fill="#A979EF"/>
<ellipse cx="21.9959" cy="7.47967" rx="0.594485" ry="0.768732" fill="#A979EF"/>
<ellipse cx="24.3733" cy="7.47967" rx="0.594485" ry="0.768732" fill="#A979EF"/>
<ellipse cx="26.7512" cy="7.47967" rx="0.594485" ry="0.768732" fill="#A979EF"/>
<ellipse cx="29.1301" cy="7.47967" rx="0.594485" ry="0.768732" fill="#A979EF"/>
<ellipse cx="31.5081" cy="7.47967" rx="0.594485" ry="0.768732" fill="#A979EF"/>
<ellipse cx="33.8855" cy="7.47967" rx="0.594485" ry="0.768732" fill="#A979EF"/>
<ellipse cx="36.2649" cy="7.47967" rx="0.594485" ry="0.768732" fill="#A979EF"/>
<ellipse cx="0.594485" cy="10.5549" rx="0.594485" ry="0.768732" fill="#A979EF"/>
<ellipse cx="2.97193" cy="10.5549" rx="0.594485" ry="0.768732" fill="#A979EF"/>
<ellipse cx="5.35132" cy="10.5549" rx="0.594485" ry="0.768732" fill="#A979EF"/>
<ellipse cx="7.72876" cy="10.5549" rx="0.594485" ry="0.768732" fill="#A979EF"/>
<ellipse cx="10.1062" cy="10.5549" rx="0.594485" ry="0.768732" fill="#A979EF"/>
<ellipse cx="12.4856" cy="10.5549" rx="0.594485" ry="0.768732" fill="#A979EF"/>
<ellipse cx="14.863" cy="10.5549" rx="0.594485" ry="0.768732" fill="#A979EF"/>
<ellipse cx="17.239" cy="10.5549" rx="0.594485" ry="0.768732" fill="#A979EF"/>
<ellipse cx="19.6169" cy="10.5549" rx="0.594485" ry="0.768732" fill="#A979EF"/>
<ellipse cx="21.9959" cy="10.5549" rx="0.594485" ry="0.768732" fill="#A979EF"/>
<ellipse cx="24.3733" cy="10.5549" rx="0.594485" ry="0.768732" fill="#A979EF"/>
<ellipse cx="26.7512" cy="10.5549" rx="0.594485" ry="0.768732" fill="#A979EF"/>
<ellipse cx="29.1301" cy="10.5549" rx="0.594485" ry="0.768732" fill="#A979EF"/>
<ellipse cx="31.5081" cy="10.5549" rx="0.594485" ry="0.768732" fill="#A979EF"/>
<ellipse cx="33.8855" cy="10.5549" rx="0.594485" ry="0.768732" fill="#A979EF"/>
<ellipse cx="36.2649" cy="10.5549" rx="0.594485" ry="0.768732" fill="#A979EF"/>
<ellipse cx="0.594485" cy="13.6286" rx="0.594485" ry="0.768732" fill="#A979EF"/>
<ellipse cx="2.97193" cy="13.6286" rx="0.594485" ry="0.768732" fill="#A979EF"/>
<ellipse cx="5.35132" cy="13.6286" rx="0.594485" ry="0.768732" fill="#A979EF"/>
<ellipse cx="7.72876" cy="13.6286" rx="0.594485" ry="0.768732" fill="#A979EF"/>
<ellipse cx="10.1062" cy="13.6286" rx="0.594485" ry="0.768732" fill="#A979EF"/>
<ellipse cx="12.4856" cy="13.6286" rx="0.594485" ry="0.768732" fill="#A979EF"/>
<ellipse cx="14.863" cy="13.6286" rx="0.594485" ry="0.768732" fill="#A979EF"/>
<ellipse cx="17.239" cy="13.6286" rx="0.594485" ry="0.768732" fill="#A979EF"/>
<ellipse cx="19.6169" cy="13.6286" rx="0.594485" ry="0.768732" fill="#A979EF"/>
<ellipse cx="21.9959" cy="13.6286" rx="0.594485" ry="0.768732" fill="#A979EF"/>
<ellipse cx="24.3733" cy="13.6286" rx="0.594485" ry="0.768732" fill="#A979EF"/>
<ellipse cx="26.7512" cy="13.6286" rx="0.594485" ry="0.768732" fill="#A979EF"/>
<ellipse cx="29.1301" cy="13.6286" rx="0.594485" ry="0.768732" fill="#A979EF"/>
<ellipse cx="31.5081" cy="13.6286" rx="0.594485" ry="0.768732" fill="#A979EF"/>
<ellipse cx="33.8855" cy="13.6286" rx="0.594485" ry="0.768732" fill="#A979EF"/>
<ellipse cx="36.2649" cy="13.6286" rx="0.594485" ry="0.768732" fill="#A979EF"/>
<ellipse cx="0.594485" cy="16.7038" rx="0.594485" ry="0.768732" fill="#A979EF"/>
<ellipse cx="2.97193" cy="16.7038" rx="0.594485" ry="0.768732" fill="#A979EF"/>
<ellipse cx="5.35132" cy="16.7038" rx="0.594485" ry="0.768732" fill="#A979EF"/>
<ellipse cx="7.72876" cy="16.7038" rx="0.594485" ry="0.768732" fill="#A979EF"/>
<ellipse cx="10.1062" cy="16.7038" rx="0.594485" ry="0.768732" fill="#A979EF"/>
<ellipse cx="12.4856" cy="16.7038" rx="0.594485" ry="0.768732" fill="#A979EF"/>
<ellipse cx="14.863" cy="16.7038" rx="0.594485" ry="0.768732" fill="#A979EF"/>
<ellipse cx="17.239" cy="16.7038" rx="0.594485" ry="0.768732" fill="#A979EF"/>
<ellipse cx="19.6169" cy="16.7038" rx="0.594485" ry="0.768732" fill="#A979EF"/>
<ellipse cx="21.9959" cy="16.7038" rx="0.594485" ry="0.768732" fill="#A979EF"/>
<ellipse cx="24.3733" cy="16.7038" rx="0.594485" ry="0.768732" fill="#A979EF"/>
<ellipse cx="26.7512" cy="16.7038" rx="0.594485" ry="0.768732" fill="#A979EF"/>
<ellipse cx="29.1301" cy="16.7038" rx="0.594485" ry="0.768732" fill="#A979EF"/>
<ellipse cx="31.5081" cy="16.7038" rx="0.594485" ry="0.768732" fill="#A979EF"/>
<ellipse cx="33.8855" cy="16.7038" rx="0.594485" ry="0.768732" fill="#A979EF"/>
<ellipse cx="36.2649" cy="16.7038" rx="0.594485" ry="0.768732" fill="#A979EF"/>
<ellipse cx="0.594485" cy="19.779" rx="0.594485" ry="0.768732" fill="#A979EF"/>
<ellipse cx="2.97193" cy="19.779" rx="0.594485" ry="0.768732" fill="#A979EF"/>
<ellipse cx="5.35132" cy="19.779" rx="0.594485" ry="0.768732" fill="#A979EF"/>
<ellipse cx="7.72876" cy="19.779" rx="0.594485" ry="0.768732" fill="#A979EF"/>
<ellipse cx="10.1062" cy="19.779" rx="0.594485" ry="0.768732" fill="#A979EF"/>
<ellipse cx="12.4856" cy="19.779" rx="0.594485" ry="0.768732" fill="#A979EF"/>
<ellipse cx="14.863" cy="19.779" rx="0.594485" ry="0.768732" fill="#A979EF"/>
<ellipse cx="17.239" cy="19.779" rx="0.594485" ry="0.768732" fill="#A979EF"/>
<ellipse cx="19.6169" cy="19.779" rx="0.594485" ry="0.768732" fill="#A979EF"/>
<ellipse cx="21.9959" cy="19.779" rx="0.594485" ry="0.768732" fill="#A979EF"/>
<ellipse cx="24.3733" cy="19.779" rx="0.594485" ry="0.768732" fill="#A979EF"/>
<ellipse cx="26.7512" cy="19.779" rx="0.594485" ry="0.768732" fill="#A979EF"/>
<ellipse cx="29.1301" cy="19.779" rx="0.594485" ry="0.768732" fill="#A979EF"/>
<ellipse cx="31.5081" cy="19.779" rx="0.594485" ry="0.768732" fill="#A979EF"/>
<ellipse cx="33.8855" cy="19.779" rx="0.594485" ry="0.768732" fill="#A979EF"/>
<ellipse cx="36.2649" cy="19.779" rx="0.594485" ry="0.768732" fill="#A979EF"/>
<ellipse cx="0.594485" cy="22.8542" rx="0.594485" ry="0.768732" fill="#A979EF"/>
<ellipse cx="2.97193" cy="22.8542" rx="0.594485" ry="0.768732" fill="#A979EF"/>
<ellipse cx="5.35132" cy="22.8542" rx="0.594485" ry="0.768732" fill="#A979EF"/>
<ellipse cx="7.72876" cy="22.8542" rx="0.594485" ry="0.768732" fill="#A979EF"/>
<ellipse cx="10.1062" cy="22.8542" rx="0.594485" ry="0.768732" fill="#A979EF"/>
<ellipse cx="12.4856" cy="22.8542" rx="0.594485" ry="0.768732" fill="#A979EF"/>
<ellipse cx="14.863" cy="22.8542" rx="0.594485" ry="0.768732" fill="#A979EF"/>
<ellipse cx="17.239" cy="22.8542" rx="0.594485" ry="0.768732" fill="#A979EF"/>
<ellipse cx="19.6169" cy="22.8542" rx="0.594485" ry="0.768732" fill="#A979EF"/>
<ellipse cx="21.9959" cy="22.8542" rx="0.594485" ry="0.768732" fill="#A979EF"/>
<ellipse cx="24.3733" cy="22.8542" rx="0.594485" ry="0.768732" fill="#A979EF"/>
<ellipse cx="26.7512" cy="22.8542" rx="0.594485" ry="0.768732" fill="#A979EF"/>
<ellipse cx="29.1301" cy="22.8542" rx="0.594485" ry="0.768732" fill="#A979EF"/>
<ellipse cx="31.5081" cy="22.8542" rx="0.594485" ry="0.768732" fill="#A979EF"/>
<ellipse cx="33.8855" cy="22.8542" rx="0.594485" ry="0.768732" fill="#A979EF"/>
<ellipse cx="36.2649" cy="22.8542" rx="0.594485" ry="0.768732" fill="#A979EF"/>
<ellipse cx="0.594485" cy="25.9294" rx="0.594485" ry="0.768732" fill="#A979EF"/>
<ellipse cx="2.97193" cy="25.9294" rx="0.594485" ry="0.768732" fill="#A979EF"/>
<ellipse cx="5.35132" cy="25.9294" rx="0.594485" ry="0.768732" fill="#A979EF"/>
<ellipse cx="7.72876" cy="25.9294" rx="0.594485" ry="0.768732" fill="#A979EF"/>
<ellipse cx="10.1062" cy="25.9294" rx="0.594485" ry="0.768732" fill="#A979EF"/>
<ellipse cx="12.4856" cy="25.9294" rx="0.594485" ry="0.768732" fill="#A979EF"/>
<ellipse cx="14.863" cy="25.9294" rx="0.594485" ry="0.768732" fill="#A979EF"/>
<ellipse cx="17.239" cy="25.9294" rx="0.594485" ry="0.768732" fill="#A979EF"/>
<ellipse cx="19.6169" cy="25.9294" rx="0.594485" ry="0.768732" fill="#A979EF"/>
<ellipse cx="21.9959" cy="25.9294" rx="0.594485" ry="0.768732" fill="#A979EF"/>
<ellipse cx="24.3733" cy="25.9294" rx="0.594485" ry="0.768732" fill="#A979EF"/>
<ellipse cx="26.7512" cy="25.9294" rx="0.594485" ry="0.768732" fill="#A979EF"/>
<ellipse cx="29.1301" cy="25.9294" rx="0.594485" ry="0.768732" fill="#A979EF"/>
<ellipse cx="31.5081" cy="25.9294" rx="0.594485" ry="0.768732" fill="#A979EF"/>
<ellipse cx="33.8855" cy="25.9294" rx="0.594485" ry="0.768732" fill="#A979EF"/>
<ellipse cx="36.2649" cy="25.9294" rx="0.594485" ry="0.768732" fill="#A979EF"/>
<ellipse cx="0.594485" cy="29.0046" rx="0.594485" ry="0.768732" fill="#A979EF"/>
<ellipse cx="2.97193" cy="29.0046" rx="0.594485" ry="0.768732" fill="#A979EF"/>
<ellipse cx="5.35132" cy="29.0046" rx="0.594485" ry="0.768732" fill="#A979EF"/>
<ellipse cx="7.72876" cy="29.0046" rx="0.594485" ry="0.768732" fill="#A979EF"/>
<ellipse cx="10.1062" cy="29.0046" rx="0.594485" ry="0.768732" fill="#A979EF"/>
<ellipse cx="12.4856" cy="29.0046" rx="0.594485" ry="0.768732" fill="#A979EF"/>
<ellipse cx="14.863" cy="29.0046" rx="0.594485" ry="0.768732" fill="#A979EF"/>
<ellipse cx="17.239" cy="29.0046" rx="0.594485" ry="0.768732" fill="#A979EF"/>
<ellipse cx="19.6169" cy="29.0046" rx="0.594485" ry="0.768732" fill="#A979EF"/>
<ellipse cx="21.9959" cy="29.0046" rx="0.594485" ry="0.768732" fill="#A979EF"/>
<ellipse cx="24.3733" cy="29.0046" rx="0.594485" ry="0.768732" fill="#A979EF"/>
<ellipse cx="26.7512" cy="29.0046" rx="0.594485" ry="0.768732" fill="#A979EF"/>
<ellipse cx="29.1301" cy="29.0046" rx="0.594485" ry="0.768732" fill="#A979EF"/>
<ellipse cx="31.5081" cy="29.0046" rx="0.594485" ry="0.768732" fill="#A979EF"/>
<ellipse cx="33.8855" cy="29.0046" rx="0.594485" ry="0.768732" fill="#A979EF"/>
<ellipse cx="36.2649" cy="29.0046" rx="0.594485" ry="0.768732" fill="#A979EF"/>
<ellipse cx="0.594485" cy="32.0793" rx="0.594485" ry="0.768732" fill="#A979EF"/>
<ellipse cx="2.97193" cy="32.0793" rx="0.594485" ry="0.768732" fill="#A979EF"/>
<ellipse cx="5.35132" cy="32.0793" rx="0.594485" ry="0.768732" fill="#A979EF"/>
<ellipse cx="7.72876" cy="32.0793" rx="0.594485" ry="0.768732" fill="#A979EF"/>
<ellipse cx="10.1062" cy="32.0793" rx="0.594485" ry="0.768732" fill="#A979EF"/>
<ellipse cx="12.4856" cy="32.0793" rx="0.594485" ry="0.768732" fill="#A979EF"/>
<ellipse cx="14.863" cy="32.0793" rx="0.594485" ry="0.768732" fill="#A979EF"/>
<ellipse cx="17.239" cy="32.0793" rx="0.594485" ry="0.768732" fill="#A979EF"/>
<ellipse cx="19.6169" cy="32.0793" rx="0.594485" ry="0.768732" fill="#A979EF"/>
<ellipse cx="21.9959" cy="32.0793" rx="0.594485" ry="0.768732" fill="#A979EF"/>
<ellipse cx="24.3733" cy="32.0793" rx="0.594485" ry="0.768732" fill="#A979EF"/>
<ellipse cx="26.7512" cy="32.0793" rx="0.594485" ry="0.768732" fill="#A979EF"/>
<ellipse cx="29.1301" cy="32.0793" rx="0.594485" ry="0.768732" fill="#A979EF"/>
<ellipse cx="31.5081" cy="32.0793" rx="0.594485" ry="0.768732" fill="#A979EF"/>
<ellipse cx="33.8855" cy="32.0793" rx="0.594485" ry="0.768732" fill="#A979EF"/>
<ellipse cx="36.2649" cy="32.0793" rx="0.594485" ry="0.768732" fill="#A979EF"/>
<ellipse cx="0.594485" cy="35.153" rx="0.594485" ry="0.768732" fill="#A979EF"/>
<ellipse cx="2.97193" cy="35.153" rx="0.594485" ry="0.768732" fill="#A979EF"/>
<ellipse cx="5.35132" cy="35.153" rx="0.594485" ry="0.768732" fill="#A979EF"/>
<ellipse cx="7.72876" cy="35.153" rx="0.594485" ry="0.768732" fill="#A979EF"/>
<ellipse cx="10.1062" cy="35.153" rx="0.594485" ry="0.768732" fill="#A979EF"/>
<ellipse cx="12.4856" cy="35.153" rx="0.594485" ry="0.768732" fill="#A979EF"/>
<ellipse cx="14.863" cy="35.153" rx="0.594485" ry="0.768732" fill="#A979EF"/>
<ellipse cx="17.239" cy="35.153" rx="0.594485" ry="0.768732" fill="#A979EF"/>
<ellipse cx="19.6169" cy="35.153" rx="0.594485" ry="0.768732" fill="#A979EF"/>
<ellipse cx="21.9959" cy="35.153" rx="0.594485" ry="0.768732" fill="#A979EF"/>
<ellipse cx="24.3733" cy="35.153" rx="0.594485" ry="0.768732" fill="#A979EF"/>
<ellipse cx="26.7512" cy="35.153" rx="0.594485" ry="0.768732" fill="#A979EF"/>
<ellipse cx="29.1301" cy="35.153" rx="0.594485" ry="0.768732" fill="#A979EF"/>
<ellipse cx="31.5081" cy="35.153" rx="0.594485" ry="0.768732" fill="#A979EF"/>
<ellipse cx="33.8855" cy="35.153" rx="0.594485" ry="0.768732" fill="#A979EF"/>
<ellipse cx="36.2649" cy="35.153" rx="0.594485" ry="0.768732" fill="#A979EF"/>
</svg>
