<svg width="164" height="23" viewBox="0 0 164 23" fill="none" xmlns="http://www.w3.org/2000/svg">
<ellipse cx="82.7923" cy="0.488735" rx="0.468059" ry="0.488735" fill="#A979EF"/>
<ellipse cx="84.6629" cy="0.488735" rx="0.468059" ry="0.488735" fill="#A979EF"/>
<ellipse cx="86.5369" cy="0.488735" rx="0.468059" ry="0.488735" fill="#A979EF"/>
<ellipse cx="88.4075" cy="0.488735" rx="0.468059" ry="0.488735" fill="#A979EF"/>
<ellipse cx="90.282" cy="0.488735" rx="0.468059" ry="0.488735" fill="#A979EF"/>
<ellipse cx="92.1521" cy="0.488735" rx="0.468059" ry="0.488735" fill="#A979EF"/>
<ellipse cx="94.0266" cy="0.488735" rx="0.468059" ry="0.488735" fill="#A979EF"/>
<ellipse cx="95.8973" cy="0.488735" rx="0.468059" ry="0.488735" fill="#A979EF"/>
<ellipse cx="97.7713" cy="0.488735" rx="0.468059" ry="0.488735" fill="#A979EF"/>
<ellipse cx="99.6419" cy="0.488735" rx="0.468059" ry="0.488735" fill="#A979EF"/>
<ellipse cx="101.516" cy="0.488735" rx="0.468059" ry="0.488735" fill="#A979EF"/>
<ellipse cx="103.387" cy="0.488735" rx="0.468059" ry="0.488735" fill="#A979EF"/>
<ellipse cx="105.261" cy="0.488735" rx="0.468059" ry="0.488735" fill="#A979EF"/>
<ellipse cx="107.131" cy="0.488735" rx="0.468059" ry="0.488735" fill="#A979EF"/>
<ellipse cx="109.002" cy="0.488735" rx="0.468059" ry="0.488735" fill="#A979EF"/>
<ellipse cx="110.876" cy="0.488735" rx="0.468059" ry="0.488735" fill="#A979EF"/>
<ellipse cx="112.746" cy="0.488735" rx="0.468059" ry="0.488735" fill="#A979EF"/>
<ellipse cx="114.621" cy="0.488735" rx="0.468059" ry="0.488735" fill="#A979EF"/>
<ellipse cx="116.491" cy="0.488735" rx="0.468059" ry="0.488735" fill="#A979EF"/>
<ellipse cx="118.366" cy="0.488735" rx="0.468059" ry="0.488735" fill="#A979EF"/>
<ellipse cx="120.236" cy="0.488735" rx="0.468059" ry="0.488735" fill="#A979EF"/>
<ellipse cx="122.11" cy="0.488735" rx="0.468059" ry="0.488735" fill="#A979EF"/>
<ellipse cx="123.981" cy="0.488735" rx="0.468059" ry="0.488735" fill="#A979EF"/>
<ellipse cx="125.855" cy="0.488735" rx="0.468059" ry="0.488735" fill="#A979EF"/>
<ellipse cx="127.725" cy="0.488735" rx="0.468059" ry="0.488735" fill="#A979EF"/>
<ellipse cx="129.6" cy="0.488735" rx="0.468059" ry="0.488735" fill="#A979EF"/>
<ellipse cx="131.47" cy="0.488735" rx="0.468059" ry="0.488735" fill="#A979EF"/>
<ellipse cx="133.345" cy="0.488735" rx="0.468059" ry="0.488735" fill="#A979EF"/>
<ellipse cx="135.215" cy="0.488735" rx="0.468059" ry="0.488735" fill="#A979EF"/>
<ellipse cx="137.085" cy="0.488735" rx="0.468059" ry="0.488735" fill="#A979EF"/>
<ellipse cx="138.96" cy="0.488735" rx="0.468059" ry="0.488735" fill="#A979EF"/>
<ellipse cx="140.83" cy="0.488735" rx="0.468059" ry="0.488735" fill="#A979EF"/>
<ellipse cx="142.704" cy="0.488735" rx="0.468059" ry="0.488735" fill="#A979EF"/>
<ellipse cx="144.575" cy="0.488735" rx="0.468059" ry="0.488735" fill="#A979EF"/>
<ellipse cx="146.449" cy="0.488735" rx="0.468059" ry="0.488735" fill="#A979EF"/>
<ellipse cx="148.32" cy="0.488735" rx="0.468059" ry="0.488735" fill="#A979EF"/>
<ellipse cx="150.194" cy="0.488735" rx="0.468059" ry="0.488735" fill="#A979EF"/>
<ellipse cx="152.064" cy="0.488735" rx="0.468059" ry="0.488735" fill="#A979EF"/>
<ellipse cx="153.939" cy="0.488735" rx="0.468059" ry="0.488735" fill="#A979EF"/>
<ellipse cx="155.809" cy="0.488735" rx="0.468059" ry="0.488735" fill="#A979EF"/>
<ellipse cx="157.683" cy="0.488735" rx="0.468059" ry="0.488735" fill="#A979EF"/>
<ellipse cx="159.554" cy="0.488735" rx="0.468059" ry="0.488735" fill="#A979EF"/>
<ellipse cx="161.428" cy="0.488735" rx="0.468059" ry="0.488735" fill="#A979EF"/>
<ellipse cx="163.299" cy="0.488735" rx="0.468059" ry="0.488735" fill="#A979EF"/>
<ellipse cx="82.7923" cy="2.44381" rx="0.468059" ry="0.488735" fill="#A979EF"/>
<ellipse cx="84.6629" cy="2.44381" rx="0.468059" ry="0.488735" fill="#A979EF"/>
<ellipse cx="86.5369" cy="2.44381" rx="0.468059" ry="0.488735" fill="#A979EF"/>
<ellipse cx="88.4075" cy="2.44381" rx="0.468059" ry="0.488735" fill="#A979EF"/>
<ellipse cx="90.282" cy="2.44381" rx="0.468059" ry="0.488735" fill="#A979EF"/>
<ellipse cx="92.1521" cy="2.44381" rx="0.468059" ry="0.488735" fill="#A979EF"/>
<ellipse cx="94.0266" cy="2.44381" rx="0.468059" ry="0.488735" fill="#A979EF"/>
<ellipse cx="95.8973" cy="2.44381" rx="0.468059" ry="0.488735" fill="#A979EF"/>
<ellipse cx="97.7713" cy="2.44381" rx="0.468059" ry="0.488735" fill="#A979EF"/>
<ellipse cx="99.6419" cy="2.44381" rx="0.468059" ry="0.488735" fill="#A979EF"/>
<ellipse cx="101.516" cy="2.44381" rx="0.468059" ry="0.488735" fill="#A979EF"/>
<ellipse cx="103.387" cy="2.44381" rx="0.468059" ry="0.488735" fill="#A979EF"/>
<ellipse cx="105.261" cy="2.44381" rx="0.468059" ry="0.488735" fill="#A979EF"/>
<ellipse cx="107.131" cy="2.44381" rx="0.468059" ry="0.488735" fill="#A979EF"/>
<ellipse cx="109.002" cy="2.44381" rx="0.468059" ry="0.488735" fill="#A979EF"/>
<ellipse cx="110.876" cy="2.44381" rx="0.468059" ry="0.488735" fill="#A979EF"/>
<ellipse cx="112.746" cy="2.44381" rx="0.468059" ry="0.488735" fill="#A979EF"/>
<ellipse cx="114.621" cy="2.44381" rx="0.468059" ry="0.488735" fill="#A979EF"/>
<ellipse cx="116.491" cy="2.44381" rx="0.468059" ry="0.488735" fill="#A979EF"/>
<ellipse cx="118.366" cy="2.44381" rx="0.468059" ry="0.488735" fill="#A979EF"/>
<ellipse cx="120.236" cy="2.44381" rx="0.468059" ry="0.488735" fill="#A979EF"/>
<ellipse cx="122.11" cy="2.44381" rx="0.468059" ry="0.488735" fill="#A979EF"/>
<ellipse cx="123.981" cy="2.44381" rx="0.468059" ry="0.488735" fill="#A979EF"/>
<ellipse cx="125.855" cy="2.44381" rx="0.468059" ry="0.488735" fill="#A979EF"/>
<ellipse cx="127.725" cy="2.44381" rx="0.468059" ry="0.488735" fill="#A979EF"/>
<ellipse cx="129.6" cy="2.44381" rx="0.468059" ry="0.488735" fill="#A979EF"/>
<ellipse cx="131.47" cy="2.44381" rx="0.468059" ry="0.488735" fill="#A979EF"/>
<ellipse cx="133.345" cy="2.44381" rx="0.468059" ry="0.488735" fill="#A979EF"/>
<ellipse cx="135.215" cy="2.44381" rx="0.468059" ry="0.488735" fill="#A979EF"/>
<ellipse cx="137.085" cy="2.44381" rx="0.468059" ry="0.488735" fill="#A979EF"/>
<ellipse cx="138.96" cy="2.44381" rx="0.468059" ry="0.488735" fill="#A979EF"/>
<ellipse cx="140.83" cy="2.44381" rx="0.468059" ry="0.488735" fill="#A979EF"/>
<ellipse cx="142.704" cy="2.44381" rx="0.468059" ry="0.488735" fill="#A979EF"/>
<ellipse cx="144.575" cy="2.44381" rx="0.468059" ry="0.488735" fill="#A979EF"/>
<ellipse cx="146.449" cy="2.44381" rx="0.468059" ry="0.488735" fill="#A979EF"/>
<ellipse cx="148.32" cy="2.44381" rx="0.468059" ry="0.488735" fill="#A979EF"/>
<ellipse cx="150.194" cy="2.44381" rx="0.468059" ry="0.488735" fill="#A979EF"/>
<ellipse cx="152.064" cy="2.44381" rx="0.468059" ry="0.488735" fill="#A979EF"/>
<ellipse cx="153.939" cy="2.44381" rx="0.468059" ry="0.488735" fill="#A979EF"/>
<ellipse cx="155.809" cy="2.44381" rx="0.468059" ry="0.488735" fill="#A979EF"/>
<ellipse cx="157.683" cy="2.44381" rx="0.468059" ry="0.488735" fill="#A979EF"/>
<ellipse cx="159.554" cy="2.44381" rx="0.468059" ry="0.488735" fill="#A979EF"/>
<ellipse cx="161.428" cy="2.44381" rx="0.468059" ry="0.488735" fill="#A979EF"/>
<ellipse cx="163.299" cy="2.44381" rx="0.468059" ry="0.488735" fill="#A979EF"/>
<ellipse cx="82.7923" cy="4.39889" rx="0.468059" ry="0.488735" fill="#A979EF"/>
<ellipse cx="84.6629" cy="4.39889" rx="0.468059" ry="0.488735" fill="#A979EF"/>
<ellipse cx="86.5369" cy="4.39889" rx="0.468059" ry="0.488735" fill="#A979EF"/>
<ellipse cx="88.4075" cy="4.39889" rx="0.468059" ry="0.488735" fill="#A979EF"/>
<ellipse cx="90.282" cy="4.39889" rx="0.468059" ry="0.488735" fill="#A979EF"/>
<ellipse cx="92.1521" cy="4.39889" rx="0.468059" ry="0.488735" fill="#A979EF"/>
<ellipse cx="94.0266" cy="4.39889" rx="0.468059" ry="0.488735" fill="#A979EF"/>
<ellipse cx="95.8973" cy="4.39889" rx="0.468059" ry="0.488735" fill="#A979EF"/>
<ellipse cx="97.7713" cy="4.39889" rx="0.468059" ry="0.488735" fill="#A979EF"/>
<ellipse cx="99.6419" cy="4.39889" rx="0.468059" ry="0.488735" fill="#A979EF"/>
<ellipse cx="101.516" cy="4.39889" rx="0.468059" ry="0.488735" fill="#A979EF"/>
<ellipse cx="103.387" cy="4.39889" rx="0.468059" ry="0.488735" fill="#A979EF"/>
<ellipse cx="105.261" cy="4.39889" rx="0.468059" ry="0.488735" fill="#A979EF"/>
<ellipse cx="107.131" cy="4.39889" rx="0.468059" ry="0.488735" fill="#A979EF"/>
<ellipse cx="109.002" cy="4.39889" rx="0.468059" ry="0.488735" fill="#A979EF"/>
<ellipse cx="110.876" cy="4.39889" rx="0.468059" ry="0.488735" fill="#A979EF"/>
<ellipse cx="112.746" cy="4.39889" rx="0.468059" ry="0.488735" fill="#A979EF"/>
<ellipse cx="114.621" cy="4.39889" rx="0.468059" ry="0.488735" fill="#A979EF"/>
<ellipse cx="116.491" cy="4.39889" rx="0.468059" ry="0.488735" fill="#A979EF"/>
<ellipse cx="118.366" cy="4.39889" rx="0.468059" ry="0.488735" fill="#A979EF"/>
<ellipse cx="120.236" cy="4.39889" rx="0.468059" ry="0.488735" fill="#A979EF"/>
<ellipse cx="122.11" cy="4.39889" rx="0.468059" ry="0.488735" fill="#A979EF"/>
<ellipse cx="123.981" cy="4.39889" rx="0.468059" ry="0.488735" fill="#A979EF"/>
<ellipse cx="125.855" cy="4.39889" rx="0.468059" ry="0.488735" fill="#A979EF"/>
<ellipse cx="127.725" cy="4.39889" rx="0.468059" ry="0.488735" fill="#A979EF"/>
<ellipse cx="129.6" cy="4.39889" rx="0.468059" ry="0.488735" fill="#A979EF"/>
<ellipse cx="131.47" cy="4.39889" rx="0.468059" ry="0.488735" fill="#A979EF"/>
<ellipse cx="133.345" cy="4.39889" rx="0.468059" ry="0.488735" fill="#A979EF"/>
<ellipse cx="135.215" cy="4.39889" rx="0.468059" ry="0.488735" fill="#A979EF"/>
<ellipse cx="137.085" cy="4.39889" rx="0.468059" ry="0.488735" fill="#A979EF"/>
<ellipse cx="138.96" cy="4.39889" rx="0.468059" ry="0.488735" fill="#A979EF"/>
<ellipse cx="140.83" cy="4.39889" rx="0.468059" ry="0.488735" fill="#A979EF"/>
<ellipse cx="142.704" cy="4.39889" rx="0.468059" ry="0.488735" fill="#A979EF"/>
<ellipse cx="144.575" cy="4.39889" rx="0.468059" ry="0.488735" fill="#A979EF"/>
<ellipse cx="146.449" cy="4.39889" rx="0.468059" ry="0.488735" fill="#A979EF"/>
<ellipse cx="148.32" cy="4.39889" rx="0.468059" ry="0.488735" fill="#A979EF"/>
<ellipse cx="150.194" cy="4.39889" rx="0.468059" ry="0.488735" fill="#A979EF"/>
<ellipse cx="152.064" cy="4.39889" rx="0.468059" ry="0.488735" fill="#A979EF"/>
<ellipse cx="153.939" cy="4.39889" rx="0.468059" ry="0.488735" fill="#A979EF"/>
<ellipse cx="155.809" cy="4.39889" rx="0.468059" ry="0.488735" fill="#A979EF"/>
<ellipse cx="157.683" cy="4.39889" rx="0.468059" ry="0.488735" fill="#A979EF"/>
<ellipse cx="159.554" cy="4.39889" rx="0.468059" ry="0.488735" fill="#A979EF"/>
<ellipse cx="161.428" cy="4.39889" rx="0.468059" ry="0.488735" fill="#A979EF"/>
<ellipse cx="163.299" cy="4.39889" rx="0.468059" ry="0.488735" fill="#A979EF"/>
<ellipse cx="82.7923" cy="6.35397" rx="0.468059" ry="0.488735" fill="#A979EF"/>
<ellipse cx="84.6629" cy="6.35397" rx="0.468059" ry="0.488735" fill="#A979EF"/>
<ellipse cx="86.5369" cy="6.35397" rx="0.468059" ry="0.488735" fill="#A979EF"/>
<ellipse cx="88.4075" cy="6.35397" rx="0.468059" ry="0.488735" fill="#A979EF"/>
<ellipse cx="90.282" cy="6.35397" rx="0.468059" ry="0.488735" fill="#A979EF"/>
<ellipse cx="92.1521" cy="6.35397" rx="0.468059" ry="0.488735" fill="#A979EF"/>
<ellipse cx="94.0266" cy="6.35397" rx="0.468059" ry="0.488735" fill="#A979EF"/>
<ellipse cx="95.8973" cy="6.35397" rx="0.468059" ry="0.488735" fill="#A979EF"/>
<ellipse cx="97.7713" cy="6.35397" rx="0.468059" ry="0.488735" fill="#A979EF"/>
<ellipse cx="99.6419" cy="6.35397" rx="0.468059" ry="0.488735" fill="#A979EF"/>
<ellipse cx="101.516" cy="6.35397" rx="0.468059" ry="0.488735" fill="#A979EF"/>
<ellipse cx="103.387" cy="6.35397" rx="0.468059" ry="0.488735" fill="#A979EF"/>
<ellipse cx="105.261" cy="6.35397" rx="0.468059" ry="0.488735" fill="#A979EF"/>
<ellipse cx="107.131" cy="6.35397" rx="0.468059" ry="0.488735" fill="#A979EF"/>
<ellipse cx="109.002" cy="6.35397" rx="0.468059" ry="0.488735" fill="#A979EF"/>
<ellipse cx="110.876" cy="6.35397" rx="0.468059" ry="0.488735" fill="#A979EF"/>
<ellipse cx="112.746" cy="6.35397" rx="0.468059" ry="0.488735" fill="#A979EF"/>
<ellipse cx="114.621" cy="6.35397" rx="0.468059" ry="0.488735" fill="#A979EF"/>
<ellipse cx="116.491" cy="6.35397" rx="0.468059" ry="0.488735" fill="#A979EF"/>
<ellipse cx="118.366" cy="6.35397" rx="0.468059" ry="0.488735" fill="#A979EF"/>
<ellipse cx="120.236" cy="6.35397" rx="0.468059" ry="0.488735" fill="#A979EF"/>
<ellipse cx="122.11" cy="6.35397" rx="0.468059" ry="0.488735" fill="#A979EF"/>
<ellipse cx="123.981" cy="6.35397" rx="0.468059" ry="0.488735" fill="#A979EF"/>
<ellipse cx="125.855" cy="6.35397" rx="0.468059" ry="0.488735" fill="#A979EF"/>
<ellipse cx="127.725" cy="6.35397" rx="0.468059" ry="0.488735" fill="#A979EF"/>
<ellipse cx="129.6" cy="6.35397" rx="0.468059" ry="0.488735" fill="#A979EF"/>
<ellipse cx="131.47" cy="6.35397" rx="0.468059" ry="0.488735" fill="#A979EF"/>
<ellipse cx="133.345" cy="6.35397" rx="0.468059" ry="0.488735" fill="#A979EF"/>
<ellipse cx="135.215" cy="6.35397" rx="0.468059" ry="0.488735" fill="#A979EF"/>
<ellipse cx="137.085" cy="6.35397" rx="0.468059" ry="0.488735" fill="#A979EF"/>
<ellipse cx="138.96" cy="6.35397" rx="0.468059" ry="0.488735" fill="#A979EF"/>
<ellipse cx="140.83" cy="6.35397" rx="0.468059" ry="0.488735" fill="#A979EF"/>
<ellipse cx="142.704" cy="6.35397" rx="0.468059" ry="0.488735" fill="#A979EF"/>
<ellipse cx="144.575" cy="6.35397" rx="0.468059" ry="0.488735" fill="#A979EF"/>
<ellipse cx="146.449" cy="6.35397" rx="0.468059" ry="0.488735" fill="#A979EF"/>
<ellipse cx="148.32" cy="6.35397" rx="0.468059" ry="0.488735" fill="#A979EF"/>
<ellipse cx="150.194" cy="6.35397" rx="0.468059" ry="0.488735" fill="#A979EF"/>
<ellipse cx="152.064" cy="6.35397" rx="0.468059" ry="0.488735" fill="#A979EF"/>
<ellipse cx="153.939" cy="6.35397" rx="0.468059" ry="0.488735" fill="#A979EF"/>
<ellipse cx="155.809" cy="6.35397" rx="0.468059" ry="0.488735" fill="#A979EF"/>
<ellipse cx="157.683" cy="6.35397" rx="0.468059" ry="0.488735" fill="#A979EF"/>
<ellipse cx="159.554" cy="6.35397" rx="0.468059" ry="0.488735" fill="#A979EF"/>
<ellipse cx="161.428" cy="6.35397" rx="0.468059" ry="0.488735" fill="#A979EF"/>
<ellipse cx="163.299" cy="6.35397" rx="0.468059" ry="0.488735" fill="#A979EF"/>
<ellipse cx="82.7923" cy="8.30856" rx="0.468059" ry="0.488735" fill="#A979EF"/>
<ellipse cx="84.6629" cy="8.30807" rx="0.468059" ry="0.488735" fill="#A979EF"/>
<ellipse cx="86.5369" cy="8.30807" rx="0.468059" ry="0.488735" fill="#A979EF"/>
<ellipse cx="88.4075" cy="8.30807" rx="0.468059" ry="0.488735" fill="#A979EF"/>
<ellipse cx="90.282" cy="8.30807" rx="0.468059" ry="0.488735" fill="#A979EF"/>
<ellipse cx="92.1521" cy="8.30807" rx="0.468059" ry="0.488735" fill="#A979EF"/>
<ellipse cx="94.0266" cy="8.30807" rx="0.468059" ry="0.488735" fill="#A979EF"/>
<ellipse cx="95.8973" cy="8.30807" rx="0.468059" ry="0.488735" fill="#A979EF"/>
<ellipse cx="97.7713" cy="8.30807" rx="0.468059" ry="0.488735" fill="#A979EF"/>
<ellipse cx="99.6419" cy="8.30807" rx="0.468059" ry="0.488735" fill="#A979EF"/>
<ellipse cx="101.516" cy="8.30807" rx="0.468059" ry="0.488735" fill="#A979EF"/>
<ellipse cx="103.387" cy="8.30807" rx="0.468059" ry="0.488735" fill="#A979EF"/>
<ellipse cx="105.261" cy="8.30807" rx="0.468059" ry="0.488735" fill="#A979EF"/>
<ellipse cx="107.131" cy="8.30807" rx="0.468059" ry="0.488735" fill="#A979EF"/>
<ellipse cx="109.002" cy="8.30807" rx="0.468059" ry="0.488735" fill="#A979EF"/>
<ellipse cx="110.876" cy="8.30807" rx="0.468059" ry="0.488735" fill="#A979EF"/>
<ellipse cx="112.746" cy="8.30807" rx="0.468059" ry="0.488735" fill="#A979EF"/>
<ellipse cx="114.621" cy="8.30807" rx="0.468059" ry="0.488735" fill="#A979EF"/>
<ellipse cx="116.491" cy="8.30807" rx="0.468059" ry="0.488735" fill="#A979EF"/>
<ellipse cx="118.366" cy="8.30807" rx="0.468059" ry="0.488735" fill="#A979EF"/>
<ellipse cx="120.236" cy="8.30807" rx="0.468059" ry="0.488735" fill="#A979EF"/>
<ellipse cx="122.11" cy="8.30807" rx="0.468059" ry="0.488735" fill="#A979EF"/>
<ellipse cx="123.981" cy="8.30807" rx="0.468059" ry="0.488735" fill="#A979EF"/>
<ellipse cx="125.855" cy="8.30807" rx="0.468059" ry="0.488735" fill="#A979EF"/>
<ellipse cx="127.725" cy="8.30807" rx="0.468059" ry="0.488735" fill="#A979EF"/>
<ellipse cx="129.6" cy="8.30807" rx="0.468059" ry="0.488735" fill="#A979EF"/>
<ellipse cx="131.47" cy="8.30807" rx="0.468059" ry="0.488735" fill="#A979EF"/>
<ellipse cx="133.345" cy="8.30807" rx="0.468059" ry="0.488735" fill="#A979EF"/>
<ellipse cx="135.215" cy="8.30807" rx="0.468059" ry="0.488735" fill="#A979EF"/>
<ellipse cx="137.085" cy="8.30807" rx="0.468059" ry="0.488735" fill="#A979EF"/>
<ellipse cx="138.96" cy="8.30807" rx="0.468059" ry="0.488735" fill="#A979EF"/>
<ellipse cx="140.83" cy="8.30807" rx="0.468059" ry="0.488735" fill="#A979EF"/>
<ellipse cx="142.704" cy="8.30807" rx="0.468059" ry="0.488735" fill="#A979EF"/>
<ellipse cx="144.575" cy="8.30807" rx="0.468059" ry="0.488735" fill="#A979EF"/>
<ellipse cx="146.449" cy="8.30807" rx="0.468059" ry="0.488735" fill="#A979EF"/>
<ellipse cx="148.32" cy="8.30807" rx="0.468059" ry="0.488735" fill="#A979EF"/>
<ellipse cx="150.194" cy="8.30807" rx="0.468059" ry="0.488735" fill="#A979EF"/>
<ellipse cx="152.064" cy="8.30807" rx="0.468059" ry="0.488735" fill="#A979EF"/>
<ellipse cx="153.939" cy="8.30807" rx="0.468059" ry="0.488735" fill="#A979EF"/>
<ellipse cx="155.809" cy="8.30807" rx="0.468059" ry="0.488735" fill="#A979EF"/>
<ellipse cx="157.683" cy="8.30807" rx="0.468059" ry="0.488735" fill="#A979EF"/>
<ellipse cx="159.554" cy="8.30807" rx="0.468059" ry="0.488735" fill="#A979EF"/>
<ellipse cx="161.428" cy="8.30807" rx="0.468059" ry="0.488735" fill="#A979EF"/>
<ellipse cx="163.299" cy="8.30807" rx="0.468059" ry="0.488735" fill="#A979EF"/>
<ellipse cx="82.7923" cy="10.2631" rx="0.468059" ry="0.488735" fill="#A979EF"/>
<ellipse cx="84.6629" cy="10.2631" rx="0.468059" ry="0.488735" fill="#A979EF"/>
<ellipse cx="86.5369" cy="10.2631" rx="0.468059" ry="0.488735" fill="#A979EF"/>
<ellipse cx="88.4075" cy="10.2631" rx="0.468059" ry="0.488735" fill="#A979EF"/>
<ellipse cx="90.282" cy="10.2631" rx="0.468059" ry="0.488735" fill="#A979EF"/>
<ellipse cx="92.1521" cy="10.2631" rx="0.468059" ry="0.488735" fill="#A979EF"/>
<ellipse cx="94.0266" cy="10.2631" rx="0.468059" ry="0.488735" fill="#A979EF"/>
<ellipse cx="95.8973" cy="10.2631" rx="0.468059" ry="0.488735" fill="#A979EF"/>
<ellipse cx="97.7713" cy="10.2631" rx="0.468059" ry="0.488735" fill="#A979EF"/>
<ellipse cx="99.6419" cy="10.2631" rx="0.468059" ry="0.488735" fill="#A979EF"/>
<ellipse cx="101.516" cy="10.2631" rx="0.468059" ry="0.488735" fill="#A979EF"/>
<ellipse cx="103.387" cy="10.2631" rx="0.468059" ry="0.488735" fill="#A979EF"/>
<ellipse cx="105.261" cy="10.2631" rx="0.468059" ry="0.488735" fill="#A979EF"/>
<ellipse cx="107.131" cy="10.2631" rx="0.468059" ry="0.488735" fill="#A979EF"/>
<ellipse cx="109.002" cy="10.2631" rx="0.468059" ry="0.488735" fill="#A979EF"/>
<ellipse cx="110.876" cy="10.2631" rx="0.468059" ry="0.488735" fill="#A979EF"/>
<ellipse cx="112.746" cy="10.2631" rx="0.468059" ry="0.488735" fill="#A979EF"/>
<ellipse cx="114.621" cy="10.2631" rx="0.468059" ry="0.488735" fill="#A979EF"/>
<ellipse cx="116.491" cy="10.2631" rx="0.468059" ry="0.488735" fill="#A979EF"/>
<ellipse cx="118.366" cy="10.2631" rx="0.468059" ry="0.488735" fill="#A979EF"/>
<ellipse cx="120.236" cy="10.2631" rx="0.468059" ry="0.488735" fill="#A979EF"/>
<ellipse cx="122.11" cy="10.2631" rx="0.468059" ry="0.488735" fill="#A979EF"/>
<ellipse cx="123.981" cy="10.2631" rx="0.468059" ry="0.488735" fill="#A979EF"/>
<ellipse cx="125.855" cy="10.2631" rx="0.468059" ry="0.488735" fill="#A979EF"/>
<ellipse cx="127.725" cy="10.2631" rx="0.468059" ry="0.488735" fill="#A979EF"/>
<ellipse cx="129.6" cy="10.2631" rx="0.468059" ry="0.488735" fill="#A979EF"/>
<ellipse cx="131.47" cy="10.2631" rx="0.468059" ry="0.488735" fill="#A979EF"/>
<ellipse cx="133.345" cy="10.2631" rx="0.468059" ry="0.488735" fill="#A979EF"/>
<ellipse cx="135.215" cy="10.2631" rx="0.468059" ry="0.488735" fill="#A979EF"/>
<ellipse cx="137.085" cy="10.2631" rx="0.468059" ry="0.488735" fill="#A979EF"/>
<ellipse cx="138.96" cy="10.2631" rx="0.468059" ry="0.488735" fill="#A979EF"/>
<ellipse cx="140.83" cy="10.2631" rx="0.468059" ry="0.488735" fill="#A979EF"/>
<ellipse cx="142.704" cy="10.2631" rx="0.468059" ry="0.488735" fill="#A979EF"/>
<ellipse cx="144.575" cy="10.2631" rx="0.468059" ry="0.488735" fill="#A979EF"/>
<ellipse cx="146.449" cy="10.2631" rx="0.468059" ry="0.488735" fill="#A979EF"/>
<ellipse cx="148.32" cy="10.2631" rx="0.468059" ry="0.488735" fill="#A979EF"/>
<ellipse cx="150.194" cy="10.2631" rx="0.468059" ry="0.488735" fill="#A979EF"/>
<ellipse cx="152.064" cy="10.2631" rx="0.468059" ry="0.488735" fill="#A979EF"/>
<ellipse cx="153.939" cy="10.2631" rx="0.468059" ry="0.488735" fill="#A979EF"/>
<ellipse cx="155.809" cy="10.2631" rx="0.468059" ry="0.488735" fill="#A979EF"/>
<ellipse cx="157.683" cy="10.2631" rx="0.468059" ry="0.488735" fill="#A979EF"/>
<ellipse cx="159.554" cy="10.2631" rx="0.468059" ry="0.488735" fill="#A979EF"/>
<ellipse cx="161.428" cy="10.2631" rx="0.468059" ry="0.488735" fill="#A979EF"/>
<ellipse cx="163.299" cy="10.2631" rx="0.468059" ry="0.488735" fill="#A979EF"/>
<ellipse cx="82.7923" cy="12.2182" rx="0.468059" ry="0.488735" fill="#A979EF"/>
<ellipse cx="84.6629" cy="12.2182" rx="0.468059" ry="0.488735" fill="#A979EF"/>
<ellipse cx="86.5369" cy="12.2182" rx="0.468059" ry="0.488735" fill="#A979EF"/>
<ellipse cx="88.4075" cy="12.2182" rx="0.468059" ry="0.488735" fill="#A979EF"/>
<ellipse cx="90.282" cy="12.2182" rx="0.468059" ry="0.488735" fill="#A979EF"/>
<ellipse cx="92.1521" cy="12.2182" rx="0.468059" ry="0.488735" fill="#A979EF"/>
<ellipse cx="94.0266" cy="12.2182" rx="0.468059" ry="0.488735" fill="#A979EF"/>
<ellipse cx="95.8973" cy="12.2182" rx="0.468059" ry="0.488735" fill="#A979EF"/>
<ellipse cx="97.7713" cy="12.2182" rx="0.468059" ry="0.488735" fill="#A979EF"/>
<ellipse cx="99.6419" cy="12.2182" rx="0.468059" ry="0.488735" fill="#A979EF"/>
<ellipse cx="101.516" cy="12.2182" rx="0.468059" ry="0.488735" fill="#A979EF"/>
<ellipse cx="103.387" cy="12.2182" rx="0.468059" ry="0.488735" fill="#A979EF"/>
<ellipse cx="105.261" cy="12.2182" rx="0.468059" ry="0.488735" fill="#A979EF"/>
<ellipse cx="107.131" cy="12.2182" rx="0.468059" ry="0.488735" fill="#A979EF"/>
<ellipse cx="109.002" cy="12.2182" rx="0.468059" ry="0.488735" fill="#A979EF"/>
<ellipse cx="110.876" cy="12.2182" rx="0.468059" ry="0.488735" fill="#A979EF"/>
<ellipse cx="112.746" cy="12.2182" rx="0.468059" ry="0.488735" fill="#A979EF"/>
<ellipse cx="114.621" cy="12.2182" rx="0.468059" ry="0.488735" fill="#A979EF"/>
<ellipse cx="116.491" cy="12.2182" rx="0.468059" ry="0.488735" fill="#A979EF"/>
<ellipse cx="118.366" cy="12.2182" rx="0.468059" ry="0.488735" fill="#A979EF"/>
<ellipse cx="120.236" cy="12.2182" rx="0.468059" ry="0.488735" fill="#A979EF"/>
<ellipse cx="122.11" cy="12.2182" rx="0.468059" ry="0.488735" fill="#A979EF"/>
<ellipse cx="123.981" cy="12.2182" rx="0.468059" ry="0.488735" fill="#A979EF"/>
<ellipse cx="125.855" cy="12.2182" rx="0.468059" ry="0.488735" fill="#A979EF"/>
<ellipse cx="127.725" cy="12.2182" rx="0.468059" ry="0.488735" fill="#A979EF"/>
<ellipse cx="129.6" cy="12.2182" rx="0.468059" ry="0.488735" fill="#A979EF"/>
<ellipse cx="131.47" cy="12.2182" rx="0.468059" ry="0.488735" fill="#A979EF"/>
<ellipse cx="133.345" cy="12.2182" rx="0.468059" ry="0.488735" fill="#A979EF"/>
<ellipse cx="135.215" cy="12.2182" rx="0.468059" ry="0.488735" fill="#A979EF"/>
<ellipse cx="137.085" cy="12.2182" rx="0.468059" ry="0.488735" fill="#A979EF"/>
<ellipse cx="138.96" cy="12.2182" rx="0.468059" ry="0.488735" fill="#A979EF"/>
<ellipse cx="140.83" cy="12.2182" rx="0.468059" ry="0.488735" fill="#A979EF"/>
<ellipse cx="142.704" cy="12.2182" rx="0.468059" ry="0.488735" fill="#A979EF"/>
<ellipse cx="144.575" cy="12.2182" rx="0.468059" ry="0.488735" fill="#A979EF"/>
<ellipse cx="146.449" cy="12.2182" rx="0.468059" ry="0.488735" fill="#A979EF"/>
<ellipse cx="148.32" cy="12.2182" rx="0.468059" ry="0.488735" fill="#A979EF"/>
<ellipse cx="150.194" cy="12.2182" rx="0.468059" ry="0.488735" fill="#A979EF"/>
<ellipse cx="152.064" cy="12.2182" rx="0.468059" ry="0.488735" fill="#A979EF"/>
<ellipse cx="153.939" cy="12.2182" rx="0.468059" ry="0.488735" fill="#A979EF"/>
<ellipse cx="155.809" cy="12.2182" rx="0.468059" ry="0.488735" fill="#A979EF"/>
<ellipse cx="157.683" cy="12.2182" rx="0.468059" ry="0.488735" fill="#A979EF"/>
<ellipse cx="159.554" cy="12.2182" rx="0.468059" ry="0.488735" fill="#A979EF"/>
<ellipse cx="161.428" cy="12.2182" rx="0.468059" ry="0.488735" fill="#A979EF"/>
<ellipse cx="163.299" cy="12.2182" rx="0.468059" ry="0.488735" fill="#A979EF"/>
<ellipse cx="82.7923" cy="14.1733" rx="0.468059" ry="0.488735" fill="#A979EF"/>
<ellipse cx="84.6629" cy="14.1733" rx="0.468059" ry="0.488735" fill="#A979EF"/>
<ellipse cx="86.5369" cy="14.1733" rx="0.468059" ry="0.488735" fill="#A979EF"/>
<ellipse cx="88.4075" cy="14.1733" rx="0.468059" ry="0.488735" fill="#A979EF"/>
<ellipse cx="90.282" cy="14.1733" rx="0.468059" ry="0.488735" fill="#A979EF"/>
<ellipse cx="92.1521" cy="14.1733" rx="0.468059" ry="0.488735" fill="#A979EF"/>
<ellipse cx="94.0266" cy="14.1733" rx="0.468059" ry="0.488735" fill="#A979EF"/>
<ellipse cx="95.8973" cy="14.1733" rx="0.468059" ry="0.488735" fill="#A979EF"/>
<ellipse cx="97.7713" cy="14.1733" rx="0.468059" ry="0.488735" fill="#A979EF"/>
<ellipse cx="99.6419" cy="14.1733" rx="0.468059" ry="0.488735" fill="#A979EF"/>
<ellipse cx="101.516" cy="14.1733" rx="0.468059" ry="0.488735" fill="#A979EF"/>
<ellipse cx="103.387" cy="14.1733" rx="0.468059" ry="0.488735" fill="#A979EF"/>
<ellipse cx="105.261" cy="14.1733" rx="0.468059" ry="0.488735" fill="#A979EF"/>
<ellipse cx="107.131" cy="14.1733" rx="0.468059" ry="0.488735" fill="#A979EF"/>
<ellipse cx="109.002" cy="14.1733" rx="0.468059" ry="0.488735" fill="#A979EF"/>
<ellipse cx="110.876" cy="14.1733" rx="0.468059" ry="0.488735" fill="#A979EF"/>
<ellipse cx="112.746" cy="14.1733" rx="0.468059" ry="0.488735" fill="#A979EF"/>
<ellipse cx="114.621" cy="14.1733" rx="0.468059" ry="0.488735" fill="#A979EF"/>
<ellipse cx="116.491" cy="14.1733" rx="0.468059" ry="0.488735" fill="#A979EF"/>
<ellipse cx="118.366" cy="14.1733" rx="0.468059" ry="0.488735" fill="#A979EF"/>
<ellipse cx="120.236" cy="14.1733" rx="0.468059" ry="0.488735" fill="#A979EF"/>
<ellipse cx="122.11" cy="14.1733" rx="0.468059" ry="0.488735" fill="#A979EF"/>
<ellipse cx="123.981" cy="14.1733" rx="0.468059" ry="0.488735" fill="#A979EF"/>
<ellipse cx="125.855" cy="14.1733" rx="0.468059" ry="0.488735" fill="#A979EF"/>
<ellipse cx="127.725" cy="14.1733" rx="0.468059" ry="0.488735" fill="#A979EF"/>
<ellipse cx="129.6" cy="14.1733" rx="0.468059" ry="0.488735" fill="#A979EF"/>
<ellipse cx="131.47" cy="14.1733" rx="0.468059" ry="0.488735" fill="#A979EF"/>
<ellipse cx="133.345" cy="14.1733" rx="0.468059" ry="0.488735" fill="#A979EF"/>
<ellipse cx="135.215" cy="14.1733" rx="0.468059" ry="0.488735" fill="#A979EF"/>
<ellipse cx="137.085" cy="14.1733" rx="0.468059" ry="0.488735" fill="#A979EF"/>
<ellipse cx="138.96" cy="14.1733" rx="0.468059" ry="0.488735" fill="#A979EF"/>
<ellipse cx="140.83" cy="14.1733" rx="0.468059" ry="0.488735" fill="#A979EF"/>
<ellipse cx="142.704" cy="14.1733" rx="0.468059" ry="0.488735" fill="#A979EF"/>
<ellipse cx="144.575" cy="14.1733" rx="0.468059" ry="0.488735" fill="#A979EF"/>
<ellipse cx="146.449" cy="14.1733" rx="0.468059" ry="0.488735" fill="#A979EF"/>
<ellipse cx="148.32" cy="14.1733" rx="0.468059" ry="0.488735" fill="#A979EF"/>
<ellipse cx="150.194" cy="14.1733" rx="0.468059" ry="0.488735" fill="#A979EF"/>
<ellipse cx="152.064" cy="14.1733" rx="0.468059" ry="0.488735" fill="#A979EF"/>
<ellipse cx="153.939" cy="14.1733" rx="0.468059" ry="0.488735" fill="#A979EF"/>
<ellipse cx="155.809" cy="14.1733" rx="0.468059" ry="0.488735" fill="#A979EF"/>
<ellipse cx="157.683" cy="14.1733" rx="0.468059" ry="0.488735" fill="#A979EF"/>
<ellipse cx="159.554" cy="14.1733" rx="0.468059" ry="0.488735" fill="#A979EF"/>
<ellipse cx="161.428" cy="14.1733" rx="0.468059" ry="0.488735" fill="#A979EF"/>
<ellipse cx="163.299" cy="14.1733" rx="0.468059" ry="0.488735" fill="#A979EF"/>
<ellipse cx="82.7923" cy="16.1284" rx="0.468059" ry="0.488735" fill="#A979EF"/>
<ellipse cx="84.6629" cy="16.1284" rx="0.468059" ry="0.488735" fill="#A979EF"/>
<ellipse cx="86.5369" cy="16.1284" rx="0.468059" ry="0.488735" fill="#A979EF"/>
<ellipse cx="88.4075" cy="16.1284" rx="0.468059" ry="0.488735" fill="#A979EF"/>
<ellipse cx="90.282" cy="16.1284" rx="0.468059" ry="0.488735" fill="#A979EF"/>
<ellipse cx="92.1521" cy="16.1284" rx="0.468059" ry="0.488735" fill="#A979EF"/>
<ellipse cx="94.0266" cy="16.1284" rx="0.468059" ry="0.488735" fill="#A979EF"/>
<ellipse cx="95.8973" cy="16.1284" rx="0.468059" ry="0.488735" fill="#A979EF"/>
<ellipse cx="97.7713" cy="16.1284" rx="0.468059" ry="0.488735" fill="#A979EF"/>
<ellipse cx="99.6419" cy="16.1284" rx="0.468059" ry="0.488735" fill="#A979EF"/>
<ellipse cx="101.516" cy="16.1284" rx="0.468059" ry="0.488735" fill="#A979EF"/>
<ellipse cx="103.387" cy="16.1284" rx="0.468059" ry="0.488735" fill="#A979EF"/>
<ellipse cx="105.261" cy="16.1284" rx="0.468059" ry="0.488735" fill="#A979EF"/>
<ellipse cx="107.131" cy="16.1284" rx="0.468059" ry="0.488735" fill="#A979EF"/>
<ellipse cx="109.002" cy="16.1284" rx="0.468059" ry="0.488735" fill="#A979EF"/>
<ellipse cx="110.876" cy="16.1284" rx="0.468059" ry="0.488735" fill="#A979EF"/>
<ellipse cx="112.746" cy="16.1284" rx="0.468059" ry="0.488735" fill="#A979EF"/>
<ellipse cx="114.621" cy="16.1284" rx="0.468059" ry="0.488735" fill="#A979EF"/>
<ellipse cx="116.491" cy="16.1284" rx="0.468059" ry="0.488735" fill="#A979EF"/>
<ellipse cx="118.366" cy="16.1284" rx="0.468059" ry="0.488735" fill="#A979EF"/>
<ellipse cx="120.236" cy="16.1284" rx="0.468059" ry="0.488735" fill="#A979EF"/>
<ellipse cx="122.11" cy="16.1284" rx="0.468059" ry="0.488735" fill="#A979EF"/>
<ellipse cx="123.981" cy="16.1284" rx="0.468059" ry="0.488735" fill="#A979EF"/>
<ellipse cx="125.855" cy="16.1284" rx="0.468059" ry="0.488735" fill="#A979EF"/>
<ellipse cx="127.725" cy="16.1284" rx="0.468059" ry="0.488735" fill="#A979EF"/>
<ellipse cx="129.6" cy="16.1284" rx="0.468059" ry="0.488735" fill="#A979EF"/>
<ellipse cx="131.47" cy="16.1284" rx="0.468059" ry="0.488735" fill="#A979EF"/>
<ellipse cx="133.345" cy="16.1284" rx="0.468059" ry="0.488735" fill="#A979EF"/>
<ellipse cx="135.215" cy="16.1284" rx="0.468059" ry="0.488735" fill="#A979EF"/>
<ellipse cx="137.085" cy="16.1284" rx="0.468059" ry="0.488735" fill="#A979EF"/>
<ellipse cx="138.96" cy="16.1284" rx="0.468059" ry="0.488735" fill="#A979EF"/>
<ellipse cx="140.83" cy="16.1284" rx="0.468059" ry="0.488735" fill="#A979EF"/>
<ellipse cx="142.704" cy="16.1284" rx="0.468059" ry="0.488735" fill="#A979EF"/>
<ellipse cx="144.575" cy="16.1284" rx="0.468059" ry="0.488735" fill="#A979EF"/>
<ellipse cx="146.449" cy="16.1284" rx="0.468059" ry="0.488735" fill="#A979EF"/>
<ellipse cx="148.32" cy="16.1284" rx="0.468059" ry="0.488735" fill="#A979EF"/>
<ellipse cx="150.194" cy="16.1284" rx="0.468059" ry="0.488735" fill="#A979EF"/>
<ellipse cx="152.064" cy="16.1284" rx="0.468059" ry="0.488735" fill="#A979EF"/>
<ellipse cx="153.939" cy="16.1284" rx="0.468059" ry="0.488735" fill="#A979EF"/>
<ellipse cx="155.809" cy="16.1284" rx="0.468059" ry="0.488735" fill="#A979EF"/>
<ellipse cx="157.683" cy="16.1284" rx="0.468059" ry="0.488735" fill="#A979EF"/>
<ellipse cx="159.554" cy="16.1284" rx="0.468059" ry="0.488735" fill="#A979EF"/>
<ellipse cx="161.428" cy="16.1284" rx="0.468059" ry="0.488735" fill="#A979EF"/>
<ellipse cx="163.299" cy="16.1284" rx="0.468059" ry="0.488735" fill="#A979EF"/>
<ellipse cx="82.7923" cy="18.0835" rx="0.468059" ry="0.488735" fill="#A979EF"/>
<ellipse cx="84.6629" cy="18.0835" rx="0.468059" ry="0.488735" fill="#A979EF"/>
<ellipse cx="86.5369" cy="18.0835" rx="0.468059" ry="0.488735" fill="#A979EF"/>
<ellipse cx="88.4075" cy="18.0835" rx="0.468059" ry="0.488735" fill="#A979EF"/>
<ellipse cx="90.282" cy="18.0835" rx="0.468059" ry="0.488735" fill="#A979EF"/>
<ellipse cx="92.1521" cy="18.0835" rx="0.468059" ry="0.488735" fill="#A979EF"/>
<ellipse cx="94.0266" cy="18.0835" rx="0.468059" ry="0.488735" fill="#A979EF"/>
<ellipse cx="95.8973" cy="18.0835" rx="0.468059" ry="0.488735" fill="#A979EF"/>
<ellipse cx="97.7713" cy="18.0835" rx="0.468059" ry="0.488735" fill="#A979EF"/>
<ellipse cx="99.6419" cy="18.0835" rx="0.468059" ry="0.488735" fill="#A979EF"/>
<ellipse cx="101.516" cy="18.0835" rx="0.468059" ry="0.488735" fill="#A979EF"/>
<ellipse cx="103.387" cy="18.0835" rx="0.468059" ry="0.488735" fill="#A979EF"/>
<ellipse cx="105.261" cy="18.0835" rx="0.468059" ry="0.488735" fill="#A979EF"/>
<ellipse cx="107.131" cy="18.0835" rx="0.468059" ry="0.488735" fill="#A979EF"/>
<ellipse cx="109.002" cy="18.0835" rx="0.468059" ry="0.488735" fill="#A979EF"/>
<ellipse cx="110.876" cy="18.0835" rx="0.468059" ry="0.488735" fill="#A979EF"/>
<ellipse cx="112.746" cy="18.0835" rx="0.468059" ry="0.488735" fill="#A979EF"/>
<ellipse cx="114.621" cy="18.0835" rx="0.468059" ry="0.488735" fill="#A979EF"/>
<ellipse cx="116.491" cy="18.0835" rx="0.468059" ry="0.488735" fill="#A979EF"/>
<ellipse cx="118.366" cy="18.0835" rx="0.468059" ry="0.488735" fill="#A979EF"/>
<ellipse cx="120.236" cy="18.0835" rx="0.468059" ry="0.488735" fill="#A979EF"/>
<ellipse cx="122.11" cy="18.0835" rx="0.468059" ry="0.488735" fill="#A979EF"/>
<ellipse cx="123.981" cy="18.0835" rx="0.468059" ry="0.488735" fill="#A979EF"/>
<ellipse cx="125.855" cy="18.0835" rx="0.468059" ry="0.488735" fill="#A979EF"/>
<ellipse cx="127.725" cy="18.0835" rx="0.468059" ry="0.488735" fill="#A979EF"/>
<ellipse cx="129.6" cy="18.0835" rx="0.468059" ry="0.488735" fill="#A979EF"/>
<ellipse cx="131.47" cy="18.0835" rx="0.468059" ry="0.488735" fill="#A979EF"/>
<ellipse cx="133.345" cy="18.0835" rx="0.468059" ry="0.488735" fill="#A979EF"/>
<ellipse cx="135.215" cy="18.0835" rx="0.468059" ry="0.488735" fill="#A979EF"/>
<ellipse cx="137.085" cy="18.0835" rx="0.468059" ry="0.488735" fill="#A979EF"/>
<ellipse cx="138.96" cy="18.0835" rx="0.468059" ry="0.488735" fill="#A979EF"/>
<ellipse cx="140.83" cy="18.0835" rx="0.468059" ry="0.488735" fill="#A979EF"/>
<ellipse cx="142.704" cy="18.0835" rx="0.468059" ry="0.488735" fill="#A979EF"/>
<ellipse cx="144.575" cy="18.0835" rx="0.468059" ry="0.488735" fill="#A979EF"/>
<ellipse cx="146.449" cy="18.0835" rx="0.468059" ry="0.488735" fill="#A979EF"/>
<ellipse cx="148.32" cy="18.0835" rx="0.468059" ry="0.488735" fill="#A979EF"/>
<ellipse cx="150.194" cy="18.0835" rx="0.468059" ry="0.488735" fill="#A979EF"/>
<ellipse cx="152.064" cy="18.0835" rx="0.468059" ry="0.488735" fill="#A979EF"/>
<ellipse cx="153.939" cy="18.0835" rx="0.468059" ry="0.488735" fill="#A979EF"/>
<ellipse cx="155.809" cy="18.0835" rx="0.468059" ry="0.488735" fill="#A979EF"/>
<ellipse cx="157.683" cy="18.0835" rx="0.468059" ry="0.488735" fill="#A979EF"/>
<ellipse cx="159.554" cy="18.0835" rx="0.468059" ry="0.488735" fill="#A979EF"/>
<ellipse cx="161.428" cy="18.0835" rx="0.468059" ry="0.488735" fill="#A979EF"/>
<ellipse cx="163.299" cy="18.0835" rx="0.468059" ry="0.488735" fill="#A979EF"/>
<ellipse cx="82.7923" cy="20.0381" rx="0.468059" ry="0.488735" fill="#A979EF"/>
<ellipse cx="84.6629" cy="20.0385" rx="0.468059" ry="0.488735" fill="#A979EF"/>
<ellipse cx="86.5369" cy="20.0385" rx="0.468059" ry="0.488735" fill="#A979EF"/>
<ellipse cx="88.4075" cy="20.0385" rx="0.468059" ry="0.488735" fill="#A979EF"/>
<ellipse cx="90.282" cy="20.0385" rx="0.468059" ry="0.488735" fill="#A979EF"/>
<ellipse cx="92.1521" cy="20.0385" rx="0.468059" ry="0.488735" fill="#A979EF"/>
<ellipse cx="94.0266" cy="20.0385" rx="0.468059" ry="0.488735" fill="#A979EF"/>
<ellipse cx="95.8973" cy="20.0385" rx="0.468059" ry="0.488735" fill="#A979EF"/>
<ellipse cx="97.7713" cy="20.0385" rx="0.468059" ry="0.488735" fill="#A979EF"/>
<ellipse cx="99.6419" cy="20.0385" rx="0.468059" ry="0.488735" fill="#A979EF"/>
<ellipse cx="101.516" cy="20.0385" rx="0.468059" ry="0.488735" fill="#A979EF"/>
<ellipse cx="103.387" cy="20.0385" rx="0.468059" ry="0.488735" fill="#A979EF"/>
<ellipse cx="105.261" cy="20.0385" rx="0.468059" ry="0.488735" fill="#A979EF"/>
<ellipse cx="107.131" cy="20.0385" rx="0.468059" ry="0.488735" fill="#A979EF"/>
<ellipse cx="109.002" cy="20.0385" rx="0.468059" ry="0.488735" fill="#A979EF"/>
<ellipse cx="110.876" cy="20.0385" rx="0.468059" ry="0.488735" fill="#A979EF"/>
<ellipse cx="112.746" cy="20.0385" rx="0.468059" ry="0.488735" fill="#A979EF"/>
<ellipse cx="114.621" cy="20.0385" rx="0.468059" ry="0.488735" fill="#A979EF"/>
<ellipse cx="116.491" cy="20.0385" rx="0.468059" ry="0.488735" fill="#A979EF"/>
<ellipse cx="118.366" cy="20.0385" rx="0.468059" ry="0.488735" fill="#A979EF"/>
<ellipse cx="120.236" cy="20.0385" rx="0.468059" ry="0.488735" fill="#A979EF"/>
<ellipse cx="122.11" cy="20.0385" rx="0.468059" ry="0.488735" fill="#A979EF"/>
<ellipse cx="123.981" cy="20.0385" rx="0.468059" ry="0.488735" fill="#A979EF"/>
<ellipse cx="125.855" cy="20.0385" rx="0.468059" ry="0.488735" fill="#A979EF"/>
<ellipse cx="127.725" cy="20.0385" rx="0.468059" ry="0.488735" fill="#A979EF"/>
<ellipse cx="129.6" cy="20.0385" rx="0.468059" ry="0.488735" fill="#A979EF"/>
<ellipse cx="131.47" cy="20.0385" rx="0.468059" ry="0.488735" fill="#A979EF"/>
<ellipse cx="133.345" cy="20.0385" rx="0.468059" ry="0.488735" fill="#A979EF"/>
<ellipse cx="135.215" cy="20.0385" rx="0.468059" ry="0.488735" fill="#A979EF"/>
<ellipse cx="137.085" cy="20.0385" rx="0.468059" ry="0.488735" fill="#A979EF"/>
<ellipse cx="138.96" cy="20.0385" rx="0.468059" ry="0.488735" fill="#A979EF"/>
<ellipse cx="140.83" cy="20.0385" rx="0.468059" ry="0.488735" fill="#A979EF"/>
<ellipse cx="142.704" cy="20.0385" rx="0.468059" ry="0.488735" fill="#A979EF"/>
<ellipse cx="144.575" cy="20.0385" rx="0.468059" ry="0.488735" fill="#A979EF"/>
<ellipse cx="146.449" cy="20.0385" rx="0.468059" ry="0.488735" fill="#A979EF"/>
<ellipse cx="148.32" cy="20.0385" rx="0.468059" ry="0.488735" fill="#A979EF"/>
<ellipse cx="150.194" cy="20.0385" rx="0.468059" ry="0.488735" fill="#A979EF"/>
<ellipse cx="152.064" cy="20.0385" rx="0.468059" ry="0.488735" fill="#A979EF"/>
<ellipse cx="153.939" cy="20.0385" rx="0.468059" ry="0.488735" fill="#A979EF"/>
<ellipse cx="155.809" cy="20.0385" rx="0.468059" ry="0.488735" fill="#A979EF"/>
<ellipse cx="157.683" cy="20.0385" rx="0.468059" ry="0.488735" fill="#A979EF"/>
<ellipse cx="159.554" cy="20.0385" rx="0.468059" ry="0.488735" fill="#A979EF"/>
<ellipse cx="161.428" cy="20.0385" rx="0.468059" ry="0.488735" fill="#A979EF"/>
<ellipse cx="163.299" cy="20.0385" rx="0.468059" ry="0.488735" fill="#A979EF"/>
<ellipse cx="82.7923" cy="21.9931" rx="0.468059" ry="0.488735" fill="#A979EF"/>
<ellipse cx="84.6629" cy="21.9926" rx="0.468059" ry="0.488735" fill="#A979EF"/>
<ellipse cx="86.5369" cy="21.9926" rx="0.468059" ry="0.488735" fill="#A979EF"/>
<ellipse cx="88.4075" cy="21.9926" rx="0.468059" ry="0.488735" fill="#A979EF"/>
<ellipse cx="90.282" cy="21.9926" rx="0.468059" ry="0.488735" fill="#A979EF"/>
<ellipse cx="92.1521" cy="21.9926" rx="0.468059" ry="0.488735" fill="#A979EF"/>
<ellipse cx="94.0266" cy="21.9926" rx="0.468059" ry="0.488735" fill="#A979EF"/>
<ellipse cx="95.8973" cy="21.9926" rx="0.468059" ry="0.488735" fill="#A979EF"/>
<ellipse cx="97.7713" cy="21.9926" rx="0.468059" ry="0.488735" fill="#A979EF"/>
<ellipse cx="99.6419" cy="21.9926" rx="0.468059" ry="0.488735" fill="#A979EF"/>
<ellipse cx="101.516" cy="21.9926" rx="0.468059" ry="0.488735" fill="#A979EF"/>
<ellipse cx="103.387" cy="21.9926" rx="0.468059" ry="0.488735" fill="#A979EF"/>
<ellipse cx="105.261" cy="21.9926" rx="0.468059" ry="0.488735" fill="#A979EF"/>
<ellipse cx="107.131" cy="21.9926" rx="0.468059" ry="0.488735" fill="#A979EF"/>
<ellipse cx="109.002" cy="21.9926" rx="0.468059" ry="0.488735" fill="#A979EF"/>
<ellipse cx="110.876" cy="21.9926" rx="0.468059" ry="0.488735" fill="#A979EF"/>
<ellipse cx="112.746" cy="21.9926" rx="0.468059" ry="0.488735" fill="#A979EF"/>
<ellipse cx="114.621" cy="21.9926" rx="0.468059" ry="0.488735" fill="#A979EF"/>
<ellipse cx="116.491" cy="21.9926" rx="0.468059" ry="0.488735" fill="#A979EF"/>
<ellipse cx="118.366" cy="21.9926" rx="0.468059" ry="0.488735" fill="#A979EF"/>
<ellipse cx="120.236" cy="21.9926" rx="0.468059" ry="0.488735" fill="#A979EF"/>
<ellipse cx="122.11" cy="21.9926" rx="0.468059" ry="0.488735" fill="#A979EF"/>
<ellipse cx="123.981" cy="21.9926" rx="0.468059" ry="0.488735" fill="#A979EF"/>
<ellipse cx="125.855" cy="21.9926" rx="0.468059" ry="0.488735" fill="#A979EF"/>
<ellipse cx="127.725" cy="21.9926" rx="0.468059" ry="0.488735" fill="#A979EF"/>
<ellipse cx="129.6" cy="21.9926" rx="0.468059" ry="0.488735" fill="#A979EF"/>
<ellipse cx="131.47" cy="21.9926" rx="0.468059" ry="0.488735" fill="#A979EF"/>
<ellipse cx="133.345" cy="21.9926" rx="0.468059" ry="0.488735" fill="#A979EF"/>
<ellipse cx="135.215" cy="21.9926" rx="0.468059" ry="0.488735" fill="#A979EF"/>
<ellipse cx="137.085" cy="21.9926" rx="0.468059" ry="0.488735" fill="#A979EF"/>
<ellipse cx="138.96" cy="21.9926" rx="0.468059" ry="0.488735" fill="#A979EF"/>
<ellipse cx="140.83" cy="21.9926" rx="0.468059" ry="0.488735" fill="#A979EF"/>
<ellipse cx="142.704" cy="21.9926" rx="0.468059" ry="0.488735" fill="#A979EF"/>
<ellipse cx="144.575" cy="21.9926" rx="0.468059" ry="0.488735" fill="#A979EF"/>
<ellipse cx="146.449" cy="21.9926" rx="0.468059" ry="0.488735" fill="#A979EF"/>
<ellipse cx="148.32" cy="21.9926" rx="0.468059" ry="0.488735" fill="#A979EF"/>
<ellipse cx="150.194" cy="21.9926" rx="0.468059" ry="0.488735" fill="#A979EF"/>
<ellipse cx="152.064" cy="21.9926" rx="0.468059" ry="0.488735" fill="#A979EF"/>
<ellipse cx="153.939" cy="21.9926" rx="0.468059" ry="0.488735" fill="#A979EF"/>
<ellipse cx="155.809" cy="21.9926" rx="0.468059" ry="0.488735" fill="#A979EF"/>
<ellipse cx="157.683" cy="21.9926" rx="0.468059" ry="0.488735" fill="#A979EF"/>
<ellipse cx="159.554" cy="21.9926" rx="0.468059" ry="0.488735" fill="#A979EF"/>
<ellipse cx="161.428" cy="21.9926" rx="0.468059" ry="0.488735" fill="#A979EF"/>
<ellipse cx="163.299" cy="21.9926" rx="0.468059" ry="0.488735" fill="#A979EF"/>
<ellipse cx="0.468059" cy="0.488735" rx="0.468059" ry="0.488735" fill="#A979EF"/>
<ellipse cx="2.33866" cy="0.488735" rx="0.468059" ry="0.488735" fill="#A979EF"/>
<ellipse cx="4.21269" cy="0.488735" rx="0.468059" ry="0.488735" fill="#A979EF"/>
<ellipse cx="6.08329" cy="0.488735" rx="0.468059" ry="0.488735" fill="#A979EF"/>
<ellipse cx="7.95732" cy="0.488735" rx="0.468059" ry="0.488735" fill="#A979EF"/>
<ellipse cx="9.82792" cy="0.488735" rx="0.468059" ry="0.488735" fill="#A979EF"/>
<ellipse cx="11.7024" cy="0.488735" rx="0.468059" ry="0.488735" fill="#A979EF"/>
<ellipse cx="13.5726" cy="0.488735" rx="0.468059" ry="0.488735" fill="#A979EF"/>
<ellipse cx="15.4471" cy="0.488735" rx="0.468059" ry="0.488735" fill="#A979EF"/>
<ellipse cx="17.3177" cy="0.488735" rx="0.468059" ry="0.488735" fill="#A979EF"/>
<ellipse cx="19.1917" cy="0.488735" rx="0.468059" ry="0.488735" fill="#A979EF"/>
<ellipse cx="21.0623" cy="0.488735" rx="0.468059" ry="0.488735" fill="#A979EF"/>
<ellipse cx="22.9363" cy="0.488735" rx="0.468059" ry="0.488735" fill="#A979EF"/>
<ellipse cx="24.8069" cy="0.488735" rx="0.468059" ry="0.488735" fill="#A979EF"/>
<ellipse cx="26.6775" cy="0.488735" rx="0.468059" ry="0.488735" fill="#A979EF"/>
<ellipse cx="28.5516" cy="0.488735" rx="0.468059" ry="0.488735" fill="#A979EF"/>
<ellipse cx="30.4222" cy="0.488735" rx="0.468059" ry="0.488735" fill="#A979EF"/>
<ellipse cx="32.2962" cy="0.488735" rx="0.468059" ry="0.488735" fill="#A979EF"/>
<ellipse cx="34.1668" cy="0.488735" rx="0.468059" ry="0.488735" fill="#A979EF"/>
<ellipse cx="36.0413" cy="0.488735" rx="0.468059" ry="0.488735" fill="#A979EF"/>
<ellipse cx="37.9114" cy="0.488735" rx="0.468059" ry="0.488735" fill="#A979EF"/>
<ellipse cx="39.7859" cy="0.488735" rx="0.468059" ry="0.488735" fill="#A979EF"/>
<ellipse cx="41.6565" cy="0.488735" rx="0.468059" ry="0.488735" fill="#A979EF"/>
<ellipse cx="43.5306" cy="0.488735" rx="0.468059" ry="0.488735" fill="#A979EF"/>
<ellipse cx="45.4012" cy="0.488735" rx="0.468059" ry="0.488735" fill="#A979EF"/>
<ellipse cx="47.2752" cy="0.488735" rx="0.468059" ry="0.488735" fill="#A979EF"/>
<ellipse cx="49.1458" cy="0.488735" rx="0.468059" ry="0.488735" fill="#A979EF"/>
<ellipse cx="51.0198" cy="0.488735" rx="0.468059" ry="0.488735" fill="#A979EF"/>
<ellipse cx="52.8904" cy="0.488735" rx="0.468059" ry="0.488735" fill="#A979EF"/>
<ellipse cx="54.761" cy="0.488735" rx="0.468059" ry="0.488735" fill="#A979EF"/>
<ellipse cx="56.6351" cy="0.488735" rx="0.468059" ry="0.488735" fill="#A979EF"/>
<ellipse cx="58.5057" cy="0.488735" rx="0.468059" ry="0.488735" fill="#A979EF"/>
<ellipse cx="60.3802" cy="0.488735" rx="0.468059" ry="0.488735" fill="#A979EF"/>
<ellipse cx="62.2503" cy="0.488735" rx="0.468059" ry="0.488735" fill="#A979EF"/>
<ellipse cx="64.1248" cy="0.488735" rx="0.468059" ry="0.488735" fill="#A979EF"/>
<ellipse cx="65.9954" cy="0.488735" rx="0.468059" ry="0.488735" fill="#A979EF"/>
<ellipse cx="67.8694" cy="0.488735" rx="0.468059" ry="0.488735" fill="#A979EF"/>
<ellipse cx="69.74" cy="0.488735" rx="0.468059" ry="0.488735" fill="#A979EF"/>
<ellipse cx="71.6141" cy="0.488735" rx="0.468059" ry="0.488735" fill="#A979EF"/>
<ellipse cx="73.4847" cy="0.488735" rx="0.468059" ry="0.488735" fill="#A979EF"/>
<ellipse cx="75.3592" cy="0.488735" rx="0.468059" ry="0.488735" fill="#A979EF"/>
<ellipse cx="77.2293" cy="0.488735" rx="0.468059" ry="0.488735" fill="#A979EF"/>
<ellipse cx="79.1038" cy="0.488735" rx="0.468059" ry="0.488735" fill="#A979EF"/>
<ellipse cx="80.9744" cy="0.488735" rx="0.468059" ry="0.488735" fill="#A979EF"/>
<ellipse cx="0.468059" cy="2.44381" rx="0.468059" ry="0.488735" fill="#A979EF"/>
<ellipse cx="2.33866" cy="2.44381" rx="0.468059" ry="0.488735" fill="#A979EF"/>
<ellipse cx="4.21269" cy="2.44381" rx="0.468059" ry="0.488735" fill="#A979EF"/>
<ellipse cx="6.08329" cy="2.44381" rx="0.468059" ry="0.488735" fill="#A979EF"/>
<ellipse cx="7.95732" cy="2.44381" rx="0.468059" ry="0.488735" fill="#A979EF"/>
<ellipse cx="9.82792" cy="2.44381" rx="0.468059" ry="0.488735" fill="#A979EF"/>
<ellipse cx="11.7024" cy="2.44381" rx="0.468059" ry="0.488735" fill="#A979EF"/>
<ellipse cx="13.5726" cy="2.44381" rx="0.468059" ry="0.488735" fill="#A979EF"/>
<ellipse cx="15.4471" cy="2.44381" rx="0.468059" ry="0.488735" fill="#A979EF"/>
<ellipse cx="17.3177" cy="2.44381" rx="0.468059" ry="0.488735" fill="#A979EF"/>
<ellipse cx="19.1917" cy="2.44381" rx="0.468059" ry="0.488735" fill="#A979EF"/>
<ellipse cx="21.0623" cy="2.44381" rx="0.468059" ry="0.488735" fill="#A979EF"/>
<ellipse cx="22.9363" cy="2.44381" rx="0.468059" ry="0.488735" fill="#A979EF"/>
<ellipse cx="24.8069" cy="2.44381" rx="0.468059" ry="0.488735" fill="#A979EF"/>
<ellipse cx="26.6775" cy="2.44381" rx="0.468059" ry="0.488735" fill="#A979EF"/>
<ellipse cx="28.5516" cy="2.44381" rx="0.468059" ry="0.488735" fill="#A979EF"/>
<ellipse cx="30.4222" cy="2.44381" rx="0.468059" ry="0.488735" fill="#A979EF"/>
<ellipse cx="32.2962" cy="2.44381" rx="0.468059" ry="0.488735" fill="#A979EF"/>
<ellipse cx="34.1668" cy="2.44381" rx="0.468059" ry="0.488735" fill="#A979EF"/>
<ellipse cx="36.0413" cy="2.44381" rx="0.468059" ry="0.488735" fill="#A979EF"/>
<ellipse cx="37.9114" cy="2.44381" rx="0.468059" ry="0.488735" fill="#A979EF"/>
<ellipse cx="39.7859" cy="2.44381" rx="0.468059" ry="0.488735" fill="#A979EF"/>
<ellipse cx="41.6565" cy="2.44381" rx="0.468059" ry="0.488735" fill="#A979EF"/>
<ellipse cx="43.5306" cy="2.44381" rx="0.468059" ry="0.488735" fill="#A979EF"/>
<ellipse cx="45.4012" cy="2.44381" rx="0.468059" ry="0.488735" fill="#A979EF"/>
<ellipse cx="47.2752" cy="2.44381" rx="0.468059" ry="0.488735" fill="#A979EF"/>
<ellipse cx="49.1458" cy="2.44381" rx="0.468059" ry="0.488735" fill="#A979EF"/>
<ellipse cx="51.0198" cy="2.44381" rx="0.468059" ry="0.488735" fill="#A979EF"/>
<ellipse cx="52.8904" cy="2.44381" rx="0.468059" ry="0.488735" fill="#A979EF"/>
<ellipse cx="54.761" cy="2.44381" rx="0.468059" ry="0.488735" fill="#A979EF"/>
<ellipse cx="56.6351" cy="2.44381" rx="0.468059" ry="0.488735" fill="#A979EF"/>
<ellipse cx="58.5057" cy="2.44381" rx="0.468059" ry="0.488735" fill="#A979EF"/>
<ellipse cx="60.3802" cy="2.44381" rx="0.468059" ry="0.488735" fill="#A979EF"/>
<ellipse cx="62.2503" cy="2.44381" rx="0.468059" ry="0.488735" fill="#A979EF"/>
<ellipse cx="64.1248" cy="2.44381" rx="0.468059" ry="0.488735" fill="#A979EF"/>
<ellipse cx="65.9954" cy="2.44381" rx="0.468059" ry="0.488735" fill="#A979EF"/>
<ellipse cx="67.8694" cy="2.44381" rx="0.468059" ry="0.488735" fill="#A979EF"/>
<ellipse cx="69.74" cy="2.44381" rx="0.468059" ry="0.488735" fill="#A979EF"/>
<ellipse cx="71.6141" cy="2.44381" rx="0.468059" ry="0.488735" fill="#A979EF"/>
<ellipse cx="73.4847" cy="2.44381" rx="0.468059" ry="0.488735" fill="#A979EF"/>
<ellipse cx="75.3592" cy="2.44381" rx="0.468059" ry="0.488735" fill="#A979EF"/>
<ellipse cx="77.2293" cy="2.44381" rx="0.468059" ry="0.488735" fill="#A979EF"/>
<ellipse cx="79.1038" cy="2.44381" rx="0.468059" ry="0.488735" fill="#A979EF"/>
<ellipse cx="80.9744" cy="2.44381" rx="0.468059" ry="0.488735" fill="#A979EF"/>
<ellipse cx="0.468059" cy="4.39889" rx="0.468059" ry="0.488735" fill="#A979EF"/>
<ellipse cx="2.33866" cy="4.39889" rx="0.468059" ry="0.488735" fill="#A979EF"/>
<ellipse cx="4.21269" cy="4.39889" rx="0.468059" ry="0.488735" fill="#A979EF"/>
<ellipse cx="6.08329" cy="4.39889" rx="0.468059" ry="0.488735" fill="#A979EF"/>
<ellipse cx="7.95732" cy="4.39889" rx="0.468059" ry="0.488735" fill="#A979EF"/>
<ellipse cx="9.82792" cy="4.39889" rx="0.468059" ry="0.488735" fill="#A979EF"/>
<ellipse cx="11.7024" cy="4.39889" rx="0.468059" ry="0.488735" fill="#A979EF"/>
<ellipse cx="13.5726" cy="4.39889" rx="0.468059" ry="0.488735" fill="#A979EF"/>
<ellipse cx="15.4471" cy="4.39889" rx="0.468059" ry="0.488735" fill="#A979EF"/>
<ellipse cx="17.3177" cy="4.39889" rx="0.468059" ry="0.488735" fill="#A979EF"/>
<ellipse cx="19.1917" cy="4.39889" rx="0.468059" ry="0.488735" fill="#A979EF"/>
<ellipse cx="21.0623" cy="4.39889" rx="0.468059" ry="0.488735" fill="#A979EF"/>
<ellipse cx="22.9363" cy="4.39889" rx="0.468059" ry="0.488735" fill="#A979EF"/>
<ellipse cx="24.8069" cy="4.39889" rx="0.468059" ry="0.488735" fill="#A979EF"/>
<ellipse cx="26.6775" cy="4.39889" rx="0.468059" ry="0.488735" fill="#A979EF"/>
<ellipse cx="28.5516" cy="4.39889" rx="0.468059" ry="0.488735" fill="#A979EF"/>
<ellipse cx="30.4222" cy="4.39889" rx="0.468059" ry="0.488735" fill="#A979EF"/>
<ellipse cx="32.2962" cy="4.39889" rx="0.468059" ry="0.488735" fill="#A979EF"/>
<ellipse cx="34.1668" cy="4.39889" rx="0.468059" ry="0.488735" fill="#A979EF"/>
<ellipse cx="36.0413" cy="4.39889" rx="0.468059" ry="0.488735" fill="#A979EF"/>
<ellipse cx="37.9114" cy="4.39889" rx="0.468059" ry="0.488735" fill="#A979EF"/>
<ellipse cx="39.7859" cy="4.39889" rx="0.468059" ry="0.488735" fill="#A979EF"/>
<ellipse cx="41.6565" cy="4.39889" rx="0.468059" ry="0.488735" fill="#A979EF"/>
<ellipse cx="43.5306" cy="4.39889" rx="0.468059" ry="0.488735" fill="#A979EF"/>
<ellipse cx="45.4012" cy="4.39889" rx="0.468059" ry="0.488735" fill="#A979EF"/>
<ellipse cx="47.2752" cy="4.39889" rx="0.468059" ry="0.488735" fill="#A979EF"/>
<ellipse cx="49.1458" cy="4.39889" rx="0.468059" ry="0.488735" fill="#A979EF"/>
<ellipse cx="51.0198" cy="4.39889" rx="0.468059" ry="0.488735" fill="#A979EF"/>
<ellipse cx="52.8904" cy="4.39889" rx="0.468059" ry="0.488735" fill="#A979EF"/>
<ellipse cx="54.761" cy="4.39889" rx="0.468059" ry="0.488735" fill="#A979EF"/>
<ellipse cx="56.6351" cy="4.39889" rx="0.468059" ry="0.488735" fill="#A979EF"/>
<ellipse cx="58.5057" cy="4.39889" rx="0.468059" ry="0.488735" fill="#A979EF"/>
<ellipse cx="60.3802" cy="4.39889" rx="0.468059" ry="0.488735" fill="#A979EF"/>
<ellipse cx="62.2503" cy="4.39889" rx="0.468059" ry="0.488735" fill="#A979EF"/>
<ellipse cx="64.1248" cy="4.39889" rx="0.468059" ry="0.488735" fill="#A979EF"/>
<ellipse cx="65.9954" cy="4.39889" rx="0.468059" ry="0.488735" fill="#A979EF"/>
<ellipse cx="67.8694" cy="4.39889" rx="0.468059" ry="0.488735" fill="#A979EF"/>
<ellipse cx="69.74" cy="4.39889" rx="0.468059" ry="0.488735" fill="#A979EF"/>
<ellipse cx="71.6141" cy="4.39889" rx="0.468059" ry="0.488735" fill="#A979EF"/>
<ellipse cx="73.4847" cy="4.39889" rx="0.468059" ry="0.488735" fill="#A979EF"/>
<ellipse cx="75.3592" cy="4.39889" rx="0.468059" ry="0.488735" fill="#A979EF"/>
<ellipse cx="77.2293" cy="4.39889" rx="0.468059" ry="0.488735" fill="#A979EF"/>
<ellipse cx="79.1038" cy="4.39889" rx="0.468059" ry="0.488735" fill="#A979EF"/>
<ellipse cx="80.9744" cy="4.39889" rx="0.468059" ry="0.488735" fill="#A979EF"/>
<ellipse cx="0.468059" cy="6.35397" rx="0.468059" ry="0.488735" fill="#A979EF"/>
<ellipse cx="2.33866" cy="6.35397" rx="0.468059" ry="0.488735" fill="#A979EF"/>
<ellipse cx="4.21269" cy="6.35397" rx="0.468059" ry="0.488735" fill="#A979EF"/>
<ellipse cx="6.08329" cy="6.35397" rx="0.468059" ry="0.488735" fill="#A979EF"/>
<ellipse cx="7.95732" cy="6.35397" rx="0.468059" ry="0.488735" fill="#A979EF"/>
<ellipse cx="9.82792" cy="6.35397" rx="0.468059" ry="0.488735" fill="#A979EF"/>
<ellipse cx="11.7024" cy="6.35397" rx="0.468059" ry="0.488735" fill="#A979EF"/>
<ellipse cx="13.5726" cy="6.35397" rx="0.468059" ry="0.488735" fill="#A979EF"/>
<ellipse cx="15.4471" cy="6.35397" rx="0.468059" ry="0.488735" fill="#A979EF"/>
<ellipse cx="17.3177" cy="6.35397" rx="0.468059" ry="0.488735" fill="#A979EF"/>
<ellipse cx="19.1917" cy="6.35397" rx="0.468059" ry="0.488735" fill="#A979EF"/>
<ellipse cx="21.0623" cy="6.35397" rx="0.468059" ry="0.488735" fill="#A979EF"/>
<ellipse cx="22.9363" cy="6.35397" rx="0.468059" ry="0.488735" fill="#A979EF"/>
<ellipse cx="24.8069" cy="6.35397" rx="0.468059" ry="0.488735" fill="#A979EF"/>
<ellipse cx="26.6775" cy="6.35397" rx="0.468059" ry="0.488735" fill="#A979EF"/>
<ellipse cx="28.5516" cy="6.35397" rx="0.468059" ry="0.488735" fill="#A979EF"/>
<ellipse cx="30.4222" cy="6.35397" rx="0.468059" ry="0.488735" fill="#A979EF"/>
<ellipse cx="32.2962" cy="6.35397" rx="0.468059" ry="0.488735" fill="#A979EF"/>
<ellipse cx="34.1668" cy="6.35397" rx="0.468059" ry="0.488735" fill="#A979EF"/>
<ellipse cx="36.0413" cy="6.35397" rx="0.468059" ry="0.488735" fill="#A979EF"/>
<ellipse cx="37.9114" cy="6.35397" rx="0.468059" ry="0.488735" fill="#A979EF"/>
<ellipse cx="39.7859" cy="6.35397" rx="0.468059" ry="0.488735" fill="#A979EF"/>
<ellipse cx="41.6565" cy="6.35397" rx="0.468059" ry="0.488735" fill="#A979EF"/>
<ellipse cx="43.5306" cy="6.35397" rx="0.468059" ry="0.488735" fill="#A979EF"/>
<ellipse cx="45.4012" cy="6.35397" rx="0.468059" ry="0.488735" fill="#A979EF"/>
<ellipse cx="47.2752" cy="6.35397" rx="0.468059" ry="0.488735" fill="#A979EF"/>
<ellipse cx="49.1458" cy="6.35397" rx="0.468059" ry="0.488735" fill="#A979EF"/>
<ellipse cx="51.0198" cy="6.35397" rx="0.468059" ry="0.488735" fill="#A979EF"/>
<ellipse cx="52.8904" cy="6.35397" rx="0.468059" ry="0.488735" fill="#A979EF"/>
<ellipse cx="54.761" cy="6.35397" rx="0.468059" ry="0.488735" fill="#A979EF"/>
<ellipse cx="56.6351" cy="6.35397" rx="0.468059" ry="0.488735" fill="#A979EF"/>
<ellipse cx="58.5057" cy="6.35397" rx="0.468059" ry="0.488735" fill="#A979EF"/>
<ellipse cx="60.3802" cy="6.35397" rx="0.468059" ry="0.488735" fill="#A979EF"/>
<ellipse cx="62.2503" cy="6.35397" rx="0.468059" ry="0.488735" fill="#A979EF"/>
<ellipse cx="64.1248" cy="6.35397" rx="0.468059" ry="0.488735" fill="#A979EF"/>
<ellipse cx="65.9954" cy="6.35397" rx="0.468059" ry="0.488735" fill="#A979EF"/>
<ellipse cx="67.8694" cy="6.35397" rx="0.468059" ry="0.488735" fill="#A979EF"/>
<ellipse cx="69.74" cy="6.35397" rx="0.468059" ry="0.488735" fill="#A979EF"/>
<ellipse cx="71.6141" cy="6.35397" rx="0.468059" ry="0.488735" fill="#A979EF"/>
<ellipse cx="73.4847" cy="6.35397" rx="0.468059" ry="0.488735" fill="#A979EF"/>
<ellipse cx="75.3592" cy="6.35397" rx="0.468059" ry="0.488735" fill="#A979EF"/>
<ellipse cx="77.2293" cy="6.35397" rx="0.468059" ry="0.488735" fill="#A979EF"/>
<ellipse cx="79.1038" cy="6.35397" rx="0.468059" ry="0.488735" fill="#A979EF"/>
<ellipse cx="80.9744" cy="6.35397" rx="0.468059" ry="0.488735" fill="#A979EF"/>
<ellipse cx="0.468059" cy="8.30856" rx="0.468059" ry="0.488735" fill="#A979EF"/>
<ellipse cx="2.33866" cy="8.30807" rx="0.468059" ry="0.488735" fill="#A979EF"/>
<ellipse cx="4.21269" cy="8.30807" rx="0.468059" ry="0.488735" fill="#A979EF"/>
<ellipse cx="6.08329" cy="8.30807" rx="0.468059" ry="0.488735" fill="#A979EF"/>
<ellipse cx="7.95732" cy="8.30807" rx="0.468059" ry="0.488735" fill="#A979EF"/>
<ellipse cx="9.82792" cy="8.30807" rx="0.468059" ry="0.488735" fill="#A979EF"/>
<ellipse cx="11.7024" cy="8.30807" rx="0.468059" ry="0.488735" fill="#A979EF"/>
<ellipse cx="13.5726" cy="8.30807" rx="0.468059" ry="0.488735" fill="#A979EF"/>
<ellipse cx="15.4471" cy="8.30807" rx="0.468059" ry="0.488735" fill="#A979EF"/>
<ellipse cx="17.3177" cy="8.30807" rx="0.468059" ry="0.488735" fill="#A979EF"/>
<ellipse cx="19.1917" cy="8.30807" rx="0.468059" ry="0.488735" fill="#A979EF"/>
<ellipse cx="21.0623" cy="8.30807" rx="0.468059" ry="0.488735" fill="#A979EF"/>
<ellipse cx="22.9363" cy="8.30807" rx="0.468059" ry="0.488735" fill="#A979EF"/>
<ellipse cx="24.8069" cy="8.30807" rx="0.468059" ry="0.488735" fill="#A979EF"/>
<ellipse cx="26.6775" cy="8.30807" rx="0.468059" ry="0.488735" fill="#A979EF"/>
<ellipse cx="28.5516" cy="8.30807" rx="0.468059" ry="0.488735" fill="#A979EF"/>
<ellipse cx="30.4222" cy="8.30807" rx="0.468059" ry="0.488735" fill="#A979EF"/>
<ellipse cx="32.2962" cy="8.30807" rx="0.468059" ry="0.488735" fill="#A979EF"/>
<ellipse cx="34.1668" cy="8.30807" rx="0.468059" ry="0.488735" fill="#A979EF"/>
<ellipse cx="36.0413" cy="8.30807" rx="0.468059" ry="0.488735" fill="#A979EF"/>
<ellipse cx="37.9114" cy="8.30807" rx="0.468059" ry="0.488735" fill="#A979EF"/>
<ellipse cx="39.7859" cy="8.30807" rx="0.468059" ry="0.488735" fill="#A979EF"/>
<ellipse cx="41.6565" cy="8.30807" rx="0.468059" ry="0.488735" fill="#A979EF"/>
<ellipse cx="43.5306" cy="8.30807" rx="0.468059" ry="0.488735" fill="#A979EF"/>
<ellipse cx="45.4012" cy="8.30807" rx="0.468059" ry="0.488735" fill="#A979EF"/>
<ellipse cx="47.2752" cy="8.30807" rx="0.468059" ry="0.488735" fill="#A979EF"/>
<ellipse cx="49.1458" cy="8.30807" rx="0.468059" ry="0.488735" fill="#A979EF"/>
<ellipse cx="51.0198" cy="8.30807" rx="0.468059" ry="0.488735" fill="#A979EF"/>
<ellipse cx="52.8904" cy="8.30807" rx="0.468059" ry="0.488735" fill="#A979EF"/>
<ellipse cx="54.761" cy="8.30807" rx="0.468059" ry="0.488735" fill="#A979EF"/>
<ellipse cx="56.6351" cy="8.30807" rx="0.468059" ry="0.488735" fill="#A979EF"/>
<ellipse cx="58.5057" cy="8.30807" rx="0.468059" ry="0.488735" fill="#A979EF"/>
<ellipse cx="60.3802" cy="8.30807" rx="0.468059" ry="0.488735" fill="#A979EF"/>
<ellipse cx="62.2503" cy="8.30807" rx="0.468059" ry="0.488735" fill="#A979EF"/>
<ellipse cx="64.1248" cy="8.30807" rx="0.468059" ry="0.488735" fill="#A979EF"/>
<ellipse cx="65.9954" cy="8.30807" rx="0.468059" ry="0.488735" fill="#A979EF"/>
<ellipse cx="67.8694" cy="8.30807" rx="0.468059" ry="0.488735" fill="#A979EF"/>
<ellipse cx="69.74" cy="8.30807" rx="0.468059" ry="0.488735" fill="#A979EF"/>
<ellipse cx="71.6141" cy="8.30807" rx="0.468059" ry="0.488735" fill="#A979EF"/>
<ellipse cx="73.4847" cy="8.30807" rx="0.468059" ry="0.488735" fill="#A979EF"/>
<ellipse cx="75.3592" cy="8.30807" rx="0.468059" ry="0.488735" fill="#A979EF"/>
<ellipse cx="77.2293" cy="8.30807" rx="0.468059" ry="0.488735" fill="#A979EF"/>
<ellipse cx="79.1038" cy="8.30807" rx="0.468059" ry="0.488735" fill="#A979EF"/>
<ellipse cx="80.9744" cy="8.30807" rx="0.468059" ry="0.488735" fill="#A979EF"/>
<ellipse cx="0.468059" cy="10.2631" rx="0.468059" ry="0.488735" fill="#A979EF"/>
<ellipse cx="2.33866" cy="10.2631" rx="0.468059" ry="0.488735" fill="#A979EF"/>
<ellipse cx="4.21269" cy="10.2631" rx="0.468059" ry="0.488735" fill="#A979EF"/>
<ellipse cx="6.08329" cy="10.2631" rx="0.468059" ry="0.488735" fill="#A979EF"/>
<ellipse cx="7.95732" cy="10.2631" rx="0.468059" ry="0.488735" fill="#A979EF"/>
<ellipse cx="9.82792" cy="10.2631" rx="0.468059" ry="0.488735" fill="#A979EF"/>
<ellipse cx="11.7024" cy="10.2631" rx="0.468059" ry="0.488735" fill="#A979EF"/>
<ellipse cx="13.5726" cy="10.2631" rx="0.468059" ry="0.488735" fill="#A979EF"/>
<ellipse cx="15.4471" cy="10.2631" rx="0.468059" ry="0.488735" fill="#A979EF"/>
<ellipse cx="17.3177" cy="10.2631" rx="0.468059" ry="0.488735" fill="#A979EF"/>
<ellipse cx="19.1917" cy="10.2631" rx="0.468059" ry="0.488735" fill="#A979EF"/>
<ellipse cx="21.0623" cy="10.2631" rx="0.468059" ry="0.488735" fill="#A979EF"/>
<ellipse cx="22.9363" cy="10.2631" rx="0.468059" ry="0.488735" fill="#A979EF"/>
<ellipse cx="24.8069" cy="10.2631" rx="0.468059" ry="0.488735" fill="#A979EF"/>
<ellipse cx="26.6775" cy="10.2631" rx="0.468059" ry="0.488735" fill="#A979EF"/>
<ellipse cx="28.5516" cy="10.2631" rx="0.468059" ry="0.488735" fill="#A979EF"/>
<ellipse cx="30.4222" cy="10.2631" rx="0.468059" ry="0.488735" fill="#A979EF"/>
<ellipse cx="32.2962" cy="10.2631" rx="0.468059" ry="0.488735" fill="#A979EF"/>
<ellipse cx="34.1668" cy="10.2631" rx="0.468059" ry="0.488735" fill="#A979EF"/>
<ellipse cx="36.0413" cy="10.2631" rx="0.468059" ry="0.488735" fill="#A979EF"/>
<ellipse cx="37.9114" cy="10.2631" rx="0.468059" ry="0.488735" fill="#A979EF"/>
<ellipse cx="39.7859" cy="10.2631" rx="0.468059" ry="0.488735" fill="#A979EF"/>
<ellipse cx="41.6565" cy="10.2631" rx="0.468059" ry="0.488735" fill="#A979EF"/>
<ellipse cx="43.5306" cy="10.2631" rx="0.468059" ry="0.488735" fill="#A979EF"/>
<ellipse cx="45.4012" cy="10.2631" rx="0.468059" ry="0.488735" fill="#A979EF"/>
<ellipse cx="47.2752" cy="10.2631" rx="0.468059" ry="0.488735" fill="#A979EF"/>
<ellipse cx="49.1458" cy="10.2631" rx="0.468059" ry="0.488735" fill="#A979EF"/>
<ellipse cx="51.0198" cy="10.2631" rx="0.468059" ry="0.488735" fill="#A979EF"/>
<ellipse cx="52.8904" cy="10.2631" rx="0.468059" ry="0.488735" fill="#A979EF"/>
<ellipse cx="54.761" cy="10.2631" rx="0.468059" ry="0.488735" fill="#A979EF"/>
<ellipse cx="56.6351" cy="10.2631" rx="0.468059" ry="0.488735" fill="#A979EF"/>
<ellipse cx="58.5057" cy="10.2631" rx="0.468059" ry="0.488735" fill="#A979EF"/>
<ellipse cx="60.3802" cy="10.2631" rx="0.468059" ry="0.488735" fill="#A979EF"/>
<ellipse cx="62.2503" cy="10.2631" rx="0.468059" ry="0.488735" fill="#A979EF"/>
<ellipse cx="64.1248" cy="10.2631" rx="0.468059" ry="0.488735" fill="#A979EF"/>
<ellipse cx="65.9954" cy="10.2631" rx="0.468059" ry="0.488735" fill="#A979EF"/>
<ellipse cx="67.8694" cy="10.2631" rx="0.468059" ry="0.488735" fill="#A979EF"/>
<ellipse cx="69.74" cy="10.2631" rx="0.468059" ry="0.488735" fill="#A979EF"/>
<ellipse cx="71.6141" cy="10.2631" rx="0.468059" ry="0.488735" fill="#A979EF"/>
<ellipse cx="73.4847" cy="10.2631" rx="0.468059" ry="0.488735" fill="#A979EF"/>
<ellipse cx="75.3592" cy="10.2631" rx="0.468059" ry="0.488735" fill="#A979EF"/>
<ellipse cx="77.2293" cy="10.2631" rx="0.468059" ry="0.488735" fill="#A979EF"/>
<ellipse cx="79.1038" cy="10.2631" rx="0.468059" ry="0.488735" fill="#A979EF"/>
<ellipse cx="80.9744" cy="10.2631" rx="0.468059" ry="0.488735" fill="#A979EF"/>
<ellipse cx="0.468059" cy="12.2182" rx="0.468059" ry="0.488735" fill="#A979EF"/>
<ellipse cx="2.33866" cy="12.2182" rx="0.468059" ry="0.488735" fill="#A979EF"/>
<ellipse cx="4.21269" cy="12.2182" rx="0.468059" ry="0.488735" fill="#A979EF"/>
<ellipse cx="6.08329" cy="12.2182" rx="0.468059" ry="0.488735" fill="#A979EF"/>
<ellipse cx="7.95732" cy="12.2182" rx="0.468059" ry="0.488735" fill="#A979EF"/>
<ellipse cx="9.82792" cy="12.2182" rx="0.468059" ry="0.488735" fill="#A979EF"/>
<ellipse cx="11.7024" cy="12.2182" rx="0.468059" ry="0.488735" fill="#A979EF"/>
<ellipse cx="13.5726" cy="12.2182" rx="0.468059" ry="0.488735" fill="#A979EF"/>
<ellipse cx="15.4471" cy="12.2182" rx="0.468059" ry="0.488735" fill="#A979EF"/>
<ellipse cx="17.3177" cy="12.2182" rx="0.468059" ry="0.488735" fill="#A979EF"/>
<ellipse cx="19.1917" cy="12.2182" rx="0.468059" ry="0.488735" fill="#A979EF"/>
<ellipse cx="21.0623" cy="12.2182" rx="0.468059" ry="0.488735" fill="#A979EF"/>
<ellipse cx="22.9363" cy="12.2182" rx="0.468059" ry="0.488735" fill="#A979EF"/>
<ellipse cx="24.8069" cy="12.2182" rx="0.468059" ry="0.488735" fill="#A979EF"/>
<ellipse cx="26.6775" cy="12.2182" rx="0.468059" ry="0.488735" fill="#A979EF"/>
<ellipse cx="28.5516" cy="12.2182" rx="0.468059" ry="0.488735" fill="#A979EF"/>
<ellipse cx="30.4222" cy="12.2182" rx="0.468059" ry="0.488735" fill="#A979EF"/>
<ellipse cx="32.2962" cy="12.2182" rx="0.468059" ry="0.488735" fill="#A979EF"/>
<ellipse cx="34.1668" cy="12.2182" rx="0.468059" ry="0.488735" fill="#A979EF"/>
<ellipse cx="36.0413" cy="12.2182" rx="0.468059" ry="0.488735" fill="#A979EF"/>
<ellipse cx="37.9114" cy="12.2182" rx="0.468059" ry="0.488735" fill="#A979EF"/>
<ellipse cx="39.7859" cy="12.2182" rx="0.468059" ry="0.488735" fill="#A979EF"/>
<ellipse cx="41.6565" cy="12.2182" rx="0.468059" ry="0.488735" fill="#A979EF"/>
<ellipse cx="43.5306" cy="12.2182" rx="0.468059" ry="0.488735" fill="#A979EF"/>
<ellipse cx="45.4012" cy="12.2182" rx="0.468059" ry="0.488735" fill="#A979EF"/>
<ellipse cx="47.2752" cy="12.2182" rx="0.468059" ry="0.488735" fill="#A979EF"/>
<ellipse cx="49.1458" cy="12.2182" rx="0.468059" ry="0.488735" fill="#A979EF"/>
<ellipse cx="51.0198" cy="12.2182" rx="0.468059" ry="0.488735" fill="#A979EF"/>
<ellipse cx="52.8904" cy="12.2182" rx="0.468059" ry="0.488735" fill="#A979EF"/>
<ellipse cx="54.761" cy="12.2182" rx="0.468059" ry="0.488735" fill="#A979EF"/>
<ellipse cx="56.6351" cy="12.2182" rx="0.468059" ry="0.488735" fill="#A979EF"/>
<ellipse cx="58.5057" cy="12.2182" rx="0.468059" ry="0.488735" fill="#A979EF"/>
<ellipse cx="60.3802" cy="12.2182" rx="0.468059" ry="0.488735" fill="#A979EF"/>
<ellipse cx="62.2503" cy="12.2182" rx="0.468059" ry="0.488735" fill="#A979EF"/>
<ellipse cx="64.1248" cy="12.2182" rx="0.468059" ry="0.488735" fill="#A979EF"/>
<ellipse cx="65.9954" cy="12.2182" rx="0.468059" ry="0.488735" fill="#A979EF"/>
<ellipse cx="67.8694" cy="12.2182" rx="0.468059" ry="0.488735" fill="#A979EF"/>
<ellipse cx="69.74" cy="12.2182" rx="0.468059" ry="0.488735" fill="#A979EF"/>
<ellipse cx="71.6141" cy="12.2182" rx="0.468059" ry="0.488735" fill="#A979EF"/>
<ellipse cx="73.4847" cy="12.2182" rx="0.468059" ry="0.488735" fill="#A979EF"/>
<ellipse cx="75.3592" cy="12.2182" rx="0.468059" ry="0.488735" fill="#A979EF"/>
<ellipse cx="77.2293" cy="12.2182" rx="0.468059" ry="0.488735" fill="#A979EF"/>
<ellipse cx="79.1038" cy="12.2182" rx="0.468059" ry="0.488735" fill="#A979EF"/>
<ellipse cx="80.9744" cy="12.2182" rx="0.468059" ry="0.488735" fill="#A979EF"/>
<ellipse cx="0.468059" cy="14.1733" rx="0.468059" ry="0.488735" fill="#A979EF"/>
<ellipse cx="2.33866" cy="14.1733" rx="0.468059" ry="0.488735" fill="#A979EF"/>
<ellipse cx="4.21269" cy="14.1733" rx="0.468059" ry="0.488735" fill="#A979EF"/>
<ellipse cx="6.08329" cy="14.1733" rx="0.468059" ry="0.488735" fill="#A979EF"/>
<ellipse cx="7.95732" cy="14.1733" rx="0.468059" ry="0.488735" fill="#A979EF"/>
<ellipse cx="9.82792" cy="14.1733" rx="0.468059" ry="0.488735" fill="#A979EF"/>
<ellipse cx="11.7024" cy="14.1733" rx="0.468059" ry="0.488735" fill="#A979EF"/>
<ellipse cx="13.5726" cy="14.1733" rx="0.468059" ry="0.488735" fill="#A979EF"/>
<ellipse cx="15.4471" cy="14.1733" rx="0.468059" ry="0.488735" fill="#A979EF"/>
<ellipse cx="17.3177" cy="14.1733" rx="0.468059" ry="0.488735" fill="#A979EF"/>
<ellipse cx="19.1917" cy="14.1733" rx="0.468059" ry="0.488735" fill="#A979EF"/>
<ellipse cx="21.0623" cy="14.1733" rx="0.468059" ry="0.488735" fill="#A979EF"/>
<ellipse cx="22.9363" cy="14.1733" rx="0.468059" ry="0.488735" fill="#A979EF"/>
<ellipse cx="24.8069" cy="14.1733" rx="0.468059" ry="0.488735" fill="#A979EF"/>
<ellipse cx="26.6775" cy="14.1733" rx="0.468059" ry="0.488735" fill="#A979EF"/>
<ellipse cx="28.5516" cy="14.1733" rx="0.468059" ry="0.488735" fill="#A979EF"/>
<ellipse cx="30.4222" cy="14.1733" rx="0.468059" ry="0.488735" fill="#A979EF"/>
<ellipse cx="32.2962" cy="14.1733" rx="0.468059" ry="0.488735" fill="#A979EF"/>
<ellipse cx="34.1668" cy="14.1733" rx="0.468059" ry="0.488735" fill="#A979EF"/>
<ellipse cx="36.0413" cy="14.1733" rx="0.468059" ry="0.488735" fill="#A979EF"/>
<ellipse cx="37.9114" cy="14.1733" rx="0.468059" ry="0.488735" fill="#A979EF"/>
<ellipse cx="39.7859" cy="14.1733" rx="0.468059" ry="0.488735" fill="#A979EF"/>
<ellipse cx="41.6565" cy="14.1733" rx="0.468059" ry="0.488735" fill="#A979EF"/>
<ellipse cx="43.5306" cy="14.1733" rx="0.468059" ry="0.488735" fill="#A979EF"/>
<ellipse cx="45.4012" cy="14.1733" rx="0.468059" ry="0.488735" fill="#A979EF"/>
<ellipse cx="47.2752" cy="14.1733" rx="0.468059" ry="0.488735" fill="#A979EF"/>
<ellipse cx="49.1458" cy="14.1733" rx="0.468059" ry="0.488735" fill="#A979EF"/>
<ellipse cx="51.0198" cy="14.1733" rx="0.468059" ry="0.488735" fill="#A979EF"/>
<ellipse cx="52.8904" cy="14.1733" rx="0.468059" ry="0.488735" fill="#A979EF"/>
<ellipse cx="54.761" cy="14.1733" rx="0.468059" ry="0.488735" fill="#A979EF"/>
<ellipse cx="56.6351" cy="14.1733" rx="0.468059" ry="0.488735" fill="#A979EF"/>
<ellipse cx="58.5057" cy="14.1733" rx="0.468059" ry="0.488735" fill="#A979EF"/>
<ellipse cx="60.3802" cy="14.1733" rx="0.468059" ry="0.488735" fill="#A979EF"/>
<ellipse cx="62.2503" cy="14.1733" rx="0.468059" ry="0.488735" fill="#A979EF"/>
<ellipse cx="64.1248" cy="14.1733" rx="0.468059" ry="0.488735" fill="#A979EF"/>
<ellipse cx="65.9954" cy="14.1733" rx="0.468059" ry="0.488735" fill="#A979EF"/>
<ellipse cx="67.8694" cy="14.1733" rx="0.468059" ry="0.488735" fill="#A979EF"/>
<ellipse cx="69.74" cy="14.1733" rx="0.468059" ry="0.488735" fill="#A979EF"/>
<ellipse cx="71.6141" cy="14.1733" rx="0.468059" ry="0.488735" fill="#A979EF"/>
<ellipse cx="73.4847" cy="14.1733" rx="0.468059" ry="0.488735" fill="#A979EF"/>
<ellipse cx="75.3592" cy="14.1733" rx="0.468059" ry="0.488735" fill="#A979EF"/>
<ellipse cx="77.2293" cy="14.1733" rx="0.468059" ry="0.488735" fill="#A979EF"/>
<ellipse cx="79.1038" cy="14.1733" rx="0.468059" ry="0.488735" fill="#A979EF"/>
<ellipse cx="80.9744" cy="14.1733" rx="0.468059" ry="0.488735" fill="#A979EF"/>
<ellipse cx="0.468059" cy="16.1284" rx="0.468059" ry="0.488735" fill="#A979EF"/>
<ellipse cx="2.33866" cy="16.1284" rx="0.468059" ry="0.488735" fill="#A979EF"/>
<ellipse cx="4.21269" cy="16.1284" rx="0.468059" ry="0.488735" fill="#A979EF"/>
<ellipse cx="6.08329" cy="16.1284" rx="0.468059" ry="0.488735" fill="#A979EF"/>
<ellipse cx="7.95732" cy="16.1284" rx="0.468059" ry="0.488735" fill="#A979EF"/>
<ellipse cx="9.82792" cy="16.1284" rx="0.468059" ry="0.488735" fill="#A979EF"/>
<ellipse cx="11.7024" cy="16.1284" rx="0.468059" ry="0.488735" fill="#A979EF"/>
<ellipse cx="13.5726" cy="16.1284" rx="0.468059" ry="0.488735" fill="#A979EF"/>
<ellipse cx="15.4471" cy="16.1284" rx="0.468059" ry="0.488735" fill="#A979EF"/>
<ellipse cx="17.3177" cy="16.1284" rx="0.468059" ry="0.488735" fill="#A979EF"/>
<ellipse cx="19.1917" cy="16.1284" rx="0.468059" ry="0.488735" fill="#A979EF"/>
<ellipse cx="21.0623" cy="16.1284" rx="0.468059" ry="0.488735" fill="#A979EF"/>
<ellipse cx="22.9363" cy="16.1284" rx="0.468059" ry="0.488735" fill="#A979EF"/>
<ellipse cx="24.8069" cy="16.1284" rx="0.468059" ry="0.488735" fill="#A979EF"/>
<ellipse cx="26.6775" cy="16.1284" rx="0.468059" ry="0.488735" fill="#A979EF"/>
<ellipse cx="28.5516" cy="16.1284" rx="0.468059" ry="0.488735" fill="#A979EF"/>
<ellipse cx="30.4222" cy="16.1284" rx="0.468059" ry="0.488735" fill="#A979EF"/>
<ellipse cx="32.2962" cy="16.1284" rx="0.468059" ry="0.488735" fill="#A979EF"/>
<ellipse cx="34.1668" cy="16.1284" rx="0.468059" ry="0.488735" fill="#A979EF"/>
<ellipse cx="36.0413" cy="16.1284" rx="0.468059" ry="0.488735" fill="#A979EF"/>
<ellipse cx="37.9114" cy="16.1284" rx="0.468059" ry="0.488735" fill="#A979EF"/>
<ellipse cx="39.7859" cy="16.1284" rx="0.468059" ry="0.488735" fill="#A979EF"/>
<ellipse cx="41.6565" cy="16.1284" rx="0.468059" ry="0.488735" fill="#A979EF"/>
<ellipse cx="43.5306" cy="16.1284" rx="0.468059" ry="0.488735" fill="#A979EF"/>
<ellipse cx="45.4012" cy="16.1284" rx="0.468059" ry="0.488735" fill="#A979EF"/>
<ellipse cx="47.2752" cy="16.1284" rx="0.468059" ry="0.488735" fill="#A979EF"/>
<ellipse cx="49.1458" cy="16.1284" rx="0.468059" ry="0.488735" fill="#A979EF"/>
<ellipse cx="51.0198" cy="16.1284" rx="0.468059" ry="0.488735" fill="#A979EF"/>
<ellipse cx="52.8904" cy="16.1284" rx="0.468059" ry="0.488735" fill="#A979EF"/>
<ellipse cx="54.761" cy="16.1284" rx="0.468059" ry="0.488735" fill="#A979EF"/>
<ellipse cx="56.6351" cy="16.1284" rx="0.468059" ry="0.488735" fill="#A979EF"/>
<ellipse cx="58.5057" cy="16.1284" rx="0.468059" ry="0.488735" fill="#A979EF"/>
<ellipse cx="60.3802" cy="16.1284" rx="0.468059" ry="0.488735" fill="#A979EF"/>
<ellipse cx="62.2503" cy="16.1284" rx="0.468059" ry="0.488735" fill="#A979EF"/>
<ellipse cx="64.1248" cy="16.1284" rx="0.468059" ry="0.488735" fill="#A979EF"/>
<ellipse cx="65.9954" cy="16.1284" rx="0.468059" ry="0.488735" fill="#A979EF"/>
<ellipse cx="67.8694" cy="16.1284" rx="0.468059" ry="0.488735" fill="#A979EF"/>
<ellipse cx="69.74" cy="16.1284" rx="0.468059" ry="0.488735" fill="#A979EF"/>
<ellipse cx="71.6141" cy="16.1284" rx="0.468059" ry="0.488735" fill="#A979EF"/>
<ellipse cx="73.4847" cy="16.1284" rx="0.468059" ry="0.488735" fill="#A979EF"/>
<ellipse cx="75.3592" cy="16.1284" rx="0.468059" ry="0.488735" fill="#A979EF"/>
<ellipse cx="77.2293" cy="16.1284" rx="0.468059" ry="0.488735" fill="#A979EF"/>
<ellipse cx="79.1038" cy="16.1284" rx="0.468059" ry="0.488735" fill="#A979EF"/>
<ellipse cx="80.9744" cy="16.1284" rx="0.468059" ry="0.488735" fill="#A979EF"/>
<ellipse cx="0.468059" cy="18.0835" rx="0.468059" ry="0.488735" fill="#A979EF"/>
<ellipse cx="2.33866" cy="18.0835" rx="0.468059" ry="0.488735" fill="#A979EF"/>
<ellipse cx="4.21269" cy="18.0835" rx="0.468059" ry="0.488735" fill="#A979EF"/>
<ellipse cx="6.08329" cy="18.0835" rx="0.468059" ry="0.488735" fill="#A979EF"/>
<ellipse cx="7.95732" cy="18.0835" rx="0.468059" ry="0.488735" fill="#A979EF"/>
<ellipse cx="9.82792" cy="18.0835" rx="0.468059" ry="0.488735" fill="#A979EF"/>
<ellipse cx="11.7024" cy="18.0835" rx="0.468059" ry="0.488735" fill="#A979EF"/>
<ellipse cx="13.5726" cy="18.0835" rx="0.468059" ry="0.488735" fill="#A979EF"/>
<ellipse cx="15.4471" cy="18.0835" rx="0.468059" ry="0.488735" fill="#A979EF"/>
<ellipse cx="17.3177" cy="18.0835" rx="0.468059" ry="0.488735" fill="#A979EF"/>
<ellipse cx="19.1917" cy="18.0835" rx="0.468059" ry="0.488735" fill="#A979EF"/>
<ellipse cx="21.0623" cy="18.0835" rx="0.468059" ry="0.488735" fill="#A979EF"/>
<ellipse cx="22.9363" cy="18.0835" rx="0.468059" ry="0.488735" fill="#A979EF"/>
<ellipse cx="24.8069" cy="18.0835" rx="0.468059" ry="0.488735" fill="#A979EF"/>
<ellipse cx="26.6775" cy="18.0835" rx="0.468059" ry="0.488735" fill="#A979EF"/>
<ellipse cx="28.5516" cy="18.0835" rx="0.468059" ry="0.488735" fill="#A979EF"/>
<ellipse cx="30.4222" cy="18.0835" rx="0.468059" ry="0.488735" fill="#A979EF"/>
<ellipse cx="32.2962" cy="18.0835" rx="0.468059" ry="0.488735" fill="#A979EF"/>
<ellipse cx="34.1668" cy="18.0835" rx="0.468059" ry="0.488735" fill="#A979EF"/>
<ellipse cx="36.0413" cy="18.0835" rx="0.468059" ry="0.488735" fill="#A979EF"/>
<ellipse cx="37.9114" cy="18.0835" rx="0.468059" ry="0.488735" fill="#A979EF"/>
<ellipse cx="39.7859" cy="18.0835" rx="0.468059" ry="0.488735" fill="#A979EF"/>
<ellipse cx="41.6565" cy="18.0835" rx="0.468059" ry="0.488735" fill="#A979EF"/>
<ellipse cx="43.5306" cy="18.0835" rx="0.468059" ry="0.488735" fill="#A979EF"/>
<ellipse cx="45.4012" cy="18.0835" rx="0.468059" ry="0.488735" fill="#A979EF"/>
<ellipse cx="47.2752" cy="18.0835" rx="0.468059" ry="0.488735" fill="#A979EF"/>
<ellipse cx="49.1458" cy="18.0835" rx="0.468059" ry="0.488735" fill="#A979EF"/>
<ellipse cx="51.0198" cy="18.0835" rx="0.468059" ry="0.488735" fill="#A979EF"/>
<ellipse cx="52.8904" cy="18.0835" rx="0.468059" ry="0.488735" fill="#A979EF"/>
<ellipse cx="54.761" cy="18.0835" rx="0.468059" ry="0.488735" fill="#A979EF"/>
<ellipse cx="56.6351" cy="18.0835" rx="0.468059" ry="0.488735" fill="#A979EF"/>
<ellipse cx="58.5057" cy="18.0835" rx="0.468059" ry="0.488735" fill="#A979EF"/>
<ellipse cx="60.3802" cy="18.0835" rx="0.468059" ry="0.488735" fill="#A979EF"/>
<ellipse cx="62.2503" cy="18.0835" rx="0.468059" ry="0.488735" fill="#A979EF"/>
<ellipse cx="64.1248" cy="18.0835" rx="0.468059" ry="0.488735" fill="#A979EF"/>
<ellipse cx="65.9954" cy="18.0835" rx="0.468059" ry="0.488735" fill="#A979EF"/>
<ellipse cx="67.8694" cy="18.0835" rx="0.468059" ry="0.488735" fill="#A979EF"/>
<ellipse cx="69.74" cy="18.0835" rx="0.468059" ry="0.488735" fill="#A979EF"/>
<ellipse cx="71.6141" cy="18.0835" rx="0.468059" ry="0.488735" fill="#A979EF"/>
<ellipse cx="73.4847" cy="18.0835" rx="0.468059" ry="0.488735" fill="#A979EF"/>
<ellipse cx="75.3592" cy="18.0835" rx="0.468059" ry="0.488735" fill="#A979EF"/>
<ellipse cx="77.2293" cy="18.0835" rx="0.468059" ry="0.488735" fill="#A979EF"/>
<ellipse cx="79.1038" cy="18.0835" rx="0.468059" ry="0.488735" fill="#A979EF"/>
<ellipse cx="80.9744" cy="18.0835" rx="0.468059" ry="0.488735" fill="#A979EF"/>
<ellipse cx="0.468059" cy="20.0381" rx="0.468059" ry="0.488735" fill="#A979EF"/>
<ellipse cx="2.33866" cy="20.0385" rx="0.468059" ry="0.488735" fill="#A979EF"/>
<ellipse cx="4.21269" cy="20.0385" rx="0.468059" ry="0.488735" fill="#A979EF"/>
<ellipse cx="6.08329" cy="20.0385" rx="0.468059" ry="0.488735" fill="#A979EF"/>
<ellipse cx="7.95732" cy="20.0385" rx="0.468059" ry="0.488735" fill="#A979EF"/>
<ellipse cx="9.82792" cy="20.0385" rx="0.468059" ry="0.488735" fill="#A979EF"/>
<ellipse cx="11.7024" cy="20.0385" rx="0.468059" ry="0.488735" fill="#A979EF"/>
<ellipse cx="13.5726" cy="20.0385" rx="0.468059" ry="0.488735" fill="#A979EF"/>
<ellipse cx="15.4471" cy="20.0385" rx="0.468059" ry="0.488735" fill="#A979EF"/>
<ellipse cx="17.3177" cy="20.0385" rx="0.468059" ry="0.488735" fill="#A979EF"/>
<ellipse cx="19.1917" cy="20.0385" rx="0.468059" ry="0.488735" fill="#A979EF"/>
<ellipse cx="21.0623" cy="20.0385" rx="0.468059" ry="0.488735" fill="#A979EF"/>
<ellipse cx="22.9363" cy="20.0385" rx="0.468059" ry="0.488735" fill="#A979EF"/>
<ellipse cx="24.8069" cy="20.0385" rx="0.468059" ry="0.488735" fill="#A979EF"/>
<ellipse cx="26.6775" cy="20.0385" rx="0.468059" ry="0.488735" fill="#A979EF"/>
<ellipse cx="28.5516" cy="20.0385" rx="0.468059" ry="0.488735" fill="#A979EF"/>
<ellipse cx="30.4222" cy="20.0385" rx="0.468059" ry="0.488735" fill="#A979EF"/>
<ellipse cx="32.2962" cy="20.0385" rx="0.468059" ry="0.488735" fill="#A979EF"/>
<ellipse cx="34.1668" cy="20.0385" rx="0.468059" ry="0.488735" fill="#A979EF"/>
<ellipse cx="36.0413" cy="20.0385" rx="0.468059" ry="0.488735" fill="#A979EF"/>
<ellipse cx="37.9114" cy="20.0385" rx="0.468059" ry="0.488735" fill="#A979EF"/>
<ellipse cx="39.7859" cy="20.0385" rx="0.468059" ry="0.488735" fill="#A979EF"/>
<ellipse cx="41.6565" cy="20.0385" rx="0.468059" ry="0.488735" fill="#A979EF"/>
<ellipse cx="43.5306" cy="20.0385" rx="0.468059" ry="0.488735" fill="#A979EF"/>
<ellipse cx="45.4012" cy="20.0385" rx="0.468059" ry="0.488735" fill="#A979EF"/>
<ellipse cx="47.2752" cy="20.0385" rx="0.468059" ry="0.488735" fill="#A979EF"/>
<ellipse cx="49.1458" cy="20.0385" rx="0.468059" ry="0.488735" fill="#A979EF"/>
<ellipse cx="51.0198" cy="20.0385" rx="0.468059" ry="0.488735" fill="#A979EF"/>
<ellipse cx="52.8904" cy="20.0385" rx="0.468059" ry="0.488735" fill="#A979EF"/>
<ellipse cx="54.761" cy="20.0385" rx="0.468059" ry="0.488735" fill="#A979EF"/>
<ellipse cx="56.6351" cy="20.0385" rx="0.468059" ry="0.488735" fill="#A979EF"/>
<ellipse cx="58.5057" cy="20.0385" rx="0.468059" ry="0.488735" fill="#A979EF"/>
<ellipse cx="60.3802" cy="20.0385" rx="0.468059" ry="0.488735" fill="#A979EF"/>
<ellipse cx="62.2503" cy="20.0385" rx="0.468059" ry="0.488735" fill="#A979EF"/>
<ellipse cx="64.1248" cy="20.0385" rx="0.468059" ry="0.488735" fill="#A979EF"/>
<ellipse cx="65.9954" cy="20.0385" rx="0.468059" ry="0.488735" fill="#A979EF"/>
<ellipse cx="67.8694" cy="20.0385" rx="0.468059" ry="0.488735" fill="#A979EF"/>
<ellipse cx="69.74" cy="20.0385" rx="0.468059" ry="0.488735" fill="#A979EF"/>
<ellipse cx="71.6141" cy="20.0385" rx="0.468059" ry="0.488735" fill="#A979EF"/>
<ellipse cx="73.4847" cy="20.0385" rx="0.468059" ry="0.488735" fill="#A979EF"/>
<ellipse cx="75.3592" cy="20.0385" rx="0.468059" ry="0.488735" fill="#A979EF"/>
<ellipse cx="77.2293" cy="20.0385" rx="0.468059" ry="0.488735" fill="#A979EF"/>
<ellipse cx="79.1038" cy="20.0385" rx="0.468059" ry="0.488735" fill="#A979EF"/>
<ellipse cx="80.9744" cy="20.0385" rx="0.468059" ry="0.488735" fill="#A979EF"/>
<ellipse cx="0.468059" cy="21.9931" rx="0.468059" ry="0.488735" fill="#A979EF"/>
<ellipse cx="2.33866" cy="21.9926" rx="0.468059" ry="0.488735" fill="#A979EF"/>
<ellipse cx="4.21269" cy="21.9926" rx="0.468059" ry="0.488735" fill="#A979EF"/>
<ellipse cx="6.08329" cy="21.9926" rx="0.468059" ry="0.488735" fill="#A979EF"/>
<ellipse cx="7.95732" cy="21.9926" rx="0.468059" ry="0.488735" fill="#A979EF"/>
<ellipse cx="9.82792" cy="21.9926" rx="0.468059" ry="0.488735" fill="#A979EF"/>
<ellipse cx="11.7024" cy="21.9926" rx="0.468059" ry="0.488735" fill="#A979EF"/>
<ellipse cx="13.5726" cy="21.9926" rx="0.468059" ry="0.488735" fill="#A979EF"/>
<ellipse cx="15.4471" cy="21.9926" rx="0.468059" ry="0.488735" fill="#A979EF"/>
<ellipse cx="17.3177" cy="21.9926" rx="0.468059" ry="0.488735" fill="#A979EF"/>
<ellipse cx="19.1917" cy="21.9926" rx="0.468059" ry="0.488735" fill="#A979EF"/>
<ellipse cx="21.0623" cy="21.9926" rx="0.468059" ry="0.488735" fill="#A979EF"/>
<ellipse cx="22.9363" cy="21.9926" rx="0.468059" ry="0.488735" fill="#A979EF"/>
<ellipse cx="24.8069" cy="21.9926" rx="0.468059" ry="0.488735" fill="#A979EF"/>
<ellipse cx="26.6775" cy="21.9926" rx="0.468059" ry="0.488735" fill="#A979EF"/>
<ellipse cx="28.5516" cy="21.9926" rx="0.468059" ry="0.488735" fill="#A979EF"/>
<ellipse cx="30.4222" cy="21.9926" rx="0.468059" ry="0.488735" fill="#A979EF"/>
<ellipse cx="32.2962" cy="21.9926" rx="0.468059" ry="0.488735" fill="#A979EF"/>
<ellipse cx="34.1668" cy="21.9926" rx="0.468059" ry="0.488735" fill="#A979EF"/>
<ellipse cx="36.0413" cy="21.9926" rx="0.468059" ry="0.488735" fill="#A979EF"/>
<ellipse cx="37.9114" cy="21.9926" rx="0.468059" ry="0.488735" fill="#A979EF"/>
<ellipse cx="39.7859" cy="21.9926" rx="0.468059" ry="0.488735" fill="#A979EF"/>
<ellipse cx="41.6565" cy="21.9926" rx="0.468059" ry="0.488735" fill="#A979EF"/>
<ellipse cx="43.5306" cy="21.9926" rx="0.468059" ry="0.488735" fill="#A979EF"/>
<ellipse cx="45.4012" cy="21.9926" rx="0.468059" ry="0.488735" fill="#A979EF"/>
<ellipse cx="47.2752" cy="21.9926" rx="0.468059" ry="0.488735" fill="#A979EF"/>
<ellipse cx="49.1458" cy="21.9926" rx="0.468059" ry="0.488735" fill="#A979EF"/>
<ellipse cx="51.0198" cy="21.9926" rx="0.468059" ry="0.488735" fill="#A979EF"/>
<ellipse cx="52.8904" cy="21.9926" rx="0.468059" ry="0.488735" fill="#A979EF"/>
<ellipse cx="54.761" cy="21.9926" rx="0.468059" ry="0.488735" fill="#A979EF"/>
<ellipse cx="56.6351" cy="21.9926" rx="0.468059" ry="0.488735" fill="#A979EF"/>
<ellipse cx="58.5057" cy="21.9926" rx="0.468059" ry="0.488735" fill="#A979EF"/>
<ellipse cx="60.3802" cy="21.9926" rx="0.468059" ry="0.488735" fill="#A979EF"/>
<ellipse cx="62.2503" cy="21.9926" rx="0.468059" ry="0.488735" fill="#A979EF"/>
<ellipse cx="64.1248" cy="21.9926" rx="0.468059" ry="0.488735" fill="#A979EF"/>
<ellipse cx="65.9954" cy="21.9926" rx="0.468059" ry="0.488735" fill="#A979EF"/>
<ellipse cx="67.8694" cy="21.9926" rx="0.468059" ry="0.488735" fill="#A979EF"/>
<ellipse cx="69.74" cy="21.9926" rx="0.468059" ry="0.488735" fill="#A979EF"/>
<ellipse cx="71.6141" cy="21.9926" rx="0.468059" ry="0.488735" fill="#A979EF"/>
<ellipse cx="73.4847" cy="21.9926" rx="0.468059" ry="0.488735" fill="#A979EF"/>
<ellipse cx="75.3592" cy="21.9926" rx="0.468059" ry="0.488735" fill="#A979EF"/>
<ellipse cx="77.2293" cy="21.9926" rx="0.468059" ry="0.488735" fill="#A979EF"/>
<ellipse cx="79.1038" cy="21.9926" rx="0.468059" ry="0.488735" fill="#A979EF"/>
<ellipse cx="80.9744" cy="21.9926" rx="0.468059" ry="0.488735" fill="#A979EF"/>
</svg>
