<svg width="860" height="226" viewBox="0 0 860 226" fill="none" xmlns="http://www.w3.org/2000/svg">
<path opacity="0.15" d="M36.9 220.7H76.5L91.5 164.3H123.9L108.9 220.7H148.5L163.5 164.3H215.7L225.9 125.9H173.7L182.1 95H234.3L244.5 56.9H192.3L206.4 4.99999H166.8L152.7 56.9H120.3L134.4 4.99999H94.8L80.7 56.9H28.8L18.3 95H70.5L62.4 125.9H10.2L7.15256e-07 164.3H52.2L36.9 220.7ZM102 125.9L110.1 95H142.5L134.1 125.9H102ZM376.071 225.5C400.871 225.5 421.671 219.35 438.471 207.05C455.371 194.75 467.271 178.1 474.171 157.1L433.071 145.7C429.071 158.7 422.321 168.85 412.821 176.15C403.321 183.45 391.071 187.1 376.071 187.1C355.571 187.1 340.121 180.4 329.721 167C319.421 153.5 314.271 135.5 314.271 113C314.271 90.5 319.421 72.55 329.721 59.15C340.121 45.65 355.571 38.9 376.071 38.9C391.071 38.9 403.321 42.55 412.821 49.85C422.321 57.05 429.071 67.2 433.071 80.3L474.171 68.9C467.271 47.9 455.371 31.25 438.471 18.95C421.671 6.64999 400.871 0.499996 376.071 0.499996C354.471 0.499996 335.821 5.19999 320.121 14.6C304.521 24 292.471 37.15 283.971 54.05C275.571 70.95 271.371 90.6 271.371 113C271.371 135.4 275.571 155.05 283.971 171.95C292.471 188.85 304.521 202 320.121 211.4C335.821 220.8 354.471 225.5 376.071 225.5ZM486.34 221H528.34L541.99 176H623.29L637.24 221H679.24L613.24 4.99999H552.34L486.34 221ZM553.54 137.9L582.34 43.25L611.59 137.9H553.54ZM706.125 221H776.025C777.725 221 781.225 220.95 786.525 220.85C791.825 220.75 796.925 220.4 801.825 219.8C819.225 217.7 833.975 211.65 846.075 201.65C858.175 191.65 867.375 178.95 873.675 163.55C879.975 148.15 883.125 131.3 883.125 113C883.125 94.7 879.975 77.85 873.675 62.45C867.375 47.05 858.175 34.35 846.075 24.35C833.975 14.35 819.225 8.3 801.825 6.19999C796.925 5.59999 791.825 5.24999 786.525 5.15C781.225 5.04999 777.725 4.99999 776.025 4.99999H706.125V221ZM747.525 182.6V43.4H776.025C778.725 43.4 782.375 43.45 786.975 43.55C791.575 43.65 795.725 44.1 799.425 44.9C808.525 46.7 816.075 50.95 822.075 57.65C828.075 64.35 832.525 72.55 835.425 82.25C838.425 91.95 839.925 102.2 839.925 113C839.925 123.3 838.475 133.3 835.575 143C832.775 152.7 828.375 161 822.375 167.9C816.475 174.8 808.825 179.2 799.425 181.1C795.725 181.8 791.575 182.25 786.975 182.45C782.375 182.55 778.725 182.6 776.025 182.6H747.525Z" fill="#947BFF" fill-opacity="0.61"/>
</svg>
