<svg width="105" height="25" viewBox="0 0 105 25" fill="none" xmlns="http://www.w3.org/2000/svg">
<ellipse cx="0.603526" cy="0.543475" rx="0.602549" ry="0.543475" fill="#BF98F7"/>
<ellipse cx="3.01271" cy="0.543475" rx="0.602549" ry="0.543475" fill="#BF98F7"/>
<ellipse cx="5.42286" cy="0.543475" rx="0.602549" ry="0.543475" fill="#BF98F7"/>
<ellipse cx="7.83351" cy="0.543475" rx="0.602549" ry="0.543475" fill="#BF98F7"/>
<ellipse cx="10.2432" cy="0.543475" rx="0.602549" ry="0.543475" fill="#BF98F7"/>
<ellipse cx="12.6533" cy="0.543475" rx="0.602549" ry="0.543475" fill="#BF98F7"/>
<ellipse cx="15.0635" cy="0.543475" rx="0.602549" ry="0.543475" fill="#BF98F7"/>
<ellipse cx="17.4736" cy="0.543475" rx="0.602549" ry="0.543475" fill="#BF98F7"/>
<ellipse cx="19.8843" cy="0.543475" rx="0.602549" ry="0.543475" fill="#BF98F7"/>
<ellipse cx="22.2944" cy="0.543475" rx="0.602549" ry="0.543475" fill="#BF98F7"/>
<ellipse cx="24.7046" cy="0.543475" rx="0.602549" ry="0.543475" fill="#BF98F7"/>
<ellipse cx="27.1148" cy="0.543475" rx="0.602549" ry="0.543475" fill="#BF98F7"/>
<ellipse cx="29.5249" cy="0.543475" rx="0.602549" ry="0.543475" fill="#BF98F7"/>
<ellipse cx="31.9351" cy="0.543475" rx="0.602549" ry="0.543475" fill="#BF98F7"/>
<ellipse cx="34.3452" cy="0.543475" rx="0.602549" ry="0.543475" fill="#BF98F7"/>
<ellipse cx="36.7554" cy="0.543475" rx="0.602549" ry="0.543475" fill="#BF98F7"/>
<ellipse cx="39.1655" cy="0.543475" rx="0.602549" ry="0.543475" fill="#BF98F7"/>
<ellipse cx="41.5762" cy="0.543475" rx="0.602549" ry="0.543475" fill="#BF98F7"/>
<ellipse cx="43.9863" cy="0.543475" rx="0.602549" ry="0.543475" fill="#BF98F7"/>
<ellipse cx="46.3965" cy="0.543475" rx="0.602549" ry="0.543475" fill="#BF98F7"/>
<ellipse cx="48.8062" cy="0.543475" rx="0.602549" ry="0.543475" fill="#BF98F7"/>
<ellipse cx="51.2168" cy="0.543475" rx="0.602549" ry="0.543475" fill="#BF98F7"/>
<ellipse cx="53.627" cy="0.543475" rx="0.602549" ry="0.543475" fill="#BF98F7"/>
<ellipse cx="56.0371" cy="0.543475" rx="0.602549" ry="0.543475" fill="#BF98F7"/>
<ellipse cx="58.4473" cy="0.543475" rx="0.602549" ry="0.543475" fill="#BF98F7"/>
<ellipse cx="60.8574" cy="0.543475" rx="0.602549" ry="0.543475" fill="#BF98F7"/>
<ellipse cx="63.2676" cy="0.543475" rx="0.602549" ry="0.543475" fill="#BF98F7"/>
<ellipse cx="65.6782" cy="0.543475" rx="0.602549" ry="0.543475" fill="#BF98F7"/>
<ellipse cx="68.0879" cy="0.543475" rx="0.602549" ry="0.543475" fill="#BF98F7"/>
<ellipse cx="70.4981" cy="0.543475" rx="0.602549" ry="0.543475" fill="#BF98F7"/>
<ellipse cx="72.9082" cy="0.543475" rx="0.602549" ry="0.543475" fill="#BF98F7"/>
<ellipse cx="75.3189" cy="0.543475" rx="0.602549" ry="0.543475" fill="#BF98F7"/>
<ellipse cx="77.729" cy="0.543475" rx="0.602549" ry="0.543475" fill="#BF98F7"/>
<ellipse cx="80.1392" cy="0.543475" rx="0.602549" ry="0.543475" fill="#BF98F7"/>
<ellipse cx="82.5493" cy="0.543475" rx="0.602549" ry="0.543475" fill="#BF98F7"/>
<ellipse cx="84.959" cy="0.543475" rx="0.602549" ry="0.543475" fill="#BF98F7"/>
<ellipse cx="87.3696" cy="0.543475" rx="0.602549" ry="0.543475" fill="#BF98F7"/>
<ellipse cx="89.7798" cy="0.543475" rx="0.602549" ry="0.543475" fill="#BF98F7"/>
<ellipse cx="92.1899" cy="0.543475" rx="0.602549" ry="0.543475" fill="#BF98F7"/>
<ellipse cx="94.6001" cy="0.543475" rx="0.602549" ry="0.543475" fill="#BF98F7"/>
<ellipse cx="97.0107" cy="0.543475" rx="0.602549" ry="0.543475" fill="#BF98F7"/>
<ellipse cx="99.4209" cy="0.543475" rx="0.602549" ry="0.543475" fill="#BF98F7"/>
<ellipse cx="101.831" cy="0.543475" rx="0.602549" ry="0.543475" fill="#BF98F7"/>
<ellipse cx="104.241" cy="0.543475" rx="0.602549" ry="0.543475" fill="#BF98F7"/>
<ellipse cx="0.602549" cy="2.7173" rx="0.602549" ry="0.543475" fill="#BF98F7"/>
<ellipse cx="3.01271" cy="2.7173" rx="0.602549" ry="0.543475" fill="#BF98F7"/>
<ellipse cx="5.42286" cy="2.7173" rx="0.602549" ry="0.543475" fill="#BF98F7"/>
<ellipse cx="7.83351" cy="2.7173" rx="0.602549" ry="0.543475" fill="#BF98F7"/>
<ellipse cx="10.2432" cy="2.7173" rx="0.602549" ry="0.543475" fill="#BF98F7"/>
<ellipse cx="12.6533" cy="2.7173" rx="0.602549" ry="0.543475" fill="#BF98F7"/>
<ellipse cx="15.0635" cy="2.7173" rx="0.602549" ry="0.543475" fill="#BF98F7"/>
<ellipse cx="17.4736" cy="2.7173" rx="0.602549" ry="0.543475" fill="#BF98F7"/>
<ellipse cx="19.8843" cy="2.7173" rx="0.602549" ry="0.543475" fill="#BF98F7"/>
<ellipse cx="22.2944" cy="2.7173" rx="0.602549" ry="0.543475" fill="#BF98F7"/>
<ellipse cx="24.7046" cy="2.7173" rx="0.602549" ry="0.543475" fill="#BF98F7"/>
<ellipse cx="27.1152" cy="2.7173" rx="0.602549" ry="0.543475" fill="#BF98F7"/>
<ellipse cx="29.5244" cy="2.7173" rx="0.602549" ry="0.543475" fill="#BF98F7"/>
<ellipse cx="31.9351" cy="2.7173" rx="0.602549" ry="0.543475" fill="#BF98F7"/>
<ellipse cx="34.3452" cy="2.7173" rx="0.602549" ry="0.543475" fill="#BF98F7"/>
<ellipse cx="36.7554" cy="2.7173" rx="0.602549" ry="0.543475" fill="#BF98F7"/>
<ellipse cx="39.166" cy="2.7173" rx="0.602549" ry="0.543475" fill="#BF98F7"/>
<ellipse cx="41.5762" cy="2.7173" rx="0.602549" ry="0.543475" fill="#BF98F7"/>
<ellipse cx="43.9863" cy="2.7173" rx="0.602549" ry="0.543475" fill="#BF98F7"/>
<ellipse cx="46.3965" cy="2.7173" rx="0.602549" ry="0.543475" fill="#BF98F7"/>
<ellipse cx="48.8062" cy="2.7173" rx="0.602549" ry="0.543475" fill="#BF98F7"/>
<ellipse cx="51.2168" cy="2.7173" rx="0.602549" ry="0.543475" fill="#BF98F7"/>
<ellipse cx="53.6265" cy="2.7173" rx="0.602549" ry="0.543475" fill="#BF98F7"/>
<ellipse cx="56.0371" cy="2.7173" rx="0.602549" ry="0.543475" fill="#BF98F7"/>
<ellipse cx="58.4473" cy="2.7173" rx="0.602549" ry="0.543475" fill="#BF98F7"/>
<ellipse cx="60.8574" cy="2.7173" rx="0.602549" ry="0.543475" fill="#BF98F7"/>
<ellipse cx="63.2681" cy="2.7173" rx="0.602549" ry="0.543475" fill="#BF98F7"/>
<ellipse cx="65.6773" cy="2.7173" rx="0.602549" ry="0.543475" fill="#BF98F7"/>
<ellipse cx="68.0879" cy="2.7173" rx="0.602549" ry="0.543475" fill="#BF98F7"/>
<ellipse cx="70.4981" cy="2.7173" rx="0.602549" ry="0.543475" fill="#BF98F7"/>
<ellipse cx="72.9082" cy="2.7173" rx="0.602549" ry="0.543475" fill="#BF98F7"/>
<ellipse cx="75.3189" cy="2.7173" rx="0.602549" ry="0.543475" fill="#BF98F7"/>
<ellipse cx="77.729" cy="2.7173" rx="0.602549" ry="0.543475" fill="#BF98F7"/>
<ellipse cx="80.1392" cy="2.7173" rx="0.602549" ry="0.543475" fill="#BF98F7"/>
<ellipse cx="82.5493" cy="2.7173" rx="0.602549" ry="0.543475" fill="#BF98F7"/>
<ellipse cx="84.959" cy="2.7173" rx="0.602549" ry="0.543475" fill="#BF98F7"/>
<ellipse cx="87.3696" cy="2.7173" rx="0.602549" ry="0.543475" fill="#BF98F7"/>
<ellipse cx="89.7798" cy="2.7173" rx="0.602549" ry="0.543475" fill="#BF98F7"/>
<ellipse cx="92.1899" cy="2.7173" rx="0.602549" ry="0.543475" fill="#BF98F7"/>
<ellipse cx="94.6006" cy="2.7173" rx="0.602549" ry="0.543475" fill="#BF98F7"/>
<ellipse cx="97.0103" cy="2.7173" rx="0.602549" ry="0.543475" fill="#BF98F7"/>
<ellipse cx="99.4209" cy="2.7173" rx="0.602549" ry="0.543475" fill="#BF98F7"/>
<ellipse cx="101.831" cy="2.7173" rx="0.602549" ry="0.543475" fill="#BF98F7"/>
<ellipse cx="104.241" cy="2.7173" rx="0.602549" ry="0.543475" fill="#BF98F7"/>
<ellipse cx="0.602549" cy="4.89113" rx="0.602549" ry="0.543475" fill="#BF98F7"/>
<ellipse cx="3.01271" cy="4.89113" rx="0.602549" ry="0.543475" fill="#BF98F7"/>
<ellipse cx="5.42286" cy="4.89113" rx="0.602549" ry="0.543475" fill="#BF98F7"/>
<ellipse cx="7.83351" cy="4.89113" rx="0.602549" ry="0.543475" fill="#BF98F7"/>
<ellipse cx="10.2432" cy="4.89113" rx="0.602549" ry="0.543475" fill="#BF98F7"/>
<ellipse cx="12.6533" cy="4.89113" rx="0.602549" ry="0.543475" fill="#BF98F7"/>
<ellipse cx="15.0635" cy="4.89113" rx="0.602549" ry="0.543475" fill="#BF98F7"/>
<ellipse cx="17.4736" cy="4.89113" rx="0.602549" ry="0.543475" fill="#BF98F7"/>
<ellipse cx="19.8843" cy="4.89113" rx="0.602549" ry="0.543475" fill="#BF98F7"/>
<ellipse cx="22.2944" cy="4.89113" rx="0.602549" ry="0.543475" fill="#BF98F7"/>
<ellipse cx="24.7046" cy="4.89113" rx="0.602549" ry="0.543475" fill="#BF98F7"/>
<ellipse cx="27.1152" cy="4.89113" rx="0.602549" ry="0.543475" fill="#BF98F7"/>
<ellipse cx="29.5244" cy="4.89113" rx="0.602549" ry="0.543475" fill="#BF98F7"/>
<ellipse cx="31.9351" cy="4.89113" rx="0.602549" ry="0.543475" fill="#BF98F7"/>
<ellipse cx="34.3452" cy="4.89113" rx="0.602549" ry="0.543475" fill="#BF98F7"/>
<ellipse cx="36.7554" cy="4.89113" rx="0.602549" ry="0.543475" fill="#BF98F7"/>
<ellipse cx="39.166" cy="4.89113" rx="0.602549" ry="0.543475" fill="#BF98F7"/>
<ellipse cx="41.5762" cy="4.89113" rx="0.602549" ry="0.543475" fill="#BF98F7"/>
<ellipse cx="43.9863" cy="4.89113" rx="0.602549" ry="0.543475" fill="#BF98F7"/>
<ellipse cx="46.3965" cy="4.89113" rx="0.602549" ry="0.543475" fill="#BF98F7"/>
<ellipse cx="48.8062" cy="4.89113" rx="0.602549" ry="0.543475" fill="#BF98F7"/>
<ellipse cx="51.2168" cy="4.89113" rx="0.602549" ry="0.543475" fill="#BF98F7"/>
<ellipse cx="53.6265" cy="4.89113" rx="0.602549" ry="0.543475" fill="#BF98F7"/>
<ellipse cx="56.0371" cy="4.89113" rx="0.602549" ry="0.543475" fill="#BF98F7"/>
<ellipse cx="58.4473" cy="4.89113" rx="0.602549" ry="0.543475" fill="#BF98F7"/>
<ellipse cx="60.8574" cy="4.89113" rx="0.602549" ry="0.543475" fill="#BF98F7"/>
<ellipse cx="63.2681" cy="4.89113" rx="0.602549" ry="0.543475" fill="#BF98F7"/>
<ellipse cx="65.6773" cy="4.89113" rx="0.602549" ry="0.543475" fill="#BF98F7"/>
<ellipse cx="68.0879" cy="4.89113" rx="0.602549" ry="0.543475" fill="#BF98F7"/>
<ellipse cx="70.4981" cy="4.89113" rx="0.602549" ry="0.543475" fill="#BF98F7"/>
<ellipse cx="72.9082" cy="4.89113" rx="0.602549" ry="0.543475" fill="#BF98F7"/>
<ellipse cx="75.3189" cy="4.89113" rx="0.602549" ry="0.543475" fill="#BF98F7"/>
<ellipse cx="77.729" cy="4.89113" rx="0.602549" ry="0.543475" fill="#BF98F7"/>
<ellipse cx="80.1392" cy="4.89113" rx="0.602549" ry="0.543475" fill="#BF98F7"/>
<ellipse cx="82.5493" cy="4.89113" rx="0.602549" ry="0.543475" fill="#BF98F7"/>
<ellipse cx="84.959" cy="4.89113" rx="0.602549" ry="0.543475" fill="#BF98F7"/>
<ellipse cx="87.3696" cy="4.89113" rx="0.602549" ry="0.543475" fill="#BF98F7"/>
<ellipse cx="89.7798" cy="4.89113" rx="0.602549" ry="0.543475" fill="#BF98F7"/>
<ellipse cx="92.1899" cy="4.89113" rx="0.602549" ry="0.543475" fill="#BF98F7"/>
<ellipse cx="94.6006" cy="4.89113" rx="0.602549" ry="0.543475" fill="#BF98F7"/>
<ellipse cx="97.0103" cy="4.89113" rx="0.602549" ry="0.543475" fill="#BF98F7"/>
<ellipse cx="99.4209" cy="4.89113" rx="0.602549" ry="0.543475" fill="#BF98F7"/>
<ellipse cx="101.831" cy="4.89113" rx="0.602549" ry="0.543475" fill="#BF98F7"/>
<ellipse cx="104.241" cy="4.89113" rx="0.602549" ry="0.543475" fill="#BF98F7"/>
<ellipse cx="0.602549" cy="7.06496" rx="0.602549" ry="0.543475" fill="#BF98F7"/>
<ellipse cx="3.01271" cy="7.06496" rx="0.602549" ry="0.543475" fill="#BF98F7"/>
<ellipse cx="5.42286" cy="7.06496" rx="0.602549" ry="0.543475" fill="#BF98F7"/>
<ellipse cx="7.83351" cy="7.06496" rx="0.602549" ry="0.543475" fill="#BF98F7"/>
<ellipse cx="10.2432" cy="7.06496" rx="0.602549" ry="0.543475" fill="#BF98F7"/>
<ellipse cx="12.6533" cy="7.06496" rx="0.602549" ry="0.543475" fill="#BF98F7"/>
<ellipse cx="15.0635" cy="7.06496" rx="0.602549" ry="0.543475" fill="#BF98F7"/>
<ellipse cx="17.4736" cy="7.06496" rx="0.602549" ry="0.543475" fill="#BF98F7"/>
<ellipse cx="19.8843" cy="7.06496" rx="0.602549" ry="0.543475" fill="#BF98F7"/>
<ellipse cx="22.2944" cy="7.06496" rx="0.602549" ry="0.543475" fill="#BF98F7"/>
<ellipse cx="24.7046" cy="7.06496" rx="0.602549" ry="0.543475" fill="#BF98F7"/>
<ellipse cx="27.1152" cy="7.06496" rx="0.602549" ry="0.543475" fill="#BF98F7"/>
<ellipse cx="29.5244" cy="7.06496" rx="0.602549" ry="0.543475" fill="#BF98F7"/>
<ellipse cx="31.9351" cy="7.06496" rx="0.602549" ry="0.543475" fill="#BF98F7"/>
<ellipse cx="34.3452" cy="7.06496" rx="0.602549" ry="0.543475" fill="#BF98F7"/>
<ellipse cx="36.7554" cy="7.06496" rx="0.602549" ry="0.543475" fill="#BF98F7"/>
<ellipse cx="39.166" cy="7.06496" rx="0.602549" ry="0.543475" fill="#BF98F7"/>
<ellipse cx="41.5762" cy="7.06496" rx="0.602549" ry="0.543475" fill="#BF98F7"/>
<ellipse cx="43.9863" cy="7.06496" rx="0.602549" ry="0.543475" fill="#BF98F7"/>
<ellipse cx="46.3965" cy="7.06496" rx="0.602549" ry="0.543475" fill="#BF98F7"/>
<ellipse cx="48.8062" cy="7.06496" rx="0.602549" ry="0.543475" fill="#BF98F7"/>
<ellipse cx="51.2168" cy="7.06496" rx="0.602549" ry="0.543475" fill="#BF98F7"/>
<ellipse cx="53.6265" cy="7.06496" rx="0.602549" ry="0.543475" fill="#BF98F7"/>
<ellipse cx="56.0371" cy="7.06496" rx="0.602549" ry="0.543475" fill="#BF98F7"/>
<ellipse cx="58.4473" cy="7.06496" rx="0.602549" ry="0.543475" fill="#BF98F7"/>
<ellipse cx="60.8574" cy="7.06496" rx="0.602549" ry="0.543475" fill="#BF98F7"/>
<ellipse cx="63.2681" cy="7.06496" rx="0.602549" ry="0.543475" fill="#BF98F7"/>
<ellipse cx="65.6773" cy="7.06496" rx="0.602549" ry="0.543475" fill="#BF98F7"/>
<ellipse cx="68.0879" cy="7.06496" rx="0.602549" ry="0.543475" fill="#BF98F7"/>
<ellipse cx="70.4981" cy="7.06496" rx="0.602549" ry="0.543475" fill="#BF98F7"/>
<ellipse cx="72.9082" cy="7.06496" rx="0.602549" ry="0.543475" fill="#BF98F7"/>
<ellipse cx="75.3189" cy="7.06496" rx="0.602549" ry="0.543475" fill="#BF98F7"/>
<ellipse cx="77.729" cy="7.06496" rx="0.602549" ry="0.543475" fill="#BF98F7"/>
<ellipse cx="80.1392" cy="7.06496" rx="0.602549" ry="0.543475" fill="#BF98F7"/>
<ellipse cx="82.5493" cy="7.06496" rx="0.602549" ry="0.543475" fill="#BF98F7"/>
<ellipse cx="84.959" cy="7.06496" rx="0.602549" ry="0.543475" fill="#BF98F7"/>
<ellipse cx="87.3696" cy="7.06496" rx="0.602549" ry="0.543475" fill="#BF98F7"/>
<ellipse cx="89.7798" cy="7.06496" rx="0.602549" ry="0.543475" fill="#BF98F7"/>
<ellipse cx="92.1899" cy="7.06496" rx="0.602549" ry="0.543475" fill="#BF98F7"/>
<ellipse cx="94.6006" cy="7.06496" rx="0.602549" ry="0.543475" fill="#BF98F7"/>
<ellipse cx="97.0103" cy="7.06496" rx="0.602549" ry="0.543475" fill="#BF98F7"/>
<ellipse cx="99.4209" cy="7.06496" rx="0.602549" ry="0.543475" fill="#BF98F7"/>
<ellipse cx="101.831" cy="7.06496" rx="0.602549" ry="0.543475" fill="#BF98F7"/>
<ellipse cx="104.241" cy="7.06496" rx="0.602549" ry="0.543475" fill="#BF98F7"/>
<ellipse cx="0.602549" cy="9.23927" rx="0.602549" ry="0.543475" fill="#BF98F7"/>
<ellipse cx="3.01271" cy="9.23927" rx="0.602549" ry="0.543475" fill="#BF98F7"/>
<ellipse cx="5.42286" cy="9.23927" rx="0.602549" ry="0.543475" fill="#BF98F7"/>
<ellipse cx="7.83351" cy="9.23927" rx="0.602549" ry="0.543475" fill="#BF98F7"/>
<ellipse cx="10.2432" cy="9.23927" rx="0.602549" ry="0.543475" fill="#BF98F7"/>
<ellipse cx="12.6533" cy="9.23927" rx="0.602549" ry="0.543475" fill="#BF98F7"/>
<ellipse cx="15.0635" cy="9.23927" rx="0.602549" ry="0.543475" fill="#BF98F7"/>
<ellipse cx="17.4736" cy="9.23927" rx="0.602549" ry="0.543475" fill="#BF98F7"/>
<ellipse cx="19.8843" cy="9.23927" rx="0.602549" ry="0.543475" fill="#BF98F7"/>
<ellipse cx="22.2944" cy="9.23927" rx="0.602549" ry="0.543475" fill="#BF98F7"/>
<ellipse cx="24.7046" cy="9.23927" rx="0.602549" ry="0.543475" fill="#BF98F7"/>
<ellipse cx="27.1152" cy="9.23927" rx="0.602549" ry="0.543475" fill="#BF98F7"/>
<ellipse cx="29.5244" cy="9.23927" rx="0.602549" ry="0.543475" fill="#BF98F7"/>
<ellipse cx="31.9351" cy="9.23927" rx="0.602549" ry="0.543475" fill="#BF98F7"/>
<ellipse cx="34.3452" cy="9.23927" rx="0.602549" ry="0.543475" fill="#BF98F7"/>
<ellipse cx="36.7554" cy="9.23927" rx="0.602549" ry="0.543475" fill="#BF98F7"/>
<ellipse cx="39.166" cy="9.23927" rx="0.602549" ry="0.543475" fill="#BF98F7"/>
<ellipse cx="41.5762" cy="9.23927" rx="0.602549" ry="0.543475" fill="#BF98F7"/>
<ellipse cx="43.9863" cy="9.23927" rx="0.602549" ry="0.543475" fill="#BF98F7"/>
<ellipse cx="46.3965" cy="9.23927" rx="0.602549" ry="0.543475" fill="#BF98F7"/>
<ellipse cx="48.8062" cy="9.23927" rx="0.602549" ry="0.543475" fill="#BF98F7"/>
<ellipse cx="51.2168" cy="9.23927" rx="0.602549" ry="0.543475" fill="#BF98F7"/>
<ellipse cx="53.6265" cy="9.23927" rx="0.602549" ry="0.543475" fill="#BF98F7"/>
<ellipse cx="56.0371" cy="9.23927" rx="0.602549" ry="0.543475" fill="#BF98F7"/>
<ellipse cx="58.4473" cy="9.23927" rx="0.602549" ry="0.543475" fill="#BF98F7"/>
<ellipse cx="60.8574" cy="9.23927" rx="0.602549" ry="0.543475" fill="#BF98F7"/>
<ellipse cx="63.2681" cy="9.23927" rx="0.602549" ry="0.543475" fill="#BF98F7"/>
<ellipse cx="65.6773" cy="9.23927" rx="0.602549" ry="0.543475" fill="#BF98F7"/>
<ellipse cx="68.0879" cy="9.23927" rx="0.602549" ry="0.543475" fill="#BF98F7"/>
<ellipse cx="70.4981" cy="9.23927" rx="0.602549" ry="0.543475" fill="#BF98F7"/>
<ellipse cx="72.9082" cy="9.23927" rx="0.602549" ry="0.543475" fill="#BF98F7"/>
<ellipse cx="75.3189" cy="9.23927" rx="0.602549" ry="0.543475" fill="#BF98F7"/>
<ellipse cx="77.729" cy="9.23927" rx="0.602549" ry="0.543475" fill="#BF98F7"/>
<ellipse cx="80.1392" cy="9.23927" rx="0.602549" ry="0.543475" fill="#BF98F7"/>
<ellipse cx="82.5493" cy="9.23927" rx="0.602549" ry="0.543475" fill="#BF98F7"/>
<ellipse cx="84.959" cy="9.23927" rx="0.602549" ry="0.543475" fill="#BF98F7"/>
<ellipse cx="87.3696" cy="9.23927" rx="0.602549" ry="0.543475" fill="#BF98F7"/>
<ellipse cx="89.7798" cy="9.23927" rx="0.602549" ry="0.543475" fill="#BF98F7"/>
<ellipse cx="92.1899" cy="9.23927" rx="0.602549" ry="0.543475" fill="#BF98F7"/>
<ellipse cx="94.6006" cy="9.23927" rx="0.602549" ry="0.543475" fill="#BF98F7"/>
<ellipse cx="97.0103" cy="9.23927" rx="0.602549" ry="0.543475" fill="#BF98F7"/>
<ellipse cx="99.4209" cy="9.23927" rx="0.602549" ry="0.543475" fill="#BF98F7"/>
<ellipse cx="101.831" cy="9.23927" rx="0.602549" ry="0.543475" fill="#BF98F7"/>
<ellipse cx="104.241" cy="9.23927" rx="0.602549" ry="0.543475" fill="#BF98F7"/>
<ellipse cx="0.602549" cy="11.4131" rx="0.602549" ry="0.543475" fill="#BF98F7"/>
<ellipse cx="3.01271" cy="11.4131" rx="0.602549" ry="0.543475" fill="#BF98F7"/>
<ellipse cx="5.42286" cy="11.4131" rx="0.602549" ry="0.543475" fill="#BF98F7"/>
<ellipse cx="7.83351" cy="11.4131" rx="0.602549" ry="0.543475" fill="#BF98F7"/>
<ellipse cx="10.2432" cy="11.4131" rx="0.602549" ry="0.543475" fill="#BF98F7"/>
<ellipse cx="12.6533" cy="11.4131" rx="0.602549" ry="0.543475" fill="#BF98F7"/>
<ellipse cx="15.0635" cy="11.4131" rx="0.602549" ry="0.543475" fill="#BF98F7"/>
<ellipse cx="17.4736" cy="11.4131" rx="0.602549" ry="0.543475" fill="#BF98F7"/>
<ellipse cx="19.8843" cy="11.4131" rx="0.602549" ry="0.543475" fill="#BF98F7"/>
<ellipse cx="22.2944" cy="11.4131" rx="0.602549" ry="0.543475" fill="#BF98F7"/>
<ellipse cx="24.7046" cy="11.4131" rx="0.602549" ry="0.543475" fill="#BF98F7"/>
<ellipse cx="27.1152" cy="11.4131" rx="0.602549" ry="0.543475" fill="#BF98F7"/>
<ellipse cx="29.5244" cy="11.4131" rx="0.602549" ry="0.543475" fill="#BF98F7"/>
<ellipse cx="31.9351" cy="11.4131" rx="0.602549" ry="0.543475" fill="#BF98F7"/>
<ellipse cx="34.3452" cy="11.4131" rx="0.602549" ry="0.543475" fill="#BF98F7"/>
<ellipse cx="36.7554" cy="11.4131" rx="0.602549" ry="0.543475" fill="#BF98F7"/>
<ellipse cx="39.166" cy="11.4131" rx="0.602549" ry="0.543475" fill="#BF98F7"/>
<ellipse cx="41.5762" cy="11.4131" rx="0.602549" ry="0.543475" fill="#BF98F7"/>
<ellipse cx="43.9863" cy="11.4131" rx="0.602549" ry="0.543475" fill="#BF98F7"/>
<ellipse cx="46.3965" cy="11.4131" rx="0.602549" ry="0.543475" fill="#BF98F7"/>
<ellipse cx="48.8062" cy="11.4131" rx="0.602549" ry="0.543475" fill="#BF98F7"/>
<ellipse cx="51.2168" cy="11.4131" rx="0.602549" ry="0.543475" fill="#BF98F7"/>
<ellipse cx="53.6265" cy="11.4131" rx="0.602549" ry="0.543475" fill="#BF98F7"/>
<ellipse cx="56.0371" cy="11.4131" rx="0.602549" ry="0.543475" fill="#BF98F7"/>
<ellipse cx="58.4473" cy="11.4131" rx="0.602549" ry="0.543475" fill="#BF98F7"/>
<ellipse cx="60.8574" cy="11.4131" rx="0.602549" ry="0.543475" fill="#BF98F7"/>
<ellipse cx="63.2681" cy="11.4131" rx="0.602549" ry="0.543475" fill="#BF98F7"/>
<ellipse cx="65.6773" cy="11.4131" rx="0.602549" ry="0.543475" fill="#BF98F7"/>
<ellipse cx="68.0879" cy="11.4131" rx="0.602549" ry="0.543475" fill="#BF98F7"/>
<ellipse cx="70.4981" cy="11.4131" rx="0.602549" ry="0.543475" fill="#BF98F7"/>
<ellipse cx="72.9082" cy="11.4131" rx="0.602549" ry="0.543475" fill="#BF98F7"/>
<ellipse cx="75.3189" cy="11.4131" rx="0.602549" ry="0.543475" fill="#BF98F7"/>
<ellipse cx="77.729" cy="11.4131" rx="0.602549" ry="0.543475" fill="#BF98F7"/>
<ellipse cx="80.1392" cy="11.4131" rx="0.602549" ry="0.543475" fill="#BF98F7"/>
<ellipse cx="82.5493" cy="11.4131" rx="0.602549" ry="0.543475" fill="#BF98F7"/>
<ellipse cx="84.959" cy="11.4131" rx="0.602549" ry="0.543475" fill="#BF98F7"/>
<ellipse cx="87.3696" cy="11.4131" rx="0.602549" ry="0.543475" fill="#BF98F7"/>
<ellipse cx="89.7798" cy="11.4131" rx="0.602549" ry="0.543475" fill="#BF98F7"/>
<ellipse cx="92.1899" cy="11.4131" rx="0.602549" ry="0.543475" fill="#BF98F7"/>
<ellipse cx="94.6006" cy="11.4131" rx="0.602549" ry="0.543475" fill="#BF98F7"/>
<ellipse cx="97.0103" cy="11.4131" rx="0.602549" ry="0.543475" fill="#BF98F7"/>
<ellipse cx="99.4209" cy="11.4131" rx="0.602549" ry="0.543475" fill="#BF98F7"/>
<ellipse cx="101.831" cy="11.4131" rx="0.602549" ry="0.543475" fill="#BF98F7"/>
<ellipse cx="104.241" cy="11.4131" rx="0.602549" ry="0.543475" fill="#BF98F7"/>
<ellipse cx="0.602549" cy="13.5869" rx="0.602549" ry="0.543475" fill="#BF98F7"/>
<ellipse cx="3.01271" cy="13.5869" rx="0.602549" ry="0.543475" fill="#BF98F7"/>
<ellipse cx="5.42286" cy="13.5869" rx="0.602549" ry="0.543475" fill="#BF98F7"/>
<ellipse cx="7.83351" cy="13.5869" rx="0.602549" ry="0.543475" fill="#BF98F7"/>
<ellipse cx="10.2432" cy="13.5869" rx="0.602549" ry="0.543475" fill="#BF98F7"/>
<ellipse cx="12.6533" cy="13.5869" rx="0.602549" ry="0.543475" fill="#BF98F7"/>
<ellipse cx="15.0635" cy="13.5869" rx="0.602549" ry="0.543475" fill="#BF98F7"/>
<ellipse cx="17.4736" cy="13.5869" rx="0.602549" ry="0.543475" fill="#BF98F7"/>
<ellipse cx="19.8843" cy="13.5869" rx="0.602549" ry="0.543475" fill="#BF98F7"/>
<ellipse cx="22.2944" cy="13.5869" rx="0.602549" ry="0.543475" fill="#BF98F7"/>
<ellipse cx="24.7046" cy="13.5869" rx="0.602549" ry="0.543475" fill="#BF98F7"/>
<ellipse cx="27.1152" cy="13.5869" rx="0.602549" ry="0.543475" fill="#BF98F7"/>
<ellipse cx="29.5244" cy="13.5869" rx="0.602549" ry="0.543475" fill="#BF98F7"/>
<ellipse cx="31.9351" cy="13.5869" rx="0.602549" ry="0.543475" fill="#BF98F7"/>
<ellipse cx="34.3452" cy="13.5869" rx="0.602549" ry="0.543475" fill="#BF98F7"/>
<ellipse cx="36.7554" cy="13.5869" rx="0.602549" ry="0.543475" fill="#BF98F7"/>
<ellipse cx="39.166" cy="13.5869" rx="0.602549" ry="0.543475" fill="#BF98F7"/>
<ellipse cx="41.5762" cy="13.5869" rx="0.602549" ry="0.543475" fill="#BF98F7"/>
<ellipse cx="43.9863" cy="13.5869" rx="0.602549" ry="0.543475" fill="#BF98F7"/>
<ellipse cx="46.3965" cy="13.5869" rx="0.602549" ry="0.543475" fill="#BF98F7"/>
<ellipse cx="48.8062" cy="13.5869" rx="0.602549" ry="0.543475" fill="#BF98F7"/>
<ellipse cx="51.2168" cy="13.5869" rx="0.602549" ry="0.543475" fill="#BF98F7"/>
<ellipse cx="53.6265" cy="13.5869" rx="0.602549" ry="0.543475" fill="#BF98F7"/>
<ellipse cx="56.0371" cy="13.5869" rx="0.602549" ry="0.543475" fill="#BF98F7"/>
<ellipse cx="58.4473" cy="13.5869" rx="0.602549" ry="0.543475" fill="#BF98F7"/>
<ellipse cx="60.8574" cy="13.5869" rx="0.602549" ry="0.543475" fill="#BF98F7"/>
<ellipse cx="63.2681" cy="13.5869" rx="0.602549" ry="0.543475" fill="#BF98F7"/>
<ellipse cx="65.6773" cy="13.5869" rx="0.602549" ry="0.543475" fill="#BF98F7"/>
<ellipse cx="68.0879" cy="13.5869" rx="0.602549" ry="0.543475" fill="#BF98F7"/>
<ellipse cx="70.4981" cy="13.5869" rx="0.602549" ry="0.543475" fill="#BF98F7"/>
<ellipse cx="72.9082" cy="13.5869" rx="0.602549" ry="0.543475" fill="#BF98F7"/>
<ellipse cx="75.3189" cy="13.5869" rx="0.602549" ry="0.543475" fill="#BF98F7"/>
<ellipse cx="77.729" cy="13.5869" rx="0.602549" ry="0.543475" fill="#BF98F7"/>
<ellipse cx="80.1392" cy="13.5869" rx="0.602549" ry="0.543475" fill="#BF98F7"/>
<ellipse cx="82.5493" cy="13.5869" rx="0.602549" ry="0.543475" fill="#BF98F7"/>
<ellipse cx="84.959" cy="13.5869" rx="0.602549" ry="0.543475" fill="#BF98F7"/>
<ellipse cx="87.3696" cy="13.5869" rx="0.602549" ry="0.543475" fill="#BF98F7"/>
<ellipse cx="89.7798" cy="13.5869" rx="0.602549" ry="0.543475" fill="#BF98F7"/>
<ellipse cx="92.1899" cy="13.5869" rx="0.602549" ry="0.543475" fill="#BF98F7"/>
<ellipse cx="94.6006" cy="13.5869" rx="0.602549" ry="0.543475" fill="#BF98F7"/>
<ellipse cx="97.0103" cy="13.5869" rx="0.602549" ry="0.543475" fill="#BF98F7"/>
<ellipse cx="99.4209" cy="13.5869" rx="0.602549" ry="0.543475" fill="#BF98F7"/>
<ellipse cx="101.831" cy="13.5869" rx="0.602549" ry="0.543475" fill="#BF98F7"/>
<ellipse cx="104.241" cy="13.5869" rx="0.602549" ry="0.543475" fill="#BF98F7"/>
<ellipse cx="0.602549" cy="15.7608" rx="0.602549" ry="0.543475" fill="#BF98F7"/>
<ellipse cx="3.01271" cy="15.7608" rx="0.602549" ry="0.543475" fill="#BF98F7"/>
<ellipse cx="5.42286" cy="15.7608" rx="0.602549" ry="0.543475" fill="#BF98F7"/>
<ellipse cx="7.83351" cy="15.7608" rx="0.602549" ry="0.543475" fill="#BF98F7"/>
<ellipse cx="10.2432" cy="15.7608" rx="0.602549" ry="0.543475" fill="#BF98F7"/>
<ellipse cx="12.6533" cy="15.7608" rx="0.602549" ry="0.543475" fill="#BF98F7"/>
<ellipse cx="15.0635" cy="15.7608" rx="0.602549" ry="0.543475" fill="#BF98F7"/>
<ellipse cx="17.4736" cy="15.7608" rx="0.602549" ry="0.543475" fill="#BF98F7"/>
<ellipse cx="19.8843" cy="15.7608" rx="0.602549" ry="0.543475" fill="#BF98F7"/>
<ellipse cx="22.2944" cy="15.7608" rx="0.602549" ry="0.543475" fill="#BF98F7"/>
<ellipse cx="24.7046" cy="15.7608" rx="0.602549" ry="0.543475" fill="#BF98F7"/>
<ellipse cx="27.1152" cy="15.7608" rx="0.602549" ry="0.543475" fill="#BF98F7"/>
<ellipse cx="29.5244" cy="15.7608" rx="0.602549" ry="0.543475" fill="#BF98F7"/>
<ellipse cx="31.9351" cy="15.7608" rx="0.602549" ry="0.543475" fill="#BF98F7"/>
<ellipse cx="34.3452" cy="15.7608" rx="0.602549" ry="0.543475" fill="#BF98F7"/>
<ellipse cx="36.7554" cy="15.7608" rx="0.602549" ry="0.543475" fill="#BF98F7"/>
<ellipse cx="39.166" cy="15.7608" rx="0.602549" ry="0.543475" fill="#BF98F7"/>
<ellipse cx="41.5762" cy="15.7608" rx="0.602549" ry="0.543475" fill="#BF98F7"/>
<ellipse cx="43.9863" cy="15.7608" rx="0.602549" ry="0.543475" fill="#BF98F7"/>
<ellipse cx="46.3965" cy="15.7608" rx="0.602549" ry="0.543475" fill="#BF98F7"/>
<ellipse cx="48.8062" cy="15.7608" rx="0.602549" ry="0.543475" fill="#BF98F7"/>
<ellipse cx="51.2168" cy="15.7608" rx="0.602549" ry="0.543475" fill="#BF98F7"/>
<ellipse cx="53.6265" cy="15.7608" rx="0.602549" ry="0.543475" fill="#BF98F7"/>
<ellipse cx="56.0371" cy="15.7608" rx="0.602549" ry="0.543475" fill="#BF98F7"/>
<ellipse cx="58.4473" cy="15.7608" rx="0.602549" ry="0.543475" fill="#BF98F7"/>
<ellipse cx="60.8574" cy="15.7608" rx="0.602549" ry="0.543475" fill="#BF98F7"/>
<ellipse cx="63.2681" cy="15.7608" rx="0.602549" ry="0.543475" fill="#BF98F7"/>
<ellipse cx="65.6773" cy="15.7608" rx="0.602549" ry="0.543475" fill="#BF98F7"/>
<ellipse cx="68.0879" cy="15.7608" rx="0.602549" ry="0.543475" fill="#BF98F7"/>
<ellipse cx="70.4981" cy="15.7608" rx="0.602549" ry="0.543475" fill="#BF98F7"/>
<ellipse cx="72.9082" cy="15.7608" rx="0.602549" ry="0.543475" fill="#BF98F7"/>
<ellipse cx="75.3189" cy="15.7608" rx="0.602549" ry="0.543475" fill="#BF98F7"/>
<ellipse cx="77.729" cy="15.7608" rx="0.602549" ry="0.543475" fill="#BF98F7"/>
<ellipse cx="80.1392" cy="15.7608" rx="0.602549" ry="0.543475" fill="#BF98F7"/>
<ellipse cx="82.5493" cy="15.7608" rx="0.602549" ry="0.543475" fill="#BF98F7"/>
<ellipse cx="84.959" cy="15.7608" rx="0.602549" ry="0.543475" fill="#BF98F7"/>
<ellipse cx="87.3696" cy="15.7608" rx="0.602549" ry="0.543475" fill="#BF98F7"/>
<ellipse cx="89.7798" cy="15.7608" rx="0.602549" ry="0.543475" fill="#BF98F7"/>
<ellipse cx="92.1899" cy="15.7608" rx="0.602549" ry="0.543475" fill="#BF98F7"/>
<ellipse cx="94.6006" cy="15.7608" rx="0.602549" ry="0.543475" fill="#BF98F7"/>
<ellipse cx="97.0103" cy="15.7608" rx="0.602549" ry="0.543475" fill="#BF98F7"/>
<ellipse cx="99.4209" cy="15.7608" rx="0.602549" ry="0.543475" fill="#BF98F7"/>
<ellipse cx="101.831" cy="15.7608" rx="0.602549" ry="0.543475" fill="#BF98F7"/>
<ellipse cx="104.241" cy="15.7608" rx="0.602549" ry="0.543475" fill="#BF98F7"/>
<ellipse cx="0.602549" cy="17.9346" rx="0.602549" ry="0.543475" fill="#BF98F7"/>
<ellipse cx="3.01271" cy="17.9346" rx="0.602549" ry="0.543475" fill="#BF98F7"/>
<ellipse cx="5.42286" cy="17.9346" rx="0.602549" ry="0.543475" fill="#BF98F7"/>
<ellipse cx="7.83351" cy="17.9346" rx="0.602549" ry="0.543475" fill="#BF98F7"/>
<ellipse cx="10.2432" cy="17.9346" rx="0.602549" ry="0.543475" fill="#BF98F7"/>
<ellipse cx="12.6533" cy="17.9346" rx="0.602549" ry="0.543475" fill="#BF98F7"/>
<ellipse cx="15.0635" cy="17.9346" rx="0.602549" ry="0.543475" fill="#BF98F7"/>
<ellipse cx="17.4736" cy="17.9346" rx="0.602549" ry="0.543475" fill="#BF98F7"/>
<ellipse cx="19.8843" cy="17.9346" rx="0.602549" ry="0.543475" fill="#BF98F7"/>
<ellipse cx="22.2944" cy="17.9346" rx="0.602549" ry="0.543475" fill="#BF98F7"/>
<ellipse cx="24.7046" cy="17.9346" rx="0.602549" ry="0.543475" fill="#BF98F7"/>
<ellipse cx="27.1152" cy="17.9346" rx="0.602549" ry="0.543475" fill="#BF98F7"/>
<ellipse cx="29.5244" cy="17.9346" rx="0.602549" ry="0.543475" fill="#BF98F7"/>
<ellipse cx="31.9351" cy="17.9346" rx="0.602549" ry="0.543475" fill="#BF98F7"/>
<ellipse cx="34.3452" cy="17.9346" rx="0.602549" ry="0.543475" fill="#BF98F7"/>
<ellipse cx="36.7554" cy="17.9346" rx="0.602549" ry="0.543475" fill="#BF98F7"/>
<ellipse cx="39.166" cy="17.9346" rx="0.602549" ry="0.543475" fill="#BF98F7"/>
<ellipse cx="41.5762" cy="17.9346" rx="0.602549" ry="0.543475" fill="#BF98F7"/>
<ellipse cx="43.9863" cy="17.9346" rx="0.602549" ry="0.543475" fill="#BF98F7"/>
<ellipse cx="46.3965" cy="17.9346" rx="0.602549" ry="0.543475" fill="#BF98F7"/>
<ellipse cx="48.8062" cy="17.9346" rx="0.602549" ry="0.543475" fill="#BF98F7"/>
<ellipse cx="51.2168" cy="17.9346" rx="0.602549" ry="0.543475" fill="#BF98F7"/>
<ellipse cx="53.6265" cy="17.9346" rx="0.602549" ry="0.543475" fill="#BF98F7"/>
<ellipse cx="56.0371" cy="17.9346" rx="0.602549" ry="0.543475" fill="#BF98F7"/>
<ellipse cx="58.4473" cy="17.9346" rx="0.602549" ry="0.543475" fill="#BF98F7"/>
<ellipse cx="60.8574" cy="17.9346" rx="0.602549" ry="0.543475" fill="#BF98F7"/>
<ellipse cx="63.2681" cy="17.9346" rx="0.602549" ry="0.543475" fill="#BF98F7"/>
<ellipse cx="65.6773" cy="17.9346" rx="0.602549" ry="0.543475" fill="#BF98F7"/>
<ellipse cx="68.0879" cy="17.9346" rx="0.602549" ry="0.543475" fill="#BF98F7"/>
<ellipse cx="70.4981" cy="17.9346" rx="0.602549" ry="0.543475" fill="#BF98F7"/>
<ellipse cx="72.9082" cy="17.9346" rx="0.602549" ry="0.543475" fill="#BF98F7"/>
<ellipse cx="75.3189" cy="17.9346" rx="0.602549" ry="0.543475" fill="#BF98F7"/>
<ellipse cx="77.729" cy="17.9346" rx="0.602549" ry="0.543475" fill="#BF98F7"/>
<ellipse cx="80.1392" cy="17.9346" rx="0.602549" ry="0.543475" fill="#BF98F7"/>
<ellipse cx="82.5493" cy="17.9346" rx="0.602549" ry="0.543475" fill="#BF98F7"/>
<ellipse cx="84.959" cy="17.9346" rx="0.602549" ry="0.543475" fill="#BF98F7"/>
<ellipse cx="87.3696" cy="17.9346" rx="0.602549" ry="0.543475" fill="#BF98F7"/>
<ellipse cx="89.7798" cy="17.9346" rx="0.602549" ry="0.543475" fill="#BF98F7"/>
<ellipse cx="92.1899" cy="17.9346" rx="0.602549" ry="0.543475" fill="#BF98F7"/>
<ellipse cx="94.6006" cy="17.9346" rx="0.602549" ry="0.543475" fill="#BF98F7"/>
<ellipse cx="97.0103" cy="17.9346" rx="0.602549" ry="0.543475" fill="#BF98F7"/>
<ellipse cx="99.4209" cy="17.9346" rx="0.602549" ry="0.543475" fill="#BF98F7"/>
<ellipse cx="101.831" cy="17.9346" rx="0.602549" ry="0.543475" fill="#BF98F7"/>
<ellipse cx="104.241" cy="17.9346" rx="0.602549" ry="0.543475" fill="#BF98F7"/>
<ellipse cx="0.602549" cy="20.1084" rx="0.602549" ry="0.543475" fill="#BF98F7"/>
<ellipse cx="3.01271" cy="20.1084" rx="0.602549" ry="0.543475" fill="#BF98F7"/>
<ellipse cx="5.42286" cy="20.1084" rx="0.602549" ry="0.543475" fill="#BF98F7"/>
<ellipse cx="7.83351" cy="20.1084" rx="0.602549" ry="0.543475" fill="#BF98F7"/>
<ellipse cx="10.2432" cy="20.1084" rx="0.602549" ry="0.543475" fill="#BF98F7"/>
<ellipse cx="12.6533" cy="20.1084" rx="0.602549" ry="0.543475" fill="#BF98F7"/>
<ellipse cx="15.0635" cy="20.1084" rx="0.602549" ry="0.543475" fill="#BF98F7"/>
<ellipse cx="17.4736" cy="20.1084" rx="0.602549" ry="0.543475" fill="#BF98F7"/>
<ellipse cx="19.8843" cy="20.1084" rx="0.602549" ry="0.543475" fill="#BF98F7"/>
<ellipse cx="22.2944" cy="20.1084" rx="0.602549" ry="0.543475" fill="#BF98F7"/>
<ellipse cx="24.7046" cy="20.1084" rx="0.602549" ry="0.543475" fill="#BF98F7"/>
<ellipse cx="27.1152" cy="20.1084" rx="0.602549" ry="0.543475" fill="#BF98F7"/>
<ellipse cx="29.5244" cy="20.1084" rx="0.602549" ry="0.543475" fill="#BF98F7"/>
<ellipse cx="31.9351" cy="20.1084" rx="0.602549" ry="0.543475" fill="#BF98F7"/>
<ellipse cx="34.3452" cy="20.1084" rx="0.602549" ry="0.543475" fill="#BF98F7"/>
<ellipse cx="36.7554" cy="20.1084" rx="0.602549" ry="0.543475" fill="#BF98F7"/>
<ellipse cx="39.166" cy="20.1084" rx="0.602549" ry="0.543475" fill="#BF98F7"/>
<ellipse cx="41.5762" cy="20.1084" rx="0.602549" ry="0.543475" fill="#BF98F7"/>
<ellipse cx="43.9863" cy="20.1084" rx="0.602549" ry="0.543475" fill="#BF98F7"/>
<ellipse cx="46.3965" cy="20.1084" rx="0.602549" ry="0.543475" fill="#BF98F7"/>
<ellipse cx="48.8062" cy="20.1084" rx="0.602549" ry="0.543475" fill="#BF98F7"/>
<ellipse cx="51.2168" cy="20.1084" rx="0.602549" ry="0.543475" fill="#BF98F7"/>
<ellipse cx="53.6265" cy="20.1084" rx="0.602549" ry="0.543475" fill="#BF98F7"/>
<ellipse cx="56.0371" cy="20.1084" rx="0.602549" ry="0.543475" fill="#BF98F7"/>
<ellipse cx="58.4473" cy="20.1084" rx="0.602549" ry="0.543475" fill="#BF98F7"/>
<ellipse cx="60.8574" cy="20.1084" rx="0.602549" ry="0.543475" fill="#BF98F7"/>
<ellipse cx="63.2681" cy="20.1084" rx="0.602549" ry="0.543475" fill="#BF98F7"/>
<ellipse cx="65.6773" cy="20.1084" rx="0.602549" ry="0.543475" fill="#BF98F7"/>
<ellipse cx="68.0879" cy="20.1084" rx="0.602549" ry="0.543475" fill="#BF98F7"/>
<ellipse cx="70.4981" cy="20.1084" rx="0.602549" ry="0.543475" fill="#BF98F7"/>
<ellipse cx="72.9082" cy="20.1084" rx="0.602549" ry="0.543475" fill="#BF98F7"/>
<ellipse cx="75.3189" cy="20.1084" rx="0.602549" ry="0.543475" fill="#BF98F7"/>
<ellipse cx="77.729" cy="20.1084" rx="0.602549" ry="0.543475" fill="#BF98F7"/>
<ellipse cx="80.1392" cy="20.1084" rx="0.602549" ry="0.543475" fill="#BF98F7"/>
<ellipse cx="82.5493" cy="20.1084" rx="0.602549" ry="0.543475" fill="#BF98F7"/>
<ellipse cx="84.959" cy="20.1084" rx="0.602549" ry="0.543475" fill="#BF98F7"/>
<ellipse cx="87.3696" cy="20.1084" rx="0.602549" ry="0.543475" fill="#BF98F7"/>
<ellipse cx="89.7798" cy="20.1084" rx="0.602549" ry="0.543475" fill="#BF98F7"/>
<ellipse cx="92.1899" cy="20.1084" rx="0.602549" ry="0.543475" fill="#BF98F7"/>
<ellipse cx="94.6006" cy="20.1084" rx="0.602549" ry="0.543475" fill="#BF98F7"/>
<ellipse cx="97.0103" cy="20.1084" rx="0.602549" ry="0.543475" fill="#BF98F7"/>
<ellipse cx="99.4209" cy="20.1084" rx="0.602549" ry="0.543475" fill="#BF98F7"/>
<ellipse cx="101.831" cy="20.1084" rx="0.602549" ry="0.543475" fill="#BF98F7"/>
<ellipse cx="104.241" cy="20.1084" rx="0.602549" ry="0.543475" fill="#BF98F7"/>
<ellipse cx="0.602549" cy="22.2827" rx="0.602549" ry="0.543475" fill="#BF98F7"/>
<ellipse cx="3.01271" cy="22.2827" rx="0.602549" ry="0.543475" fill="#BF98F7"/>
<ellipse cx="5.42286" cy="22.2827" rx="0.602549" ry="0.543475" fill="#BF98F7"/>
<ellipse cx="7.83351" cy="22.2827" rx="0.602549" ry="0.543475" fill="#BF98F7"/>
<ellipse cx="10.2432" cy="22.2827" rx="0.602549" ry="0.543475" fill="#BF98F7"/>
<ellipse cx="12.6533" cy="22.2827" rx="0.602549" ry="0.543475" fill="#BF98F7"/>
<ellipse cx="15.0635" cy="22.2827" rx="0.602549" ry="0.543475" fill="#BF98F7"/>
<ellipse cx="17.4736" cy="22.2827" rx="0.602549" ry="0.543475" fill="#BF98F7"/>
<ellipse cx="19.8843" cy="22.2827" rx="0.602549" ry="0.543475" fill="#BF98F7"/>
<ellipse cx="22.2944" cy="22.2827" rx="0.602549" ry="0.543475" fill="#BF98F7"/>
<ellipse cx="24.7046" cy="22.2827" rx="0.602549" ry="0.543475" fill="#BF98F7"/>
<ellipse cx="27.1152" cy="22.2827" rx="0.602549" ry="0.543475" fill="#BF98F7"/>
<ellipse cx="29.5244" cy="22.2827" rx="0.602549" ry="0.543475" fill="#BF98F7"/>
<ellipse cx="31.9351" cy="22.2827" rx="0.602549" ry="0.543475" fill="#BF98F7"/>
<ellipse cx="34.3452" cy="22.2827" rx="0.602549" ry="0.543475" fill="#BF98F7"/>
<ellipse cx="36.7554" cy="22.2827" rx="0.602549" ry="0.543475" fill="#BF98F7"/>
<ellipse cx="39.166" cy="22.2827" rx="0.602549" ry="0.543475" fill="#BF98F7"/>
<ellipse cx="41.5762" cy="22.2827" rx="0.602549" ry="0.543475" fill="#BF98F7"/>
<ellipse cx="43.9863" cy="22.2827" rx="0.602549" ry="0.543475" fill="#BF98F7"/>
<ellipse cx="46.3965" cy="22.2827" rx="0.602549" ry="0.543475" fill="#BF98F7"/>
<ellipse cx="48.8062" cy="22.2827" rx="0.602549" ry="0.543475" fill="#BF98F7"/>
<ellipse cx="51.2168" cy="22.2827" rx="0.602549" ry="0.543475" fill="#BF98F7"/>
<ellipse cx="53.6265" cy="22.2827" rx="0.602549" ry="0.543475" fill="#BF98F7"/>
<ellipse cx="56.0371" cy="22.2827" rx="0.602549" ry="0.543475" fill="#BF98F7"/>
<ellipse cx="58.4473" cy="22.2827" rx="0.602549" ry="0.543475" fill="#BF98F7"/>
<ellipse cx="60.8574" cy="22.2827" rx="0.602549" ry="0.543475" fill="#BF98F7"/>
<ellipse cx="63.2681" cy="22.2827" rx="0.602549" ry="0.543475" fill="#BF98F7"/>
<ellipse cx="65.6773" cy="22.2827" rx="0.602549" ry="0.543475" fill="#BF98F7"/>
<ellipse cx="68.0879" cy="22.2827" rx="0.602549" ry="0.543475" fill="#BF98F7"/>
<ellipse cx="70.4981" cy="22.2827" rx="0.602549" ry="0.543475" fill="#BF98F7"/>
<ellipse cx="72.9082" cy="22.2827" rx="0.602549" ry="0.543475" fill="#BF98F7"/>
<ellipse cx="75.3189" cy="22.2827" rx="0.602549" ry="0.543475" fill="#BF98F7"/>
<ellipse cx="77.729" cy="22.2827" rx="0.602549" ry="0.543475" fill="#BF98F7"/>
<ellipse cx="80.1392" cy="22.2827" rx="0.602549" ry="0.543475" fill="#BF98F7"/>
<ellipse cx="82.5493" cy="22.2827" rx="0.602549" ry="0.543475" fill="#BF98F7"/>
<ellipse cx="84.959" cy="22.2827" rx="0.602549" ry="0.543475" fill="#BF98F7"/>
<ellipse cx="87.3696" cy="22.2827" rx="0.602549" ry="0.543475" fill="#BF98F7"/>
<ellipse cx="89.7798" cy="22.2827" rx="0.602549" ry="0.543475" fill="#BF98F7"/>
<ellipse cx="92.1899" cy="22.2827" rx="0.602549" ry="0.543475" fill="#BF98F7"/>
<ellipse cx="94.6006" cy="22.2827" rx="0.602549" ry="0.543475" fill="#BF98F7"/>
<ellipse cx="97.0103" cy="22.2827" rx="0.602549" ry="0.543475" fill="#BF98F7"/>
<ellipse cx="99.4209" cy="22.2827" rx="0.602549" ry="0.543475" fill="#BF98F7"/>
<ellipse cx="101.831" cy="22.2827" rx="0.602549" ry="0.543475" fill="#BF98F7"/>
<ellipse cx="104.241" cy="22.2827" rx="0.602549" ry="0.543475" fill="#BF98F7"/>
<ellipse cx="0.602549" cy="24.4566" rx="0.602549" ry="0.543475" fill="#BF98F7"/>
<ellipse cx="3.01271" cy="24.4566" rx="0.602549" ry="0.543475" fill="#BF98F7"/>
<ellipse cx="5.42286" cy="24.4566" rx="0.602549" ry="0.543475" fill="#BF98F7"/>
<ellipse cx="7.83351" cy="24.4566" rx="0.602549" ry="0.543475" fill="#BF98F7"/>
<ellipse cx="10.2432" cy="24.4566" rx="0.602549" ry="0.543475" fill="#BF98F7"/>
<ellipse cx="12.6533" cy="24.4566" rx="0.602549" ry="0.543475" fill="#BF98F7"/>
<ellipse cx="15.0635" cy="24.4566" rx="0.602549" ry="0.543475" fill="#BF98F7"/>
<ellipse cx="17.4736" cy="24.4566" rx="0.602549" ry="0.543475" fill="#BF98F7"/>
<ellipse cx="19.8843" cy="24.4566" rx="0.602549" ry="0.543475" fill="#BF98F7"/>
<ellipse cx="22.2944" cy="24.4566" rx="0.602549" ry="0.543475" fill="#BF98F7"/>
<ellipse cx="24.7046" cy="24.4566" rx="0.602549" ry="0.543475" fill="#BF98F7"/>
<ellipse cx="27.1152" cy="24.4566" rx="0.602549" ry="0.543475" fill="#BF98F7"/>
<ellipse cx="29.5244" cy="24.4566" rx="0.602549" ry="0.543475" fill="#BF98F7"/>
<ellipse cx="31.9351" cy="24.4566" rx="0.602549" ry="0.543475" fill="#BF98F7"/>
<ellipse cx="34.3452" cy="24.4566" rx="0.602549" ry="0.543475" fill="#BF98F7"/>
<ellipse cx="36.7554" cy="24.4566" rx="0.602549" ry="0.543475" fill="#BF98F7"/>
<ellipse cx="39.166" cy="24.4566" rx="0.602549" ry="0.543475" fill="#BF98F7"/>
<ellipse cx="41.5762" cy="24.4566" rx="0.602549" ry="0.543475" fill="#BF98F7"/>
<ellipse cx="43.9863" cy="24.4566" rx="0.602549" ry="0.543475" fill="#BF98F7"/>
<ellipse cx="46.3965" cy="24.4566" rx="0.602549" ry="0.543475" fill="#BF98F7"/>
<ellipse cx="48.8062" cy="24.4566" rx="0.602549" ry="0.543475" fill="#BF98F7"/>
<ellipse cx="51.2168" cy="24.4566" rx="0.602549" ry="0.543475" fill="#BF98F7"/>
<ellipse cx="53.6265" cy="24.4566" rx="0.602549" ry="0.543475" fill="#BF98F7"/>
<ellipse cx="56.0371" cy="24.4566" rx="0.602549" ry="0.543475" fill="#BF98F7"/>
<ellipse cx="58.4473" cy="24.4566" rx="0.602549" ry="0.543475" fill="#BF98F7"/>
<ellipse cx="60.8574" cy="24.4566" rx="0.602549" ry="0.543475" fill="#BF98F7"/>
<ellipse cx="63.2681" cy="24.4566" rx="0.602549" ry="0.543475" fill="#BF98F7"/>
<ellipse cx="65.6773" cy="24.4566" rx="0.602549" ry="0.543475" fill="#BF98F7"/>
<ellipse cx="68.0879" cy="24.4566" rx="0.602549" ry="0.543475" fill="#BF98F7"/>
<ellipse cx="70.4981" cy="24.4566" rx="0.602549" ry="0.543475" fill="#BF98F7"/>
<ellipse cx="72.9082" cy="24.4566" rx="0.602549" ry="0.543475" fill="#BF98F7"/>
<ellipse cx="75.3189" cy="24.4566" rx="0.602549" ry="0.543475" fill="#BF98F7"/>
<ellipse cx="77.729" cy="24.4566" rx="0.602549" ry="0.543475" fill="#BF98F7"/>
<ellipse cx="80.1392" cy="24.4566" rx="0.602549" ry="0.543475" fill="#BF98F7"/>
<ellipse cx="82.5493" cy="24.4566" rx="0.602549" ry="0.543475" fill="#BF98F7"/>
<ellipse cx="84.959" cy="24.4566" rx="0.602549" ry="0.543475" fill="#BF98F7"/>
<ellipse cx="87.3696" cy="24.4566" rx="0.602549" ry="0.543475" fill="#BF98F7"/>
<ellipse cx="89.7798" cy="24.4566" rx="0.602549" ry="0.543475" fill="#BF98F7"/>
<ellipse cx="92.1899" cy="24.4566" rx="0.602549" ry="0.543475" fill="#BF98F7"/>
<ellipse cx="94.6006" cy="24.4566" rx="0.602549" ry="0.543475" fill="#BF98F7"/>
<ellipse cx="97.0103" cy="24.4566" rx="0.602549" ry="0.543475" fill="#BF98F7"/>
<ellipse cx="99.4209" cy="24.4566" rx="0.602549" ry="0.543475" fill="#BF98F7"/>
<ellipse cx="101.831" cy="24.4566" rx="0.602549" ry="0.543475" fill="#BF98F7"/>
<ellipse cx="104.241" cy="24.4566" rx="0.602549" ry="0.543475" fill="#BF98F7"/>
</svg>
