<svg width="174" height="61" viewBox="0 0 174 61" fill="none" xmlns="http://www.w3.org/2000/svg">
<circle cx="1.31485" cy="1.31509" r="1.31485" fill="#7B1FFF"/>
<circle cx="6.57413" cy="1.31485" r="1.31485" fill="#7B1FFF"/>
<circle cx="11.8349" cy="1.31485" r="1.31485" fill="#7B1FFF"/>
<circle cx="17.0912" cy="1.31485" r="1.31485" fill="#7B1FFF"/>
<circle cx="22.352" cy="1.31485" r="1.31485" fill="#7B1FFF"/>
<circle cx="27.6112" cy="1.31485" r="1.31485" fill="#7B1FFF"/>
<circle cx="32.873" cy="1.31485" r="1.31485" fill="#7B1FFF"/>
<circle cx="38.1308" cy="1.31485" r="1.31485" fill="#7B1FFF"/>
<circle cx="43.393" cy="1.31485" r="1.31485" fill="#7B1FFF"/>
<circle cx="48.6479" cy="1.31485" r="1.31485" fill="#7B1FFF"/>
<circle cx="53.9071" cy="1.31485" r="1.31485" fill="#7B1FFF"/>
<circle cx="59.1689" cy="1.31485" r="1.31485" fill="#7B1FFF"/>
<circle cx="64.4272" cy="1.31485" r="1.31485" fill="#7B1FFF"/>
<circle cx="69.6889" cy="1.31485" r="1.31485" fill="#7B1FFF"/>
<circle cx="74.9467" cy="1.31485" r="1.31485" fill="#7B1FFF"/>
<circle cx="80.206" cy="1.31485" r="1.31485" fill="#7B1FFF"/>
<circle cx="85.4652" cy="1.31485" r="1.31485" fill="#7B1FFF"/>
<circle cx="90.726" cy="1.31485" r="1.31485" fill="#7B1FFF"/>
<circle cx="95.9853" cy="1.31485" r="1.31485" fill="#7B1FFF"/>
<circle cx="101.243" cy="1.31485" r="1.31485" fill="#7B1FFF"/>
<circle cx="106.502" cy="1.31485" r="1.31485" fill="#7B1FFF"/>
<circle cx="111.762" cy="1.31485" r="1.31485" fill="#7B1FFF"/>
<circle cx="117.022" cy="1.31485" r="1.31485" fill="#7B1FFF"/>
<circle cx="122.281" cy="1.31485" r="1.31485" fill="#7B1FFF"/>
<circle cx="127.542" cy="1.31485" r="1.31485" fill="#7B1FFF"/>
<circle cx="132.801" cy="1.31485" r="1.31485" fill="#7B1FFF"/>
<circle cx="138.058" cy="1.31485" r="1.31485" fill="#7B1FFF"/>
<circle cx="143.318" cy="1.31485" r="1.31485" fill="#7B1FFF"/>
<circle cx="148.578" cy="1.31485" r="1.31485" fill="#7B1FFF"/>
<circle cx="153.838" cy="1.31485" r="1.31485" fill="#7B1FFF"/>
<circle cx="159.097" cy="1.31485" r="1.31485" fill="#7B1FFF"/>
<circle cx="164.355" cy="1.31485" r="1.31485" fill="#7B1FFF"/>
<circle cx="169.614" cy="1.31485" r="1.31485" fill="#7B1FFF"/>
<circle cx="174.876" cy="1.31485" r="1.31485" fill="#7B1FFF"/>
<circle cx="1.31485" cy="6.57413" r="1.31485" fill="#7B1FFF"/>
<circle cx="6.57413" cy="6.57413" r="1.31485" fill="#7B1FFF"/>
<circle cx="11.8349" cy="6.57413" r="1.31485" fill="#7B1FFF"/>
<circle cx="17.0912" cy="6.57413" r="1.31485" fill="#7B1FFF"/>
<circle cx="22.352" cy="6.57413" r="1.31485" fill="#7B1FFF"/>
<circle cx="27.6112" cy="6.57413" r="1.31485" fill="#7B1FFF"/>
<circle cx="32.873" cy="6.57413" r="1.31485" fill="#7B1FFF"/>
<circle cx="38.1308" cy="6.57413" r="1.31485" fill="#7B1FFF"/>
<circle cx="43.393" cy="6.57413" r="1.31485" fill="#7B1FFF"/>
<circle cx="48.6479" cy="6.57413" r="1.31485" fill="#7B1FFF"/>
<circle cx="53.9071" cy="6.57413" r="1.31485" fill="#7B1FFF"/>
<circle cx="59.1689" cy="6.57413" r="1.31485" fill="#7B1FFF"/>
<circle cx="64.4272" cy="6.57413" r="1.31485" fill="#7B1FFF"/>
<circle cx="69.6889" cy="6.57413" r="1.31485" fill="#7B1FFF"/>
<circle cx="74.9467" cy="6.57413" r="1.31485" fill="#7B1FFF"/>
<circle cx="80.206" cy="6.57413" r="1.31485" fill="#7B1FFF"/>
<circle cx="85.4652" cy="6.57413" r="1.31485" fill="#7B1FFF"/>
<circle cx="90.726" cy="6.57413" r="1.31485" fill="#7B1FFF"/>
<circle cx="95.9853" cy="6.57413" r="1.31485" fill="#7B1FFF"/>
<circle cx="101.243" cy="6.57413" r="1.31485" fill="#7B1FFF"/>
<circle cx="106.502" cy="6.57413" r="1.31485" fill="#7B1FFF"/>
<circle cx="111.762" cy="6.57413" r="1.31485" fill="#7B1FFF"/>
<circle cx="117.022" cy="6.57413" r="1.31485" fill="#7B1FFF"/>
<circle cx="122.281" cy="6.57413" r="1.31485" fill="#7B1FFF"/>
<circle cx="127.542" cy="6.57413" r="1.31485" fill="#7B1FFF"/>
<circle cx="132.801" cy="6.57413" r="1.31485" fill="#7B1FFF"/>
<circle cx="138.058" cy="6.57413" r="1.31485" fill="#7B1FFF"/>
<circle cx="143.318" cy="6.57413" r="1.31485" fill="#7B1FFF"/>
<circle cx="148.578" cy="6.57413" r="1.31485" fill="#7B1FFF"/>
<circle cx="153.838" cy="6.57413" r="1.31485" fill="#7B1FFF"/>
<circle cx="159.097" cy="6.57413" r="1.31485" fill="#7B1FFF"/>
<circle cx="164.355" cy="6.57413" r="1.31485" fill="#7B1FFF"/>
<circle cx="169.614" cy="6.57413" r="1.31485" fill="#7B1FFF"/>
<circle cx="174.876" cy="6.57413" r="1.31485" fill="#7B1FFF"/>
<circle cx="1.31485" cy="11.8346" r="1.31485" fill="#7B1FFF"/>
<circle cx="6.57413" cy="11.8346" r="1.31485" fill="#7B1FFF"/>
<circle cx="11.8349" cy="11.8346" r="1.31485" fill="#7B1FFF"/>
<circle cx="17.0912" cy="11.8346" r="1.31485" fill="#7B1FFF"/>
<circle cx="22.352" cy="11.8346" r="1.31485" fill="#7B1FFF"/>
<circle cx="27.6112" cy="11.8346" r="1.31485" fill="#7B1FFF"/>
<circle cx="32.873" cy="11.8346" r="1.31485" fill="#7B1FFF"/>
<circle cx="38.1308" cy="11.8346" r="1.31485" fill="#7B1FFF"/>
<circle cx="43.393" cy="11.8346" r="1.31485" fill="#7B1FFF"/>
<circle cx="48.6479" cy="11.8346" r="1.31485" fill="#7B1FFF"/>
<circle cx="53.9071" cy="11.8346" r="1.31485" fill="#7B1FFF"/>
<circle cx="59.1689" cy="11.8346" r="1.31485" fill="#7B1FFF"/>
<circle cx="64.4272" cy="11.8346" r="1.31485" fill="#7B1FFF"/>
<circle cx="69.6889" cy="11.8346" r="1.31485" fill="#7B1FFF"/>
<circle cx="74.9467" cy="11.8346" r="1.31485" fill="#7B1FFF"/>
<circle cx="80.206" cy="11.8346" r="1.31485" fill="#7B1FFF"/>
<circle cx="85.4652" cy="11.8346" r="1.31485" fill="#7B1FFF"/>
<circle cx="90.726" cy="11.8346" r="1.31485" fill="#7B1FFF"/>
<circle cx="95.9853" cy="11.8346" r="1.31485" fill="#7B1FFF"/>
<circle cx="101.243" cy="11.8346" r="1.31485" fill="#7B1FFF"/>
<circle cx="106.502" cy="11.8346" r="1.31485" fill="#7B1FFF"/>
<circle cx="111.762" cy="11.8346" r="1.31485" fill="#7B1FFF"/>
<circle cx="117.022" cy="11.8346" r="1.31485" fill="#7B1FFF"/>
<circle cx="122.281" cy="11.8346" r="1.31485" fill="#7B1FFF"/>
<circle cx="127.542" cy="11.8346" r="1.31485" fill="#7B1FFF"/>
<circle cx="132.801" cy="11.8346" r="1.31485" fill="#7B1FFF"/>
<circle cx="138.058" cy="11.8346" r="1.31485" fill="#7B1FFF"/>
<circle cx="143.318" cy="11.8346" r="1.31485" fill="#7B1FFF"/>
<circle cx="148.578" cy="11.8346" r="1.31485" fill="#7B1FFF"/>
<circle cx="153.838" cy="11.8346" r="1.31485" fill="#7B1FFF"/>
<circle cx="159.097" cy="11.8346" r="1.31485" fill="#7B1FFF"/>
<circle cx="164.355" cy="11.8346" r="1.31485" fill="#7B1FFF"/>
<circle cx="169.614" cy="11.8346" r="1.31485" fill="#7B1FFF"/>
<circle cx="174.876" cy="11.8346" r="1.31485" fill="#7B1FFF"/>
<circle cx="1.31485" cy="17.0939" r="1.31485" fill="#7B1FFF"/>
<circle cx="6.57413" cy="17.0939" r="1.31485" fill="#7B1FFF"/>
<circle cx="11.8349" cy="17.0939" r="1.31485" fill="#7B1FFF"/>
<circle cx="17.0912" cy="17.0939" r="1.31485" fill="#7B1FFF"/>
<circle cx="22.352" cy="17.0939" r="1.31485" fill="#7B1FFF"/>
<circle cx="27.6112" cy="17.0939" r="1.31485" fill="#7B1FFF"/>
<circle cx="32.873" cy="17.0939" r="1.31485" fill="#7B1FFF"/>
<circle cx="38.1308" cy="17.0939" r="1.31485" fill="#7B1FFF"/>
<circle cx="43.393" cy="17.0939" r="1.31485" fill="#7B1FFF"/>
<circle cx="48.6479" cy="17.0939" r="1.31485" fill="#7B1FFF"/>
<circle cx="53.9071" cy="17.0939" r="1.31485" fill="#7B1FFF"/>
<circle cx="59.1689" cy="17.0939" r="1.31485" fill="#7B1FFF"/>
<circle cx="64.4272" cy="17.0939" r="1.31485" fill="#7B1FFF"/>
<circle cx="69.6889" cy="17.0939" r="1.31485" fill="#7B1FFF"/>
<circle cx="74.9467" cy="17.0939" r="1.31485" fill="#7B1FFF"/>
<circle cx="80.206" cy="17.0939" r="1.31485" fill="#7B1FFF"/>
<circle cx="85.4652" cy="17.0939" r="1.31485" fill="#7B1FFF"/>
<circle cx="90.726" cy="17.0939" r="1.31485" fill="#7B1FFF"/>
<circle cx="95.9853" cy="17.0939" r="1.31485" fill="#7B1FFF"/>
<circle cx="101.243" cy="17.0939" r="1.31485" fill="#7B1FFF"/>
<circle cx="106.502" cy="17.0939" r="1.31485" fill="#7B1FFF"/>
<circle cx="111.762" cy="17.0939" r="1.31485" fill="#7B1FFF"/>
<circle cx="117.022" cy="17.0939" r="1.31485" fill="#7B1FFF"/>
<circle cx="122.281" cy="17.0939" r="1.31485" fill="#7B1FFF"/>
<circle cx="127.542" cy="17.0939" r="1.31485" fill="#7B1FFF"/>
<circle cx="132.801" cy="17.0939" r="1.31485" fill="#7B1FFF"/>
<circle cx="138.058" cy="17.0939" r="1.31485" fill="#7B1FFF"/>
<circle cx="143.318" cy="17.0939" r="1.31485" fill="#7B1FFF"/>
<circle cx="148.578" cy="17.0939" r="1.31485" fill="#7B1FFF"/>
<circle cx="153.838" cy="17.0939" r="1.31485" fill="#7B1FFF"/>
<circle cx="159.097" cy="17.0939" r="1.31485" fill="#7B1FFF"/>
<circle cx="164.355" cy="17.0939" r="1.31485" fill="#7B1FFF"/>
<circle cx="169.614" cy="17.0939" r="1.31485" fill="#7B1FFF"/>
<circle cx="174.876" cy="17.0939" r="1.31485" fill="#7B1FFF"/>
<circle cx="1.31485" cy="22.3517" r="1.31485" fill="#7B1FFF"/>
<circle cx="6.57413" cy="22.3517" r="1.31485" fill="#7B1FFF"/>
<circle cx="11.8349" cy="22.3517" r="1.31485" fill="#7B1FFF"/>
<circle cx="17.0912" cy="22.3517" r="1.31485" fill="#7B1FFF"/>
<circle cx="22.352" cy="22.3517" r="1.31485" fill="#7B1FFF"/>
<circle cx="27.6112" cy="22.3517" r="1.31485" fill="#7B1FFF"/>
<circle cx="32.873" cy="22.3517" r="1.31485" fill="#7B1FFF"/>
<circle cx="38.1308" cy="22.3517" r="1.31485" fill="#7B1FFF"/>
<circle cx="43.393" cy="22.3517" r="1.31485" fill="#7B1FFF"/>
<circle cx="48.6479" cy="22.3517" r="1.31485" fill="#7B1FFF"/>
<circle cx="53.9071" cy="22.3517" r="1.31485" fill="#7B1FFF"/>
<circle cx="59.1689" cy="22.3517" r="1.31485" fill="#7B1FFF"/>
<circle cx="64.4272" cy="22.3517" r="1.31485" fill="#7B1FFF"/>
<circle cx="69.6889" cy="22.3517" r="1.31485" fill="#7B1FFF"/>
<circle cx="74.9467" cy="22.3517" r="1.31485" fill="#7B1FFF"/>
<circle cx="80.206" cy="22.3517" r="1.31485" fill="#7B1FFF"/>
<circle cx="85.4652" cy="22.3517" r="1.31485" fill="#7B1FFF"/>
<circle cx="90.726" cy="22.3517" r="1.31485" fill="#7B1FFF"/>
<circle cx="95.9853" cy="22.3517" r="1.31485" fill="#7B1FFF"/>
<circle cx="101.243" cy="22.3517" r="1.31485" fill="#7B1FFF"/>
<circle cx="106.502" cy="22.3517" r="1.31485" fill="#7B1FFF"/>
<circle cx="111.762" cy="22.3517" r="1.31485" fill="#7B1FFF"/>
<circle cx="117.022" cy="22.3517" r="1.31485" fill="#7B1FFF"/>
<circle cx="122.281" cy="22.3517" r="1.31485" fill="#7B1FFF"/>
<circle cx="127.542" cy="22.3517" r="1.31485" fill="#7B1FFF"/>
<circle cx="132.801" cy="22.3517" r="1.31485" fill="#7B1FFF"/>
<circle cx="138.058" cy="22.3517" r="1.31485" fill="#7B1FFF"/>
<circle cx="143.318" cy="22.3517" r="1.31485" fill="#7B1FFF"/>
<circle cx="148.578" cy="22.3517" r="1.31485" fill="#7B1FFF"/>
<circle cx="153.838" cy="22.3517" r="1.31485" fill="#7B1FFF"/>
<circle cx="159.097" cy="22.3517" r="1.31485" fill="#7B1FFF"/>
<circle cx="164.355" cy="22.3517" r="1.31485" fill="#7B1FFF"/>
<circle cx="169.614" cy="22.3517" r="1.31485" fill="#7B1FFF"/>
<circle cx="174.876" cy="22.3517" r="1.31485" fill="#7B1FFF"/>
<circle cx="1.31485" cy="27.611" r="1.31485" fill="#7B1FFF"/>
<circle cx="6.57413" cy="27.611" r="1.31485" fill="#7B1FFF"/>
<circle cx="11.8349" cy="27.611" r="1.31485" fill="#7B1FFF"/>
<circle cx="17.0912" cy="27.611" r="1.31485" fill="#7B1FFF"/>
<circle cx="22.352" cy="27.611" r="1.31485" fill="#7B1FFF"/>
<circle cx="27.6112" cy="27.611" r="1.31485" fill="#7B1FFF"/>
<circle cx="32.873" cy="27.611" r="1.31485" fill="#7B1FFF"/>
<circle cx="38.1308" cy="27.611" r="1.31485" fill="#7B1FFF"/>
<circle cx="43.393" cy="27.611" r="1.31485" fill="#7B1FFF"/>
<circle cx="48.6479" cy="27.611" r="1.31485" fill="#7B1FFF"/>
<circle cx="53.9071" cy="27.611" r="1.31485" fill="#7B1FFF"/>
<circle cx="59.1689" cy="27.611" r="1.31485" fill="#7B1FFF"/>
<circle cx="64.4272" cy="27.611" r="1.31485" fill="#7B1FFF"/>
<circle cx="69.6889" cy="27.611" r="1.31485" fill="#7B1FFF"/>
<circle cx="74.9467" cy="27.611" r="1.31485" fill="#7B1FFF"/>
<circle cx="80.206" cy="27.611" r="1.31485" fill="#7B1FFF"/>
<circle cx="85.4652" cy="27.611" r="1.31485" fill="#7B1FFF"/>
<circle cx="90.726" cy="27.611" r="1.31485" fill="#7B1FFF"/>
<circle cx="95.9853" cy="27.611" r="1.31485" fill="#7B1FFF"/>
<circle cx="101.243" cy="27.611" r="1.31485" fill="#7B1FFF"/>
<circle cx="106.502" cy="27.611" r="1.31485" fill="#7B1FFF"/>
<circle cx="111.762" cy="27.611" r="1.31485" fill="#7B1FFF"/>
<circle cx="117.022" cy="27.611" r="1.31485" fill="#7B1FFF"/>
<circle cx="122.281" cy="27.611" r="1.31485" fill="#7B1FFF"/>
<circle cx="127.542" cy="27.611" r="1.31485" fill="#7B1FFF"/>
<circle cx="132.801" cy="27.611" r="1.31485" fill="#7B1FFF"/>
<circle cx="138.058" cy="27.611" r="1.31485" fill="#7B1FFF"/>
<circle cx="143.318" cy="27.611" r="1.31485" fill="#7B1FFF"/>
<circle cx="148.578" cy="27.611" r="1.31485" fill="#7B1FFF"/>
<circle cx="153.838" cy="27.611" r="1.31485" fill="#7B1FFF"/>
<circle cx="159.097" cy="27.611" r="1.31485" fill="#7B1FFF"/>
<circle cx="164.355" cy="27.611" r="1.31485" fill="#7B1FFF"/>
<circle cx="169.614" cy="27.611" r="1.31485" fill="#7B1FFF"/>
<circle cx="174.876" cy="27.611" r="1.31485" fill="#7B1FFF"/>
<circle cx="1.31485" cy="32.8715" r="1.31485" fill="#7B1FFF"/>
<circle cx="6.57413" cy="32.8715" r="1.31485" fill="#7B1FFF"/>
<circle cx="11.8349" cy="32.8715" r="1.31485" fill="#7B1FFF"/>
<circle cx="17.0912" cy="32.8715" r="1.31485" fill="#7B1FFF"/>
<circle cx="22.352" cy="32.8715" r="1.31485" fill="#7B1FFF"/>
<circle cx="27.6112" cy="32.8715" r="1.31485" fill="#7B1FFF"/>
<circle cx="32.873" cy="32.8715" r="1.31485" fill="#7B1FFF"/>
<circle cx="38.1308" cy="32.8715" r="1.31485" fill="#7B1FFF"/>
<circle cx="43.393" cy="32.8715" r="1.31485" fill="#7B1FFF"/>
<circle cx="48.6479" cy="32.8715" r="1.31485" fill="#7B1FFF"/>
<circle cx="53.9071" cy="32.8715" r="1.31485" fill="#7B1FFF"/>
<circle cx="59.1689" cy="32.8715" r="1.31485" fill="#7B1FFF"/>
<circle cx="64.4272" cy="32.8715" r="1.31485" fill="#7B1FFF"/>
<circle cx="69.6889" cy="32.8715" r="1.31485" fill="#7B1FFF"/>
<circle cx="74.9467" cy="32.8715" r="1.31485" fill="#7B1FFF"/>
<circle cx="80.206" cy="32.8715" r="1.31485" fill="#7B1FFF"/>
<circle cx="85.4652" cy="32.8715" r="1.31485" fill="#7B1FFF"/>
<circle cx="90.726" cy="32.8715" r="1.31485" fill="#7B1FFF"/>
<circle cx="95.9853" cy="32.8715" r="1.31485" fill="#7B1FFF"/>
<circle cx="101.243" cy="32.8715" r="1.31485" fill="#7B1FFF"/>
<circle cx="106.502" cy="32.8715" r="1.31485" fill="#7B1FFF"/>
<circle cx="111.762" cy="32.8715" r="1.31485" fill="#7B1FFF"/>
<circle cx="117.022" cy="32.8715" r="1.31485" fill="#7B1FFF"/>
<circle cx="122.281" cy="32.8715" r="1.31485" fill="#7B1FFF"/>
<circle cx="127.542" cy="32.8715" r="1.31485" fill="#7B1FFF"/>
<circle cx="132.801" cy="32.8715" r="1.31485" fill="#7B1FFF"/>
<circle cx="138.058" cy="32.8715" r="1.31485" fill="#7B1FFF"/>
<circle cx="143.318" cy="32.8715" r="1.31485" fill="#7B1FFF"/>
<circle cx="148.578" cy="32.8715" r="1.31485" fill="#7B1FFF"/>
<circle cx="153.838" cy="32.8715" r="1.31485" fill="#7B1FFF"/>
<circle cx="159.097" cy="32.8715" r="1.31485" fill="#7B1FFF"/>
<circle cx="164.355" cy="32.8715" r="1.31485" fill="#7B1FFF"/>
<circle cx="169.614" cy="32.8715" r="1.31485" fill="#7B1FFF"/>
<circle cx="174.876" cy="32.8715" r="1.31485" fill="#7B1FFF"/>
<circle cx="1.31485" cy="38.1308" r="1.31485" fill="#7B1FFF"/>
<circle cx="6.57413" cy="38.1308" r="1.31485" fill="#7B1FFF"/>
<circle cx="11.8349" cy="38.1308" r="1.31485" fill="#7B1FFF"/>
<circle cx="17.0912" cy="38.1308" r="1.31485" fill="#7B1FFF"/>
<circle cx="22.352" cy="38.1308" r="1.31485" fill="#7B1FFF"/>
<circle cx="27.6112" cy="38.1308" r="1.31485" fill="#7B1FFF"/>
<circle cx="32.873" cy="38.1308" r="1.31485" fill="#7B1FFF"/>
<circle cx="38.1308" cy="38.1308" r="1.31485" fill="#7B1FFF"/>
<circle cx="43.393" cy="38.1308" r="1.31485" fill="#7B1FFF"/>
<circle cx="48.6479" cy="38.1308" r="1.31485" fill="#7B1FFF"/>
<circle cx="53.9071" cy="38.1308" r="1.31485" fill="#7B1FFF"/>
<circle cx="59.1689" cy="38.1308" r="1.31485" fill="#7B1FFF"/>
<circle cx="64.4272" cy="38.1308" r="1.31485" fill="#7B1FFF"/>
<circle cx="69.6889" cy="38.1308" r="1.31485" fill="#7B1FFF"/>
<circle cx="74.9467" cy="38.1308" r="1.31485" fill="#7B1FFF"/>
<circle cx="80.206" cy="38.1308" r="1.31485" fill="#7B1FFF"/>
<circle cx="85.4652" cy="38.1308" r="1.31485" fill="#7B1FFF"/>
<circle cx="90.726" cy="38.1308" r="1.31485" fill="#7B1FFF"/>
<circle cx="95.9853" cy="38.1308" r="1.31485" fill="#7B1FFF"/>
<circle cx="101.243" cy="38.1308" r="1.31485" fill="#7B1FFF"/>
<circle cx="106.502" cy="38.1308" r="1.31485" fill="#7B1FFF"/>
<circle cx="111.762" cy="38.1308" r="1.31485" fill="#7B1FFF"/>
<circle cx="117.022" cy="38.1308" r="1.31485" fill="#7B1FFF"/>
<circle cx="122.281" cy="38.1308" r="1.31485" fill="#7B1FFF"/>
<circle cx="127.542" cy="38.1308" r="1.31485" fill="#7B1FFF"/>
<circle cx="132.801" cy="38.1308" r="1.31485" fill="#7B1FFF"/>
<circle cx="138.058" cy="38.1308" r="1.31485" fill="#7B1FFF"/>
<circle cx="143.318" cy="38.1308" r="1.31485" fill="#7B1FFF"/>
<circle cx="148.578" cy="38.1308" r="1.31485" fill="#7B1FFF"/>
<circle cx="153.838" cy="38.1308" r="1.31485" fill="#7B1FFF"/>
<circle cx="159.097" cy="38.1308" r="1.31485" fill="#7B1FFF"/>
<circle cx="164.355" cy="38.1308" r="1.31485" fill="#7B1FFF"/>
<circle cx="169.614" cy="38.1308" r="1.31485" fill="#7B1FFF"/>
<circle cx="174.876" cy="38.1308" r="1.31485" fill="#7B1FFF"/>
<circle cx="1.31485" cy="43.39" r="1.31485" fill="#7B1FFF"/>
<circle cx="6.57413" cy="43.39" r="1.31485" fill="#7B1FFF"/>
<circle cx="11.8349" cy="43.39" r="1.31485" fill="#7B1FFF"/>
<circle cx="17.0912" cy="43.39" r="1.31485" fill="#7B1FFF"/>
<circle cx="22.352" cy="43.39" r="1.31485" fill="#7B1FFF"/>
<circle cx="27.6112" cy="43.39" r="1.31485" fill="#7B1FFF"/>
<circle cx="32.873" cy="43.39" r="1.31485" fill="#7B1FFF"/>
<circle cx="38.1308" cy="43.39" r="1.31485" fill="#7B1FFF"/>
<circle cx="43.393" cy="43.39" r="1.31485" fill="#7B1FFF"/>
<circle cx="48.6479" cy="43.39" r="1.31485" fill="#7B1FFF"/>
<circle cx="53.9071" cy="43.39" r="1.31485" fill="#7B1FFF"/>
<circle cx="59.1689" cy="43.39" r="1.31485" fill="#7B1FFF"/>
<circle cx="64.4272" cy="43.39" r="1.31485" fill="#7B1FFF"/>
<circle cx="69.6889" cy="43.39" r="1.31485" fill="#7B1FFF"/>
<circle cx="74.9467" cy="43.39" r="1.31485" fill="#7B1FFF"/>
<circle cx="80.206" cy="43.39" r="1.31485" fill="#7B1FFF"/>
<circle cx="85.4652" cy="43.39" r="1.31485" fill="#7B1FFF"/>
<circle cx="90.726" cy="43.39" r="1.31485" fill="#7B1FFF"/>
<circle cx="95.9853" cy="43.39" r="1.31485" fill="#7B1FFF"/>
<circle cx="101.243" cy="43.39" r="1.31485" fill="#7B1FFF"/>
<circle cx="106.502" cy="43.39" r="1.31485" fill="#7B1FFF"/>
<circle cx="111.762" cy="43.39" r="1.31485" fill="#7B1FFF"/>
<circle cx="117.022" cy="43.39" r="1.31485" fill="#7B1FFF"/>
<circle cx="122.281" cy="43.39" r="1.31485" fill="#7B1FFF"/>
<circle cx="127.542" cy="43.39" r="1.31485" fill="#7B1FFF"/>
<circle cx="132.801" cy="43.39" r="1.31485" fill="#7B1FFF"/>
<circle cx="138.058" cy="43.39" r="1.31485" fill="#7B1FFF"/>
<circle cx="143.318" cy="43.39" r="1.31485" fill="#7B1FFF"/>
<circle cx="148.578" cy="43.39" r="1.31485" fill="#7B1FFF"/>
<circle cx="153.838" cy="43.39" r="1.31485" fill="#7B1FFF"/>
<circle cx="159.097" cy="43.39" r="1.31485" fill="#7B1FFF"/>
<circle cx="164.355" cy="43.39" r="1.31485" fill="#7B1FFF"/>
<circle cx="169.614" cy="43.39" r="1.31485" fill="#7B1FFF"/>
<circle cx="174.876" cy="43.39" r="1.31485" fill="#7B1FFF"/>
<circle cx="1.31485" cy="48.6493" r="1.31485" fill="#7B1FFF"/>
<circle cx="6.57413" cy="48.6493" r="1.31485" fill="#7B1FFF"/>
<circle cx="11.8349" cy="48.6493" r="1.31485" fill="#7B1FFF"/>
<circle cx="17.0912" cy="48.6493" r="1.31485" fill="#7B1FFF"/>
<circle cx="22.352" cy="48.6493" r="1.31485" fill="#7B1FFF"/>
<circle cx="27.6112" cy="48.6493" r="1.31485" fill="#7B1FFF"/>
<circle cx="32.873" cy="48.6493" r="1.31485" fill="#7B1FFF"/>
<circle cx="38.1308" cy="48.6493" r="1.31485" fill="#7B1FFF"/>
<circle cx="43.393" cy="48.6493" r="1.31485" fill="#7B1FFF"/>
<circle cx="48.6479" cy="48.6493" r="1.31485" fill="#7B1FFF"/>
<circle cx="53.9071" cy="48.6493" r="1.31485" fill="#7B1FFF"/>
<circle cx="59.1689" cy="48.6493" r="1.31485" fill="#7B1FFF"/>
<circle cx="64.4272" cy="48.6493" r="1.31485" fill="#7B1FFF"/>
<circle cx="69.6889" cy="48.6493" r="1.31485" fill="#7B1FFF"/>
<circle cx="74.9467" cy="48.6493" r="1.31485" fill="#7B1FFF"/>
<circle cx="80.206" cy="48.6493" r="1.31485" fill="#7B1FFF"/>
<circle cx="85.4652" cy="48.6493" r="1.31485" fill="#7B1FFF"/>
<circle cx="90.726" cy="48.6493" r="1.31485" fill="#7B1FFF"/>
<circle cx="95.9853" cy="48.6493" r="1.31485" fill="#7B1FFF"/>
<circle cx="101.243" cy="48.6493" r="1.31485" fill="#7B1FFF"/>
<circle cx="106.502" cy="48.6493" r="1.31485" fill="#7B1FFF"/>
<circle cx="111.762" cy="48.6493" r="1.31485" fill="#7B1FFF"/>
<circle cx="117.022" cy="48.6493" r="1.31485" fill="#7B1FFF"/>
<circle cx="122.281" cy="48.6493" r="1.31485" fill="#7B1FFF"/>
<circle cx="127.542" cy="48.6493" r="1.31485" fill="#7B1FFF"/>
<circle cx="132.801" cy="48.6493" r="1.31485" fill="#7B1FFF"/>
<circle cx="138.058" cy="48.6493" r="1.31485" fill="#7B1FFF"/>
<circle cx="143.318" cy="48.6493" r="1.31485" fill="#7B1FFF"/>
<circle cx="148.578" cy="48.6493" r="1.31485" fill="#7B1FFF"/>
<circle cx="153.838" cy="48.6493" r="1.31485" fill="#7B1FFF"/>
<circle cx="159.097" cy="48.6493" r="1.31485" fill="#7B1FFF"/>
<circle cx="164.355" cy="48.6493" r="1.31485" fill="#7B1FFF"/>
<circle cx="169.614" cy="48.6493" r="1.31485" fill="#7B1FFF"/>
<circle cx="174.876" cy="48.6493" r="1.31485" fill="#7B1FFF"/>
<circle cx="1.31485" cy="53.9086" r="1.31485" fill="#7B1FFF"/>
<circle cx="6.57413" cy="53.9086" r="1.31485" fill="#7B1FFF"/>
<circle cx="11.8349" cy="53.9086" r="1.31485" fill="#7B1FFF"/>
<circle cx="17.0912" cy="53.9086" r="1.31485" fill="#7B1FFF"/>
<circle cx="22.352" cy="53.9086" r="1.31485" fill="#7B1FFF"/>
<circle cx="27.6112" cy="53.9086" r="1.31485" fill="#7B1FFF"/>
<circle cx="32.873" cy="53.9086" r="1.31485" fill="#7B1FFF"/>
<circle cx="38.1308" cy="53.9086" r="1.31485" fill="#7B1FFF"/>
<circle cx="43.393" cy="53.9086" r="1.31485" fill="#7B1FFF"/>
<circle cx="48.6479" cy="53.9086" r="1.31485" fill="#7B1FFF"/>
<circle cx="53.9071" cy="53.9086" r="1.31485" fill="#7B1FFF"/>
<circle cx="59.1689" cy="53.9086" r="1.31485" fill="#7B1FFF"/>
<circle cx="64.4272" cy="53.9086" r="1.31485" fill="#7B1FFF"/>
<circle cx="69.6889" cy="53.9086" r="1.31485" fill="#7B1FFF"/>
<circle cx="74.9467" cy="53.9086" r="1.31485" fill="#7B1FFF"/>
<circle cx="80.206" cy="53.9086" r="1.31485" fill="#7B1FFF"/>
<circle cx="85.4652" cy="53.9086" r="1.31485" fill="#7B1FFF"/>
<circle cx="90.726" cy="53.9086" r="1.31485" fill="#7B1FFF"/>
<circle cx="95.9853" cy="53.9086" r="1.31485" fill="#7B1FFF"/>
<circle cx="101.243" cy="53.9086" r="1.31485" fill="#7B1FFF"/>
<circle cx="106.502" cy="53.9086" r="1.31485" fill="#7B1FFF"/>
<circle cx="111.762" cy="53.9086" r="1.31485" fill="#7B1FFF"/>
<circle cx="117.022" cy="53.9086" r="1.31485" fill="#7B1FFF"/>
<circle cx="122.281" cy="53.9086" r="1.31485" fill="#7B1FFF"/>
<circle cx="127.542" cy="53.9086" r="1.31485" fill="#7B1FFF"/>
<circle cx="132.801" cy="53.9086" r="1.31485" fill="#7B1FFF"/>
<circle cx="138.058" cy="53.9086" r="1.31485" fill="#7B1FFF"/>
<circle cx="143.318" cy="53.9086" r="1.31485" fill="#7B1FFF"/>
<circle cx="148.578" cy="53.9086" r="1.31485" fill="#7B1FFF"/>
<circle cx="153.838" cy="53.9086" r="1.31485" fill="#7B1FFF"/>
<circle cx="159.097" cy="53.9086" r="1.31485" fill="#7B1FFF"/>
<circle cx="164.355" cy="53.9086" r="1.31485" fill="#7B1FFF"/>
<circle cx="169.614" cy="53.9086" r="1.31485" fill="#7B1FFF"/>
<circle cx="174.876" cy="53.9086" r="1.31485" fill="#7B1FFF"/>
<circle cx="1.31485" cy="59.1691" r="1.31485" fill="#7B1FFF"/>
<circle cx="6.57413" cy="59.1691" r="1.31485" fill="#7B1FFF"/>
<circle cx="11.8349" cy="59.1691" r="1.31485" fill="#7B1FFF"/>
<circle cx="17.0912" cy="59.1691" r="1.31485" fill="#7B1FFF"/>
<circle cx="22.352" cy="59.1691" r="1.31485" fill="#7B1FFF"/>
<circle cx="27.6112" cy="59.1691" r="1.31485" fill="#7B1FFF"/>
<circle cx="32.873" cy="59.1691" r="1.31485" fill="#7B1FFF"/>
<circle cx="38.1308" cy="59.1691" r="1.31485" fill="#7B1FFF"/>
<circle cx="43.393" cy="59.1691" r="1.31485" fill="#7B1FFF"/>
<circle cx="48.6479" cy="59.1691" r="1.31485" fill="#7B1FFF"/>
<circle cx="53.9071" cy="59.1691" r="1.31485" fill="#7B1FFF"/>
<circle cx="59.1689" cy="59.1691" r="1.31485" fill="#7B1FFF"/>
<circle cx="64.4272" cy="59.1691" r="1.31485" fill="#7B1FFF"/>
<circle cx="69.6889" cy="59.1691" r="1.31485" fill="#7B1FFF"/>
<circle cx="74.9467" cy="59.1691" r="1.31485" fill="#7B1FFF"/>
<circle cx="80.206" cy="59.1691" r="1.31485" fill="#7B1FFF"/>
<circle cx="85.4652" cy="59.1691" r="1.31485" fill="#7B1FFF"/>
<circle cx="90.726" cy="59.1691" r="1.31485" fill="#7B1FFF"/>
<circle cx="95.9853" cy="59.1691" r="1.31485" fill="#7B1FFF"/>
<circle cx="101.243" cy="59.1691" r="1.31485" fill="#7B1FFF"/>
<circle cx="106.502" cy="59.1691" r="1.31485" fill="#7B1FFF"/>
<circle cx="111.762" cy="59.1691" r="1.31485" fill="#7B1FFF"/>
<circle cx="117.022" cy="59.1691" r="1.31485" fill="#7B1FFF"/>
<circle cx="122.281" cy="59.1691" r="1.31485" fill="#7B1FFF"/>
<circle cx="127.542" cy="59.1691" r="1.31485" fill="#7B1FFF"/>
<circle cx="132.801" cy="59.1691" r="1.31485" fill="#7B1FFF"/>
<circle cx="138.058" cy="59.1691" r="1.31485" fill="#7B1FFF"/>
<circle cx="143.318" cy="59.1691" r="1.31485" fill="#7B1FFF"/>
<circle cx="148.578" cy="59.1691" r="1.31485" fill="#7B1FFF"/>
<circle cx="153.838" cy="59.1691" r="1.31485" fill="#7B1FFF"/>
<circle cx="159.097" cy="59.1691" r="1.31485" fill="#7B1FFF"/>
<circle cx="164.355" cy="59.1691" r="1.31485" fill="#7B1FFF"/>
<circle cx="169.614" cy="59.1691" r="1.31485" fill="#7B1FFF"/>
<circle cx="174.876" cy="59.1691" r="1.31485" fill="#7B1FFF"/>
</svg>
