<svg width="895" height="164" viewBox="0 0 895 164" fill="none" xmlns="http://www.w3.org/2000/svg">
<path opacity="0.15" d="M-66.2224 159.783H-37.5303L-26.6621 118.918H-3.18683L-14.055 159.783H14.637L25.5052 118.918H63.3266L70.7169 91.0956H32.8956L38.9818 68.7071H76.8031L84.1935 41.1019H46.3722L56.5883 3.49793H27.8962L17.6801 41.1019H-5.7952L4.42091 3.49793H-24.2711L-34.4872 41.1019H-72.0912L-79.699 68.7071H-41.8776L-47.7465 91.0956H-85.5678L-92.9582 118.918H-55.1368L-66.2224 159.783ZM-19.0544 91.0956L-13.1856 68.7071H10.2897L4.20355 91.0956H-19.0544ZM112.357 160H163.003C164.235 160 166.771 159.964 170.611 159.891C174.451 159.819 178.146 159.565 181.697 159.131C194.304 157.609 204.991 153.225 213.758 145.98C222.525 138.735 229.191 129.533 233.755 118.375C238.32 107.217 240.602 95.0082 240.602 81.749C240.602 68.4898 238.32 56.2811 233.755 45.1231C229.191 33.9651 222.525 24.7634 213.758 17.5179C204.991 10.2724 194.304 5.88893 181.697 4.36738C178.146 3.93265 174.451 3.67906 170.611 3.60661C166.771 3.53415 164.235 3.49793 163.003 3.49793H112.357V160ZM142.354 132.177V31.3205H163.003C164.959 31.3205 167.604 31.3567 170.937 31.4292C174.27 31.5017 177.277 31.8277 179.958 32.4073C186.551 33.7115 192.021 36.7908 196.369 41.6453C200.716 46.4998 203.94 52.441 206.041 59.4692C208.215 66.4973 209.302 73.9239 209.302 81.749C209.302 89.2118 208.251 96.4573 206.15 103.485C204.121 110.513 200.933 116.527 196.586 121.527C192.311 126.526 186.768 129.714 179.958 131.091C177.277 131.598 174.27 131.924 170.937 132.069C167.604 132.141 164.959 132.177 163.003 132.177H142.354ZM266.677 160H368.838V132.395H296.239V92.1824H355.797V64.5772H296.239V31.1031H368.838V3.49793H266.677V160ZM454.011 163.26C461.981 163.26 469.698 162.246 477.16 160.217C484.696 158.189 491.434 155.146 497.375 151.088C503.317 146.958 508.026 141.778 511.504 135.547C515.054 129.243 516.829 121.889 516.829 113.484C516.829 105.587 515.344 99.0656 512.373 93.9213C509.475 88.7771 505.744 84.6471 501.179 81.5316C496.687 78.3436 491.977 75.8801 487.05 74.1412C482.124 72.3299 477.631 70.8808 473.574 69.7939L446.403 62.4036C443.07 61.5341 439.81 60.4473 436.622 59.1431C433.434 57.8389 430.789 56.1362 428.688 54.0351C426.587 51.8614 425.536 49.0719 425.536 45.6665C425.536 41.9714 426.804 38.7833 429.34 36.1025C431.949 33.4217 435.282 31.393 439.339 30.0163C443.469 28.5672 447.852 27.9151 452.49 28.0601C459.59 28.2774 466.111 30.3786 472.052 34.3636C477.994 38.3486 481.834 44.145 483.573 51.7527L515.525 46.3186C511.757 31.6103 504.44 20.3436 493.571 12.5185C482.703 4.69343 469.154 0.672196 452.924 0.45483C442.201 0.382372 432.42 2.04883 423.58 5.4542C414.741 8.85957 407.676 14.0401 402.387 20.9957C397.098 27.9514 394.453 36.6822 394.453 47.1881C394.453 54.6509 395.685 60.8458 398.149 65.7727C400.684 70.6272 403.836 74.5397 407.604 77.5104C411.372 80.481 415.248 82.7633 419.233 84.3573C423.29 85.9513 426.841 87.1831 429.884 88.0525L470.531 100.008C476.617 101.819 480.674 104.101 482.703 106.855C484.732 109.535 485.746 112.47 485.746 115.658C485.746 120.005 484.261 123.664 481.29 126.635C478.392 129.605 474.661 131.851 470.096 133.373C465.531 134.894 460.822 135.655 455.967 135.655C447.273 135.655 439.52 133.228 432.709 128.374C425.899 123.519 421.407 116.6 419.233 107.615L388.367 112.18C389.961 122.758 393.729 131.888 399.67 139.568C405.684 147.176 413.328 153.044 422.602 157.174C431.949 161.232 442.418 163.26 454.011 163.26ZM542.891 160H572.452V3.49793H542.891V160ZM670.244 163.26C685.315 163.26 698.393 160 709.478 153.479C720.564 146.886 729.15 137.793 735.236 126.2C741.322 114.607 744.365 101.312 744.365 86.3136C744.365 85.9513 744.329 84.5747 744.257 82.1837C744.184 79.7927 744.075 78.1262 743.931 77.1843H687.633V100.008H712.413C710.022 112.397 705.24 121.454 698.067 127.178C690.966 132.902 682.344 135.655 672.2 135.438C657.347 135.221 646.189 130.294 638.726 120.657C631.336 111.021 627.641 98.0513 627.641 81.749C627.641 65.4467 631.336 52.3686 638.726 42.5148C646.189 32.6609 657.347 27.8427 672.2 28.0601C682.199 28.1325 690.387 30.922 696.763 36.4286C703.211 41.8627 707.848 49.1444 710.674 58.2737L740.887 53.9264C736.975 36.8271 729.258 23.6041 717.738 14.2574C706.218 4.91079 690.387 0.237469 670.244 0.237469C656.623 0.237469 644.197 3.42547 632.966 9.80148C621.808 16.1775 612.896 25.4517 606.23 37.6241C599.637 49.724 596.34 64.4323 596.34 81.749C596.34 95.0082 598.297 106.71 602.209 116.853C606.194 126.997 611.592 135.51 618.403 142.394C625.286 149.277 633.184 154.493 642.095 158.044C651.007 161.522 660.39 163.26 670.244 163.26ZM766.147 160H796.144V55.6653L864.179 160H894.175V3.49793H864.179V107.833L796.144 3.49793H766.147V160Z" fill="#947BFF" fill-opacity="0.61"/>
</svg>
