<svg width="242" height="44" viewBox="0 0 242 44" fill="none" xmlns="http://www.w3.org/2000/svg">
<ellipse cx="130.842" cy="0.956521" rx="0.739709" ry="0.956521" fill="#A979EF"/>
<ellipse cx="133.801" cy="0.957132" rx="0.739709" ry="0.956521" fill="#A979EF"/>
<ellipse cx="136.761" cy="0.957132" rx="0.739709" ry="0.956521" fill="#A979EF"/>
<ellipse cx="139.72" cy="0.957132" rx="0.739709" ry="0.956521" fill="#A979EF"/>
<ellipse cx="142.678" cy="0.957132" rx="0.739709" ry="0.956521" fill="#A979EF"/>
<ellipse cx="145.638" cy="0.957132" rx="0.739709" ry="0.956521" fill="#A979EF"/>
<ellipse cx="148.597" cy="0.957132" rx="0.739709" ry="0.956521" fill="#A979EF"/>
<ellipse cx="151.553" cy="0.957132" rx="0.739709" ry="0.956521" fill="#A979EF"/>
<ellipse cx="154.511" cy="0.957132" rx="0.739709" ry="0.956521" fill="#A979EF"/>
<ellipse cx="157.472" cy="0.957132" rx="0.739709" ry="0.956521" fill="#A979EF"/>
<ellipse cx="160.43" cy="0.957132" rx="0.739709" ry="0.956521" fill="#A979EF"/>
<ellipse cx="163.389" cy="0.957132" rx="0.739709" ry="0.956521" fill="#A979EF"/>
<ellipse cx="166.349" cy="0.957132" rx="0.739709" ry="0.956521" fill="#A979EF"/>
<ellipse cx="169.308" cy="0.957132" rx="0.739709" ry="0.956521" fill="#A979EF"/>
<ellipse cx="172.266" cy="0.957132" rx="0.739709" ry="0.956521" fill="#A979EF"/>
<ellipse cx="175.226" cy="0.957132" rx="0.739709" ry="0.956521" fill="#A979EF"/>
<ellipse cx="178.185" cy="0.957132" rx="0.739709" ry="0.956521" fill="#A979EF"/>
<ellipse cx="181.143" cy="0.957132" rx="0.739709" ry="0.956521" fill="#A979EF"/>
<ellipse cx="184.103" cy="0.957132" rx="0.739709" ry="0.956521" fill="#A979EF"/>
<ellipse cx="187.062" cy="0.957132" rx="0.739709" ry="0.956521" fill="#A979EF"/>
<ellipse cx="190.02" cy="0.957132" rx="0.739709" ry="0.956521" fill="#A979EF"/>
<ellipse cx="192.98" cy="0.957132" rx="0.739709" ry="0.956521" fill="#A979EF"/>
<ellipse cx="195.935" cy="0.957132" rx="0.739709" ry="0.956521" fill="#A979EF"/>
<ellipse cx="198.895" cy="0.957132" rx="0.739709" ry="0.956521" fill="#A979EF"/>
<ellipse cx="201.853" cy="0.957132" rx="0.739709" ry="0.956521" fill="#A979EF"/>
<ellipse cx="204.814" cy="0.957132" rx="0.739709" ry="0.956521" fill="#A979EF"/>
<ellipse cx="207.772" cy="0.957132" rx="0.739709" ry="0.956521" fill="#A979EF"/>
<ellipse cx="210.731" cy="0.957132" rx="0.739709" ry="0.956521" fill="#A979EF"/>
<ellipse cx="213.691" cy="0.957132" rx="0.739709" ry="0.956521" fill="#A979EF"/>
<ellipse cx="216.647" cy="0.957132" rx="0.739709" ry="0.956521" fill="#A979EF"/>
<ellipse cx="219.606" cy="0.957132" rx="0.739709" ry="0.956521" fill="#A979EF"/>
<ellipse cx="222.566" cy="0.957132" rx="0.739709" ry="0.956521" fill="#A979EF"/>
<ellipse cx="225.525" cy="0.957132" rx="0.739709" ry="0.956521" fill="#A979EF"/>
<ellipse cx="228.485" cy="0.957132" rx="0.739709" ry="0.956521" fill="#A979EF"/>
<ellipse cx="231.444" cy="0.957132" rx="0.739709" ry="0.956521" fill="#A979EF"/>
<ellipse cx="234.402" cy="0.957132" rx="0.739709" ry="0.956521" fill="#A979EF"/>
<ellipse cx="237.363" cy="0.957132" rx="0.739709" ry="0.956521" fill="#A979EF"/>
<ellipse cx="240.317" cy="0.957132" rx="0.739709" ry="0.956521" fill="#A979EF"/>
<ellipse cx="130.842" cy="4.78346" rx="0.739709" ry="0.956521" fill="#A979EF"/>
<ellipse cx="133.801" cy="4.78346" rx="0.739709" ry="0.956521" fill="#A979EF"/>
<ellipse cx="136.761" cy="4.78346" rx="0.739709" ry="0.956521" fill="#A979EF"/>
<ellipse cx="139.72" cy="4.78346" rx="0.739709" ry="0.956521" fill="#A979EF"/>
<ellipse cx="142.678" cy="4.78346" rx="0.739709" ry="0.956521" fill="#A979EF"/>
<ellipse cx="145.638" cy="4.78346" rx="0.739709" ry="0.956521" fill="#A979EF"/>
<ellipse cx="148.597" cy="4.78346" rx="0.739709" ry="0.956521" fill="#A979EF"/>
<ellipse cx="151.553" cy="4.78346" rx="0.739709" ry="0.956521" fill="#A979EF"/>
<ellipse cx="154.511" cy="4.78346" rx="0.739709" ry="0.956521" fill="#A979EF"/>
<ellipse cx="157.472" cy="4.78346" rx="0.739709" ry="0.956521" fill="#A979EF"/>
<ellipse cx="160.43" cy="4.78346" rx="0.739709" ry="0.956521" fill="#A979EF"/>
<ellipse cx="163.389" cy="4.78346" rx="0.739709" ry="0.956521" fill="#A979EF"/>
<ellipse cx="166.349" cy="4.78346" rx="0.739709" ry="0.956521" fill="#A979EF"/>
<ellipse cx="169.308" cy="4.78346" rx="0.739709" ry="0.956521" fill="#A979EF"/>
<ellipse cx="172.266" cy="4.78346" rx="0.739709" ry="0.956521" fill="#A979EF"/>
<ellipse cx="175.226" cy="4.78346" rx="0.739709" ry="0.956521" fill="#A979EF"/>
<ellipse cx="178.185" cy="4.78346" rx="0.739709" ry="0.956521" fill="#A979EF"/>
<ellipse cx="181.143" cy="4.78346" rx="0.739709" ry="0.956521" fill="#A979EF"/>
<ellipse cx="184.103" cy="4.78346" rx="0.739709" ry="0.956521" fill="#A979EF"/>
<ellipse cx="187.062" cy="4.78346" rx="0.739709" ry="0.956521" fill="#A979EF"/>
<ellipse cx="190.02" cy="4.78346" rx="0.739709" ry="0.956521" fill="#A979EF"/>
<ellipse cx="192.98" cy="4.78346" rx="0.739709" ry="0.956521" fill="#A979EF"/>
<ellipse cx="195.935" cy="4.78346" rx="0.739709" ry="0.956521" fill="#A979EF"/>
<ellipse cx="198.895" cy="4.78346" rx="0.739709" ry="0.956521" fill="#A979EF"/>
<ellipse cx="201.853" cy="4.78346" rx="0.739709" ry="0.956521" fill="#A979EF"/>
<ellipse cx="204.814" cy="4.78346" rx="0.739709" ry="0.956521" fill="#A979EF"/>
<ellipse cx="207.772" cy="4.78346" rx="0.739709" ry="0.956521" fill="#A979EF"/>
<ellipse cx="210.731" cy="4.78346" rx="0.739709" ry="0.956521" fill="#A979EF"/>
<ellipse cx="213.691" cy="4.78346" rx="0.739709" ry="0.956521" fill="#A979EF"/>
<ellipse cx="216.647" cy="4.78346" rx="0.739709" ry="0.956521" fill="#A979EF"/>
<ellipse cx="219.606" cy="4.78346" rx="0.739709" ry="0.956521" fill="#A979EF"/>
<ellipse cx="222.566" cy="4.78346" rx="0.739709" ry="0.956521" fill="#A979EF"/>
<ellipse cx="225.525" cy="4.78346" rx="0.739709" ry="0.956521" fill="#A979EF"/>
<ellipse cx="228.485" cy="4.78346" rx="0.739709" ry="0.956521" fill="#A979EF"/>
<ellipse cx="231.444" cy="4.78346" rx="0.739709" ry="0.956521" fill="#A979EF"/>
<ellipse cx="234.402" cy="4.78346" rx="0.739709" ry="0.956521" fill="#A979EF"/>
<ellipse cx="237.363" cy="4.78346" rx="0.739709" ry="0.956521" fill="#A979EF"/>
<ellipse cx="240.317" cy="4.78346" rx="0.739709" ry="0.956521" fill="#A979EF"/>
<ellipse cx="130.842" cy="8.60989" rx="0.739709" ry="0.956521" fill="#A979EF"/>
<ellipse cx="133.801" cy="8.60989" rx="0.739709" ry="0.956521" fill="#A979EF"/>
<ellipse cx="136.761" cy="8.60989" rx="0.739709" ry="0.956521" fill="#A979EF"/>
<ellipse cx="139.72" cy="8.60989" rx="0.739709" ry="0.956521" fill="#A979EF"/>
<ellipse cx="142.678" cy="8.60989" rx="0.739709" ry="0.956521" fill="#A979EF"/>
<ellipse cx="145.638" cy="8.60989" rx="0.739709" ry="0.956521" fill="#A979EF"/>
<ellipse cx="148.597" cy="8.60989" rx="0.739709" ry="0.956521" fill="#A979EF"/>
<ellipse cx="151.553" cy="8.60989" rx="0.739709" ry="0.956521" fill="#A979EF"/>
<ellipse cx="154.511" cy="8.60989" rx="0.739709" ry="0.956521" fill="#A979EF"/>
<ellipse cx="157.472" cy="8.60989" rx="0.739709" ry="0.956521" fill="#A979EF"/>
<ellipse cx="160.43" cy="8.60989" rx="0.739709" ry="0.956521" fill="#A979EF"/>
<ellipse cx="163.389" cy="8.60989" rx="0.739709" ry="0.956521" fill="#A979EF"/>
<ellipse cx="166.349" cy="8.60989" rx="0.739709" ry="0.956521" fill="#A979EF"/>
<ellipse cx="169.308" cy="8.60989" rx="0.739709" ry="0.956521" fill="#A979EF"/>
<ellipse cx="172.266" cy="8.60989" rx="0.739709" ry="0.956521" fill="#A979EF"/>
<ellipse cx="175.226" cy="8.60989" rx="0.739709" ry="0.956521" fill="#A979EF"/>
<ellipse cx="178.185" cy="8.60989" rx="0.739709" ry="0.956521" fill="#A979EF"/>
<ellipse cx="181.143" cy="8.60989" rx="0.739709" ry="0.956521" fill="#A979EF"/>
<ellipse cx="184.103" cy="8.60989" rx="0.739709" ry="0.956521" fill="#A979EF"/>
<ellipse cx="187.062" cy="8.60989" rx="0.739709" ry="0.956521" fill="#A979EF"/>
<ellipse cx="190.02" cy="8.60989" rx="0.739709" ry="0.956521" fill="#A979EF"/>
<ellipse cx="192.98" cy="8.60989" rx="0.739709" ry="0.956521" fill="#A979EF"/>
<ellipse cx="195.935" cy="8.60989" rx="0.739709" ry="0.956521" fill="#A979EF"/>
<ellipse cx="198.895" cy="8.60989" rx="0.739709" ry="0.956521" fill="#A979EF"/>
<ellipse cx="201.853" cy="8.60989" rx="0.739709" ry="0.956521" fill="#A979EF"/>
<ellipse cx="204.814" cy="8.60989" rx="0.739709" ry="0.956521" fill="#A979EF"/>
<ellipse cx="207.772" cy="8.60989" rx="0.739709" ry="0.956521" fill="#A979EF"/>
<ellipse cx="210.731" cy="8.60989" rx="0.739709" ry="0.956521" fill="#A979EF"/>
<ellipse cx="213.691" cy="8.60989" rx="0.739709" ry="0.956521" fill="#A979EF"/>
<ellipse cx="216.647" cy="8.60989" rx="0.739709" ry="0.956521" fill="#A979EF"/>
<ellipse cx="219.606" cy="8.60989" rx="0.739709" ry="0.956521" fill="#A979EF"/>
<ellipse cx="222.566" cy="8.60989" rx="0.739709" ry="0.956521" fill="#A979EF"/>
<ellipse cx="225.525" cy="8.60989" rx="0.739709" ry="0.956521" fill="#A979EF"/>
<ellipse cx="228.485" cy="8.60989" rx="0.739709" ry="0.956521" fill="#A979EF"/>
<ellipse cx="231.444" cy="8.60989" rx="0.739709" ry="0.956521" fill="#A979EF"/>
<ellipse cx="234.402" cy="8.60989" rx="0.739709" ry="0.956521" fill="#A979EF"/>
<ellipse cx="237.363" cy="8.60989" rx="0.739709" ry="0.956521" fill="#A979EF"/>
<ellipse cx="240.317" cy="8.60989" rx="0.739709" ry="0.956521" fill="#A979EF"/>
<ellipse cx="130.842" cy="12.4363" rx="0.739709" ry="0.956521" fill="#A979EF"/>
<ellipse cx="133.801" cy="12.4363" rx="0.739709" ry="0.956521" fill="#A979EF"/>
<ellipse cx="136.761" cy="12.4363" rx="0.739709" ry="0.956521" fill="#A979EF"/>
<ellipse cx="139.72" cy="12.4363" rx="0.739709" ry="0.956521" fill="#A979EF"/>
<ellipse cx="142.678" cy="12.4363" rx="0.739709" ry="0.956521" fill="#A979EF"/>
<ellipse cx="145.638" cy="12.4363" rx="0.739709" ry="0.956521" fill="#A979EF"/>
<ellipse cx="148.597" cy="12.4363" rx="0.739709" ry="0.956521" fill="#A979EF"/>
<ellipse cx="151.553" cy="12.4363" rx="0.739709" ry="0.956521" fill="#A979EF"/>
<ellipse cx="154.511" cy="12.4363" rx="0.739709" ry="0.956521" fill="#A979EF"/>
<ellipse cx="157.472" cy="12.4363" rx="0.739709" ry="0.956521" fill="#A979EF"/>
<ellipse cx="160.43" cy="12.4363" rx="0.739709" ry="0.956521" fill="#A979EF"/>
<ellipse cx="163.389" cy="12.4363" rx="0.739709" ry="0.956521" fill="#A979EF"/>
<ellipse cx="166.349" cy="12.4363" rx="0.739709" ry="0.956521" fill="#A979EF"/>
<ellipse cx="169.308" cy="12.4363" rx="0.739709" ry="0.956521" fill="#A979EF"/>
<ellipse cx="172.266" cy="12.4363" rx="0.739709" ry="0.956521" fill="#A979EF"/>
<ellipse cx="175.226" cy="12.4363" rx="0.739709" ry="0.956521" fill="#A979EF"/>
<ellipse cx="178.185" cy="12.4363" rx="0.739709" ry="0.956521" fill="#A979EF"/>
<ellipse cx="181.143" cy="12.4363" rx="0.739709" ry="0.956521" fill="#A979EF"/>
<ellipse cx="184.103" cy="12.4363" rx="0.739709" ry="0.956521" fill="#A979EF"/>
<ellipse cx="187.062" cy="12.4363" rx="0.739709" ry="0.956521" fill="#A979EF"/>
<ellipse cx="190.02" cy="12.4363" rx="0.739709" ry="0.956521" fill="#A979EF"/>
<ellipse cx="192.98" cy="12.4363" rx="0.739709" ry="0.956521" fill="#A979EF"/>
<ellipse cx="195.935" cy="12.4363" rx="0.739709" ry="0.956521" fill="#A979EF"/>
<ellipse cx="198.895" cy="12.4363" rx="0.739709" ry="0.956521" fill="#A979EF"/>
<ellipse cx="201.853" cy="12.4363" rx="0.739709" ry="0.956521" fill="#A979EF"/>
<ellipse cx="204.814" cy="12.4363" rx="0.739709" ry="0.956521" fill="#A979EF"/>
<ellipse cx="207.772" cy="12.4363" rx="0.739709" ry="0.956521" fill="#A979EF"/>
<ellipse cx="210.731" cy="12.4363" rx="0.739709" ry="0.956521" fill="#A979EF"/>
<ellipse cx="213.691" cy="12.4363" rx="0.739709" ry="0.956521" fill="#A979EF"/>
<ellipse cx="216.647" cy="12.4363" rx="0.739709" ry="0.956521" fill="#A979EF"/>
<ellipse cx="219.606" cy="12.4363" rx="0.739709" ry="0.956521" fill="#A979EF"/>
<ellipse cx="222.566" cy="12.4363" rx="0.739709" ry="0.956521" fill="#A979EF"/>
<ellipse cx="225.525" cy="12.4363" rx="0.739709" ry="0.956521" fill="#A979EF"/>
<ellipse cx="228.485" cy="12.4363" rx="0.739709" ry="0.956521" fill="#A979EF"/>
<ellipse cx="231.444" cy="12.4363" rx="0.739709" ry="0.956521" fill="#A979EF"/>
<ellipse cx="234.402" cy="12.4363" rx="0.739709" ry="0.956521" fill="#A979EF"/>
<ellipse cx="237.363" cy="12.4363" rx="0.739709" ry="0.956521" fill="#A979EF"/>
<ellipse cx="240.317" cy="12.4363" rx="0.739709" ry="0.956521" fill="#A979EF"/>
<ellipse cx="130.842" cy="16.2607" rx="0.739709" ry="0.956521" fill="#A979EF"/>
<ellipse cx="133.801" cy="16.2607" rx="0.739709" ry="0.956521" fill="#A979EF"/>
<ellipse cx="136.761" cy="16.2607" rx="0.739709" ry="0.956521" fill="#A979EF"/>
<ellipse cx="139.72" cy="16.2607" rx="0.739709" ry="0.956521" fill="#A979EF"/>
<ellipse cx="142.678" cy="16.2607" rx="0.739709" ry="0.956521" fill="#A979EF"/>
<ellipse cx="145.638" cy="16.2607" rx="0.739709" ry="0.956521" fill="#A979EF"/>
<ellipse cx="148.597" cy="16.2607" rx="0.739709" ry="0.956521" fill="#A979EF"/>
<ellipse cx="151.553" cy="16.2607" rx="0.739709" ry="0.956521" fill="#A979EF"/>
<ellipse cx="154.511" cy="16.2607" rx="0.739709" ry="0.956521" fill="#A979EF"/>
<ellipse cx="157.472" cy="16.2607" rx="0.739709" ry="0.956521" fill="#A979EF"/>
<ellipse cx="160.43" cy="16.2607" rx="0.739709" ry="0.956521" fill="#A979EF"/>
<ellipse cx="163.389" cy="16.2607" rx="0.739709" ry="0.956521" fill="#A979EF"/>
<ellipse cx="166.349" cy="16.2607" rx="0.739709" ry="0.956521" fill="#A979EF"/>
<ellipse cx="169.308" cy="16.2607" rx="0.739709" ry="0.956521" fill="#A979EF"/>
<ellipse cx="172.266" cy="16.2607" rx="0.739709" ry="0.956521" fill="#A979EF"/>
<ellipse cx="175.226" cy="16.2607" rx="0.739709" ry="0.956521" fill="#A979EF"/>
<ellipse cx="178.185" cy="16.2607" rx="0.739709" ry="0.956521" fill="#A979EF"/>
<ellipse cx="181.143" cy="16.2607" rx="0.739709" ry="0.956521" fill="#A979EF"/>
<ellipse cx="184.103" cy="16.2607" rx="0.739709" ry="0.956521" fill="#A979EF"/>
<ellipse cx="187.062" cy="16.2607" rx="0.739709" ry="0.956521" fill="#A979EF"/>
<ellipse cx="190.02" cy="16.2607" rx="0.739709" ry="0.956521" fill="#A979EF"/>
<ellipse cx="192.98" cy="16.2607" rx="0.739709" ry="0.956521" fill="#A979EF"/>
<ellipse cx="195.935" cy="16.2607" rx="0.739709" ry="0.956521" fill="#A979EF"/>
<ellipse cx="198.895" cy="16.2607" rx="0.739709" ry="0.956521" fill="#A979EF"/>
<ellipse cx="201.853" cy="16.2607" rx="0.739709" ry="0.956521" fill="#A979EF"/>
<ellipse cx="204.814" cy="16.2607" rx="0.739709" ry="0.956521" fill="#A979EF"/>
<ellipse cx="207.772" cy="16.2607" rx="0.739709" ry="0.956521" fill="#A979EF"/>
<ellipse cx="210.731" cy="16.2607" rx="0.739709" ry="0.956521" fill="#A979EF"/>
<ellipse cx="213.691" cy="16.2607" rx="0.739709" ry="0.956521" fill="#A979EF"/>
<ellipse cx="216.647" cy="16.2607" rx="0.739709" ry="0.956521" fill="#A979EF"/>
<ellipse cx="219.606" cy="16.2607" rx="0.739709" ry="0.956521" fill="#A979EF"/>
<ellipse cx="222.566" cy="16.2607" rx="0.739709" ry="0.956521" fill="#A979EF"/>
<ellipse cx="225.525" cy="16.2607" rx="0.739709" ry="0.956521" fill="#A979EF"/>
<ellipse cx="228.485" cy="16.2607" rx="0.739709" ry="0.956521" fill="#A979EF"/>
<ellipse cx="231.444" cy="16.2607" rx="0.739709" ry="0.956521" fill="#A979EF"/>
<ellipse cx="234.402" cy="16.2607" rx="0.739709" ry="0.956521" fill="#A979EF"/>
<ellipse cx="237.363" cy="16.2607" rx="0.739709" ry="0.956521" fill="#A979EF"/>
<ellipse cx="240.317" cy="16.2607" rx="0.739709" ry="0.956521" fill="#A979EF"/>
<ellipse cx="130.842" cy="20.0871" rx="0.739709" ry="0.956521" fill="#A979EF"/>
<ellipse cx="133.801" cy="20.0871" rx="0.739709" ry="0.956521" fill="#A979EF"/>
<ellipse cx="136.761" cy="20.0871" rx="0.739709" ry="0.956521" fill="#A979EF"/>
<ellipse cx="139.72" cy="20.0871" rx="0.739709" ry="0.956521" fill="#A979EF"/>
<ellipse cx="142.678" cy="20.0871" rx="0.739709" ry="0.956521" fill="#A979EF"/>
<ellipse cx="145.638" cy="20.0871" rx="0.739709" ry="0.956521" fill="#A979EF"/>
<ellipse cx="148.597" cy="20.0871" rx="0.739709" ry="0.956521" fill="#A979EF"/>
<ellipse cx="151.553" cy="20.0871" rx="0.739709" ry="0.956521" fill="#A979EF"/>
<ellipse cx="154.511" cy="20.0871" rx="0.739709" ry="0.956521" fill="#A979EF"/>
<ellipse cx="157.472" cy="20.0871" rx="0.739709" ry="0.956521" fill="#A979EF"/>
<ellipse cx="160.43" cy="20.0871" rx="0.739709" ry="0.956521" fill="#A979EF"/>
<ellipse cx="163.389" cy="20.0871" rx="0.739709" ry="0.956521" fill="#A979EF"/>
<ellipse cx="166.349" cy="20.0871" rx="0.739709" ry="0.956521" fill="#A979EF"/>
<ellipse cx="169.308" cy="20.0871" rx="0.739709" ry="0.956521" fill="#A979EF"/>
<ellipse cx="172.266" cy="20.0871" rx="0.739709" ry="0.956521" fill="#A979EF"/>
<ellipse cx="175.226" cy="20.0871" rx="0.739709" ry="0.956521" fill="#A979EF"/>
<ellipse cx="178.185" cy="20.0871" rx="0.739709" ry="0.956521" fill="#A979EF"/>
<ellipse cx="181.143" cy="20.0871" rx="0.739709" ry="0.956521" fill="#A979EF"/>
<ellipse cx="184.103" cy="20.0871" rx="0.739709" ry="0.956521" fill="#A979EF"/>
<ellipse cx="187.062" cy="20.0871" rx="0.739709" ry="0.956521" fill="#A979EF"/>
<ellipse cx="190.02" cy="20.0871" rx="0.739709" ry="0.956521" fill="#A979EF"/>
<ellipse cx="192.98" cy="20.0871" rx="0.739709" ry="0.956521" fill="#A979EF"/>
<ellipse cx="195.935" cy="20.0871" rx="0.739709" ry="0.956521" fill="#A979EF"/>
<ellipse cx="198.895" cy="20.0871" rx="0.739709" ry="0.956521" fill="#A979EF"/>
<ellipse cx="201.853" cy="20.0871" rx="0.739709" ry="0.956521" fill="#A979EF"/>
<ellipse cx="204.814" cy="20.0871" rx="0.739709" ry="0.956521" fill="#A979EF"/>
<ellipse cx="207.772" cy="20.0871" rx="0.739709" ry="0.956521" fill="#A979EF"/>
<ellipse cx="210.731" cy="20.0871" rx="0.739709" ry="0.956521" fill="#A979EF"/>
<ellipse cx="213.691" cy="20.0871" rx="0.739709" ry="0.956521" fill="#A979EF"/>
<ellipse cx="216.647" cy="20.0871" rx="0.739709" ry="0.956521" fill="#A979EF"/>
<ellipse cx="219.606" cy="20.0871" rx="0.739709" ry="0.956521" fill="#A979EF"/>
<ellipse cx="222.566" cy="20.0871" rx="0.739709" ry="0.956521" fill="#A979EF"/>
<ellipse cx="225.525" cy="20.0871" rx="0.739709" ry="0.956521" fill="#A979EF"/>
<ellipse cx="228.485" cy="20.0871" rx="0.739709" ry="0.956521" fill="#A979EF"/>
<ellipse cx="231.444" cy="20.0871" rx="0.739709" ry="0.956521" fill="#A979EF"/>
<ellipse cx="234.402" cy="20.0871" rx="0.739709" ry="0.956521" fill="#A979EF"/>
<ellipse cx="237.363" cy="20.0871" rx="0.739709" ry="0.956521" fill="#A979EF"/>
<ellipse cx="240.317" cy="20.0871" rx="0.739709" ry="0.956521" fill="#A979EF"/>
<ellipse cx="130.842" cy="23.9135" rx="0.739709" ry="0.956521" fill="#A979EF"/>
<ellipse cx="133.801" cy="23.9135" rx="0.739709" ry="0.956521" fill="#A979EF"/>
<ellipse cx="136.761" cy="23.9135" rx="0.739709" ry="0.956521" fill="#A979EF"/>
<ellipse cx="139.72" cy="23.9135" rx="0.739709" ry="0.956521" fill="#A979EF"/>
<ellipse cx="142.678" cy="23.9135" rx="0.739709" ry="0.956521" fill="#A979EF"/>
<ellipse cx="145.638" cy="23.9135" rx="0.739709" ry="0.956521" fill="#A979EF"/>
<ellipse cx="148.597" cy="23.9135" rx="0.739709" ry="0.956521" fill="#A979EF"/>
<ellipse cx="151.553" cy="23.9135" rx="0.739709" ry="0.956521" fill="#A979EF"/>
<ellipse cx="154.511" cy="23.9135" rx="0.739709" ry="0.956521" fill="#A979EF"/>
<ellipse cx="157.472" cy="23.9135" rx="0.739709" ry="0.956521" fill="#A979EF"/>
<ellipse cx="160.43" cy="23.9135" rx="0.739709" ry="0.956521" fill="#A979EF"/>
<ellipse cx="163.389" cy="23.9135" rx="0.739709" ry="0.956521" fill="#A979EF"/>
<ellipse cx="166.349" cy="23.9135" rx="0.739709" ry="0.956521" fill="#A979EF"/>
<ellipse cx="169.308" cy="23.9135" rx="0.739709" ry="0.956521" fill="#A979EF"/>
<ellipse cx="172.266" cy="23.9135" rx="0.739709" ry="0.956521" fill="#A979EF"/>
<ellipse cx="175.226" cy="23.9135" rx="0.739709" ry="0.956521" fill="#A979EF"/>
<ellipse cx="178.185" cy="23.9135" rx="0.739709" ry="0.956521" fill="#A979EF"/>
<ellipse cx="181.143" cy="23.9135" rx="0.739709" ry="0.956521" fill="#A979EF"/>
<ellipse cx="184.103" cy="23.9135" rx="0.739709" ry="0.956521" fill="#A979EF"/>
<ellipse cx="187.062" cy="23.9135" rx="0.739709" ry="0.956521" fill="#A979EF"/>
<ellipse cx="190.02" cy="23.9135" rx="0.739709" ry="0.956521" fill="#A979EF"/>
<ellipse cx="192.98" cy="23.9135" rx="0.739709" ry="0.956521" fill="#A979EF"/>
<ellipse cx="195.935" cy="23.9135" rx="0.739709" ry="0.956521" fill="#A979EF"/>
<ellipse cx="198.895" cy="23.9135" rx="0.739709" ry="0.956521" fill="#A979EF"/>
<ellipse cx="201.853" cy="23.9135" rx="0.739709" ry="0.956521" fill="#A979EF"/>
<ellipse cx="204.814" cy="23.9135" rx="0.739709" ry="0.956521" fill="#A979EF"/>
<ellipse cx="207.772" cy="23.9135" rx="0.739709" ry="0.956521" fill="#A979EF"/>
<ellipse cx="210.731" cy="23.9135" rx="0.739709" ry="0.956521" fill="#A979EF"/>
<ellipse cx="213.691" cy="23.9135" rx="0.739709" ry="0.956521" fill="#A979EF"/>
<ellipse cx="216.647" cy="23.9135" rx="0.739709" ry="0.956521" fill="#A979EF"/>
<ellipse cx="219.606" cy="23.9135" rx="0.739709" ry="0.956521" fill="#A979EF"/>
<ellipse cx="222.566" cy="23.9135" rx="0.739709" ry="0.956521" fill="#A979EF"/>
<ellipse cx="225.525" cy="23.9135" rx="0.739709" ry="0.956521" fill="#A979EF"/>
<ellipse cx="228.485" cy="23.9135" rx="0.739709" ry="0.956521" fill="#A979EF"/>
<ellipse cx="231.444" cy="23.9135" rx="0.739709" ry="0.956521" fill="#A979EF"/>
<ellipse cx="234.402" cy="23.9135" rx="0.739709" ry="0.956521" fill="#A979EF"/>
<ellipse cx="237.363" cy="23.9135" rx="0.739709" ry="0.956521" fill="#A979EF"/>
<ellipse cx="240.317" cy="23.9135" rx="0.739709" ry="0.956521" fill="#A979EF"/>
<ellipse cx="130.842" cy="27.7399" rx="0.739709" ry="0.956521" fill="#A979EF"/>
<ellipse cx="133.801" cy="27.7399" rx="0.739709" ry="0.956521" fill="#A979EF"/>
<ellipse cx="136.761" cy="27.7399" rx="0.739709" ry="0.956521" fill="#A979EF"/>
<ellipse cx="139.72" cy="27.7399" rx="0.739709" ry="0.956521" fill="#A979EF"/>
<ellipse cx="142.678" cy="27.7399" rx="0.739709" ry="0.956521" fill="#A979EF"/>
<ellipse cx="145.638" cy="27.7399" rx="0.739709" ry="0.956521" fill="#A979EF"/>
<ellipse cx="148.597" cy="27.7399" rx="0.739709" ry="0.956521" fill="#A979EF"/>
<ellipse cx="151.553" cy="27.7399" rx="0.739709" ry="0.956521" fill="#A979EF"/>
<ellipse cx="154.511" cy="27.7399" rx="0.739709" ry="0.956521" fill="#A979EF"/>
<ellipse cx="157.472" cy="27.7399" rx="0.739709" ry="0.956521" fill="#A979EF"/>
<ellipse cx="160.43" cy="27.7399" rx="0.739709" ry="0.956521" fill="#A979EF"/>
<ellipse cx="163.389" cy="27.7399" rx="0.739709" ry="0.956521" fill="#A979EF"/>
<ellipse cx="166.349" cy="27.7399" rx="0.739709" ry="0.956521" fill="#A979EF"/>
<ellipse cx="169.308" cy="27.7399" rx="0.739709" ry="0.956521" fill="#A979EF"/>
<ellipse cx="172.266" cy="27.7399" rx="0.739709" ry="0.956521" fill="#A979EF"/>
<ellipse cx="175.226" cy="27.7399" rx="0.739709" ry="0.956521" fill="#A979EF"/>
<ellipse cx="178.185" cy="27.7399" rx="0.739709" ry="0.956521" fill="#A979EF"/>
<ellipse cx="181.143" cy="27.7399" rx="0.739709" ry="0.956521" fill="#A979EF"/>
<ellipse cx="184.103" cy="27.7399" rx="0.739709" ry="0.956521" fill="#A979EF"/>
<ellipse cx="187.062" cy="27.7399" rx="0.739709" ry="0.956521" fill="#A979EF"/>
<ellipse cx="190.02" cy="27.7399" rx="0.739709" ry="0.956521" fill="#A979EF"/>
<ellipse cx="192.98" cy="27.7399" rx="0.739709" ry="0.956521" fill="#A979EF"/>
<ellipse cx="195.935" cy="27.7399" rx="0.739709" ry="0.956521" fill="#A979EF"/>
<ellipse cx="198.895" cy="27.7399" rx="0.739709" ry="0.956521" fill="#A979EF"/>
<ellipse cx="201.853" cy="27.7399" rx="0.739709" ry="0.956521" fill="#A979EF"/>
<ellipse cx="204.814" cy="27.7399" rx="0.739709" ry="0.956521" fill="#A979EF"/>
<ellipse cx="207.772" cy="27.7399" rx="0.739709" ry="0.956521" fill="#A979EF"/>
<ellipse cx="210.731" cy="27.7399" rx="0.739709" ry="0.956521" fill="#A979EF"/>
<ellipse cx="213.691" cy="27.7399" rx="0.739709" ry="0.956521" fill="#A979EF"/>
<ellipse cx="216.647" cy="27.7399" rx="0.739709" ry="0.956521" fill="#A979EF"/>
<ellipse cx="219.606" cy="27.7399" rx="0.739709" ry="0.956521" fill="#A979EF"/>
<ellipse cx="222.566" cy="27.7399" rx="0.739709" ry="0.956521" fill="#A979EF"/>
<ellipse cx="225.525" cy="27.7399" rx="0.739709" ry="0.956521" fill="#A979EF"/>
<ellipse cx="228.485" cy="27.7399" rx="0.739709" ry="0.956521" fill="#A979EF"/>
<ellipse cx="231.444" cy="27.7399" rx="0.739709" ry="0.956521" fill="#A979EF"/>
<ellipse cx="234.402" cy="27.7399" rx="0.739709" ry="0.956521" fill="#A979EF"/>
<ellipse cx="237.363" cy="27.7399" rx="0.739709" ry="0.956521" fill="#A979EF"/>
<ellipse cx="240.317" cy="27.7399" rx="0.739709" ry="0.956521" fill="#A979EF"/>
<ellipse cx="130.842" cy="31.5664" rx="0.739709" ry="0.956521" fill="#A979EF"/>
<ellipse cx="133.801" cy="31.5664" rx="0.739709" ry="0.956521" fill="#A979EF"/>
<ellipse cx="136.761" cy="31.5664" rx="0.739709" ry="0.956521" fill="#A979EF"/>
<ellipse cx="139.72" cy="31.5664" rx="0.739709" ry="0.956521" fill="#A979EF"/>
<ellipse cx="142.678" cy="31.5664" rx="0.739709" ry="0.956521" fill="#A979EF"/>
<ellipse cx="145.638" cy="31.5664" rx="0.739709" ry="0.956521" fill="#A979EF"/>
<ellipse cx="148.597" cy="31.5664" rx="0.739709" ry="0.956521" fill="#A979EF"/>
<ellipse cx="151.553" cy="31.5664" rx="0.739709" ry="0.956521" fill="#A979EF"/>
<ellipse cx="154.511" cy="31.5664" rx="0.739709" ry="0.956521" fill="#A979EF"/>
<ellipse cx="157.472" cy="31.5664" rx="0.739709" ry="0.956521" fill="#A979EF"/>
<ellipse cx="160.43" cy="31.5664" rx="0.739709" ry="0.956521" fill="#A979EF"/>
<ellipse cx="163.389" cy="31.5664" rx="0.739709" ry="0.956521" fill="#A979EF"/>
<ellipse cx="166.349" cy="31.5664" rx="0.739709" ry="0.956521" fill="#A979EF"/>
<ellipse cx="169.308" cy="31.5664" rx="0.739709" ry="0.956521" fill="#A979EF"/>
<ellipse cx="172.266" cy="31.5664" rx="0.739709" ry="0.956521" fill="#A979EF"/>
<ellipse cx="175.226" cy="31.5664" rx="0.739709" ry="0.956521" fill="#A979EF"/>
<ellipse cx="178.185" cy="31.5664" rx="0.739709" ry="0.956521" fill="#A979EF"/>
<ellipse cx="181.143" cy="31.5664" rx="0.739709" ry="0.956521" fill="#A979EF"/>
<ellipse cx="184.103" cy="31.5664" rx="0.739709" ry="0.956521" fill="#A979EF"/>
<ellipse cx="187.062" cy="31.5664" rx="0.739709" ry="0.956521" fill="#A979EF"/>
<ellipse cx="190.02" cy="31.5664" rx="0.739709" ry="0.956521" fill="#A979EF"/>
<ellipse cx="192.98" cy="31.5664" rx="0.739709" ry="0.956521" fill="#A979EF"/>
<ellipse cx="195.935" cy="31.5664" rx="0.739709" ry="0.956521" fill="#A979EF"/>
<ellipse cx="198.895" cy="31.5664" rx="0.739709" ry="0.956521" fill="#A979EF"/>
<ellipse cx="201.853" cy="31.5664" rx="0.739709" ry="0.956521" fill="#A979EF"/>
<ellipse cx="204.814" cy="31.5664" rx="0.739709" ry="0.956521" fill="#A979EF"/>
<ellipse cx="207.772" cy="31.5664" rx="0.739709" ry="0.956521" fill="#A979EF"/>
<ellipse cx="210.731" cy="31.5664" rx="0.739709" ry="0.956521" fill="#A979EF"/>
<ellipse cx="213.691" cy="31.5664" rx="0.739709" ry="0.956521" fill="#A979EF"/>
<ellipse cx="216.647" cy="31.5664" rx="0.739709" ry="0.956521" fill="#A979EF"/>
<ellipse cx="219.606" cy="31.5664" rx="0.739709" ry="0.956521" fill="#A979EF"/>
<ellipse cx="222.566" cy="31.5664" rx="0.739709" ry="0.956521" fill="#A979EF"/>
<ellipse cx="225.525" cy="31.5664" rx="0.739709" ry="0.956521" fill="#A979EF"/>
<ellipse cx="228.485" cy="31.5664" rx="0.739709" ry="0.956521" fill="#A979EF"/>
<ellipse cx="231.444" cy="31.5664" rx="0.739709" ry="0.956521" fill="#A979EF"/>
<ellipse cx="234.402" cy="31.5664" rx="0.739709" ry="0.956521" fill="#A979EF"/>
<ellipse cx="237.363" cy="31.5664" rx="0.739709" ry="0.956521" fill="#A979EF"/>
<ellipse cx="240.317" cy="31.5664" rx="0.739709" ry="0.956521" fill="#A979EF"/>
<ellipse cx="130.842" cy="35.3928" rx="0.739709" ry="0.956521" fill="#A979EF"/>
<ellipse cx="133.801" cy="35.3928" rx="0.739709" ry="0.956521" fill="#A979EF"/>
<ellipse cx="136.761" cy="35.3928" rx="0.739709" ry="0.956521" fill="#A979EF"/>
<ellipse cx="139.72" cy="35.3928" rx="0.739709" ry="0.956521" fill="#A979EF"/>
<ellipse cx="142.678" cy="35.3928" rx="0.739709" ry="0.956521" fill="#A979EF"/>
<ellipse cx="145.638" cy="35.3928" rx="0.739709" ry="0.956521" fill="#A979EF"/>
<ellipse cx="148.597" cy="35.3928" rx="0.739709" ry="0.956521" fill="#A979EF"/>
<ellipse cx="151.553" cy="35.3928" rx="0.739709" ry="0.956521" fill="#A979EF"/>
<ellipse cx="154.511" cy="35.3928" rx="0.739709" ry="0.956521" fill="#A979EF"/>
<ellipse cx="157.472" cy="35.3928" rx="0.739709" ry="0.956521" fill="#A979EF"/>
<ellipse cx="160.43" cy="35.3928" rx="0.739709" ry="0.956521" fill="#A979EF"/>
<ellipse cx="163.389" cy="35.3928" rx="0.739709" ry="0.956521" fill="#A979EF"/>
<ellipse cx="166.349" cy="35.3928" rx="0.739709" ry="0.956521" fill="#A979EF"/>
<ellipse cx="169.308" cy="35.3928" rx="0.739709" ry="0.956521" fill="#A979EF"/>
<ellipse cx="172.266" cy="35.3928" rx="0.739709" ry="0.956521" fill="#A979EF"/>
<ellipse cx="175.226" cy="35.3928" rx="0.739709" ry="0.956521" fill="#A979EF"/>
<ellipse cx="178.185" cy="35.3928" rx="0.739709" ry="0.956521" fill="#A979EF"/>
<ellipse cx="181.143" cy="35.3928" rx="0.739709" ry="0.956521" fill="#A979EF"/>
<ellipse cx="184.103" cy="35.3928" rx="0.739709" ry="0.956521" fill="#A979EF"/>
<ellipse cx="187.062" cy="35.3928" rx="0.739709" ry="0.956521" fill="#A979EF"/>
<ellipse cx="190.02" cy="35.3928" rx="0.739709" ry="0.956521" fill="#A979EF"/>
<ellipse cx="192.98" cy="35.3928" rx="0.739709" ry="0.956521" fill="#A979EF"/>
<ellipse cx="195.935" cy="35.3928" rx="0.739709" ry="0.956521" fill="#A979EF"/>
<ellipse cx="198.895" cy="35.3928" rx="0.739709" ry="0.956521" fill="#A979EF"/>
<ellipse cx="201.853" cy="35.3928" rx="0.739709" ry="0.956521" fill="#A979EF"/>
<ellipse cx="204.814" cy="35.3928" rx="0.739709" ry="0.956521" fill="#A979EF"/>
<ellipse cx="207.772" cy="35.3928" rx="0.739709" ry="0.956521" fill="#A979EF"/>
<ellipse cx="210.731" cy="35.3928" rx="0.739709" ry="0.956521" fill="#A979EF"/>
<ellipse cx="213.691" cy="35.3928" rx="0.739709" ry="0.956521" fill="#A979EF"/>
<ellipse cx="216.647" cy="35.3928" rx="0.739709" ry="0.956521" fill="#A979EF"/>
<ellipse cx="219.606" cy="35.3928" rx="0.739709" ry="0.956521" fill="#A979EF"/>
<ellipse cx="222.566" cy="35.3928" rx="0.739709" ry="0.956521" fill="#A979EF"/>
<ellipse cx="225.525" cy="35.3928" rx="0.739709" ry="0.956521" fill="#A979EF"/>
<ellipse cx="228.485" cy="35.3928" rx="0.739709" ry="0.956521" fill="#A979EF"/>
<ellipse cx="231.444" cy="35.3928" rx="0.739709" ry="0.956521" fill="#A979EF"/>
<ellipse cx="234.402" cy="35.3928" rx="0.739709" ry="0.956521" fill="#A979EF"/>
<ellipse cx="237.363" cy="35.3928" rx="0.739709" ry="0.956521" fill="#A979EF"/>
<ellipse cx="240.317" cy="35.3928" rx="0.739709" ry="0.956521" fill="#A979EF"/>
<ellipse cx="130.842" cy="39.2192" rx="0.739709" ry="0.956521" fill="#A979EF"/>
<ellipse cx="133.801" cy="39.2192" rx="0.739709" ry="0.956521" fill="#A979EF"/>
<ellipse cx="136.761" cy="39.2192" rx="0.739709" ry="0.956521" fill="#A979EF"/>
<ellipse cx="139.72" cy="39.2192" rx="0.739709" ry="0.956521" fill="#A979EF"/>
<ellipse cx="142.678" cy="39.2192" rx="0.739709" ry="0.956521" fill="#A979EF"/>
<ellipse cx="145.638" cy="39.2192" rx="0.739709" ry="0.956521" fill="#A979EF"/>
<ellipse cx="148.597" cy="39.2192" rx="0.739709" ry="0.956521" fill="#A979EF"/>
<ellipse cx="151.553" cy="39.2192" rx="0.739709" ry="0.956521" fill="#A979EF"/>
<ellipse cx="154.511" cy="39.2192" rx="0.739709" ry="0.956521" fill="#A979EF"/>
<ellipse cx="157.472" cy="39.2192" rx="0.739709" ry="0.956521" fill="#A979EF"/>
<ellipse cx="160.43" cy="39.2192" rx="0.739709" ry="0.956521" fill="#A979EF"/>
<ellipse cx="163.389" cy="39.2192" rx="0.739709" ry="0.956521" fill="#A979EF"/>
<ellipse cx="166.349" cy="39.2192" rx="0.739709" ry="0.956521" fill="#A979EF"/>
<ellipse cx="169.308" cy="39.2192" rx="0.739709" ry="0.956521" fill="#A979EF"/>
<ellipse cx="172.266" cy="39.2192" rx="0.739709" ry="0.956521" fill="#A979EF"/>
<ellipse cx="175.226" cy="39.2192" rx="0.739709" ry="0.956521" fill="#A979EF"/>
<ellipse cx="178.185" cy="39.2192" rx="0.739709" ry="0.956521" fill="#A979EF"/>
<ellipse cx="181.143" cy="39.2192" rx="0.739709" ry="0.956521" fill="#A979EF"/>
<ellipse cx="184.103" cy="39.2192" rx="0.739709" ry="0.956521" fill="#A979EF"/>
<ellipse cx="187.062" cy="39.2192" rx="0.739709" ry="0.956521" fill="#A979EF"/>
<ellipse cx="190.02" cy="39.2192" rx="0.739709" ry="0.956521" fill="#A979EF"/>
<ellipse cx="192.98" cy="39.2192" rx="0.739709" ry="0.956521" fill="#A979EF"/>
<ellipse cx="195.935" cy="39.2192" rx="0.739709" ry="0.956521" fill="#A979EF"/>
<ellipse cx="198.895" cy="39.2192" rx="0.739709" ry="0.956521" fill="#A979EF"/>
<ellipse cx="201.853" cy="39.2192" rx="0.739709" ry="0.956521" fill="#A979EF"/>
<ellipse cx="204.814" cy="39.2192" rx="0.739709" ry="0.956521" fill="#A979EF"/>
<ellipse cx="207.772" cy="39.2192" rx="0.739709" ry="0.956521" fill="#A979EF"/>
<ellipse cx="210.731" cy="39.2192" rx="0.739709" ry="0.956521" fill="#A979EF"/>
<ellipse cx="213.691" cy="39.2192" rx="0.739709" ry="0.956521" fill="#A979EF"/>
<ellipse cx="216.647" cy="39.2192" rx="0.739709" ry="0.956521" fill="#A979EF"/>
<ellipse cx="219.606" cy="39.2192" rx="0.739709" ry="0.956521" fill="#A979EF"/>
<ellipse cx="222.566" cy="39.2192" rx="0.739709" ry="0.956521" fill="#A979EF"/>
<ellipse cx="225.525" cy="39.2192" rx="0.739709" ry="0.956521" fill="#A979EF"/>
<ellipse cx="228.485" cy="39.2192" rx="0.739709" ry="0.956521" fill="#A979EF"/>
<ellipse cx="231.444" cy="39.2192" rx="0.739709" ry="0.956521" fill="#A979EF"/>
<ellipse cx="234.402" cy="39.2192" rx="0.739709" ry="0.956521" fill="#A979EF"/>
<ellipse cx="237.363" cy="39.2192" rx="0.739709" ry="0.956521" fill="#A979EF"/>
<ellipse cx="240.317" cy="39.2192" rx="0.739709" ry="0.956521" fill="#A979EF"/>
<ellipse cx="130.842" cy="43.0434" rx="0.739709" ry="0.956521" fill="#A979EF"/>
<ellipse cx="133.801" cy="43.0434" rx="0.739709" ry="0.956521" fill="#A979EF"/>
<ellipse cx="136.761" cy="43.0434" rx="0.739709" ry="0.956521" fill="#A979EF"/>
<ellipse cx="139.72" cy="43.0434" rx="0.739709" ry="0.956521" fill="#A979EF"/>
<ellipse cx="142.678" cy="43.0434" rx="0.739709" ry="0.956521" fill="#A979EF"/>
<ellipse cx="145.638" cy="43.0434" rx="0.739709" ry="0.956521" fill="#A979EF"/>
<ellipse cx="148.597" cy="43.0434" rx="0.739709" ry="0.956521" fill="#A979EF"/>
<ellipse cx="151.553" cy="43.0434" rx="0.739709" ry="0.956521" fill="#A979EF"/>
<ellipse cx="154.511" cy="43.0434" rx="0.739709" ry="0.956521" fill="#A979EF"/>
<ellipse cx="157.472" cy="43.0434" rx="0.739709" ry="0.956521" fill="#A979EF"/>
<ellipse cx="160.43" cy="43.0434" rx="0.739709" ry="0.956521" fill="#A979EF"/>
<ellipse cx="163.389" cy="43.0434" rx="0.739709" ry="0.956521" fill="#A979EF"/>
<ellipse cx="166.349" cy="43.0434" rx="0.739709" ry="0.956521" fill="#A979EF"/>
<ellipse cx="169.308" cy="43.0434" rx="0.739709" ry="0.956521" fill="#A979EF"/>
<ellipse cx="172.266" cy="43.0434" rx="0.739709" ry="0.956521" fill="#A979EF"/>
<ellipse cx="175.226" cy="43.0434" rx="0.739709" ry="0.956521" fill="#A979EF"/>
<ellipse cx="178.185" cy="43.0434" rx="0.739709" ry="0.956521" fill="#A979EF"/>
<ellipse cx="181.143" cy="43.0434" rx="0.739709" ry="0.956521" fill="#A979EF"/>
<ellipse cx="184.103" cy="43.0434" rx="0.739709" ry="0.956521" fill="#A979EF"/>
<ellipse cx="187.062" cy="43.0434" rx="0.739709" ry="0.956521" fill="#A979EF"/>
<ellipse cx="190.02" cy="43.0434" rx="0.739709" ry="0.956521" fill="#A979EF"/>
<ellipse cx="192.98" cy="43.0434" rx="0.739709" ry="0.956521" fill="#A979EF"/>
<ellipse cx="195.935" cy="43.0434" rx="0.739709" ry="0.956521" fill="#A979EF"/>
<ellipse cx="198.895" cy="43.0434" rx="0.739709" ry="0.956521" fill="#A979EF"/>
<ellipse cx="201.853" cy="43.0434" rx="0.739709" ry="0.956521" fill="#A979EF"/>
<ellipse cx="204.814" cy="43.0434" rx="0.739709" ry="0.956521" fill="#A979EF"/>
<ellipse cx="207.772" cy="43.0434" rx="0.739709" ry="0.956521" fill="#A979EF"/>
<ellipse cx="210.731" cy="43.0434" rx="0.739709" ry="0.956521" fill="#A979EF"/>
<ellipse cx="213.691" cy="43.0434" rx="0.739709" ry="0.956521" fill="#A979EF"/>
<ellipse cx="216.647" cy="43.0434" rx="0.739709" ry="0.956521" fill="#A979EF"/>
<ellipse cx="219.606" cy="43.0434" rx="0.739709" ry="0.956521" fill="#A979EF"/>
<ellipse cx="222.566" cy="43.0434" rx="0.739709" ry="0.956521" fill="#A979EF"/>
<ellipse cx="225.525" cy="43.0434" rx="0.739709" ry="0.956521" fill="#A979EF"/>
<ellipse cx="228.485" cy="43.0434" rx="0.739709" ry="0.956521" fill="#A979EF"/>
<ellipse cx="231.444" cy="43.0434" rx="0.739709" ry="0.956521" fill="#A979EF"/>
<ellipse cx="234.402" cy="43.0434" rx="0.739709" ry="0.956521" fill="#A979EF"/>
<ellipse cx="237.363" cy="43.0434" rx="0.739709" ry="0.956521" fill="#A979EF"/>
<ellipse cx="240.317" cy="43.0434" rx="0.739709" ry="0.956521" fill="#A979EF"/>
<ellipse cx="0.739709" cy="0.957208" rx="0.739709" ry="0.956521" fill="#A979EF"/>
<ellipse cx="3.6982" cy="0.956521" rx="0.739709" ry="0.956521" fill="#A979EF"/>
<ellipse cx="6.65865" cy="0.956521" rx="0.739709" ry="0.956521" fill="#A979EF"/>
<ellipse cx="9.61715" cy="0.956521" rx="0.739709" ry="0.956521" fill="#A979EF"/>
<ellipse cx="12.5752" cy="0.956521" rx="0.739709" ry="0.956521" fill="#A979EF"/>
<ellipse cx="15.5356" cy="0.956521" rx="0.739709" ry="0.956521" fill="#A979EF"/>
<ellipse cx="18.4941" cy="0.956521" rx="0.739709" ry="0.956521" fill="#A979EF"/>
<ellipse cx="21.4502" cy="0.956521" rx="0.739709" ry="0.956521" fill="#A979EF"/>
<ellipse cx="24.4087" cy="0.956521" rx="0.739709" ry="0.956521" fill="#A979EF"/>
<ellipse cx="27.3691" cy="0.956521" rx="0.739709" ry="0.956521" fill="#A979EF"/>
<ellipse cx="30.3276" cy="0.956521" rx="0.739709" ry="0.956521" fill="#A979EF"/>
<ellipse cx="33.2861" cy="0.956521" rx="0.739709" ry="0.956521" fill="#A979EF"/>
<ellipse cx="36.2465" cy="0.956521" rx="0.739709" ry="0.956521" fill="#A979EF"/>
<ellipse cx="39.2046" cy="0.956521" rx="0.739709" ry="0.956521" fill="#A979EF"/>
<ellipse cx="42.163" cy="0.956521" rx="0.739709" ry="0.956521" fill="#A979EF"/>
<ellipse cx="45.1235" cy="0.956521" rx="0.739709" ry="0.956521" fill="#A979EF"/>
<ellipse cx="48.082" cy="0.956521" rx="0.739709" ry="0.956521" fill="#A979EF"/>
<ellipse cx="51.0405" cy="0.956521" rx="0.739709" ry="0.956521" fill="#A979EF"/>
<ellipse cx="54.0009" cy="0.956521" rx="0.739709" ry="0.956521" fill="#A979EF"/>
<ellipse cx="56.9589" cy="0.956521" rx="0.739709" ry="0.956521" fill="#A979EF"/>
<ellipse cx="59.9174" cy="0.956521" rx="0.739709" ry="0.956521" fill="#A979EF"/>
<ellipse cx="62.8779" cy="0.956521" rx="0.739709" ry="0.956521" fill="#A979EF"/>
<ellipse cx="65.832" cy="0.956521" rx="0.739709" ry="0.956521" fill="#A979EF"/>
<ellipse cx="68.7924" cy="0.956521" rx="0.739709" ry="0.956521" fill="#A979EF"/>
<ellipse cx="71.7509" cy="0.956521" rx="0.739709" ry="0.956521" fill="#A979EF"/>
<ellipse cx="74.7114" cy="0.956521" rx="0.739709" ry="0.956521" fill="#A979EF"/>
<ellipse cx="77.6699" cy="0.956521" rx="0.739709" ry="0.956521" fill="#A979EF"/>
<ellipse cx="80.6284" cy="0.956521" rx="0.739709" ry="0.956521" fill="#A979EF"/>
<ellipse cx="83.5888" cy="0.956521" rx="0.739709" ry="0.956521" fill="#A979EF"/>
<ellipse cx="86.5449" cy="0.956521" rx="0.739709" ry="0.956521" fill="#A979EF"/>
<ellipse cx="89.5034" cy="0.956521" rx="0.739709" ry="0.956521" fill="#A979EF"/>
<ellipse cx="92.4638" cy="0.956521" rx="0.739709" ry="0.956521" fill="#A979EF"/>
<ellipse cx="95.4223" cy="0.956521" rx="0.739709" ry="0.956521" fill="#A979EF"/>
<ellipse cx="98.3828" cy="0.956521" rx="0.739709" ry="0.956521" fill="#A979EF"/>
<ellipse cx="101.341" cy="0.956521" rx="0.739709" ry="0.956521" fill="#A979EF"/>
<ellipse cx="104.299" cy="0.956521" rx="0.739709" ry="0.956521" fill="#A979EF"/>
<ellipse cx="107.26" cy="0.956521" rx="0.739709" ry="0.956521" fill="#A979EF"/>
<ellipse cx="110.214" cy="0.956521" rx="0.739709" ry="0.956521" fill="#A979EF"/>
<ellipse cx="113.174" cy="0.956521" rx="0.739709" ry="0.956521" fill="#A979EF"/>
<ellipse cx="116.133" cy="0.956521" rx="0.739709" ry="0.956521" fill="#A979EF"/>
<ellipse cx="119.091" cy="0.956521" rx="0.739709" ry="0.956521" fill="#A979EF"/>
<ellipse cx="122.052" cy="0.956521" rx="0.739709" ry="0.956521" fill="#A979EF"/>
<ellipse cx="125.01" cy="0.956521" rx="0.739709" ry="0.956521" fill="#A979EF"/>
<ellipse cx="127.968" cy="0.956521" rx="0.739709" ry="0.956521" fill="#A979EF"/>
<ellipse cx="0.739709" cy="4.78295" rx="0.739709" ry="0.956521" fill="#A979EF"/>
<ellipse cx="3.6982" cy="4.78295" rx="0.739709" ry="0.956521" fill="#A979EF"/>
<ellipse cx="6.65865" cy="4.78295" rx="0.739709" ry="0.956521" fill="#A979EF"/>
<ellipse cx="9.61715" cy="4.78295" rx="0.739709" ry="0.956521" fill="#A979EF"/>
<ellipse cx="12.5752" cy="4.78295" rx="0.739709" ry="0.956521" fill="#A979EF"/>
<ellipse cx="15.5356" cy="4.78295" rx="0.739709" ry="0.956521" fill="#A979EF"/>
<ellipse cx="18.4941" cy="4.78295" rx="0.739709" ry="0.956521" fill="#A979EF"/>
<ellipse cx="21.4502" cy="4.78295" rx="0.739709" ry="0.956521" fill="#A979EF"/>
<ellipse cx="24.4087" cy="4.78295" rx="0.739709" ry="0.956521" fill="#A979EF"/>
<ellipse cx="27.3691" cy="4.78295" rx="0.739709" ry="0.956521" fill="#A979EF"/>
<ellipse cx="30.3276" cy="4.78295" rx="0.739709" ry="0.956521" fill="#A979EF"/>
<ellipse cx="33.2861" cy="4.78295" rx="0.739709" ry="0.956521" fill="#A979EF"/>
<ellipse cx="36.2465" cy="4.78295" rx="0.739709" ry="0.956521" fill="#A979EF"/>
<ellipse cx="39.2046" cy="4.78295" rx="0.739709" ry="0.956521" fill="#A979EF"/>
<ellipse cx="42.163" cy="4.78295" rx="0.739709" ry="0.956521" fill="#A979EF"/>
<ellipse cx="45.1235" cy="4.78295" rx="0.739709" ry="0.956521" fill="#A979EF"/>
<ellipse cx="48.082" cy="4.78295" rx="0.739709" ry="0.956521" fill="#A979EF"/>
<ellipse cx="51.0405" cy="4.78295" rx="0.739709" ry="0.956521" fill="#A979EF"/>
<ellipse cx="54.0009" cy="4.78295" rx="0.739709" ry="0.956521" fill="#A979EF"/>
<ellipse cx="56.9589" cy="4.78295" rx="0.739709" ry="0.956521" fill="#A979EF"/>
<ellipse cx="59.9174" cy="4.78295" rx="0.739709" ry="0.956521" fill="#A979EF"/>
<ellipse cx="62.8779" cy="4.78295" rx="0.739709" ry="0.956521" fill="#A979EF"/>
<ellipse cx="65.832" cy="4.78295" rx="0.739709" ry="0.956521" fill="#A979EF"/>
<ellipse cx="68.7924" cy="4.78295" rx="0.739709" ry="0.956521" fill="#A979EF"/>
<ellipse cx="71.7509" cy="4.78295" rx="0.739709" ry="0.956521" fill="#A979EF"/>
<ellipse cx="74.7114" cy="4.78295" rx="0.739709" ry="0.956521" fill="#A979EF"/>
<ellipse cx="77.6699" cy="4.78295" rx="0.739709" ry="0.956521" fill="#A979EF"/>
<ellipse cx="80.6284" cy="4.78295" rx="0.739709" ry="0.956521" fill="#A979EF"/>
<ellipse cx="83.5888" cy="4.78295" rx="0.739709" ry="0.956521" fill="#A979EF"/>
<ellipse cx="86.5449" cy="4.78295" rx="0.739709" ry="0.956521" fill="#A979EF"/>
<ellipse cx="89.5034" cy="4.78295" rx="0.739709" ry="0.956521" fill="#A979EF"/>
<ellipse cx="92.4638" cy="4.78295" rx="0.739709" ry="0.956521" fill="#A979EF"/>
<ellipse cx="95.4223" cy="4.78295" rx="0.739709" ry="0.956521" fill="#A979EF"/>
<ellipse cx="98.3828" cy="4.78295" rx="0.739709" ry="0.956521" fill="#A979EF"/>
<ellipse cx="101.341" cy="4.78295" rx="0.739709" ry="0.956521" fill="#A979EF"/>
<ellipse cx="104.299" cy="4.78295" rx="0.739709" ry="0.956521" fill="#A979EF"/>
<ellipse cx="107.26" cy="4.78295" rx="0.739709" ry="0.956521" fill="#A979EF"/>
<ellipse cx="110.214" cy="4.78295" rx="0.739709" ry="0.956521" fill="#A979EF"/>
<ellipse cx="113.174" cy="4.78295" rx="0.739709" ry="0.956521" fill="#A979EF"/>
<ellipse cx="116.133" cy="4.78295" rx="0.739709" ry="0.956521" fill="#A979EF"/>
<ellipse cx="119.091" cy="4.78295" rx="0.739709" ry="0.956521" fill="#A979EF"/>
<ellipse cx="122.052" cy="4.78295" rx="0.739709" ry="0.956521" fill="#A979EF"/>
<ellipse cx="125.01" cy="4.78295" rx="0.739709" ry="0.956521" fill="#A979EF"/>
<ellipse cx="127.968" cy="4.78295" rx="0.739709" ry="0.956521" fill="#A979EF"/>
<ellipse cx="0.739709" cy="8.60937" rx="0.739709" ry="0.956521" fill="#A979EF"/>
<ellipse cx="3.6982" cy="8.60937" rx="0.739709" ry="0.956521" fill="#A979EF"/>
<ellipse cx="6.65865" cy="8.60937" rx="0.739709" ry="0.956521" fill="#A979EF"/>
<ellipse cx="9.61715" cy="8.60937" rx="0.739709" ry="0.956521" fill="#A979EF"/>
<ellipse cx="12.5752" cy="8.60937" rx="0.739709" ry="0.956521" fill="#A979EF"/>
<ellipse cx="15.5356" cy="8.60937" rx="0.739709" ry="0.956521" fill="#A979EF"/>
<ellipse cx="18.4941" cy="8.60937" rx="0.739709" ry="0.956521" fill="#A979EF"/>
<ellipse cx="21.4502" cy="8.60937" rx="0.739709" ry="0.956521" fill="#A979EF"/>
<ellipse cx="24.4087" cy="8.60937" rx="0.739709" ry="0.956521" fill="#A979EF"/>
<ellipse cx="27.3691" cy="8.60937" rx="0.739709" ry="0.956521" fill="#A979EF"/>
<ellipse cx="30.3276" cy="8.60937" rx="0.739709" ry="0.956521" fill="#A979EF"/>
<ellipse cx="33.2861" cy="8.60937" rx="0.739709" ry="0.956521" fill="#A979EF"/>
<ellipse cx="36.2465" cy="8.60937" rx="0.739709" ry="0.956521" fill="#A979EF"/>
<ellipse cx="39.2046" cy="8.60937" rx="0.739709" ry="0.956521" fill="#A979EF"/>
<ellipse cx="42.163" cy="8.60937" rx="0.739709" ry="0.956521" fill="#A979EF"/>
<ellipse cx="45.1235" cy="8.60937" rx="0.739709" ry="0.956521" fill="#A979EF"/>
<ellipse cx="48.082" cy="8.60937" rx="0.739709" ry="0.956521" fill="#A979EF"/>
<ellipse cx="51.0405" cy="8.60937" rx="0.739709" ry="0.956521" fill="#A979EF"/>
<ellipse cx="54.0009" cy="8.60937" rx="0.739709" ry="0.956521" fill="#A979EF"/>
<ellipse cx="56.9589" cy="8.60937" rx="0.739709" ry="0.956521" fill="#A979EF"/>
<ellipse cx="59.9174" cy="8.60937" rx="0.739709" ry="0.956521" fill="#A979EF"/>
<ellipse cx="62.8779" cy="8.60937" rx="0.739709" ry="0.956521" fill="#A979EF"/>
<ellipse cx="65.832" cy="8.60937" rx="0.739709" ry="0.956521" fill="#A979EF"/>
<ellipse cx="68.7924" cy="8.60937" rx="0.739709" ry="0.956521" fill="#A979EF"/>
<ellipse cx="71.7509" cy="8.60937" rx="0.739709" ry="0.956521" fill="#A979EF"/>
<ellipse cx="74.7114" cy="8.60937" rx="0.739709" ry="0.956521" fill="#A979EF"/>
<ellipse cx="77.6699" cy="8.60937" rx="0.739709" ry="0.956521" fill="#A979EF"/>
<ellipse cx="80.6284" cy="8.60937" rx="0.739709" ry="0.956521" fill="#A979EF"/>
<ellipse cx="83.5888" cy="8.60937" rx="0.739709" ry="0.956521" fill="#A979EF"/>
<ellipse cx="86.5449" cy="8.60937" rx="0.739709" ry="0.956521" fill="#A979EF"/>
<ellipse cx="89.5034" cy="8.60937" rx="0.739709" ry="0.956521" fill="#A979EF"/>
<ellipse cx="92.4638" cy="8.60937" rx="0.739709" ry="0.956521" fill="#A979EF"/>
<ellipse cx="95.4223" cy="8.60937" rx="0.739709" ry="0.956521" fill="#A979EF"/>
<ellipse cx="98.3828" cy="8.60937" rx="0.739709" ry="0.956521" fill="#A979EF"/>
<ellipse cx="101.341" cy="8.60937" rx="0.739709" ry="0.956521" fill="#A979EF"/>
<ellipse cx="104.299" cy="8.60937" rx="0.739709" ry="0.956521" fill="#A979EF"/>
<ellipse cx="107.26" cy="8.60937" rx="0.739709" ry="0.956521" fill="#A979EF"/>
<ellipse cx="110.214" cy="8.60937" rx="0.739709" ry="0.956521" fill="#A979EF"/>
<ellipse cx="113.174" cy="8.60937" rx="0.739709" ry="0.956521" fill="#A979EF"/>
<ellipse cx="116.133" cy="8.60937" rx="0.739709" ry="0.956521" fill="#A979EF"/>
<ellipse cx="119.091" cy="8.60937" rx="0.739709" ry="0.956521" fill="#A979EF"/>
<ellipse cx="122.052" cy="8.60937" rx="0.739709" ry="0.956521" fill="#A979EF"/>
<ellipse cx="125.01" cy="8.60937" rx="0.739709" ry="0.956521" fill="#A979EF"/>
<ellipse cx="127.968" cy="8.60937" rx="0.739709" ry="0.956521" fill="#A979EF"/>
<ellipse cx="0.739709" cy="12.4358" rx="0.739709" ry="0.956521" fill="#A979EF"/>
<ellipse cx="3.6982" cy="12.4358" rx="0.739709" ry="0.956521" fill="#A979EF"/>
<ellipse cx="6.65865" cy="12.4358" rx="0.739709" ry="0.956521" fill="#A979EF"/>
<ellipse cx="9.61715" cy="12.4358" rx="0.739709" ry="0.956521" fill="#A979EF"/>
<ellipse cx="12.5752" cy="12.4358" rx="0.739709" ry="0.956521" fill="#A979EF"/>
<ellipse cx="15.5356" cy="12.4358" rx="0.739709" ry="0.956521" fill="#A979EF"/>
<ellipse cx="18.4941" cy="12.4358" rx="0.739709" ry="0.956521" fill="#A979EF"/>
<ellipse cx="21.4502" cy="12.4358" rx="0.739709" ry="0.956521" fill="#A979EF"/>
<ellipse cx="24.4087" cy="12.4358" rx="0.739709" ry="0.956521" fill="#A979EF"/>
<ellipse cx="27.3691" cy="12.4358" rx="0.739709" ry="0.956521" fill="#A979EF"/>
<ellipse cx="30.3276" cy="12.4358" rx="0.739709" ry="0.956521" fill="#A979EF"/>
<ellipse cx="33.2861" cy="12.4358" rx="0.739709" ry="0.956521" fill="#A979EF"/>
<ellipse cx="36.2465" cy="12.4358" rx="0.739709" ry="0.956521" fill="#A979EF"/>
<ellipse cx="39.2046" cy="12.4358" rx="0.739709" ry="0.956521" fill="#A979EF"/>
<ellipse cx="42.163" cy="12.4358" rx="0.739709" ry="0.956521" fill="#A979EF"/>
<ellipse cx="45.1235" cy="12.4358" rx="0.739709" ry="0.956521" fill="#A979EF"/>
<ellipse cx="48.082" cy="12.4358" rx="0.739709" ry="0.956521" fill="#A979EF"/>
<ellipse cx="51.0405" cy="12.4358" rx="0.739709" ry="0.956521" fill="#A979EF"/>
<ellipse cx="54.0009" cy="12.4358" rx="0.739709" ry="0.956521" fill="#A979EF"/>
<ellipse cx="56.9589" cy="12.4358" rx="0.739709" ry="0.956521" fill="#A979EF"/>
<ellipse cx="59.9174" cy="12.4358" rx="0.739709" ry="0.956521" fill="#A979EF"/>
<ellipse cx="62.8779" cy="12.4358" rx="0.739709" ry="0.956521" fill="#A979EF"/>
<ellipse cx="65.832" cy="12.4358" rx="0.739709" ry="0.956521" fill="#A979EF"/>
<ellipse cx="68.7924" cy="12.4358" rx="0.739709" ry="0.956521" fill="#A979EF"/>
<ellipse cx="71.7509" cy="12.4358" rx="0.739709" ry="0.956521" fill="#A979EF"/>
<ellipse cx="74.7114" cy="12.4358" rx="0.739709" ry="0.956521" fill="#A979EF"/>
<ellipse cx="77.6699" cy="12.4358" rx="0.739709" ry="0.956521" fill="#A979EF"/>
<ellipse cx="80.6284" cy="12.4358" rx="0.739709" ry="0.956521" fill="#A979EF"/>
<ellipse cx="83.5888" cy="12.4358" rx="0.739709" ry="0.956521" fill="#A979EF"/>
<ellipse cx="86.5449" cy="12.4358" rx="0.739709" ry="0.956521" fill="#A979EF"/>
<ellipse cx="89.5034" cy="12.4358" rx="0.739709" ry="0.956521" fill="#A979EF"/>
<ellipse cx="92.4638" cy="12.4358" rx="0.739709" ry="0.956521" fill="#A979EF"/>
<ellipse cx="95.4223" cy="12.4358" rx="0.739709" ry="0.956521" fill="#A979EF"/>
<ellipse cx="98.3828" cy="12.4358" rx="0.739709" ry="0.956521" fill="#A979EF"/>
<ellipse cx="101.341" cy="12.4358" rx="0.739709" ry="0.956521" fill="#A979EF"/>
<ellipse cx="104.299" cy="12.4358" rx="0.739709" ry="0.956521" fill="#A979EF"/>
<ellipse cx="107.26" cy="12.4358" rx="0.739709" ry="0.956521" fill="#A979EF"/>
<ellipse cx="110.214" cy="12.4358" rx="0.739709" ry="0.956521" fill="#A979EF"/>
<ellipse cx="113.174" cy="12.4358" rx="0.739709" ry="0.956521" fill="#A979EF"/>
<ellipse cx="116.133" cy="12.4358" rx="0.739709" ry="0.956521" fill="#A979EF"/>
<ellipse cx="119.091" cy="12.4358" rx="0.739709" ry="0.956521" fill="#A979EF"/>
<ellipse cx="122.052" cy="12.4358" rx="0.739709" ry="0.956521" fill="#A979EF"/>
<ellipse cx="125.01" cy="12.4358" rx="0.739709" ry="0.956521" fill="#A979EF"/>
<ellipse cx="127.968" cy="12.4358" rx="0.739709" ry="0.956521" fill="#A979EF"/>
<ellipse cx="0.739709" cy="16.2601" rx="0.739709" ry="0.956521" fill="#A979EF"/>
<ellipse cx="3.6982" cy="16.2601" rx="0.739709" ry="0.956521" fill="#A979EF"/>
<ellipse cx="6.65865" cy="16.2601" rx="0.739709" ry="0.956521" fill="#A979EF"/>
<ellipse cx="9.61715" cy="16.2601" rx="0.739709" ry="0.956521" fill="#A979EF"/>
<ellipse cx="12.5752" cy="16.2601" rx="0.739709" ry="0.956521" fill="#A979EF"/>
<ellipse cx="15.5356" cy="16.2601" rx="0.739709" ry="0.956521" fill="#A979EF"/>
<ellipse cx="18.4941" cy="16.2601" rx="0.739709" ry="0.956521" fill="#A979EF"/>
<ellipse cx="21.4502" cy="16.2601" rx="0.739709" ry="0.956521" fill="#A979EF"/>
<ellipse cx="24.4087" cy="16.2601" rx="0.739709" ry="0.956521" fill="#A979EF"/>
<ellipse cx="27.3691" cy="16.2601" rx="0.739709" ry="0.956521" fill="#A979EF"/>
<ellipse cx="30.3276" cy="16.2601" rx="0.739709" ry="0.956521" fill="#A979EF"/>
<ellipse cx="33.2861" cy="16.2601" rx="0.739709" ry="0.956521" fill="#A979EF"/>
<ellipse cx="36.2465" cy="16.2601" rx="0.739709" ry="0.956521" fill="#A979EF"/>
<ellipse cx="39.2046" cy="16.2601" rx="0.739709" ry="0.956521" fill="#A979EF"/>
<ellipse cx="42.163" cy="16.2601" rx="0.739709" ry="0.956521" fill="#A979EF"/>
<ellipse cx="45.1235" cy="16.2601" rx="0.739709" ry="0.956521" fill="#A979EF"/>
<ellipse cx="48.082" cy="16.2601" rx="0.739709" ry="0.956521" fill="#A979EF"/>
<ellipse cx="51.0405" cy="16.2601" rx="0.739709" ry="0.956521" fill="#A979EF"/>
<ellipse cx="54.0009" cy="16.2601" rx="0.739709" ry="0.956521" fill="#A979EF"/>
<ellipse cx="56.9589" cy="16.2601" rx="0.739709" ry="0.956521" fill="#A979EF"/>
<ellipse cx="59.9174" cy="16.2601" rx="0.739709" ry="0.956521" fill="#A979EF"/>
<ellipse cx="62.8779" cy="16.2601" rx="0.739709" ry="0.956521" fill="#A979EF"/>
<ellipse cx="65.832" cy="16.2601" rx="0.739709" ry="0.956521" fill="#A979EF"/>
<ellipse cx="68.7924" cy="16.2601" rx="0.739709" ry="0.956521" fill="#A979EF"/>
<ellipse cx="71.7509" cy="16.2601" rx="0.739709" ry="0.956521" fill="#A979EF"/>
<ellipse cx="74.7114" cy="16.2601" rx="0.739709" ry="0.956521" fill="#A979EF"/>
<ellipse cx="77.6699" cy="16.2601" rx="0.739709" ry="0.956521" fill="#A979EF"/>
<ellipse cx="80.6284" cy="16.2601" rx="0.739709" ry="0.956521" fill="#A979EF"/>
<ellipse cx="83.5888" cy="16.2601" rx="0.739709" ry="0.956521" fill="#A979EF"/>
<ellipse cx="86.5449" cy="16.2601" rx="0.739709" ry="0.956521" fill="#A979EF"/>
<ellipse cx="89.5034" cy="16.2601" rx="0.739709" ry="0.956521" fill="#A979EF"/>
<ellipse cx="92.4638" cy="16.2601" rx="0.739709" ry="0.956521" fill="#A979EF"/>
<ellipse cx="95.4223" cy="16.2601" rx="0.739709" ry="0.956521" fill="#A979EF"/>
<ellipse cx="98.3828" cy="16.2601" rx="0.739709" ry="0.956521" fill="#A979EF"/>
<ellipse cx="101.341" cy="16.2601" rx="0.739709" ry="0.956521" fill="#A979EF"/>
<ellipse cx="104.299" cy="16.2601" rx="0.739709" ry="0.956521" fill="#A979EF"/>
<ellipse cx="107.26" cy="16.2601" rx="0.739709" ry="0.956521" fill="#A979EF"/>
<ellipse cx="110.214" cy="16.2601" rx="0.739709" ry="0.956521" fill="#A979EF"/>
<ellipse cx="113.174" cy="16.2601" rx="0.739709" ry="0.956521" fill="#A979EF"/>
<ellipse cx="116.133" cy="16.2601" rx="0.739709" ry="0.956521" fill="#A979EF"/>
<ellipse cx="119.091" cy="16.2601" rx="0.739709" ry="0.956521" fill="#A979EF"/>
<ellipse cx="122.052" cy="16.2601" rx="0.739709" ry="0.956521" fill="#A979EF"/>
<ellipse cx="125.01" cy="16.2601" rx="0.739709" ry="0.956521" fill="#A979EF"/>
<ellipse cx="127.968" cy="16.2601" rx="0.739709" ry="0.956521" fill="#A979EF"/>
<ellipse cx="0.739709" cy="20.0865" rx="0.739709" ry="0.956521" fill="#A979EF"/>
<ellipse cx="3.6982" cy="20.0865" rx="0.739709" ry="0.956521" fill="#A979EF"/>
<ellipse cx="6.65865" cy="20.0865" rx="0.739709" ry="0.956521" fill="#A979EF"/>
<ellipse cx="9.61715" cy="20.0865" rx="0.739709" ry="0.956521" fill="#A979EF"/>
<ellipse cx="12.5752" cy="20.0865" rx="0.739709" ry="0.956521" fill="#A979EF"/>
<ellipse cx="15.5356" cy="20.0865" rx="0.739709" ry="0.956521" fill="#A979EF"/>
<ellipse cx="18.4941" cy="20.0865" rx="0.739709" ry="0.956521" fill="#A979EF"/>
<ellipse cx="21.4502" cy="20.0865" rx="0.739709" ry="0.956521" fill="#A979EF"/>
<ellipse cx="24.4087" cy="20.0865" rx="0.739709" ry="0.956521" fill="#A979EF"/>
<ellipse cx="27.3691" cy="20.0865" rx="0.739709" ry="0.956521" fill="#A979EF"/>
<ellipse cx="30.3276" cy="20.0865" rx="0.739709" ry="0.956521" fill="#A979EF"/>
<ellipse cx="33.2861" cy="20.0865" rx="0.739709" ry="0.956521" fill="#A979EF"/>
<ellipse cx="36.2465" cy="20.0865" rx="0.739709" ry="0.956521" fill="#A979EF"/>
<ellipse cx="39.2046" cy="20.0865" rx="0.739709" ry="0.956521" fill="#A979EF"/>
<ellipse cx="42.163" cy="20.0865" rx="0.739709" ry="0.956521" fill="#A979EF"/>
<ellipse cx="45.1235" cy="20.0865" rx="0.739709" ry="0.956521" fill="#A979EF"/>
<ellipse cx="48.082" cy="20.0865" rx="0.739709" ry="0.956521" fill="#A979EF"/>
<ellipse cx="51.0405" cy="20.0865" rx="0.739709" ry="0.956521" fill="#A979EF"/>
<ellipse cx="54.0009" cy="20.0865" rx="0.739709" ry="0.956521" fill="#A979EF"/>
<ellipse cx="56.9589" cy="20.0865" rx="0.739709" ry="0.956521" fill="#A979EF"/>
<ellipse cx="59.9174" cy="20.0865" rx="0.739709" ry="0.956521" fill="#A979EF"/>
<ellipse cx="62.8779" cy="20.0865" rx="0.739709" ry="0.956521" fill="#A979EF"/>
<ellipse cx="65.832" cy="20.0865" rx="0.739709" ry="0.956521" fill="#A979EF"/>
<ellipse cx="68.7924" cy="20.0865" rx="0.739709" ry="0.956521" fill="#A979EF"/>
<ellipse cx="71.7509" cy="20.0865" rx="0.739709" ry="0.956521" fill="#A979EF"/>
<ellipse cx="74.7114" cy="20.0865" rx="0.739709" ry="0.956521" fill="#A979EF"/>
<ellipse cx="77.6699" cy="20.0865" rx="0.739709" ry="0.956521" fill="#A979EF"/>
<ellipse cx="80.6284" cy="20.0865" rx="0.739709" ry="0.956521" fill="#A979EF"/>
<ellipse cx="83.5888" cy="20.0865" rx="0.739709" ry="0.956521" fill="#A979EF"/>
<ellipse cx="86.5449" cy="20.0865" rx="0.739709" ry="0.956521" fill="#A979EF"/>
<ellipse cx="89.5034" cy="20.0865" rx="0.739709" ry="0.956521" fill="#A979EF"/>
<ellipse cx="92.4638" cy="20.0865" rx="0.739709" ry="0.956521" fill="#A979EF"/>
<ellipse cx="95.4223" cy="20.0865" rx="0.739709" ry="0.956521" fill="#A979EF"/>
<ellipse cx="98.3828" cy="20.0865" rx="0.739709" ry="0.956521" fill="#A979EF"/>
<ellipse cx="101.341" cy="20.0865" rx="0.739709" ry="0.956521" fill="#A979EF"/>
<ellipse cx="104.299" cy="20.0865" rx="0.739709" ry="0.956521" fill="#A979EF"/>
<ellipse cx="107.26" cy="20.0865" rx="0.739709" ry="0.956521" fill="#A979EF"/>
<ellipse cx="110.214" cy="20.0865" rx="0.739709" ry="0.956521" fill="#A979EF"/>
<ellipse cx="113.174" cy="20.0865" rx="0.739709" ry="0.956521" fill="#A979EF"/>
<ellipse cx="116.133" cy="20.0865" rx="0.739709" ry="0.956521" fill="#A979EF"/>
<ellipse cx="119.091" cy="20.0865" rx="0.739709" ry="0.956521" fill="#A979EF"/>
<ellipse cx="122.052" cy="20.0865" rx="0.739709" ry="0.956521" fill="#A979EF"/>
<ellipse cx="125.01" cy="20.0865" rx="0.739709" ry="0.956521" fill="#A979EF"/>
<ellipse cx="127.968" cy="20.0865" rx="0.739709" ry="0.956521" fill="#A979EF"/>
<ellipse cx="0.739709" cy="23.9129" rx="0.739709" ry="0.956521" fill="#A979EF"/>
<ellipse cx="3.6982" cy="23.9129" rx="0.739709" ry="0.956521" fill="#A979EF"/>
<ellipse cx="6.65865" cy="23.9129" rx="0.739709" ry="0.956521" fill="#A979EF"/>
<ellipse cx="9.61715" cy="23.9129" rx="0.739709" ry="0.956521" fill="#A979EF"/>
<ellipse cx="12.5752" cy="23.9129" rx="0.739709" ry="0.956521" fill="#A979EF"/>
<ellipse cx="15.5356" cy="23.9129" rx="0.739709" ry="0.956521" fill="#A979EF"/>
<ellipse cx="18.4941" cy="23.9129" rx="0.739709" ry="0.956521" fill="#A979EF"/>
<ellipse cx="21.4502" cy="23.9129" rx="0.739709" ry="0.956521" fill="#A979EF"/>
<ellipse cx="24.4087" cy="23.9129" rx="0.739709" ry="0.956521" fill="#A979EF"/>
<ellipse cx="27.3691" cy="23.9129" rx="0.739709" ry="0.956521" fill="#A979EF"/>
<ellipse cx="30.3276" cy="23.9129" rx="0.739709" ry="0.956521" fill="#A979EF"/>
<ellipse cx="33.2861" cy="23.9129" rx="0.739709" ry="0.956521" fill="#A979EF"/>
<ellipse cx="36.2465" cy="23.9129" rx="0.739709" ry="0.956521" fill="#A979EF"/>
<ellipse cx="39.2046" cy="23.9129" rx="0.739709" ry="0.956521" fill="#A979EF"/>
<ellipse cx="42.163" cy="23.9129" rx="0.739709" ry="0.956521" fill="#A979EF"/>
<ellipse cx="45.1235" cy="23.9129" rx="0.739709" ry="0.956521" fill="#A979EF"/>
<ellipse cx="48.082" cy="23.9129" rx="0.739709" ry="0.956521" fill="#A979EF"/>
<ellipse cx="51.0405" cy="23.9129" rx="0.739709" ry="0.956521" fill="#A979EF"/>
<ellipse cx="54.0009" cy="23.9129" rx="0.739709" ry="0.956521" fill="#A979EF"/>
<ellipse cx="56.9589" cy="23.9129" rx="0.739709" ry="0.956521" fill="#A979EF"/>
<ellipse cx="59.9174" cy="23.9129" rx="0.739709" ry="0.956521" fill="#A979EF"/>
<ellipse cx="62.8779" cy="23.9129" rx="0.739709" ry="0.956521" fill="#A979EF"/>
<ellipse cx="65.832" cy="23.9129" rx="0.739709" ry="0.956521" fill="#A979EF"/>
<ellipse cx="68.7924" cy="23.9129" rx="0.739709" ry="0.956521" fill="#A979EF"/>
<ellipse cx="71.7509" cy="23.9129" rx="0.739709" ry="0.956521" fill="#A979EF"/>
<ellipse cx="74.7114" cy="23.9129" rx="0.739709" ry="0.956521" fill="#A979EF"/>
<ellipse cx="77.6699" cy="23.9129" rx="0.739709" ry="0.956521" fill="#A979EF"/>
<ellipse cx="80.6284" cy="23.9129" rx="0.739709" ry="0.956521" fill="#A979EF"/>
<ellipse cx="83.5888" cy="23.9129" rx="0.739709" ry="0.956521" fill="#A979EF"/>
<ellipse cx="86.5449" cy="23.9129" rx="0.739709" ry="0.956521" fill="#A979EF"/>
<ellipse cx="89.5034" cy="23.9129" rx="0.739709" ry="0.956521" fill="#A979EF"/>
<ellipse cx="92.4638" cy="23.9129" rx="0.739709" ry="0.956521" fill="#A979EF"/>
<ellipse cx="95.4223" cy="23.9129" rx="0.739709" ry="0.956521" fill="#A979EF"/>
<ellipse cx="98.3828" cy="23.9129" rx="0.739709" ry="0.956521" fill="#A979EF"/>
<ellipse cx="101.341" cy="23.9129" rx="0.739709" ry="0.956521" fill="#A979EF"/>
<ellipse cx="104.299" cy="23.9129" rx="0.739709" ry="0.956521" fill="#A979EF"/>
<ellipse cx="107.26" cy="23.9129" rx="0.739709" ry="0.956521" fill="#A979EF"/>
<ellipse cx="110.214" cy="23.9129" rx="0.739709" ry="0.956521" fill="#A979EF"/>
<ellipse cx="113.174" cy="23.9129" rx="0.739709" ry="0.956521" fill="#A979EF"/>
<ellipse cx="116.133" cy="23.9129" rx="0.739709" ry="0.956521" fill="#A979EF"/>
<ellipse cx="119.091" cy="23.9129" rx="0.739709" ry="0.956521" fill="#A979EF"/>
<ellipse cx="122.052" cy="23.9129" rx="0.739709" ry="0.956521" fill="#A979EF"/>
<ellipse cx="125.01" cy="23.9129" rx="0.739709" ry="0.956521" fill="#A979EF"/>
<ellipse cx="127.968" cy="23.9129" rx="0.739709" ry="0.956521" fill="#A979EF"/>
<ellipse cx="0.739709" cy="27.7393" rx="0.739709" ry="0.956521" fill="#A979EF"/>
<ellipse cx="3.6982" cy="27.7393" rx="0.739709" ry="0.956521" fill="#A979EF"/>
<ellipse cx="6.65865" cy="27.7393" rx="0.739709" ry="0.956521" fill="#A979EF"/>
<ellipse cx="9.61715" cy="27.7393" rx="0.739709" ry="0.956521" fill="#A979EF"/>
<ellipse cx="12.5752" cy="27.7393" rx="0.739709" ry="0.956521" fill="#A979EF"/>
<ellipse cx="15.5356" cy="27.7393" rx="0.739709" ry="0.956521" fill="#A979EF"/>
<ellipse cx="18.4941" cy="27.7393" rx="0.739709" ry="0.956521" fill="#A979EF"/>
<ellipse cx="21.4502" cy="27.7393" rx="0.739709" ry="0.956521" fill="#A979EF"/>
<ellipse cx="24.4087" cy="27.7393" rx="0.739709" ry="0.956521" fill="#A979EF"/>
<ellipse cx="27.3691" cy="27.7393" rx="0.739709" ry="0.956521" fill="#A979EF"/>
<ellipse cx="30.3276" cy="27.7393" rx="0.739709" ry="0.956521" fill="#A979EF"/>
<ellipse cx="33.2861" cy="27.7393" rx="0.739709" ry="0.956521" fill="#A979EF"/>
<ellipse cx="36.2465" cy="27.7393" rx="0.739709" ry="0.956521" fill="#A979EF"/>
<ellipse cx="39.2046" cy="27.7393" rx="0.739709" ry="0.956521" fill="#A979EF"/>
<ellipse cx="42.163" cy="27.7393" rx="0.739709" ry="0.956521" fill="#A979EF"/>
<ellipse cx="45.1235" cy="27.7393" rx="0.739709" ry="0.956521" fill="#A979EF"/>
<ellipse cx="48.082" cy="27.7393" rx="0.739709" ry="0.956521" fill="#A979EF"/>
<ellipse cx="51.0405" cy="27.7393" rx="0.739709" ry="0.956521" fill="#A979EF"/>
<ellipse cx="54.0009" cy="27.7393" rx="0.739709" ry="0.956521" fill="#A979EF"/>
<ellipse cx="56.9589" cy="27.7393" rx="0.739709" ry="0.956521" fill="#A979EF"/>
<ellipse cx="59.9174" cy="27.7393" rx="0.739709" ry="0.956521" fill="#A979EF"/>
<ellipse cx="62.8779" cy="27.7393" rx="0.739709" ry="0.956521" fill="#A979EF"/>
<ellipse cx="65.832" cy="27.7393" rx="0.739709" ry="0.956521" fill="#A979EF"/>
<ellipse cx="68.7924" cy="27.7393" rx="0.739709" ry="0.956521" fill="#A979EF"/>
<ellipse cx="71.7509" cy="27.7393" rx="0.739709" ry="0.956521" fill="#A979EF"/>
<ellipse cx="74.7114" cy="27.7393" rx="0.739709" ry="0.956521" fill="#A979EF"/>
<ellipse cx="77.6699" cy="27.7393" rx="0.739709" ry="0.956521" fill="#A979EF"/>
<ellipse cx="80.6284" cy="27.7393" rx="0.739709" ry="0.956521" fill="#A979EF"/>
<ellipse cx="83.5888" cy="27.7393" rx="0.739709" ry="0.956521" fill="#A979EF"/>
<ellipse cx="86.5449" cy="27.7393" rx="0.739709" ry="0.956521" fill="#A979EF"/>
<ellipse cx="89.5034" cy="27.7393" rx="0.739709" ry="0.956521" fill="#A979EF"/>
<ellipse cx="92.4638" cy="27.7393" rx="0.739709" ry="0.956521" fill="#A979EF"/>
<ellipse cx="95.4223" cy="27.7393" rx="0.739709" ry="0.956521" fill="#A979EF"/>
<ellipse cx="98.3828" cy="27.7393" rx="0.739709" ry="0.956521" fill="#A979EF"/>
<ellipse cx="101.341" cy="27.7393" rx="0.739709" ry="0.956521" fill="#A979EF"/>
<ellipse cx="104.299" cy="27.7393" rx="0.739709" ry="0.956521" fill="#A979EF"/>
<ellipse cx="107.26" cy="27.7393" rx="0.739709" ry="0.956521" fill="#A979EF"/>
<ellipse cx="110.214" cy="27.7393" rx="0.739709" ry="0.956521" fill="#A979EF"/>
<ellipse cx="113.174" cy="27.7393" rx="0.739709" ry="0.956521" fill="#A979EF"/>
<ellipse cx="116.133" cy="27.7393" rx="0.739709" ry="0.956521" fill="#A979EF"/>
<ellipse cx="119.091" cy="27.7393" rx="0.739709" ry="0.956521" fill="#A979EF"/>
<ellipse cx="122.052" cy="27.7393" rx="0.739709" ry="0.956521" fill="#A979EF"/>
<ellipse cx="125.01" cy="27.7393" rx="0.739709" ry="0.956521" fill="#A979EF"/>
<ellipse cx="127.968" cy="27.7393" rx="0.739709" ry="0.956521" fill="#A979EF"/>
<ellipse cx="0.739709" cy="31.5657" rx="0.739709" ry="0.956521" fill="#A979EF"/>
<ellipse cx="3.6982" cy="31.5657" rx="0.739709" ry="0.956521" fill="#A979EF"/>
<ellipse cx="6.65865" cy="31.5657" rx="0.739709" ry="0.956521" fill="#A979EF"/>
<ellipse cx="9.61715" cy="31.5657" rx="0.739709" ry="0.956521" fill="#A979EF"/>
<ellipse cx="12.5752" cy="31.5657" rx="0.739709" ry="0.956521" fill="#A979EF"/>
<ellipse cx="15.5356" cy="31.5657" rx="0.739709" ry="0.956521" fill="#A979EF"/>
<ellipse cx="18.4941" cy="31.5657" rx="0.739709" ry="0.956521" fill="#A979EF"/>
<ellipse cx="21.4502" cy="31.5657" rx="0.739709" ry="0.956521" fill="#A979EF"/>
<ellipse cx="24.4087" cy="31.5657" rx="0.739709" ry="0.956521" fill="#A979EF"/>
<ellipse cx="27.3691" cy="31.5657" rx="0.739709" ry="0.956521" fill="#A979EF"/>
<ellipse cx="30.3276" cy="31.5657" rx="0.739709" ry="0.956521" fill="#A979EF"/>
<ellipse cx="33.2861" cy="31.5657" rx="0.739709" ry="0.956521" fill="#A979EF"/>
<ellipse cx="36.2465" cy="31.5657" rx="0.739709" ry="0.956521" fill="#A979EF"/>
<ellipse cx="39.2046" cy="31.5657" rx="0.739709" ry="0.956521" fill="#A979EF"/>
<ellipse cx="42.163" cy="31.5657" rx="0.739709" ry="0.956521" fill="#A979EF"/>
<ellipse cx="45.1235" cy="31.5657" rx="0.739709" ry="0.956521" fill="#A979EF"/>
<ellipse cx="48.082" cy="31.5657" rx="0.739709" ry="0.956521" fill="#A979EF"/>
<ellipse cx="51.0405" cy="31.5657" rx="0.739709" ry="0.956521" fill="#A979EF"/>
<ellipse cx="54.0009" cy="31.5657" rx="0.739709" ry="0.956521" fill="#A979EF"/>
<ellipse cx="56.9589" cy="31.5657" rx="0.739709" ry="0.956521" fill="#A979EF"/>
<ellipse cx="59.9174" cy="31.5657" rx="0.739709" ry="0.956521" fill="#A979EF"/>
<ellipse cx="62.8779" cy="31.5657" rx="0.739709" ry="0.956521" fill="#A979EF"/>
<ellipse cx="65.832" cy="31.5657" rx="0.739709" ry="0.956521" fill="#A979EF"/>
<ellipse cx="68.7924" cy="31.5657" rx="0.739709" ry="0.956521" fill="#A979EF"/>
<ellipse cx="71.7509" cy="31.5657" rx="0.739709" ry="0.956521" fill="#A979EF"/>
<ellipse cx="74.7114" cy="31.5657" rx="0.739709" ry="0.956521" fill="#A979EF"/>
<ellipse cx="77.6699" cy="31.5657" rx="0.739709" ry="0.956521" fill="#A979EF"/>
<ellipse cx="80.6284" cy="31.5657" rx="0.739709" ry="0.956521" fill="#A979EF"/>
<ellipse cx="83.5888" cy="31.5657" rx="0.739709" ry="0.956521" fill="#A979EF"/>
<ellipse cx="86.5449" cy="31.5657" rx="0.739709" ry="0.956521" fill="#A979EF"/>
<ellipse cx="89.5034" cy="31.5657" rx="0.739709" ry="0.956521" fill="#A979EF"/>
<ellipse cx="92.4638" cy="31.5657" rx="0.739709" ry="0.956521" fill="#A979EF"/>
<ellipse cx="95.4223" cy="31.5657" rx="0.739709" ry="0.956521" fill="#A979EF"/>
<ellipse cx="98.3828" cy="31.5657" rx="0.739709" ry="0.956521" fill="#A979EF"/>
<ellipse cx="101.341" cy="31.5657" rx="0.739709" ry="0.956521" fill="#A979EF"/>
<ellipse cx="104.299" cy="31.5657" rx="0.739709" ry="0.956521" fill="#A979EF"/>
<ellipse cx="107.26" cy="31.5657" rx="0.739709" ry="0.956521" fill="#A979EF"/>
<ellipse cx="110.214" cy="31.5657" rx="0.739709" ry="0.956521" fill="#A979EF"/>
<ellipse cx="113.174" cy="31.5657" rx="0.739709" ry="0.956521" fill="#A979EF"/>
<ellipse cx="116.133" cy="31.5657" rx="0.739709" ry="0.956521" fill="#A979EF"/>
<ellipse cx="119.091" cy="31.5657" rx="0.739709" ry="0.956521" fill="#A979EF"/>
<ellipse cx="122.052" cy="31.5657" rx="0.739709" ry="0.956521" fill="#A979EF"/>
<ellipse cx="125.01" cy="31.5657" rx="0.739709" ry="0.956521" fill="#A979EF"/>
<ellipse cx="127.968" cy="31.5657" rx="0.739709" ry="0.956521" fill="#A979EF"/>
<ellipse cx="0.739709" cy="35.3921" rx="0.739709" ry="0.956521" fill="#A979EF"/>
<ellipse cx="3.6982" cy="35.3921" rx="0.739709" ry="0.956521" fill="#A979EF"/>
<ellipse cx="6.65865" cy="35.3921" rx="0.739709" ry="0.956521" fill="#A979EF"/>
<ellipse cx="9.61715" cy="35.3921" rx="0.739709" ry="0.956521" fill="#A979EF"/>
<ellipse cx="12.5752" cy="35.3921" rx="0.739709" ry="0.956521" fill="#A979EF"/>
<ellipse cx="15.5356" cy="35.3921" rx="0.739709" ry="0.956521" fill="#A979EF"/>
<ellipse cx="18.4941" cy="35.3921" rx="0.739709" ry="0.956521" fill="#A979EF"/>
<ellipse cx="21.4502" cy="35.3921" rx="0.739709" ry="0.956521" fill="#A979EF"/>
<ellipse cx="24.4087" cy="35.3921" rx="0.739709" ry="0.956521" fill="#A979EF"/>
<ellipse cx="27.3691" cy="35.3921" rx="0.739709" ry="0.956521" fill="#A979EF"/>
<ellipse cx="30.3276" cy="35.3921" rx="0.739709" ry="0.956521" fill="#A979EF"/>
<ellipse cx="33.2861" cy="35.3921" rx="0.739709" ry="0.956521" fill="#A979EF"/>
<ellipse cx="36.2465" cy="35.3921" rx="0.739709" ry="0.956521" fill="#A979EF"/>
<ellipse cx="39.2046" cy="35.3921" rx="0.739709" ry="0.956521" fill="#A979EF"/>
<ellipse cx="42.163" cy="35.3921" rx="0.739709" ry="0.956521" fill="#A979EF"/>
<ellipse cx="45.1235" cy="35.3921" rx="0.739709" ry="0.956521" fill="#A979EF"/>
<ellipse cx="48.082" cy="35.3921" rx="0.739709" ry="0.956521" fill="#A979EF"/>
<ellipse cx="51.0405" cy="35.3921" rx="0.739709" ry="0.956521" fill="#A979EF"/>
<ellipse cx="54.0009" cy="35.3921" rx="0.739709" ry="0.956521" fill="#A979EF"/>
<ellipse cx="56.9589" cy="35.3921" rx="0.739709" ry="0.956521" fill="#A979EF"/>
<ellipse cx="59.9174" cy="35.3921" rx="0.739709" ry="0.956521" fill="#A979EF"/>
<ellipse cx="62.8779" cy="35.3921" rx="0.739709" ry="0.956521" fill="#A979EF"/>
<ellipse cx="65.832" cy="35.3921" rx="0.739709" ry="0.956521" fill="#A979EF"/>
<ellipse cx="68.7924" cy="35.3921" rx="0.739709" ry="0.956521" fill="#A979EF"/>
<ellipse cx="71.7509" cy="35.3921" rx="0.739709" ry="0.956521" fill="#A979EF"/>
<ellipse cx="74.7114" cy="35.3921" rx="0.739709" ry="0.956521" fill="#A979EF"/>
<ellipse cx="77.6699" cy="35.3921" rx="0.739709" ry="0.956521" fill="#A979EF"/>
<ellipse cx="80.6284" cy="35.3921" rx="0.739709" ry="0.956521" fill="#A979EF"/>
<ellipse cx="83.5888" cy="35.3921" rx="0.739709" ry="0.956521" fill="#A979EF"/>
<ellipse cx="86.5449" cy="35.3921" rx="0.739709" ry="0.956521" fill="#A979EF"/>
<ellipse cx="89.5034" cy="35.3921" rx="0.739709" ry="0.956521" fill="#A979EF"/>
<ellipse cx="92.4638" cy="35.3921" rx="0.739709" ry="0.956521" fill="#A979EF"/>
<ellipse cx="95.4223" cy="35.3921" rx="0.739709" ry="0.956521" fill="#A979EF"/>
<ellipse cx="98.3828" cy="35.3921" rx="0.739709" ry="0.956521" fill="#A979EF"/>
<ellipse cx="101.341" cy="35.3921" rx="0.739709" ry="0.956521" fill="#A979EF"/>
<ellipse cx="104.299" cy="35.3921" rx="0.739709" ry="0.956521" fill="#A979EF"/>
<ellipse cx="107.26" cy="35.3921" rx="0.739709" ry="0.956521" fill="#A979EF"/>
<ellipse cx="110.214" cy="35.3921" rx="0.739709" ry="0.956521" fill="#A979EF"/>
<ellipse cx="113.174" cy="35.3921" rx="0.739709" ry="0.956521" fill="#A979EF"/>
<ellipse cx="116.133" cy="35.3921" rx="0.739709" ry="0.956521" fill="#A979EF"/>
<ellipse cx="119.091" cy="35.3921" rx="0.739709" ry="0.956521" fill="#A979EF"/>
<ellipse cx="122.052" cy="35.3921" rx="0.739709" ry="0.956521" fill="#A979EF"/>
<ellipse cx="125.01" cy="35.3921" rx="0.739709" ry="0.956521" fill="#A979EF"/>
<ellipse cx="127.968" cy="35.3921" rx="0.739709" ry="0.956521" fill="#A979EF"/>
<ellipse cx="0.739709" cy="39.2186" rx="0.739709" ry="0.956521" fill="#A979EF"/>
<ellipse cx="3.6982" cy="39.2186" rx="0.739709" ry="0.956521" fill="#A979EF"/>
<ellipse cx="6.65865" cy="39.2186" rx="0.739709" ry="0.956521" fill="#A979EF"/>
<ellipse cx="9.61715" cy="39.2186" rx="0.739709" ry="0.956521" fill="#A979EF"/>
<ellipse cx="12.5752" cy="39.2186" rx="0.739709" ry="0.956521" fill="#A979EF"/>
<ellipse cx="15.5356" cy="39.2186" rx="0.739709" ry="0.956521" fill="#A979EF"/>
<ellipse cx="18.4941" cy="39.2186" rx="0.739709" ry="0.956521" fill="#A979EF"/>
<ellipse cx="21.4502" cy="39.2186" rx="0.739709" ry="0.956521" fill="#A979EF"/>
<ellipse cx="24.4087" cy="39.2186" rx="0.739709" ry="0.956521" fill="#A979EF"/>
<ellipse cx="27.3691" cy="39.2186" rx="0.739709" ry="0.956521" fill="#A979EF"/>
<ellipse cx="30.3276" cy="39.2186" rx="0.739709" ry="0.956521" fill="#A979EF"/>
<ellipse cx="33.2861" cy="39.2186" rx="0.739709" ry="0.956521" fill="#A979EF"/>
<ellipse cx="36.2465" cy="39.2186" rx="0.739709" ry="0.956521" fill="#A979EF"/>
<ellipse cx="39.2046" cy="39.2186" rx="0.739709" ry="0.956521" fill="#A979EF"/>
<ellipse cx="42.163" cy="39.2186" rx="0.739709" ry="0.956521" fill="#A979EF"/>
<ellipse cx="45.1235" cy="39.2186" rx="0.739709" ry="0.956521" fill="#A979EF"/>
<ellipse cx="48.082" cy="39.2186" rx="0.739709" ry="0.956521" fill="#A979EF"/>
<ellipse cx="51.0405" cy="39.2186" rx="0.739709" ry="0.956521" fill="#A979EF"/>
<ellipse cx="54.0009" cy="39.2186" rx="0.739709" ry="0.956521" fill="#A979EF"/>
<ellipse cx="56.9589" cy="39.2186" rx="0.739709" ry="0.956521" fill="#A979EF"/>
<ellipse cx="59.9174" cy="39.2186" rx="0.739709" ry="0.956521" fill="#A979EF"/>
<ellipse cx="62.8779" cy="39.2186" rx="0.739709" ry="0.956521" fill="#A979EF"/>
<ellipse cx="65.832" cy="39.2186" rx="0.739709" ry="0.956521" fill="#A979EF"/>
<ellipse cx="68.7924" cy="39.2186" rx="0.739709" ry="0.956521" fill="#A979EF"/>
<ellipse cx="71.7509" cy="39.2186" rx="0.739709" ry="0.956521" fill="#A979EF"/>
<ellipse cx="74.7114" cy="39.2186" rx="0.739709" ry="0.956521" fill="#A979EF"/>
<ellipse cx="77.6699" cy="39.2186" rx="0.739709" ry="0.956521" fill="#A979EF"/>
<ellipse cx="80.6284" cy="39.2186" rx="0.739709" ry="0.956521" fill="#A979EF"/>
<ellipse cx="83.5888" cy="39.2186" rx="0.739709" ry="0.956521" fill="#A979EF"/>
<ellipse cx="86.5449" cy="39.2186" rx="0.739709" ry="0.956521" fill="#A979EF"/>
<ellipse cx="89.5034" cy="39.2186" rx="0.739709" ry="0.956521" fill="#A979EF"/>
<ellipse cx="92.4638" cy="39.2186" rx="0.739709" ry="0.956521" fill="#A979EF"/>
<ellipse cx="95.4223" cy="39.2186" rx="0.739709" ry="0.956521" fill="#A979EF"/>
<ellipse cx="98.3828" cy="39.2186" rx="0.739709" ry="0.956521" fill="#A979EF"/>
<ellipse cx="101.341" cy="39.2186" rx="0.739709" ry="0.956521" fill="#A979EF"/>
<ellipse cx="104.299" cy="39.2186" rx="0.739709" ry="0.956521" fill="#A979EF"/>
<ellipse cx="107.26" cy="39.2186" rx="0.739709" ry="0.956521" fill="#A979EF"/>
<ellipse cx="110.214" cy="39.2186" rx="0.739709" ry="0.956521" fill="#A979EF"/>
<ellipse cx="113.174" cy="39.2186" rx="0.739709" ry="0.956521" fill="#A979EF"/>
<ellipse cx="116.133" cy="39.2186" rx="0.739709" ry="0.956521" fill="#A979EF"/>
<ellipse cx="119.091" cy="39.2186" rx="0.739709" ry="0.956521" fill="#A979EF"/>
<ellipse cx="122.052" cy="39.2186" rx="0.739709" ry="0.956521" fill="#A979EF"/>
<ellipse cx="125.01" cy="39.2186" rx="0.739709" ry="0.956521" fill="#A979EF"/>
<ellipse cx="127.968" cy="39.2186" rx="0.739709" ry="0.956521" fill="#A979EF"/>
<ellipse cx="0.739709" cy="43.0429" rx="0.739709" ry="0.956521" fill="#A979EF"/>
<ellipse cx="3.6982" cy="43.0429" rx="0.739709" ry="0.956521" fill="#A979EF"/>
<ellipse cx="6.65865" cy="43.0429" rx="0.739709" ry="0.956521" fill="#A979EF"/>
<ellipse cx="9.61715" cy="43.0429" rx="0.739709" ry="0.956521" fill="#A979EF"/>
<ellipse cx="12.5752" cy="43.0429" rx="0.739709" ry="0.956521" fill="#A979EF"/>
<ellipse cx="15.5356" cy="43.0429" rx="0.739709" ry="0.956521" fill="#A979EF"/>
<ellipse cx="18.4941" cy="43.0429" rx="0.739709" ry="0.956521" fill="#A979EF"/>
<ellipse cx="21.4502" cy="43.0429" rx="0.739709" ry="0.956521" fill="#A979EF"/>
<ellipse cx="24.4087" cy="43.0429" rx="0.739709" ry="0.956521" fill="#A979EF"/>
<ellipse cx="27.3691" cy="43.0429" rx="0.739709" ry="0.956521" fill="#A979EF"/>
<ellipse cx="30.3276" cy="43.0429" rx="0.739709" ry="0.956521" fill="#A979EF"/>
<ellipse cx="33.2861" cy="43.0429" rx="0.739709" ry="0.956521" fill="#A979EF"/>
<ellipse cx="36.2465" cy="43.0429" rx="0.739709" ry="0.956521" fill="#A979EF"/>
<ellipse cx="39.2046" cy="43.0429" rx="0.739709" ry="0.956521" fill="#A979EF"/>
<ellipse cx="42.163" cy="43.0429" rx="0.739709" ry="0.956521" fill="#A979EF"/>
<ellipse cx="45.1235" cy="43.0429" rx="0.739709" ry="0.956521" fill="#A979EF"/>
<ellipse cx="48.082" cy="43.0429" rx="0.739709" ry="0.956521" fill="#A979EF"/>
<ellipse cx="51.0405" cy="43.0429" rx="0.739709" ry="0.956521" fill="#A979EF"/>
<ellipse cx="54.0009" cy="43.0429" rx="0.739709" ry="0.956521" fill="#A979EF"/>
<ellipse cx="56.9589" cy="43.0429" rx="0.739709" ry="0.956521" fill="#A979EF"/>
<ellipse cx="59.9174" cy="43.0429" rx="0.739709" ry="0.956521" fill="#A979EF"/>
<ellipse cx="62.8779" cy="43.0429" rx="0.739709" ry="0.956521" fill="#A979EF"/>
<ellipse cx="65.832" cy="43.0429" rx="0.739709" ry="0.956521" fill="#A979EF"/>
<ellipse cx="68.7924" cy="43.0429" rx="0.739709" ry="0.956521" fill="#A979EF"/>
<ellipse cx="71.7509" cy="43.0429" rx="0.739709" ry="0.956521" fill="#A979EF"/>
<ellipse cx="74.7114" cy="43.0429" rx="0.739709" ry="0.956521" fill="#A979EF"/>
<ellipse cx="77.6699" cy="43.0429" rx="0.739709" ry="0.956521" fill="#A979EF"/>
<ellipse cx="80.6284" cy="43.0429" rx="0.739709" ry="0.956521" fill="#A979EF"/>
<ellipse cx="83.5888" cy="43.0429" rx="0.739709" ry="0.956521" fill="#A979EF"/>
<ellipse cx="86.5449" cy="43.0429" rx="0.739709" ry="0.956521" fill="#A979EF"/>
<ellipse cx="89.5034" cy="43.0429" rx="0.739709" ry="0.956521" fill="#A979EF"/>
<ellipse cx="92.4638" cy="43.0429" rx="0.739709" ry="0.956521" fill="#A979EF"/>
<ellipse cx="95.4223" cy="43.0429" rx="0.739709" ry="0.956521" fill="#A979EF"/>
<ellipse cx="98.3828" cy="43.0429" rx="0.739709" ry="0.956521" fill="#A979EF"/>
<ellipse cx="101.341" cy="43.0429" rx="0.739709" ry="0.956521" fill="#A979EF"/>
<ellipse cx="104.299" cy="43.0429" rx="0.739709" ry="0.956521" fill="#A979EF"/>
<ellipse cx="107.26" cy="43.0429" rx="0.739709" ry="0.956521" fill="#A979EF"/>
<ellipse cx="110.214" cy="43.0429" rx="0.739709" ry="0.956521" fill="#A979EF"/>
<ellipse cx="113.174" cy="43.0429" rx="0.739709" ry="0.956521" fill="#A979EF"/>
<ellipse cx="116.133" cy="43.0429" rx="0.739709" ry="0.956521" fill="#A979EF"/>
<ellipse cx="119.091" cy="43.0429" rx="0.739709" ry="0.956521" fill="#A979EF"/>
<ellipse cx="122.052" cy="43.0429" rx="0.739709" ry="0.956521" fill="#A979EF"/>
<ellipse cx="125.01" cy="43.0429" rx="0.739709" ry="0.956521" fill="#A979EF"/>
<ellipse cx="127.968" cy="43.0429" rx="0.739709" ry="0.956521" fill="#A979EF"/>
</svg>
