<svg width="742" height="162" viewBox="0 0 742 162" fill="none" xmlns="http://www.w3.org/2000/svg">
<path opacity="0.15" d="M27.1797 157.786L38.0986 117.536H0.845799L8.12508 90.1314H45.3779L51.1585 68.0794H13.9057L21.3991 40.8891H58.4378L68.5003 3.85042H96.7611L86.6986 40.8891H109.821L119.884 3.85042H148.144L138.082 40.8891H175.335L168.055 68.0794H130.802L124.808 90.1314H162.061L154.781 117.536H117.528L106.824 157.786H78.5629L89.2677 117.536H66.1453L55.4404 157.786H27.1797ZM73.6387 90.1314H96.547L102.542 68.0794H79.4193L73.6387 90.1314ZM238.829 158V31.0407H190.229V3.85042H316.546V31.0407H267.946V158H238.829ZM333.749 158V3.85042H434.375V31.0407H362.866V64.0116H421.529V91.2018H362.866V130.81H434.375V158H333.749ZM520.753 161.211C505.338 161.211 492.028 157.857 480.824 151.149C469.691 144.441 461.091 135.056 455.025 122.995C449.03 110.934 446.033 96.9111 446.033 80.9252C446.033 64.9393 449.03 50.916 455.025 38.8552C461.091 26.7944 469.691 17.4099 480.824 10.7015C492.028 3.99315 505.338 0.638971 520.753 0.638971C538.451 0.638971 553.295 5.02795 565.285 13.8059C577.346 22.5839 585.838 34.4662 590.762 49.453L561.431 57.5887C558.576 48.2398 553.759 40.9962 546.98 35.8579C540.2 30.6482 531.458 28.0433 520.753 28.0433C510.976 28.0433 502.804 30.22 496.239 34.5733C489.744 38.9266 484.856 45.064 481.573 52.9856C478.29 60.9072 476.649 70.2204 476.649 80.9252C476.649 91.63 478.29 100.943 481.573 108.865C484.856 116.786 489.744 122.924 496.239 127.277C502.804 131.63 510.976 133.807 520.753 133.807C531.458 133.807 540.2 131.202 546.98 125.993C553.759 120.783 558.576 113.539 561.431 104.262L590.762 112.397C585.838 127.384 577.346 139.267 565.285 148.045C553.295 156.822 538.451 161.211 520.753 161.211ZM614.333 158V3.85042H643.45V67.223H712.389V3.85042H741.506V158H712.389V94.4133H643.45V158H614.333Z" fill="#947BFF" fill-opacity="0.61"/>
</svg>
