<svg width="193" height="205" viewBox="0 0 193 205" fill="none" xmlns="http://www.w3.org/2000/svg">
<path fill-rule="evenodd" clip-rule="evenodd" d="M156.015 41.8885L187.356 66.9605L181.313 106.638L156.015 41.8885ZM152.706 33.4206L152.57 33.0716L152.2 33.0151L111.847 0.733977L15.9489 38.2019L0.448005 139.986L80.8453 204.303L176.744 166.835L184.428 116.375L184.891 115.796L184.621 115.106L192.245 65.0504L152.706 33.4206ZM178.749 123.474L134.881 178.31L172.645 163.556L178.749 123.474ZM120.751 183.831L48.8426 172.88L81.6356 199.114L120.751 183.831ZM38.9443 164.961L11.8166 95.5287L5.33693 138.076L38.9443 164.961ZM13.6295 83.6244L59.7541 25.9673L20.0476 41.4808L13.6295 83.6244ZM72.7023 20.9083L111.057 5.92296L143.212 31.6464L72.7023 20.9083ZM106.964 35.4166L127.183 51.591L82.8473 44.8391L106.964 35.4166ZM108.707 30.9895L136.17 52.9598L136.67 53.0359L136.854 53.5067L164.231 75.4078L149.291 37.1702L108.707 30.9895ZM106.618 30.6715L66.6779 24.5889L41.4402 56.1368L106.618 30.6715ZM39.5347 58.5187L14.4755 89.8434L29.0739 127.208L39.5347 58.5187ZM30.1549 129.974L44.8864 167.679L84.9057 173.774L30.1549 129.974ZM86.8361 174.068L127.5 180.261L153.195 148.141L86.8361 174.068ZM153.829 147.349L179.702 115.006L164.629 76.4278L159.351 111.088L159.474 111.404L159.262 111.669L153.829 147.349ZM159.836 77.7129L156.043 102.62L140.162 61.9745L159.836 77.7129ZM125.257 154.177L153.583 118.768L149.642 144.649L125.257 154.177ZM64.8179 151.883L112.53 159.149L86.5763 169.289L64.8179 151.883ZM33.7047 126.993L38.0049 98.7562L56.0082 144.835L33.7047 126.993ZM69.5839 50.0212L39.7467 87.3185L43.8985 60.0566L69.5839 50.0212ZM133.391 57.1345L76.6298 48.4902L40.763 93.3248L61.6574 146.804L118.419 155.448L154.285 110.613L133.391 57.1345Z" fill="#5B27A8" fill-opacity="0.3"/>
</svg>
