<svg width="471" height="419" viewBox="0 0 471 419" fill="none" xmlns="http://www.w3.org/2000/svg">
<path d="M125.772 28.7735C125.772 28.7735 135.097 -3.4781 175.652 0.310979C167.082 23.2379 125.772 28.7735 125.772 28.7735Z" fill="white"/>
<path d="M94.1718 49.5245C94.1718 49.5245 86.194 16.9177 123.256 0C127.237 24.1406 94.1718 49.5245 94.1718 49.5245Z" fill="white"/>
<path d="M95.104 51.7151C95.104 51.7151 121.894 71.9482 152.103 44.6106C131.5 31.3932 95.104 51.7151 95.104 51.7151Z" fill="white"/>
<path d="M64.599 80.592C64.599 80.592 50.5676 50.1018 83.7369 26.4348C92.2327 49.3765 64.599 80.592 64.599 80.592Z" fill="white"/>
<path d="M65.9312 82.5609C65.9312 82.5609 96.081 97.3324 120.532 64.7552C97.7979 55.6821 65.9312 82.5609 65.9312 82.5609Z" fill="white"/>
<path d="M42.9449 118.216C42.9449 118.216 21.8089 92.1367 48.1105 61.01C62.0235 81.1543 42.9449 118.216 42.9449 118.216Z" fill="white"/>
<path d="M44.7212 119.8C44.7212 119.8 77.5796 126.668 93.2244 89.0436C68.9654 85.891 44.7212 119.8 44.7212 119.8Z" fill="white"/>
<path d="M27.6558 157.631C27.6558 157.631 1.66502 136.392 21.0545 100.573C38.7862 117.461 27.6558 157.631 27.6558 157.631Z" fill="white"/>
<path d="M29.7134 158.816C29.7134 158.816 63.2823 158.846 70.9492 118.838C46.5422 120.673 29.7134 158.816 29.7134 158.816Z" fill="white"/>
<path d="M23.0672 201.872C23.0672 201.872 -6.78667 186.524 4.72859 147.449C25.5833 160.266 23.0672 201.872 23.0672 201.872Z" fill="white"/>
<path d="M25.3315 202.613C25.3315 202.613 58.1752 195.641 57.3315 154.924C33.8422 161.806 25.3315 202.613 25.3315 202.613Z" fill="white"/>
<path d="M27.5964 244.736C27.5964 244.736 -4.38879 234.523 0.510371 194.087C23.2005 203.293 27.5964 244.736 27.5964 244.736Z" fill="white"/>
<path d="M29.9497 245.091C29.9497 245.091 61.18 232.792 53.6315 192.77C31.5926 203.441 29.9497 245.091 29.9497 245.091Z" fill="white"/>
<path d="M43.715 286.727C43.715 286.727 10.2053 284.877 4.78809 244.5C29.0323 247.711 43.715 286.727 43.715 286.727Z" fill="white"/>
<path d="M46.0682 286.475C46.0682 286.475 73.2134 266.731 55.837 229.876C37.2024 245.743 46.0682 286.475 46.0682 286.475Z" fill="white"/>
<path d="M66.0347 324.884C66.0347 324.884 32.9987 330.819 18.4048 292.795C42.7526 290.308 66.0347 324.884 66.0347 324.884Z" fill="white"/>
<path d="M68.2845 324.084C68.2845 324.084 90.131 298.597 64.7175 266.76C50.242 286.504 68.2845 324.084 68.2845 324.084Z" fill="white"/>
<path d="M98.7011 355.759C98.7011 355.759 68.344 370.087 44.3662 337.169C67.2191 328.437 98.7011 355.759 98.7011 355.759Z" fill="white"/>
<path d="M100.655 354.412C100.655 354.412 115.116 324.129 82.3015 299.989C73.4653 322.812 100.655 354.412 100.655 354.412Z" fill="white"/>
<path d="M133.469 378.257C133.469 378.257 105.213 396.374 77.1802 366.816C98.7306 355.212 133.469 378.257 133.469 378.257Z" fill="white"/>
<path d="M135.23 376.673C135.23 376.673 145.679 344.777 110.024 325.062C104.192 348.847 135.23 376.673 135.23 376.673Z" fill="white"/>
<path d="M177.961 394.464C177.961 394.464 154.338 418.308 120.533 395.559C139.034 379.529 177.961 394.464 177.961 394.464Z" fill="white"/>
<path d="M179.337 392.525C179.337 392.525 182.579 359.119 143.489 347.648C142.986 372.114 179.337 392.525 179.337 392.525Z" fill="white"/>
<path d="M221.92 396.256C221.92 396.256 207.03 426.331 167.778 415.423C180.285 394.376 221.92 396.256 221.92 396.256Z" fill="white"/>
<path d="M222.616 393.976C222.616 393.976 215.141 361.25 174.438 362.716C181.691 386.087 222.616 393.976 222.616 393.976Z" fill="white"/>
<path d="M345.228 29.084C345.228 29.084 335.903 -3.16756 295.348 0.621526C303.918 23.5336 345.228 29.084 345.228 29.084Z" fill="white"/>
<path d="M376.828 49.8353C376.828 49.8353 384.806 17.2284 347.744 0.310791C343.748 24.4514 376.828 49.8353 376.828 49.8353Z" fill="white"/>
<path d="M375.896 52.026C375.896 52.026 349.106 72.2591 318.897 44.9215C339.5 31.6893 375.896 52.026 375.896 52.026Z" fill="white"/>
<path d="M406.401 80.9028C406.401 80.9028 420.433 50.4126 387.263 26.7456C378.753 49.6873 406.401 80.9028 406.401 80.9028Z" fill="white"/>
<path d="M405.069 82.8717C405.069 82.8717 374.919 97.6432 350.468 65.066C373.202 55.9929 405.069 82.8717 405.069 82.8717Z" fill="white"/>
<path d="M428.055 118.527C428.055 118.527 449.191 92.4475 422.889 61.3208C408.976 81.4651 428.055 118.527 428.055 118.527Z" fill="white"/>
<path d="M426.279 120.111C426.279 120.111 393.421 126.979 377.776 89.3545C402.035 86.1871 426.279 120.111 426.279 120.111Z" fill="white"/>
<path d="M443.33 157.943C443.33 157.943 469.32 136.703 449.931 100.884C432.214 117.772 443.33 157.943 443.33 157.943Z" fill="white"/>
<path d="M441.273 159.127C441.273 159.127 407.704 159.156 400.037 119.149C424.444 120.984 441.273 159.127 441.273 159.127Z" fill="white"/>
<path d="M447.933 202.183C447.933 202.183 477.787 186.835 466.272 147.76C445.417 160.578 447.933 202.183 447.933 202.183Z" fill="white"/>
<path d="M445.668 202.909C445.668 202.909 412.825 195.937 413.668 155.219C437.158 162.102 445.668 202.909 445.668 202.909Z" fill="white"/>
<path d="M443.404 245.047C443.404 245.047 475.389 234.834 470.49 194.397C447.8 203.589 443.404 245.047 443.404 245.047Z" fill="white"/>
<path d="M441.051 245.402C441.051 245.402 409.82 233.103 417.369 193.08C439.393 203.737 441.051 245.402 441.051 245.402Z" fill="white"/>
<path d="M427.286 287.037C427.286 287.037 460.795 285.187 466.213 244.81C441.954 248.021 427.286 287.037 427.286 287.037Z" fill="white"/>
<path d="M424.932 286.786C424.932 286.786 397.787 267.041 415.163 230.187C433.783 246.053 424.932 286.786 424.932 286.786Z" fill="white"/>
<path d="M404.951 325.195C404.951 325.195 437.987 331.13 452.581 293.106C428.248 290.619 404.951 325.195 404.951 325.195Z" fill="white"/>
<path d="M402.715 324.396C402.715 324.396 380.869 298.908 406.283 267.071C420.743 286.816 402.715 324.396 402.715 324.396Z" fill="white"/>
<path d="M372.299 356.07C372.299 356.07 402.656 370.398 426.634 337.48C403.781 328.732 372.299 356.07 372.299 356.07Z" fill="white"/>
<path d="M370.346 354.723C370.346 354.723 355.885 324.44 388.699 300.299C397.535 323.123 370.346 354.723 370.346 354.723Z" fill="white"/>
<path d="M337.531 378.568C337.531 378.568 365.787 396.685 393.82 367.127C372.269 355.523 337.531 378.568 337.531 378.568Z" fill="white"/>
<path d="M335.77 376.984C335.77 376.984 325.321 345.088 360.977 325.373C366.793 349.143 335.77 376.984 335.77 376.984Z" fill="white"/>
<path d="M293.039 394.76C293.039 394.76 316.662 418.604 350.467 395.855C331.951 379.84 293.039 394.76 293.039 394.76Z" fill="white"/>
<path d="M291.663 392.836C291.663 392.836 288.421 359.43 327.511 347.959C328.014 372.425 291.663 392.836 291.663 392.836Z" fill="white"/>
<path d="M249.065 396.552C249.065 396.552 263.955 426.627 303.208 415.719C290.716 394.687 249.065 396.552 249.065 396.552Z" fill="white"/>
<path d="M248.37 394.287C248.37 394.287 255.844 361.561 296.547 363.027C289.309 386.398 248.37 394.287 248.37 394.287Z" fill="white"/>
</svg>
